<svg width="244" height="54" viewBox="0 0 244 54" fill="none" xmlns="http://www.w3.org/2000/svg">
<rect width="244" height="54" fill="#505050"/>
<path d="M42.975 17.008L36.059 37H32.223L25.307 17.008H28.975L33.007 29.244C33.119 29.58 33.2497 30.0187 33.399 30.56C33.5484 31.0827 33.6884 31.624 33.819 32.184C33.9684 32.744 34.0804 33.2293 34.155 33.64C34.211 33.2293 34.3044 32.744 34.435 32.184C34.5657 31.624 34.7057 31.0827 34.855 30.56C35.0044 30.0187 35.1444 29.58 35.275 29.244L39.307 17.008H42.975ZM59.6442 29.384C59.6442 31.904 58.9909 33.8547 57.6842 35.236C56.3776 36.5987 54.6042 37.28 52.3642 37.28C50.9829 37.28 49.7509 36.972 48.6682 36.356C47.5856 35.74 46.7362 34.844 46.1202 33.668C45.5042 32.492 45.1962 31.064 45.1962 29.384C45.1962 26.864 45.8402 24.932 47.1282 23.588C48.4349 22.2253 50.2082 21.544 52.4482 21.544C53.8482 21.544 55.0896 21.852 56.1722 22.468C57.2549 23.0653 58.1042 23.952 58.7202 25.128C59.3362 26.2853 59.6442 27.704 59.6442 29.384ZM48.8082 29.384C48.8082 30.9893 49.0882 32.2307 49.6482 33.108C50.2269 33.9853 51.1509 34.424 52.4202 34.424C53.6896 34.424 54.6042 33.9853 55.1642 33.108C55.7429 32.2307 56.0322 30.9893 56.0322 29.384C56.0322 27.7787 55.7429 26.5467 55.1642 25.688C54.6042 24.8293 53.6802 24.4 52.3922 24.4C51.1416 24.4 50.2269 24.8293 49.6482 25.688C49.0882 26.5467 48.8082 27.7787 48.8082 29.384ZM68.2194 37H64.6914V15.72H68.2194V37ZM77.6305 37L71.8625 21.824H75.5865L78.6105 30.588C78.7972 31.1293 78.9652 31.7267 79.1145 32.38C79.2825 33.0333 79.3852 33.584 79.4225 34.032H79.5345C79.5905 33.5653 79.7025 33.0147 79.8705 32.38C80.0385 31.7267 80.2158 31.1293 80.4025 30.588L83.4265 21.824H87.1505L81.3825 37H77.6305ZM96.9197 21.544C98.9543 21.544 100.56 22.1507 101.736 23.364C102.93 24.5773 103.528 26.2667 103.528 28.432V30.224H93.5037C93.541 31.6053 93.9237 32.6787 94.6517 33.444C95.3797 34.1907 96.3877 34.564 97.6757 34.564C98.6463 34.564 99.5237 34.4707 100.308 34.284C101.092 34.0787 101.894 33.7893 102.716 33.416V36.244C101.969 36.5987 101.194 36.86 100.392 37.028C99.589 37.196 98.6277 37.28 97.5077 37.28C96.033 37.28 94.717 37 93.5597 36.44C92.421 35.8613 91.525 34.9933 90.8717 33.836C90.237 32.6787 89.9197 31.2413 89.9197 29.524C89.9197 26.9293 90.5637 24.9507 91.8517 23.588C93.1397 22.2253 94.829 21.544 96.9197 21.544ZM96.9197 24.148C95.9677 24.148 95.193 24.456 94.5957 25.072C94.017 25.6693 93.681 26.5653 93.5877 27.76H100.112C100.093 26.7147 99.8223 25.856 99.2997 25.184C98.7957 24.4933 98.0023 24.148 96.9197 24.148ZM116.437 21.544C116.68 21.544 116.941 21.5533 117.221 21.572C117.52 21.5907 117.772 21.628 117.977 21.684L117.669 24.96C117.483 24.9227 117.259 24.8947 116.997 24.876C116.736 24.8387 116.503 24.82 116.297 24.82C115.551 24.82 114.851 24.9787 114.197 25.296C113.544 25.5947 113.012 26.0707 112.601 26.724C112.209 27.3587 112.013 28.1613 112.013 29.132V37H108.485V21.824H111.201L111.705 24.456H111.873C112.321 23.6533 112.937 22.972 113.721 22.412C114.505 21.8333 115.411 21.544 116.437 21.544ZM136.911 21.544C138.871 21.544 140.355 21.9733 141.363 22.832C142.39 23.6907 142.903 25.016 142.903 26.808V37H140.411L139.711 34.9H139.599C138.946 35.7213 138.255 36.328 137.527 36.72C136.799 37.0933 135.81 37.28 134.559 37.28C133.197 37.28 132.067 36.8973 131.171 36.132C130.275 35.3667 129.827 34.1813 129.827 32.576C129.827 31.008 130.397 29.832 131.535 29.048C132.693 28.264 134.438 27.8253 136.771 27.732L139.403 27.648V26.892C139.403 25.94 139.17 25.2587 138.703 24.848C138.237 24.4187 137.583 24.204 136.743 24.204C135.978 24.204 135.241 24.316 134.531 24.54C133.841 24.764 133.15 25.0253 132.459 25.324L131.339 22.86C132.086 22.468 132.935 22.1507 133.887 21.908C134.858 21.6653 135.866 21.544 136.911 21.544ZM137.555 29.888C136.006 29.944 134.933 30.2147 134.335 30.7C133.738 31.1667 133.439 31.8013 133.439 32.604C133.439 33.332 133.645 33.8547 134.055 34.172C134.485 34.4707 135.045 34.62 135.735 34.62C136.762 34.62 137.63 34.3307 138.339 33.752C139.049 33.1547 139.403 32.2773 139.403 31.12V29.832L137.555 29.888ZM156.676 21.544C156.919 21.544 157.18 21.5533 157.46 21.572C157.759 21.5907 158.011 21.628 158.216 21.684L157.908 24.96C157.722 24.9227 157.498 24.8947 157.236 24.876C156.975 24.8387 156.742 24.82 156.536 24.82C155.79 24.82 155.09 24.9787 154.436 25.296C153.783 25.5947 153.251 26.0707 152.84 26.724C152.448 27.3587 152.252 28.1613 152.252 29.132V37H148.724V21.824H151.44L151.944 24.456H152.112C152.56 23.6533 153.176 22.972 153.96 22.412C154.744 21.8333 155.65 21.544 156.676 21.544ZM170.381 21.544C170.624 21.544 170.885 21.5533 171.165 21.572C171.464 21.5907 171.716 21.628 171.921 21.684L171.613 24.96C171.426 24.9227 171.202 24.8947 170.941 24.876C170.68 24.8387 170.446 24.82 170.241 24.82C169.494 24.82 168.794 24.9787 168.141 25.296C167.488 25.5947 166.956 26.0707 166.545 26.724C166.153 27.3587 165.957 28.1613 165.957 29.132V37H162.429V21.824H165.145L165.649 24.456H165.817C166.265 23.6533 166.881 22.972 167.665 22.412C168.449 21.8333 169.354 21.544 170.381 21.544ZM177.898 15.972C178.439 15.972 178.896 16.112 179.27 16.392C179.662 16.6533 179.858 17.1293 179.858 17.82C179.858 18.5107 179.662 18.996 179.27 19.276C178.896 19.556 178.439 19.696 177.898 19.696C177.356 19.696 176.89 19.556 176.498 19.276C176.124 18.996 175.938 18.5107 175.938 17.82C175.938 17.1293 176.124 16.6533 176.498 16.392C176.89 16.112 177.356 15.972 177.898 15.972ZM179.662 21.824V37H176.134V21.824H179.662ZM189.101 20.76C189.101 21.3573 189.082 21.936 189.045 22.496C189.007 23.056 188.97 23.4947 188.933 23.812H189.101C189.511 23.1773 190.071 22.6453 190.781 22.216C191.49 21.768 192.414 21.544 193.553 21.544C195.307 21.544 196.726 22.2067 197.809 23.532C198.91 24.8573 199.461 26.808 199.461 29.384C199.461 31.9973 198.91 33.9667 197.809 35.292C196.707 36.6173 195.261 37.28 193.469 37.28C192.33 37.28 191.415 37.0747 190.725 36.664C190.053 36.2533 189.511 35.7773 189.101 35.236H188.849L188.205 37H185.573V15.72H189.101V20.76ZM192.545 24.4C191.275 24.4 190.389 24.7827 189.885 25.548C189.381 26.3133 189.119 27.4893 189.101 29.076V29.384C189.101 31.008 189.343 32.2493 189.829 33.108C190.333 33.9667 191.257 34.396 192.601 34.396C193.646 34.396 194.449 33.9667 195.009 33.108C195.569 32.2307 195.849 30.98 195.849 29.356C195.849 27.6947 195.559 26.4533 194.981 25.632C194.421 24.8107 193.609 24.4 192.545 24.4ZM210.548 21.544C212.508 21.544 213.992 21.9733 215 22.832C216.027 23.6907 216.54 25.016 216.54 26.808V37H214.048L213.348 34.9H213.236C212.583 35.7213 211.892 36.328 211.164 36.72C210.436 37.0933 209.447 37.28 208.196 37.28C206.833 37.28 205.704 36.8973 204.808 36.132C203.912 35.3667 203.464 34.1813 203.464 32.576C203.464 31.008 204.033 29.832 205.172 29.048C206.329 28.264 208.075 27.8253 210.408 27.732L213.04 27.648V26.892C213.04 25.94 212.807 25.2587 212.34 24.848C211.873 24.4187 211.22 24.204 210.38 24.204C209.615 24.204 208.877 24.316 208.168 24.54C207.477 24.764 206.787 25.0253 206.096 25.324L204.976 22.86C205.723 22.468 206.572 22.1507 207.524 21.908C208.495 21.6653 209.503 21.544 210.548 21.544ZM211.192 29.888C209.643 29.944 208.569 30.2147 207.972 30.7C207.375 31.1667 207.076 31.8013 207.076 32.604C207.076 33.332 207.281 33.8547 207.692 34.172C208.121 34.4707 208.681 34.62 209.372 34.62C210.399 34.62 211.267 34.3307 211.976 33.752C212.685 33.1547 213.04 32.2773 213.04 31.12V29.832L211.192 29.888Z" fill="white"/>
</svg>
