<svg width="76" height="80" viewBox="0 0 76 80" fill="none" xmlns="http://www.w3.org/2000/svg">
<path d="M38.9453 41.3666H73.7498V78.4376H38.9453V41.3666Z" fill="white"/>
<path d="M45.4984 41.3664H73.7498V32.9954H38.9453" fill="#A9F0FF"/>
<path d="M73.7508 26.3084C73.7508 22.6296 70.7686 19.6475 67.0898 19.6475H45.6072C41.9285 19.6475 38.9463 22.6296 38.9463 26.3084V32.9952H73.7508V26.3084Z" fill="white"/>
<path d="M47.9912 12.5366H64.7035V19.6477H47.9912V12.5366Z" fill="#FF7D97"/>
<path d="M52.6787 1.56262H60.016V12.5367H52.6787V1.56262Z" fill="#A9F0FF"/>
<path d="M35.8118 19.9775C35.8118 22.5686 33.7114 24.6691 31.1203 24.6691C28.5292 24.6691 26.4287 22.5686 26.4287 19.9775C26.4287 17.3865 31.1203 12.5366 31.1203 12.5366C31.1203 12.5366 35.8118 17.3865 35.8118 19.9775Z" fill="#FAF7F5"/>
<path d="M45.0778 42.8507C45.0778 46.2377 42.3322 48.9833 38.9451 48.9833C35.5581 48.9833 32.8125 46.2377 32.8125 42.8507C32.8125 39.4636 38.9451 33.1243 38.9451 33.1243C38.9451 33.1243 45.0778 39.4636 45.0778 42.8507Z" fill="#FAF7F5"/>
<path d="M25.7773 65.2652L49.34 52.4933C51.2835 51.3879 53.7562 52.103 54.8098 54.0752C55.7667 55.8663 55.2193 58.0905 53.5407 59.233L27.4267 77.0078L25.7773 65.2652Z" fill="#DD9F83"/>
<path d="M34.0488 66.6855L57.6114 53.9136C59.555 52.8081 62.0277 53.5233 63.0813 55.4955C64.0381 57.2866 63.4908 59.5108 61.8122 60.6533L35.6982 78.4281L34.0488 66.6855Z" fill="#DD9F83"/>
<path d="M1.5625 63.0166L19.1021 56.0497C22.657 54.9308 26.3876 54.4777 30.107 54.713L42.4724 55.4957C45.1819 55.4938 47.0208 58.2499 45.9796 60.7513L45.9432 60.8388C45.333 62.3044 43.923 63.2444 42.3588 63.2433C37.0443 63.24 25.3757 63.24 25.3757 63.24L43.1302 68.1691L62.6649 57.1899C64.6292 56.0858 67.1178 56.8902 68.0642 58.9354C68.8933 60.7269 68.2385 62.8554 66.5456 63.8711L47.4294 75.3408C42.2885 78.4253 36.1015 79.2488 30.3328 77.6163L14.8954 73.2474L1.5625 76.8991V63.0166Z" fill="#DD9F83"/>
<path d="M67.0889 18.0851H66.2663V12.5365C66.2663 11.6736 65.5666 10.974 64.7038 10.974H61.5788V3.12499H65.8674C66.7302 3.12499 67.4299 2.42546 67.4299 1.5625C67.4299 0.69953 66.7302 0 65.8674 0H41.999C39.7532 0 37.5785 0.658124 35.7098 1.90343L30.749 5.20905C30.0307 5.68765 29.8367 6.65764 30.3153 7.37577C30.6163 7.82764 31.112 8.07202 31.6168 8.07202C31.9145 8.07202 32.2156 7.98717 32.4818 7.80967L37.4426 4.50405C38.7965 3.60187 40.372 3.12499 41.999 3.12499H51.1165V10.974H47.9915C47.1287 10.974 46.429 11.6736 46.429 12.5365V18.0851H45.6063C41.0718 18.0851 37.3829 21.7742 37.3829 26.3085V32.501C35.7046 34.3001 31.2502 39.4002 31.2502 42.8507C31.2502 46.5585 33.8863 49.6624 37.3829 50.3863V53.6079L30.2056 53.1536C26.2789 52.9052 22.3854 53.3782 18.6331 54.5593C18.5967 54.5707 18.5607 54.5835 18.5254 54.5975L0.985779 61.5644C0.390624 61.8008 0 62.3763 0 63.0166V76.8992C0 77.3866 0.227343 77.8459 0.614842 78.1414C1.00219 78.437 1.505 78.5353 1.97531 78.4061L14.8887 74.8692L29.9074 79.1197C31.977 79.7055 34.1042 79.9939 36.2265 79.9938C36.9459 79.9938 37.6648 79.9605 38.3802 79.8945C38.5555 79.9627 38.7462 80 38.9454 80H73.7499C74.6127 80 75.3123 79.3005 75.3123 78.4375V66.1294C75.3123 65.2664 74.6127 64.5669 73.7499 64.5669C72.887 64.5669 72.1874 65.2664 72.1874 66.1294V76.8748H47.9032C48.0137 76.8111 48.1238 76.7463 48.2333 76.6805L67.3499 65.2107C69.7327 63.781 70.6494 60.8008 69.4822 58.2789C68.8488 56.91 67.6624 55.8588 66.2271 55.3949C65.7108 55.228 65.1763 55.1416 64.6421 55.1336C64.586 55.0068 64.5252 54.8819 64.4596 54.7593C63.7497 53.4304 62.5618 52.468 61.1146 52.0494C59.6725 51.6324 58.1604 51.809 56.8541 52.5468L55.9985 53.0105C55.276 51.8516 54.1682 51.0124 52.843 50.6291C51.4013 50.2121 49.8893 50.3888 48.5829 51.1266L43.2909 53.9951C43.0396 53.9566 42.784 53.9355 42.5257 53.9332L40.5079 53.8055V50.3862C43.9798 49.6672 46.6033 46.6019 46.6401 42.9287H72.1874V52.0022C72.1874 52.8652 72.887 53.5647 73.7499 53.5647C74.6127 53.5647 75.3123 52.8652 75.3123 52.0022V26.3085C75.3123 21.774 71.6235 18.0851 67.0889 18.0851ZM66.6461 59.5914C67.1411 60.661 66.7524 61.9247 65.7419 62.5311L46.6255 74.0008C41.8735 76.8519 36.0906 77.6217 30.7581 76.1127L15.3209 71.7438C15.1817 71.7044 15.0386 71.6847 14.8953 71.6847C14.7564 71.6847 14.6176 71.7031 14.4825 71.7402L3.12499 74.8511V64.0772L19.6253 57.5232C22.9929 56.4702 26.4857 56.0493 30.0082 56.2724L42.3738 57.055C42.4066 57.0571 42.4396 57.0582 42.4726 57.0582H42.4754C43.2344 57.0582 43.9115 57.4204 44.333 58.0518C44.7549 58.6839 44.8296 59.449 44.5379 60.1497L44.501 60.2382C44.1362 61.1146 43.2966 61.6807 42.3616 61.6807H42.3601C37.0452 61.6774 25.3762 61.6774 25.3762 61.6774C24.5948 61.6774 23.9335 62.2547 23.8281 63.0289C23.7225 63.8033 24.2053 64.5364 24.9582 64.7455L42.7127 69.6744C43.1107 69.7849 43.5363 69.7335 43.8962 69.531L63.4307 58.5519C63.9966 58.2338 64.6483 58.1688 65.266 58.3683C65.8833 58.568 66.3735 59.0024 66.6461 59.5914ZM58.3561 55.2872C58.3655 55.2822 58.3747 55.2771 58.3839 55.2718C58.9544 54.9474 59.6157 54.8693 60.2463 55.0515C60.7939 55.2097 61.2564 55.5471 61.5711 56.0122L42.9269 66.491L36.8496 64.8038C38.9184 64.8043 40.8827 64.8049 42.3579 64.8058H42.3612C44.5623 64.8058 46.5343 63.4846 47.3852 61.4402L47.4221 61.3518C47.4463 61.2936 47.4693 61.2352 47.4913 61.1764L58.3561 55.2872ZM50.0851 53.8671C50.0944 53.8621 50.1036 53.8569 50.1129 53.8516C50.6833 53.5271 51.3449 53.449 51.9751 53.6313C52.4885 53.7797 52.9269 54.0854 53.2391 54.5065L47.5562 57.5869C47.4071 57.1438 47.1987 56.7166 46.9321 56.3171C46.8091 56.1329 46.676 55.9577 46.5335 55.7922L50.0851 53.8671ZM54.2415 3.12499H58.4539V10.974H54.2415V3.12499ZM49.554 14.099H63.1414V18.0851H49.554V14.099ZM40.5079 26.3085C40.5079 23.4973 42.7951 21.2101 45.6063 21.2101H67.0889C69.9002 21.2101 72.1874 23.4973 72.1874 26.3085V31.4329H40.5079V26.3085ZM38.9454 47.4208C36.4254 47.4208 34.3752 45.3707 34.3752 42.8507C34.3752 41.2415 36.7743 37.901 38.9454 35.432C41.1166 37.9013 43.5155 41.2415 43.5155 42.8507C43.5155 45.3707 41.4654 47.4208 38.9454 47.4208ZM45.814 39.8038C44.9455 37.9591 43.538 36.046 42.3115 34.5579H72.1874V39.8038H45.814Z" fill="black"/>
<path d="M31.1204 26.2314C34.5688 26.2314 37.3745 23.4258 37.3745 19.9774C37.3745 16.9097 33.1003 12.3358 32.2434 11.4502C31.949 11.1458 31.5437 10.9741 31.1203 10.9741C30.6968 10.9741 30.2915 11.146 29.9971 11.4502C29.1404 12.3358 24.8662 16.9097 24.8662 19.9774C24.8664 23.4258 27.6718 26.2314 31.1204 26.2314ZM31.1204 14.8611C32.7792 16.8013 34.2495 19.0221 34.2495 19.9772C34.2495 21.7025 32.8459 23.1063 31.1204 23.1063C29.3951 23.1063 27.9915 21.7025 27.9915 19.9772C27.9914 19.0221 29.4617 16.8013 31.1204 14.8611Z" fill="black"/>
<path d="M74.6166 57.7951C74.0577 57.4226 73.3046 57.4548 72.7783 57.871C72.2533 58.2863 72.0502 59.0187 72.2883 59.6448C72.5174 60.247 73.1038 60.656 73.7494 60.656C74.4021 60.656 74.9968 60.2366 75.2185 59.6235C75.4603 58.9551 75.205 58.1912 74.6166 57.7951Z" fill="black"/>
</svg>
