<svg width="663" height="421" viewBox="0 0 663 421" fill="none" xmlns="http://www.w3.org/2000/svg">
<path d="M559.549 224.88H658" stroke="black" stroke-width="10" stroke-linecap="round" stroke-linejoin="round"/>
<path d="M559.549 198.483H658" stroke="black" stroke-width="10" stroke-linecap="round" stroke-linejoin="round"/>
<path d="M541.886 202.407C541.886 199.646 539.648 197.407 536.886 197.407C534.125 197.407 531.886 199.646 531.886 202.407H541.886ZM524.235 176.462C526.996 176.462 529.235 174.223 529.235 171.462C529.235 168.7 526.996 166.462 524.235 166.462V176.462ZM531.886 202.407V220.135H541.886V202.407H531.886ZM531.886 220.135H488.213V230.135H531.886V220.135ZM488.213 220.135V176.462H478.213V220.135H488.213ZM488.213 176.462H524.235V166.462H488.213V176.462ZM488.213 220.135H488.213H478.213C478.213 225.658 482.691 230.135 488.213 230.135V220.135ZM531.886 220.135V220.135V230.135C537.409 230.135 541.886 225.658 541.886 220.135H531.886ZM488.213 176.462L488.213 176.462V166.462C482.691 166.462 478.213 170.939 478.213 176.462H488.213Z" fill="black"/>
<path d="M513.173 212.64L496.666 193.626C494.971 191.673 497.093 188.76 499.443 189.814L512.964 195.877C513.856 196.278 514.899 196.092 515.602 195.407L547.605 164.237C549.743 162.155 552.981 165.08 551.172 167.458L516.878 212.519C515.957 213.73 514.17 213.788 513.173 212.64Z" fill="black"/>
<path d="M559.549 320.307H658" stroke="black" stroke-width="10" stroke-linecap="round" stroke-linejoin="round"/>
<path d="M559.549 293.91H658" stroke="black" stroke-width="10" stroke-linecap="round" stroke-linejoin="round"/>
<path d="M541.886 297.834C541.886 295.073 539.648 292.834 536.886 292.834C534.125 292.834 531.886 295.073 531.886 297.834H541.886ZM524.235 271.889C526.996 271.889 529.235 269.65 529.235 266.889C529.235 264.127 526.996 261.889 524.235 261.889V271.889ZM531.886 297.834V315.562H541.886V297.834H531.886ZM531.886 315.562H488.213V325.562H531.886V315.562ZM488.213 315.562V271.889H478.213V315.562H488.213ZM488.213 271.889H524.235V261.889H488.213V271.889ZM488.213 315.562H488.213H478.213C478.213 321.085 482.691 325.562 488.213 325.562V315.562ZM531.886 315.562V315.562V325.562C537.409 325.562 541.886 321.085 541.886 315.562H531.886ZM488.213 271.889L488.213 271.889V261.889C482.691 261.889 478.213 266.366 478.213 271.889H488.213Z" fill="black"/>
<path d="M513.173 308.066L496.666 289.053C494.971 287.1 497.093 284.187 499.443 285.241L512.964 291.304C513.856 291.704 514.899 291.518 515.602 290.834L547.605 259.664C549.743 257.581 552.981 260.506 551.172 262.884L516.878 307.946C515.957 309.156 514.17 309.215 513.173 308.066Z" fill="black"/>
<path d="M559.549 415.733H658" stroke="black" stroke-width="10" stroke-linecap="round" stroke-linejoin="round"/>
<path d="M559.549 389.337H658" stroke="black" stroke-width="10" stroke-linecap="round" stroke-linejoin="round"/>
<path d="M541.886 393.261C541.886 390.499 539.648 388.261 536.886 388.261C534.125 388.261 531.886 390.499 531.886 393.261H541.886ZM524.235 367.315C526.996 367.315 529.235 365.077 529.235 362.315C529.235 359.554 526.996 357.315 524.235 357.315V367.315ZM531.886 393.261V410.988H541.886V393.261H531.886ZM531.886 410.988H488.213V420.988H531.886V410.988ZM488.213 410.988V367.315H478.213V410.988H488.213ZM488.213 367.315H524.235V357.315H488.213V367.315ZM488.213 410.988H488.213H478.213C478.213 416.511 482.691 420.988 488.213 420.988V410.988ZM531.886 410.988V410.988V420.988C537.409 420.988 541.886 416.511 541.886 410.988H531.886ZM488.213 367.315L488.213 367.315V357.315C482.691 357.315 478.213 361.792 478.213 367.315H488.213Z" fill="black"/>
<path d="M513.173 403.493L496.667 384.479C494.972 382.527 497.094 379.614 499.443 380.667L512.964 386.731C513.856 387.131 514.9 386.945 515.602 386.26L547.605 355.09C549.743 353.008 552.982 355.933 551.172 358.311L516.878 403.372C515.957 404.583 514.17 404.641 513.173 403.493Z" fill="black"/>
<path d="M559.549 129.453H658" stroke="black" stroke-width="10" stroke-linecap="round" stroke-linejoin="round"/>
<path d="M559.549 103.057H658" stroke="black" stroke-width="10" stroke-linecap="round" stroke-linejoin="round"/>
<path d="M541.886 106.98C541.886 104.219 539.648 101.98 536.886 101.98C534.125 101.98 531.886 104.219 531.886 106.98H541.886ZM524.235 81.0352C526.996 81.0352 529.235 78.7966 529.235 76.0352C529.235 73.2737 526.996 71.0352 524.235 71.0352V81.0352ZM531.886 106.98V124.708H541.886V106.98H531.886ZM531.886 124.708H488.213V134.708H531.886V124.708ZM488.213 124.708V81.0352H478.213V124.708H488.213ZM488.213 81.0352H524.235V71.0352H488.213V81.0352ZM488.213 124.708H488.213H478.213C478.213 130.231 482.691 134.708 488.213 134.708V124.708ZM531.886 124.708V124.708V134.708C537.409 134.708 541.886 130.231 541.886 124.708H531.886ZM488.213 81.0352L488.213 81.0352V71.0352C482.691 71.0352 478.213 75.5123 478.213 81.0352H488.213Z" fill="black"/>
<path d="M513.173 117.213L496.667 98.1994C494.972 96.2467 497.094 93.3335 499.443 94.3874L512.964 100.451C513.856 100.851 514.9 100.665 515.602 99.9804L547.605 68.81C549.743 66.7279 552.982 69.6528 551.172 72.031L516.878 117.092C515.957 118.303 514.17 118.361 513.173 117.213Z" fill="black"/>
<path d="M250.038 47.9166C262.441 47.9166 272.496 37.8616 272.496 25.4583C272.496 13.0549 262.441 3 250.038 3C237.635 3 227.58 13.0549 227.58 25.4583C227.58 37.8616 237.635 47.9166 250.038 47.9166Z" fill="#784707" stroke="black" stroke-width="5"/>
<path d="M70.3708 363.571V101.56C70.3708 97.426 67.0193 94.0745 62.8849 94.0745C58.7505 94.0745 55.3989 97.426 55.3989 101.56V363.571C55.3989 367.705 58.7505 371.057 62.8849 371.057C67.0193 371.057 70.3708 367.705 70.3708 363.571Z" fill="#337AB5" stroke="black" stroke-width="5"/>
<path d="M250.039 153.965V168.938L256.46 252.406C257.061 260.221 263.577 266.256 271.415 266.256H272.469C280.754 266.256 287.469 259.54 287.469 251.256V153.965H250.039Z" fill="#E78A34" stroke="black" stroke-width="5"/>
<path d="M212.671 287.915H179.698V385.987H212.671V287.915Z" fill="#E78A34" stroke="black" stroke-width="5"/>
<path d="M212.671 287.915H245.643V385.987H212.671V287.915Z" fill="#E78A34" stroke="black" stroke-width="5"/>
<path d="M250.039 168.938V101.563H175.179V168.938L162.178 279.448C161.129 288.365 168.096 296.201 177.075 296.201H248.143C257.122 296.201 264.089 288.365 263.04 279.448L250.039 168.938Z" fill="#E78A34" stroke="black" stroke-width="5"/>
<path d="M238.541 33.1983C230.456 18.8251 212.258 13.7268 197.884 21.8119C188.459 27.112 182.635 37.0984 182.666 47.9158V62.8877C182.666 79.4242 196.073 92.8315 212.609 92.8315C213.59 92.8315 214.579 92.7866 215.551 92.6891C231.174 90.7429 242.815 77.3356 242.553 61.5996V47.9167C242.523 42.7437 241.138 37.6683 238.541 33.1983Z" fill="#E78A34" stroke="black" stroke-width="5"/>
<path d="M107.805 161.452H60.5982C53.5943 161.452 47.9165 167.129 47.9165 174.133V178.714C47.9165 185.718 53.5943 191.395 60.5982 191.395H122.56C127.396 191.395 131.932 189.06 134.739 185.122L157.437 153.965L130.262 131.32L107.805 161.452Z" fill="#E78A34" stroke="black" stroke-width="5"/>
<path d="M250.04 168.938V101.563H235.068L216.893 131.855C214.952 135.09 210.264 135.092 208.32 131.859L190.107 101.563H175.179V168.938L161.521 285.032C160.822 290.977 165.467 296.201 171.453 296.201H253.766C259.752 296.201 264.397 290.977 263.698 285.032L250.04 168.938Z" fill="#EBEBEB" stroke="black" stroke-width="5"/>
<path d="M259.523 249.532L250.038 168.938H175.178L165.693 249.532C164.727 257.745 170.596 265.185 178.808 266.151C179.393 266.218 179.984 266.256 180.567 266.256H244.647C252.919 266.256 259.619 259.556 259.627 251.292C259.629 250.701 259.592 250.117 259.523 249.532Z" fill="#4398D1" stroke="black" stroke-width="5"/>
<path d="M176.425 385.987C174.574 385.987 172.875 387.009 172.008 388.643L161.613 408.234C159.846 411.564 162.26 415.578 166.03 415.578H212.671V385.987H176.425Z" fill="#4398D1" stroke="black" stroke-width="5"/>
<path d="M248.916 385.987C250.767 385.987 252.466 387.009 253.333 388.643L263.728 408.234C265.495 411.564 263.081 415.578 259.311 415.578H212.671V385.987H248.916Z" fill="#4398D1" stroke="black" stroke-width="5"/>
<path d="M163.949 101.563C156.883 101.563 150.228 104.895 145.983 110.547L130.262 131.321L157.437 153.966L166.203 141.168C167.135 139.807 168.679 138.994 170.328 138.994H175.179V101.563H163.949Z" fill="#EBEBEB" stroke="black" stroke-width="5"/>
<path d="M115.291 405.977C115.291 411.5 110.813 415.977 105.291 415.977H20.4863C14.9635 415.977 10.4863 411.5 10.4863 405.977V371.061H115.291V405.977Z" fill="#97D3E6" stroke="black" stroke-width="5"/>
<path d="M24.1362 413.887V391.905" stroke="black" stroke-width="5" stroke-linecap="round" stroke-linejoin="round"/>
<path d="M37.2405 413.887V391.905" stroke="black" stroke-width="5" stroke-linecap="round" stroke-linejoin="round"/>
<path d="M50.345 413.887V391.905" stroke="black" stroke-width="5" stroke-linecap="round" stroke-linejoin="round"/>
<path d="M76.5537 413.887V391.905" stroke="black" stroke-width="5" stroke-linecap="round" stroke-linejoin="round"/>
<path d="M102.763 413.887V391.905" stroke="black" stroke-width="5" stroke-linecap="round" stroke-linejoin="round"/>
<path d="M89.6582 413.887V391.905" stroke="black" stroke-width="5" stroke-linecap="round" stroke-linejoin="round"/>
<path d="M63.4495 413.887V391.905" stroke="black" stroke-width="5" stroke-linecap="round" stroke-linejoin="round"/>
<path d="M115.289 363.577H10.486C6.35157 363.577 3 366.928 3 371.063C3 375.197 6.35158 378.549 10.486 378.549H115.289C119.424 378.549 122.775 375.197 122.775 371.063C122.775 366.928 119.424 363.577 115.289 363.577Z" fill="#337AB5" stroke="black" stroke-width="5"/>
<path d="M287.469 131.508C287.469 114.972 274.062 101.564 257.526 101.564H250.039V153.967H287.469V131.508Z" fill="#EBEBEB" stroke="black" stroke-width="5"/>
<path d="M394.358 407.621C393.555 412.443 389.383 415.977 384.494 415.977H326.577C321.689 415.977 317.517 412.443 316.713 407.621L303.133 326.145H407.938L394.358 407.621Z" fill="#4398D1" stroke="black" stroke-width="5"/>
<path d="M407.938 326.145H392.966V311.173C392.966 290.504 376.205 273.742 355.536 273.742C334.867 273.742 318.106 290.504 318.106 311.173V326.145H303.134V311.173C303.134 282.232 326.596 258.771 355.536 258.771C384.477 258.771 407.938 282.232 407.938 311.173V326.145Z" fill="#97D3E6" stroke="black" stroke-width="5"/>
<path d="M238.542 33.1981C230.457 18.8249 212.258 13.7266 197.885 21.8116C188.46 27.1118 182.636 37.0982 182.666 47.9156V60.3646C198.678 56.8996 223.735 49.2037 238.542 33.1981Z" fill="#784707" stroke="black" stroke-width="5"/>
<path d="M191.5 67.5H201.67C202.22 67.5 202.765 67.4094 203.286 67.2317L211.047 64.5814C212.148 64.2056 213.345 64.2251 214.433 64.6367L221.145 67.1764C221.71 67.3904 222.31 67.5 222.914 67.5H234L231.5 79.25L222.237 89.3751C221.289 90.4104 219.951 91 218.548 91H212.5H206.598C205.111 91 203.7 90.3376 202.75 89.1929L194.5 79.25L191.5 67.5Z" fill="#EBEBEB"/>
<path d="M191.5 67.5L184 66M191.5 67.5H201.67C202.22 67.5 202.765 67.4094 203.286 67.2317L211.047 64.5814C212.148 64.2056 213.345 64.2251 214.433 64.6367L221.145 67.1764C221.71 67.3904 222.31 67.5 222.914 67.5H234M191.5 67.5L194.5 79.25M234 67.5L242 66M234 67.5L231.5 79.25M231.5 79.25L222.237 89.3751C221.289 90.4104 219.951 91 218.548 91H212.5H206.598C205.111 91 203.7 90.3376 202.75 89.1929L194.5 79.25M231.5 79.25L240.5 74M194.5 79.25L184 74" stroke="black" stroke-width="2" stroke-linecap="round" stroke-linejoin="round"/>
</svg>
