<svg width="159" height="98" viewBox="0 0 159 98" fill="none" xmlns="http://www.w3.org/2000/svg">
<path d="M47 5C47 7.20914 44.9853 9 42.5 9C40.0147 9 38 7.20914 38 5C38 2.79086 40.0147 1 42.5 1C44.9853 1 47 2.79086 47 5Z" fill="#784707"/>
<path fill-rule="evenodd" clip-rule="evenodd" d="M43 0.586375C40.5984 0.586375 38.6515 2.33856 38.6515 4.5C38.6515 6.66143 40.5984 8.41362 43 8.41362C45.4016 8.41362 47.3485 6.66143 47.3485 4.5C47.3485 2.33856 45.4016 0.586375 43 0.586375ZM38 4.5C38 2.01472 40.2386 0 43 0C45.7614 0 48 2.01472 48 4.5C48 6.98528 45.7614 9 43 9C40.2386 9 38 6.98528 38 4.5Z" fill="black"/>
<path d="M53.2916 6.60665C52.7856 4.45509 50.6312 3.12111 48.4796 3.62713L48.3605 3.65514C46.1432 4.17662 44.7684 6.39686 45.2899 8.61419L45.734 10.5024C45.9939 8.25485 50.1893 4.59936 53.2916 6.60665Z" fill="#784707"/>
<path fill-rule="evenodd" clip-rule="evenodd" d="M44.9847 8.686C44.4236 6.30024 45.9028 3.91135 48.2885 3.35026L48.4076 3.32225C50.7276 2.77663 53.0506 4.21503 53.5963 6.53501L54.8329 11.7931C55.394 14.1788 53.9148 16.5677 51.5291 17.1288C49.1433 17.6899 46.7544 16.2107 46.1933 13.825L44.9847 8.686ZM48.432 3.96018C46.3831 4.44205 45.1127 6.49365 45.5946 8.54255L45.784 9.34774C45.9333 9.05292 46.1217 8.75827 46.3389 8.47338C46.8394 7.81685 47.5122 7.18706 48.2773 6.69548C49.5875 5.85367 51.2291 5.38529 52.745 5.97584C52.0264 4.41592 50.2878 3.52373 48.5511 3.93217L48.432 3.96018ZM53.016 6.80436C51.6336 5.97904 49.999 6.33402 48.616 7.22261C47.912 7.67494 47.2933 8.25498 46.8371 8.85326C46.3936 9.43505 46.1209 10.0112 46.0518 10.4863L46.8032 13.6815C47.2851 15.7304 49.3367 17.0008 51.3856 16.5189C53.4345 16.037 54.7048 13.9854 54.223 11.9365L53.016 6.80436Z" fill="black"/>
<path d="M46.4985 13.7532C47.02 15.9705 49.2403 17.3453 51.4576 16.8238C53.6749 16.3023 55.0497 14.082 54.5282 11.8647L53.2916 6.60665C50.1893 4.59936 45.9939 8.25485 45.734 10.5024L46.4985 13.7532Z" fill="#E78A34"/>
<path fill-rule="evenodd" clip-rule="evenodd" d="M44.9847 8.686C44.4236 6.30024 45.9028 3.91135 48.2885 3.35026L48.4076 3.32225C50.7276 2.77663 53.0506 4.21503 53.5963 6.53501L54.8329 11.7931C55.394 14.1788 53.9148 16.5677 51.5291 17.1288C49.1433 17.6899 46.7544 16.2107 46.1933 13.825L44.9847 8.686ZM48.432 3.96018C46.3831 4.44205 45.1127 6.49365 45.5946 8.54255L45.784 9.34774C45.9333 9.05292 46.1217 8.75827 46.3389 8.47338C46.8394 7.81685 47.5122 7.18706 48.2773 6.69548C49.5875 5.85367 51.2291 5.38529 52.745 5.97584C52.0264 4.41592 50.2878 3.52373 48.5511 3.93217L48.432 3.96018ZM53.016 6.80436C51.6336 5.97904 49.999 6.33402 48.616 7.22261C47.912 7.67494 47.2933 8.25498 46.8371 8.85326C46.3936 9.43505 46.1209 10.0112 46.0518 10.4863L46.8032 13.6815C47.2851 15.7304 49.3367 17.0008 51.3856 16.5189C53.4345 16.037 54.7048 13.9854 54.223 11.9365L53.016 6.80436Z" fill="black"/>
<path fill-rule="evenodd" clip-rule="evenodd" d="M54.8529 8.35612C55.8787 7.68621 57.2442 7.98907 57.9027 9.03259L63.9912 18.628C65.4626 20.7237 64.1383 24.4658 60.3125 23.8671L52.0833 22.6159L51.1641 40.0332H65.3155C65.9338 40.0332 66.5237 40.297 66.9417 40.7604L78.419 53.4838C79.2432 54.3975 79.1833 55.8178 78.2851 56.6562C77.387 57.4946 75.9907 57.4336 75.1666 56.52L64.3452 44.5238H51.7329L56.1131 60.6922C56.2652 61.2534 56.197 61.8528 55.923 62.3639L47.0942 78.8294C46.5105 79.9181 45.1698 80.3192 44.0997 79.7254C43.0295 79.1316 42.6352 77.7677 43.2189 76.6791L51.6204 61.0103L46.7073 42.8751C46.6442 42.6418 46.6184 42.3997 46.6312 42.1581L47.629 23.2531L39.6762 26.2129L34.2859 41.5381C33.8753 42.7056 32.612 43.3135 31.4642 42.8957C30.3165 42.478 29.719 41.1928 30.1296 40.0253L35.8683 23.7094C36.0891 23.0817 36.5726 22.5863 37.1881 22.3572L49.254 17.8666C49.7181 17.8666 50.2267 17.8666 50.601 17.8666L58.8602 19.2559C59.1283 19.301 59.3181 18.9963 59.1634 18.769L54.1879 11.4586C53.5294 10.415 53.8271 9.02603 54.8529 8.35612Z" fill="#E78A34"/>
<path fill-rule="evenodd" clip-rule="evenodd" d="M57.3849 9.37074C56.91 8.61813 55.9252 8.39969 55.1853 8.88285C54.4483 9.36421 54.2324 10.3603 54.7004 11.112L59.6693 18.4127C60.1333 19.0945 59.5641 20.0088 58.7599 19.8735L50.5504 18.4925H49.363L37.3995 22.945C36.9556 23.1102 36.6069 23.4676 36.4476 23.9203L30.709 40.2361C30.4128 41.0782 30.8437 42.0051 31.6715 42.3064C32.4993 42.6077 33.4104 42.1693 33.7066 41.3272L39.0968 26.002C39.1584 25.8271 39.2932 25.6889 39.4648 25.6251L47.4176 22.6653C47.6118 22.593 47.8287 22.6248 47.9949 22.7499C48.1611 22.8749 48.2545 23.0766 48.2434 23.2866L47.2456 42.1917C47.2364 42.3659 47.255 42.5406 47.3005 42.7088L52.2136 60.844C52.256 61.0005 52.237 61.1676 52.1606 61.3101L43.7591 76.9788C43.3381 77.764 43.6225 78.7476 44.3943 79.1759C45.1661 79.6042 46.1331 79.3149 46.5541 78.5297L55.3828 62.0642C55.5804 61.6956 55.6296 61.2633 55.5199 60.8585L51.1397 44.6901C51.0887 44.5018 51.1271 44.3 51.2435 44.1446C51.3598 43.9891 51.5409 43.8979 51.7329 43.8979H64.3452C64.5176 43.8979 64.682 43.9714 64.7986 44.1006L75.6199 56.0968C76.2143 56.7557 77.2213 56.7997 77.8691 56.195C78.5169 55.5904 78.5601 54.566 77.9657 53.907L66.4884 41.1836C66.1869 40.8494 65.7614 40.6592 65.3155 40.6592H51.1641C50.9951 40.6592 50.8337 40.5885 50.7175 40.4638C50.6013 40.3391 50.5406 40.1713 50.5496 39.9997L51.4689 22.5824C51.4782 22.4063 51.5601 22.2424 51.6943 22.131C51.8286 22.0195 52.0029 21.9708 52.1743 21.9969L60.4061 23.2484C62.0862 23.5114 63.1132 22.8286 63.603 21.9494C64.1179 21.025 64.0783 19.8291 63.4905 18.9919C63.4849 18.9839 63.4794 18.9757 63.4742 18.9675L57.3849 9.37074ZM49.254 17.8666H50.601L58.8602 19.2559C59.1283 19.301 59.3181 18.9963 59.1634 18.769L54.1879 11.4586C53.5294 10.415 53.8271 9.02603 54.8529 8.35612C55.8787 7.68621 57.2442 7.98907 57.9027 9.03259L63.9912 18.628C65.4626 20.7237 64.1383 24.4658 60.3125 23.8671L52.0833 22.6159L51.1641 40.0332H65.3155C65.9338 40.0332 66.5237 40.297 66.9417 40.7604L78.419 53.4838C79.2432 54.3975 79.1833 55.8178 78.2851 56.6562C77.387 57.4946 75.9907 57.4336 75.1666 56.52L64.3452 44.5238H51.7329L56.1131 60.6922C56.2652 61.2534 56.197 61.8528 55.923 62.3639L47.0942 78.8294C46.5105 79.9181 45.1698 80.3192 44.0997 79.7254C43.0295 79.1316 42.6352 77.7677 43.2189 76.6791L51.6204 61.0103L46.7073 42.8751C46.6442 42.6418 46.6184 42.3997 46.6312 42.1581L47.629 23.2531L39.6762 26.2129L34.2859 41.5381C33.8753 42.7056 32.612 43.3135 31.4642 42.8957C30.3165 42.478 29.719 41.1928 30.1296 40.0253L35.8683 23.7094C36.0891 23.0817 36.5726 22.5863 37.1881 22.3572L49.254 17.8666Z" fill="black"/>
<path d="M64.8241 40.2692L50.9465 59.6153C50.5057 60.2298 49.5627 60.0814 49.3272 59.3604L44.0951 43.3448C43.9486 42.8964 43.905 42.4201 43.9677 41.9522L45.0468 33.8975V24.5373L42.5667 25.4621C42.3997 25.5243 42.2155 25.4302 42.1659 25.2572L41.0122 21.2354C40.969 21.0847 41.0436 20.9251 41.1861 20.8632L45.0468 19.1886L46.8897 18.1228C47.0288 18.0423 47.1862 18 47.3465 18H52.9821C53.0739 18 53.1652 18.0139 53.2529 18.0412L55.0289 18.5943L58.1266 19.1395C58.284 19.1673 58.3941 19.3126 58.3796 19.4737L57.9943 23.7636C57.9783 23.9416 57.8177 24.0692 57.6431 24.0427L55.0289 23.6458V33.8975L64.5046 38.8953C65.0033 39.1584 65.1546 39.8086 64.8241 40.2692Z" fill="#EBEBEB"/>
<path fill-rule="evenodd" clip-rule="evenodd" d="M47.7578 18.6268C47.6493 18.6268 47.5427 18.6553 47.4485 18.7094L45.7338 19.6944V34.0387H55.249V19.1444L53.6652 18.6545C53.6058 18.6361 53.544 18.6268 53.4819 18.6268H47.7578ZM55.8725 19.2856V23.7395L58.2622 24.0999L58.6536 19.7718L55.8725 19.2856ZM55.8725 24.3733V34.162L65.3291 39.1164C66.0045 39.4703 66.2093 40.3449 65.7618 40.9646L51.6665 60.4825C51.0696 61.3092 49.7925 61.1094 49.4736 60.1396L44.1594 43.9817C43.9958 43.4841 43.9471 42.9556 44.0171 42.4362L45.1103 34.3309V25.3582L43.0109 26.1358C42.6715 26.2615 42.2974 26.0716 42.1966 25.7224L41.0248 21.6649C40.937 21.3609 41.0885 21.0387 41.378 20.914L45.2829 19.2316L47.1391 18.1652C47.3276 18.0569 47.5408 18 47.7578 18H53.4819C53.6062 18 53.7298 18.0187 53.8486 18.0554L55.6336 18.6076L58.7604 19.1543C59.0802 19.2102 59.3039 19.5035 59.2745 19.8286L58.8831 24.1566C58.8506 24.5156 58.5243 24.7732 58.1697 24.7197L55.8725 24.3733ZM45.1103 19.9878L41.6236 21.4901L42.7953 25.5477L45.1103 24.6902V19.9878ZM45.6944 34.6655L44.635 42.5205C44.5777 42.9454 44.6175 43.3778 44.7514 43.7849L50.0655 59.9428C50.225 60.4277 50.8635 60.5276 51.162 60.1143L65.2573 40.5963C65.4811 40.2865 65.3787 39.8492 65.0409 39.6722L55.4844 34.6655H45.6944Z" fill="black"/>
<path fill-rule="evenodd" clip-rule="evenodd" d="M45.0917 34L44.0264 42.3434C43.9645 42.8281 44.0112 43.3456 44.1704 43.8047C49.9016 60.3292 64.2357 39.1403 54.9468 34H45.0917Z" fill="#4398D1"/>
<path fill-rule="evenodd" clip-rule="evenodd" d="M45.0491 34.2678C45.0686 34.1144 45.1915 34 45.3369 34H54.7831C54.8298 34 54.8759 34.012 54.9173 34.035C57.2665 35.3388 58.1144 37.6691 57.9878 40.1177C57.8619 42.552 56.777 45.1281 55.2374 47.0339C53.7036 48.9326 51.662 50.2305 49.6025 49.9657C47.5232 49.6984 45.5711 47.8609 44.1813 43.8417C44.0113 43.3503 43.9626 42.8015 44.0279 42.2885L45.0491 34.2678ZM45.5906 34.6187L44.6035 42.3716C44.5502 42.7905 44.5911 43.2368 44.7263 43.6279C46.0832 47.5514 47.9086 49.1248 49.6721 49.3515C51.4555 49.5808 53.3223 48.456 54.7971 46.6304C56.2661 44.8119 57.29 42.362 57.4078 40.0836C57.5237 37.842 56.7667 35.7917 54.7111 34.6187H45.5906Z" fill="black"/>
<path d="M50.6809 82H43.3187C43.1427 82 43 81.844 43 81.6515V78.3485C43 78.156 43.1427 78 43.3187 78H48.9508C49.0651 78 49.1706 78.0669 49.2274 78.1753L50.9574 81.4783C51.0791 81.7107 50.9257 82 50.6809 82Z" fill="#4398D1"/>
<path fill-rule="evenodd" clip-rule="evenodd" d="M42 78.5935C42 78.2657 42.2973 78 42.6641 78H48.5324C48.7704 78 48.9903 78.1139 49.1086 78.2985L49.1086 78.2985L50.9112 81.1115C51.1648 81.5072 50.8451 82 50.3349 82H42.6641C42.2973 82 42 81.7343 42 81.4065V78.5935ZM48.5324 78.5935H42.6641V81.4065L50.3349 81.4065L48.5324 78.5935Z" fill="black"/>
<path d="M80.7207 58H74.2788C74.1248 58 74 57.883 74 57.7386V55.2614C74 55.117 74.1248 55 74.2788 55H79.207C79.3069 55 79.3993 55.0502 79.4489 55.1315L80.9627 57.6088C81.0692 57.783 80.935 58 80.7207 58Z" fill="#4398D1"/>
<path fill-rule="evenodd" clip-rule="evenodd" d="M73 55.5935C73 55.2657 73.2643 55 73.5903 55H78.8065C79.0182 55 79.2136 55.1139 79.3188 55.2985L79.3188 55.2985L80.9211 58.1115C81.1464 58.5072 80.8623 59 80.4088 59H73.5903C73.2643 59 73 58.7343 73 58.4065V55.5935ZM78.8065 55.5935H73.5903V58.4065L80.4088 58.4065L78.8065 55.5935Z" fill="black"/>
<path d="M49.6218 22.6717L47 18H53L50.7029 22.6388C50.4718 23.1055 49.8754 23.1236 49.6218 22.6717Z" fill="#E78A34"/>
<path fill-rule="evenodd" clip-rule="evenodd" d="M47.0356 18.1579C47.0856 18.0605 47.1807 18 47.2839 18H52.7161C52.8165 18 52.9095 18.0573 52.9606 18.1506C53.0116 18.244 53.0132 18.3595 52.9647 18.4544L50.8851 22.5246C50.5712 23.1388 49.7613 23.1627 49.4168 22.5679L47.0432 18.4689C46.9885 18.3744 46.9856 18.2553 47.0356 18.1579ZM47.7962 18.6129L49.8984 22.243C50.0132 22.4413 50.2832 22.4334 50.3878 22.2286L52.2352 18.6129H47.7962Z" fill="black"/>
<path d="M51.4308 9.9392L52.1915 9.32665C52.526 9.05722 52.9807 8.94559 53.4197 9.02513C53.9698 9.1248 54.4062 9.50814 54.5292 10.004C55.2433 12.8837 55.4367 14.5582 52.9632 15.8377C52.3592 16.1501 51.6065 15.9915 51.1289 15.5334L49.2013 13.6843L48.8812 11.2191L51.1066 10.1438C51.2232 10.0874 51.332 10.0188 51.4308 9.9392Z" fill="#EBEBEB"/>
<path fill-rule="evenodd" clip-rule="evenodd" d="M51.768 9.42408C52.1647 9.07429 52.7037 8.92936 53.2241 9.03262C53.8759 9.16195 54.3941 9.65941 54.5402 10.3049C54.8809 11.8091 55.1164 13.0673 54.9398 14.1255C54.7563 15.2246 54.1371 16.0759 52.8821 16.7868C52.1515 17.2007 51.2697 16.9784 50.7275 16.4089L48.9871 14.5806L46.5342 14.8669L46.4591 14.2336L48.7531 13.9658L48.5206 12.0045L46.071 12.2745L46 11.6407L48.7056 11.3425L50.7884 10.2404C50.878 10.193 50.9616 10.1352 51.0375 10.0683L51.2446 10.2994L51.0375 10.0683L51.768 9.42408ZM49.1473 11.8315L49.4167 14.1031L51.1948 15.971C51.5699 16.365 52.1339 16.4763 52.5634 16.233C53.6839 15.5983 54.1595 14.8963 54.3056 14.0213C54.4585 13.1056 54.2582 11.9689 53.9131 10.4447C53.8231 10.0471 53.5029 9.73829 53.0981 9.65797C52.7754 9.59393 52.4411 9.68381 52.1951 9.90073L51.4646 10.5449C51.3507 10.6453 51.2253 10.732 51.0909 10.8031L49.1473 11.8315Z" fill="black"/>
<path fill-rule="evenodd" clip-rule="evenodd" d="M146.744 26.2041L159 23L155.668 35.1348L151.979 31.4429L122.297 60.651C122.091 60.8533 121.813 60.9668 121.524 60.9668H71.2882L55.1517 83.6897C54.9461 83.9792 54.6114 84.1515 54.2544 84.1515H15.9677L1.86081 97.6936C1.42511 98.1119 0.730224 98.1005 0.308734 97.6681C-0.112755 97.2358 -0.101238 96.5462 0.334459 96.1279L14.7605 82.2794C14.9652 82.0829 15.2389 81.973 15.5237 81.973H53.6851L69.8217 59.2502C70.0273 58.9606 70.362 58.7884 70.7189 58.7884H121.072L150.433 29.896L146.744 26.2041Z" fill="white"/>
</svg>
