<svg width="240" height="177" viewBox="0 0 240 177" fill="none" xmlns="http://www.w3.org/2000/svg">
<path fill-rule="evenodd" clip-rule="evenodd" d="M23.2593 101.16C27.5111 109.439 29.782 116.446 31.3692 121.687C31.7925 121.156 32.7452 119.315 33.1695 116.201C33.4693 114 33.5432 109.765 33.6148 105.667C33.6698 102.514 33.7235 99.4438 33.8773 97.4434C34.2312 92.8422 35.47 89.3031 37.4165 87.1795C38.6134 85.8739 41.9511 85.5048 45.0027 85.1674C46.9141 84.956 48.7133 84.7571 49.8037 84.3482C52.0688 83.4988 67.1458 83.4044 74.4011 83.4634C75.9348 83.5814 79.3914 83.7819 80.9486 83.6403C82.8952 83.4634 90.3275 82.9325 92.628 88.9491C93.9076 92.296 95.9649 102.044 97.2289 109.123C98.1137 114.077 100.237 121.864 101.299 122.748L103.953 112.308L118.818 114.962C117.815 117.853 115.704 123.916 115.279 125.049C115.166 125.35 114.886 126.193 114.495 127.368C113.048 131.723 110.087 140.628 108.554 143.276C106.608 146.638 103.781 150.708 100.591 150.708C92.451 150.708 87.6731 136.02 86.1826 126.288C87.4091 141.269 89.9376 162.82 91.5662 175.659H43.6101C44.849 172.562 45.2221 149.701 45.2646 129.725C45.2244 139.268 37.5776 151.062 31.7533 151.062C27.6133 151.062 21.3856 135.624 15.258 120.434C13.1655 115.247 11.0846 110.088 9.10252 105.583L23.2593 101.16Z" fill="#442CD8"/>
<path d="M23.2593 101.16C23.4367 100.098 23.4367 99.5667 22.7284 97.4434C22.0201 95.32 6.62468 100.275 7.15602 102.575C7.68735 104.875 8.15873 105.406 9.10252 105.583M23.2593 101.16L9.10252 105.583M23.2593 101.16C27.5111 109.439 29.782 116.446 31.3692 121.687M33.6999 128.942C32.9841 127.185 32.2923 124.735 31.3692 121.687M9.10252 105.583C11.0846 110.088 13.1655 115.247 15.258 120.434C21.3856 135.624 27.6133 151.062 31.7533 151.062C37.5776 151.062 45.2244 139.268 45.2646 129.725M45.2648 129.65C45.2648 129.675 45.2647 129.7 45.2646 129.725M45.2028 109.83C45.2507 115.292 45.2804 122.31 45.2646 129.725M85.7265 110.007C85.2199 111.629 85.499 117.938 86.1826 126.288M31.3692 121.687C31.7925 121.156 32.7452 119.315 33.1695 116.201C33.4693 114 33.5432 109.765 33.6148 105.667C33.6698 102.514 33.7235 99.4438 33.8773 97.4434C34.2312 92.8422 35.47 89.3031 37.4165 87.1795C38.6134 85.8739 41.9511 85.5048 45.0027 85.1674C46.9141 84.956 48.7133 84.7571 49.8037 84.3482C52.0688 83.4988 67.1458 83.4044 74.4011 83.4634C75.9348 83.5814 79.3914 83.7819 80.9486 83.6403C82.8952 83.4634 90.3275 82.9325 92.628 88.9491C93.9076 92.296 95.9649 102.044 97.2289 109.123C98.1137 114.077 100.237 121.864 101.299 122.748M101.299 122.748L103.953 112.308M101.299 122.748C100.709 125.58 99.3878 131.419 98.8216 132.127M103.953 112.308L118.818 114.962M103.953 112.308C103.835 111.128 104.135 108.449 105.192 108.238C106.962 107.884 119.88 110.361 120.588 111.423C121.185 112.319 120.588 114.431 118.818 114.962M118.818 114.962C117.815 117.853 115.704 123.916 115.279 125.049C115.166 125.35 114.886 126.193 114.495 127.368C113.048 131.723 110.087 140.628 108.554 143.276C106.608 146.638 103.781 150.708 100.591 150.708C92.451 150.708 87.6731 136.02 86.1826 126.288M86.1826 126.288C87.4091 141.269 89.9376 162.82 91.5662 175.659H43.6101C44.849 172.562 45.2221 149.701 45.2646 129.725" stroke="#323232" stroke-width="2" stroke-linecap="round" stroke-linejoin="round"/>
<path d="M107.219 92.6723C103.684 84.2188 123.053 55.9376 118.288 48.4062C124.129 46.8693 141.193 57.1673 149.955 53.3251C153.338 62.2395 131.816 92.6723 135.658 105.583C129.356 105.122 113.061 96.2072 107.219 92.6723Z" fill="#DCDCDC"/>
<path fill-rule="evenodd" clip-rule="evenodd" d="M142.24 53.1757C145.105 53.5689 147.642 53.4735 149.637 52.5989C149.835 52.5117 150.061 52.5099 150.262 52.5939C150.462 52.678 150.619 52.8406 150.696 53.0437C151.189 54.344 151.203 55.9534 150.938 57.7181C150.671 59.4964 150.105 61.5181 149.357 63.6932C148.06 67.4647 146.178 71.7905 144.246 76.2343C143.951 76.9107 143.656 77.59 143.361 78.2704C141.121 83.4419 138.916 88.6938 137.507 93.4498C136.088 98.238 135.528 102.366 136.418 105.357C136.492 105.607 136.439 105.877 136.276 106.08C136.113 106.283 135.86 106.393 135.6 106.374C133.902 106.25 131.61 105.569 129.095 104.609C126.559 103.642 123.726 102.362 120.918 100.993C115.303 98.2531 109.748 95.1291 106.809 93.3503C106.665 93.2633 106.552 93.133 106.488 92.978C105.97 91.7413 105.899 90.2184 106.087 88.5621C106.277 86.8944 106.741 85.013 107.371 83.0105C108.557 79.2384 110.365 74.9316 112.157 70.6633C112.266 70.4042 112.375 70.1453 112.483 69.8865C114.39 65.3423 116.234 60.8826 117.309 57.0947C117.846 55.2018 118.18 53.5125 118.243 52.0887C118.306 50.6559 118.091 49.5773 117.618 48.8299C117.482 48.6163 117.457 48.3511 117.55 48.1159C117.642 47.8807 117.841 47.7037 118.086 47.6394C118.955 47.4107 119.974 47.4143 121.062 47.5468C122.158 47.6802 123.378 47.9519 124.674 48.3011C126.405 48.7676 128.328 49.3892 130.317 50.0319C131.288 50.3459 132.275 50.6648 133.262 50.9732C136.301 51.9221 139.385 52.7841 142.24 53.1757ZM119.462 49.0445C119.78 49.9707 119.877 51.0304 119.827 52.1586C119.757 53.756 119.387 55.5779 118.834 57.5275C117.728 61.4247 115.844 65.9757 113.945 70.4999C113.84 70.7505 113.735 71.001 113.63 71.2514C111.827 75.5447 110.046 79.7872 108.883 83.486C108.268 85.4414 107.836 87.2152 107.663 88.7416C107.502 90.1481 107.569 91.2804 107.862 92.1343C110.82 93.9119 116.19 96.9219 121.613 99.5678C124.398 100.926 127.185 102.183 129.66 103.128C131.585 103.862 133.28 104.391 134.622 104.643C134.026 101.359 134.712 97.3025 135.986 92.9994C137.426 88.1393 139.669 82.8051 141.907 77.6402C142.203 76.9553 142.5 76.2736 142.794 75.5964C144.73 71.1447 146.583 66.8847 147.858 63.1775C148.592 61.0442 149.123 59.125 149.37 57.4823C149.557 56.2429 149.574 55.2077 149.423 54.3761C147.216 55.1046 144.659 55.1081 142.024 54.7465C139.032 54.3359 135.843 53.4399 132.79 52.4866C131.764 52.1663 130.758 51.8409 129.778 51.5241C127.813 50.889 125.956 50.2884 124.262 49.8319C122.999 49.4918 121.86 49.2411 120.87 49.1206C120.343 49.0564 119.874 49.0312 119.462 49.0445Z" fill="#323232"/>
<path fill-rule="evenodd" clip-rule="evenodd" d="M121.225 54.7229C121.34 54.2971 121.776 54.0315 122.2 54.1297L145.866 59.616C146.29 59.7142 146.54 60.1389 146.425 60.5646C146.31 60.9904 145.873 61.256 145.45 61.1579L121.783 55.6715C121.36 55.5734 121.11 55.1487 121.225 54.7229Z" fill="#323232"/>
<path fill-rule="evenodd" clip-rule="evenodd" d="M120.953 57.1695C121.066 56.7433 121.502 56.4763 121.925 56.5729L145.142 61.8679C145.566 61.9645 145.817 62.3883 145.704 62.8144C145.59 63.2405 145.155 63.5076 144.731 63.411L121.514 58.116C121.091 58.0194 120.839 57.5956 120.953 57.1695Z" fill="#323232"/>
<path fill-rule="evenodd" clip-rule="evenodd" d="M119.874 59.5715C119.988 59.1454 120.423 58.8788 120.847 58.9759L144.188 64.3265C144.612 64.4236 144.863 64.8477 144.749 65.2737C144.635 65.6997 144.199 65.9663 143.776 65.8692L120.434 60.5186C120.011 60.4215 119.76 59.9975 119.874 59.5715Z" fill="#323232"/>
<path fill-rule="evenodd" clip-rule="evenodd" d="M118.747 61.6618C118.861 61.2358 119.297 60.9691 119.72 61.0663L143.061 66.4168C143.485 66.5139 143.736 66.938 143.622 67.364C143.508 67.79 143.072 68.0567 142.649 67.9596L119.307 62.609C118.884 62.5119 118.633 62.0878 118.747 61.6618Z" fill="#323232"/>
<path fill-rule="evenodd" clip-rule="evenodd" d="M117.749 64.3639C117.863 63.9379 118.298 63.6713 118.722 63.7684L142.063 69.119C142.487 69.2161 142.738 69.6402 142.624 70.0662C142.51 70.4922 142.074 70.7588 141.651 70.6617L118.309 65.3111C117.886 65.214 117.635 64.7899 117.749 64.3639Z" fill="#323232"/>
<path fill-rule="evenodd" clip-rule="evenodd" d="M116.933 66.8083C117.047 66.3823 117.483 66.1156 117.907 66.2127L141.248 71.5633C141.672 71.6604 141.923 72.0845 141.809 72.5105C141.695 72.9365 141.259 73.2031 140.835 73.106L117.494 67.7555C117.07 67.6583 116.819 67.2343 116.933 66.8083Z" fill="#323232"/>
<path fill-rule="evenodd" clip-rule="evenodd" d="M111.051 81.0404C111.177 80.621 111.619 80.3828 112.038 80.5084L129.062 85.6076C129.481 85.7332 129.719 86.175 129.594 86.5944C129.468 87.0138 129.026 87.252 128.607 87.1264L111.583 82.0272C111.164 81.9016 110.925 81.4598 111.051 81.0404Z" fill="#323232"/>
<path fill-rule="evenodd" clip-rule="evenodd" d="M122.934 96.327C123.092 95.9187 123.551 95.716 123.96 95.8741L132.21 99.0701C132.618 99.2283 132.821 99.6874 132.663 100.096C132.505 100.504 132.046 100.707 131.638 100.549L123.387 97.3525C122.979 97.1944 122.776 96.7352 122.934 96.327Z" fill="#323232"/>
<path d="M105.547 98.6818C104.839 101.372 105.016 105.76 106.786 109.299C109.676 111.187 116.465 112.356 119.881 110.892C124.836 108.769 123.774 104.698 124.835 102.575L113.687 96.9122C113.628 96.4403 113.545 95.001 113.687 93.0191C113.864 90.5416 109.971 85.0559 108.555 86.1177C107.14 87.1794 108.732 89.8338 108.555 91.7804C108.378 93.7269 106.432 95.3196 105.547 98.6818Z" fill="#D4A28B" stroke="#323232" stroke-width="2" stroke-linecap="round" stroke-linejoin="round"/>
<path d="M10.5212 101.867L10.5196 101.867C7.4523 101.218 7.53557 101.797 5.55362 99.3899C3.07618 96.3816 -1.51456 90.011 2.73247 86.2949C6.9795 82.5787 11.7574 82.5787 12.4652 82.5787C13.1731 82.5787 10.706 73.7307 10.3417 69.4837C9.97745 65.2367 13.7039 66.6523 14.0579 68.068C14.4118 69.4837 17.2432 79.7474 18.1279 81.8709C19.0127 83.9944 22.9162 85.233 23.2598 89.4802C23.6033 93.7273 21.314 97.9741 20.4292 98.8589C19.7215 99.5666 13.3534 101.159 10.5212 101.867Z" fill="#D4A28B" stroke="#323232" stroke-width="2" stroke-linecap="round" stroke-linejoin="round"/>
<path d="M89.4424 63.6436C92.2737 48.956 89.4424 28.6056 84.1336 27.1899L60.5979 22.9429L52.1039 31.7909C53.6375 37.5126 56.5986 48.6728 56.1739 47.5403C55.643 46.1246 52.4578 44.532 50.6882 44.8859C48.9186 45.2398 48.3877 47.1864 48.3877 50.7256C48.3877 53.3209 50.386 55.0598 51.8008 56.9191C52.3153 57.5954 52.7527 58.2876 52.9886 59.0427C53.6965 61.3077 53.2028 79.334 53.0258 85.2327L66.1208 97.9738C68.1854 93.9627 71.4986 87.3208 71.2155 86.4714C70.9324 85.622 71.0975 76.3515 71.2155 75.6271C79.9857 78.442 87.5524 73.4476 89.4424 63.6436Z" fill="#D4A28B"/>
<path d="M57.7666 65.2363C62.1795 70.8848 66.8468 74.2248 71.2155 75.6271M71.2155 75.6271C79.9857 78.442 87.5524 73.4476 89.4424 63.6436C92.2737 48.956 89.4424 28.6056 84.1336 27.1899L60.5979 22.9429L52.1039 31.7909C53.6375 37.5126 56.5986 48.6728 56.1739 47.5403C55.643 46.1246 52.4578 44.532 50.6882 44.8859C48.9186 45.2398 48.3877 47.1864 48.3877 50.7256C48.3877 53.3209 50.386 55.0598 51.8008 56.9191M71.2155 75.6271C71.0975 76.3515 70.9324 85.622 71.2155 86.4714C71.4986 87.3208 68.1854 93.9627 66.1208 97.9738L53.0258 85.2327C53.2028 79.334 53.6965 61.3077 52.9886 59.0427C52.7527 58.2876 52.3153 57.5954 51.8008 56.9191M51.8008 56.9191C52.6096 57.8629 54.6167 59.4674 56.1739 58.3348" stroke="#323232" stroke-width="2" stroke-linecap="round" stroke-linejoin="round"/>
<path d="M71.3936 36.5688C68.9161 36.5688 66.4387 37.9845 65.377 42.7624" stroke="#323232" stroke-width="2" stroke-linecap="round" stroke-linejoin="round"/>
<path d="M83.7802 35.1533C86.2577 35.1533 88.7351 36.569 89.7969 41.3469" stroke="#323232" stroke-width="2" stroke-linecap="round" stroke-linejoin="round"/>
<path d="M71.3926 48.0715C74.5779 48.7793 78.471 48.0715 80.7714 45.771" stroke="#323232" stroke-width="2" stroke-linecap="round" stroke-linejoin="round"/>
<path d="M82.3643 45.5939C85.5495 46.3018 89.4426 45.5939 91.7431 43.2935" stroke="#323232" stroke-width="2" stroke-linecap="round" stroke-linejoin="round"/>
<path d="M82.7184 46.6558C85.3728 52.1415 90.3276 53.3802 89.2659 54.7959C88.1584 56.2726 84.0751 56.1526 82.1875 56.2116" stroke="#323232" stroke-width="2" stroke-linecap="round" stroke-linejoin="round"/>
<path d="M146.876 175.981C146.876 152.623 156.609 149.083 156.609 142.359C156.078 142.359 155.548 142.536 152.185 142.713C145.108 143.085 144.154 135.647 143.514 131.918C142.453 125.725 143.963 112.508 146.523 108.029C151.478 99.3576 161.033 96.0995 163.511 94.9336C165.988 93.7678 173.244 92.1023 174.482 92.2792C175.013 94.5797 180.693 96.5786 183.684 97.0572C188.108 97.765 198.372 97.588 201.203 96.8802C203.505 96.3047 210.936 94.9336 212.175 91.0405C216.068 91.7484 224.34 94.3555 226.862 95.6415C235.887 100.242 236.184 110.419 237.126 115.284C238.188 120.77 238.365 136.16 233.233 138.643C230.74 139.849 223.677 139.528 220.492 139.174C222.202 150.99 233.984 159.808 229.163 175.981H146.876Z" fill="#00DACD" stroke="#323232" stroke-width="2" stroke-linecap="round" stroke-linejoin="round"/>
<path d="M174.66 29.6357C174.001 32.05 175.04 32.4339 185.808 31.4048C209.875 29.1048 207.397 51.9321 207.397 54.7634C207.397 59.7183 212.064 54.5444 213.06 52.1096C214.653 48.2165 215.184 50.34 216.776 45.0312C219.941 34.4815 216.776 27.3352 215.537 26.8038C211.971 25.2736 224.031 16.5399 225.624 20.2564C227.217 23.9728 224.739 28.9272 226.332 36.183C227.925 43.4389 244.205 42.1993 237.303 40.9606C230.402 39.7219 230.933 33.3511 232.879 26.0963C234.826 18.8415 235.18 10.7009 230.048 4.68393C224.916 -1.333 211.821 0.435579 206.866 6.98401C201.912 13.5325 206.336 20.6108 204.92 20.2564C203.504 19.9019 195.718 19.3715 189.878 20.2563C184.039 21.1411 176.253 23.796 174.66 29.6357Z" fill="#170A00" stroke="#323232" stroke-width="2" stroke-linecap="round" stroke-linejoin="round"/>
<path d="M169.711 58.9189C168.74 54.141 171.775 36.7989 175.196 29.5436C180.045 26.6533 191.617 22.8899 199.12 30.9593C201.557 33.5802 203.673 36.9456 205.28 40.4299C208.989 40.076 211.467 50.5166 207.751 56.7102C207.928 56.8872 208.282 56.8872 208.635 56.8872C207.928 59.0107 206.906 62.1042 206.73 66.7052C206.553 71.3061 206.979 78.7255 207.26 80.508C207.791 83.8703 208.676 87.5864 209.915 89.1791C210.542 89.9849 211.33 90.7717 212.215 90.9487C211.33 93.78 207.614 95.4135 203.19 96.4344C198.766 97.4553 188.149 98.5579 180.716 96.4344C179.478 96.0805 174.439 94.7138 174.262 92.2364C176.916 91.8825 178.239 89.356 179.124 87.2325C179.832 85.5337 180.363 81.7468 180.186 79.5684C174.146 76.1025 170.588 63.2403 169.711 58.9189Z" fill="#B08069"/>
<path d="M207.751 56.7102C207.928 56.8872 208.282 56.8872 208.635 56.8872C207.928 59.0107 206.906 62.1042 206.73 66.7052C206.553 71.3061 206.979 78.7255 207.26 80.508C207.791 83.8703 208.676 87.5864 209.915 89.1791C210.542 89.9849 211.33 90.7717 212.215 90.9487C211.33 93.78 207.614 95.4135 203.19 96.4344C198.766 97.4553 188.149 98.5579 180.716 96.4344C179.478 96.0805 174.439 94.7138 174.262 92.2364C176.916 91.8825 178.239 89.356 179.124 87.2325C179.832 85.5337 180.363 81.7468 180.186 79.5684C174.146 76.1025 170.588 63.2403 169.711 58.9189C168.74 54.141 171.775 36.7989 175.196 29.5436C180.045 26.6533 191.617 22.8899 199.12 30.9593C201.557 33.5802 203.673 36.9456 205.28 40.4299M207.751 56.7102C211.467 50.5166 208.989 40.076 205.28 40.4299M207.751 56.7102C207.043 57.9489 206.689 58.6568 205.981 59.3646M205.28 40.4299C203.15 40.7839 202.265 43.4382 202.088 45.2078" stroke="#323232" stroke-width="2" stroke-linecap="round" stroke-linejoin="round"/>
<path d="M168.111 37.9526C169.232 39.3093 171.757 42.0581 172.889 42.1997C174.305 42.3766 176.782 40.784 177.667 40.607" stroke="#323232" stroke-width="2" stroke-linecap="round" stroke-linejoin="round"/>
<path d="M184.923 40.2533C186.162 38.1298 187.483 35.7276 189.17 36.3604C192.001 37.4223 195.304 41.0201 195.894 42.9077" stroke="#323232" stroke-width="2" stroke-linecap="round" stroke-linejoin="round"/>
<path d="M180.323 79.7148C180.458 82.2497 180.335 91.5844 173.598 92.279C166.862 92.9736 151.301 98.2956 146.523 108.205C141.745 118.115 141.679 140.059 149.178 142.182C156.676 144.304 172.729 138.043 178.296 134.361C183.862 130.679 189.24 124.104 197.549 125.873C204.196 127.287 213.019 124.458 216.599 122.866C214.303 120.154 205.816 115.85 198.195 115.992C188.67 116.168 182.8 118.646 180.676 119.354" stroke="#323232" stroke-width="2" stroke-linecap="round" stroke-linejoin="round"/>
<path d="M156.609 142.391C156.609 149.469 146.876 152.446 146.876 175.805H229.162C233.983 159.631 222.201 150.99 220.492 139.174" stroke="#323232" stroke-width="2" stroke-linecap="round" stroke-linejoin="round"/>
<path d="M217.704 28.7051C218.943 30.6517 200.008 20.565 201.069 19.1493C202.131 17.7336 203.901 18.2645 203.37 15.6102C202.839 12.9559 220.004 21.9806 217.704 23.3963C215.403 24.8121 216.465 26.7586 217.704 28.7051Z" fill="#FF3636" stroke="#323232" stroke-width="2" stroke-linecap="round" stroke-linejoin="round"/>
<path d="M167.047 120.317C160.677 122.618 162.447 127.042 163.508 129.165C164.57 131.289 178.199 126.963 177.311 124.387C176.423 121.811 176.96 120.593 178.022 120.239C179.083 119.885 180.499 119.531 180.853 119.354C180.325 118.568 178.199 116.7 176.429 117.231C174.659 117.761 173.418 118.017 167.047 120.317Z" fill="#B08069" stroke="#323232" stroke-width="2" stroke-linecap="round" stroke-linejoin="round"/>
<path d="M211.644 119.354C209.167 119.354 200.142 123.424 199.788 126.078C204.566 126.786 212.706 124.84 216.599 122.893C216.068 122.008 213.414 120.239 211.644 119.354Z" fill="#B08069" stroke="#323232" stroke-width="2" stroke-linecap="round" stroke-linejoin="round"/>
<path d="M162.449 125.902C162.213 124.722 161.919 122.008 162.626 120.593" stroke="#323232" stroke-width="2" stroke-linecap="round" stroke-linejoin="round"/>
<path d="M178.509 50.2551C176.759 57.0957 172.745 56.3907 174.18 60.0813C174.955 62.0746 180.634 60.4492 182.791 60.0813" stroke="#323232" stroke-width="2" stroke-linecap="round" stroke-linejoin="round"/>
<path d="M175.367 29.6357C171.946 36.8911 168.911 54.2331 169.882 59.0111C170.852 63.789 175.098 79.0075 182.354 80.4232C189.609 81.8389 202.704 74.0526 203.766 71.0443" stroke="#323232" stroke-width="2" stroke-linecap="round" stroke-linejoin="round"/>
<path d="M202.088 45.385C202.265 43.4974 203.291 39.8992 205.981 40.607C209.343 41.4918 210.051 48.3932 209.343 52.4633C208.777 55.7194 206.866 58.421 205.981 59.3647" stroke="#323232" stroke-width="2" stroke-linecap="round" stroke-linejoin="round"/>
<path d="M208.813 56.1797C205.097 66.4434 206.69 87.9028 211.291 90.5099C215.892 93.1169 230.402 92.6334 234.649 104.49C238.896 116.346 239.285 136.873 232.348 138.997C224.316 141.456 184.132 134.219 181.207 132.272C185.714 128.025 190.94 125.548 195.364 125.548C204.743 127.494 213.414 124.486 216.777 122.717C216.423 120.947 216.6 120.062 216.069 117.408" stroke="#323232" stroke-width="2" stroke-linecap="round" stroke-linejoin="round"/>
<path d="M61.8369 17.9883C52.6351 17.9882 51.5732 23.297 51.7501 26.4822C47.1493 24.5356 42.5484 29.8446 41.4867 35.6843C40.6373 40.356 43.7877 50.018 51.9276 48.0714C60.2445 47.0097 59.3595 41.5239 59.7133 38.5157C60.085 35.3561 59.2414 32.5581 58.2977 31.4373C60.4212 30.0215 64.4912 28.075 74.224 29.3138C89.4963 31.2577 92.5166 18.968 91.0352 19.758C88.3808 21.1736 83.249 22.9432 79.8867 23.2971C76.5245 23.651 71.0388 17.9884 61.8369 17.9883Z" fill="#4B4B4B" stroke="#323232" stroke-width="2" stroke-linecap="round" stroke-linejoin="round"/>
<path d="M45.5566 85.2329L52.4581 78.8623L65.7301 95.3196L71.7467 77.9775L79.356 83.8172L65.889 98.9749L45.5566 85.2329Z" fill="#A195EB"/>
<path d="M65.7301 95.3196L52.4581 78.8623L45.5566 85.2329L65.889 98.9749M65.7301 95.3196C65.7615 96.0436 65.8199 97.3857 65.889 98.9749M65.7301 95.3196L71.7467 77.9775L79.356 83.8172L65.889 98.9749M66.084 103.46C66.018 101.941 65.9494 100.364 65.889 98.9749" stroke="#323232" stroke-width="2"/>
<path d="M22.6024 97.4296C23.3107 99.553 23.3107 100.084 23.1333 101.146L8.97654 105.57C8.03276 105.393 7.56138 104.862 7.03004 102.561C6.49871 100.261 21.8942 95.3063 22.6024 97.4296Z" fill="#A195EB"/>
<path d="M118.692 114.949L103.827 112.294C103.709 111.114 104.009 108.435 105.066 108.224C106.836 107.87 119.754 110.348 120.462 111.409C121.059 112.305 120.462 114.418 118.692 114.949Z" fill="#A195EB"/>
<path d="M22.6024 97.4296C23.3107 99.553 23.3107 100.084 23.1333 101.146L8.97654 105.57C8.03276 105.393 7.56138 104.862 7.03004 102.561C6.49871 100.261 21.8942 95.3063 22.6024 97.4296Z" stroke="#323232" stroke-width="2" stroke-linecap="round" stroke-linejoin="round"/>
<path d="M118.692 114.949L103.827 112.294C103.709 111.114 104.009 108.435 105.066 108.224C106.836 107.87 119.754 110.348 120.462 111.409C121.059 112.305 120.462 114.418 118.692 114.949Z" stroke="#323232" stroke-width="2" stroke-linecap="round" stroke-linejoin="round"/>
<path d="M193.27 52.0489L181.172 49.0245C179.14 48.5165 177.007 48.5844 175.011 49.2207C171.113 50.4637 168.022 53.7484 168.289 57.8315C168.992 68.6313 175.843 79.1206 180.915 81.3749C183.284 82.4279 186.068 82.2474 188.617 81.5756C193.119 80.3893 195.903 76.2198 197.24 71.7608L199.244 65.0827L193.27 52.0489Z" fill="white"/>
<path d="M193.27 52.0489L181.172 49.0245C179.14 48.5165 177.007 48.5844 175.011 49.2207V49.2207C171.113 50.4637 168.022 53.7484 168.289 57.8315C168.992 68.6313 175.843 79.1206 180.915 81.3749C183.284 82.4279 186.068 82.2474 188.617 81.5756C193.119 80.3893 195.903 76.2198 197.24 71.7608L199.244 65.0827M193.27 52.0489L199.244 65.0827M193.27 52.0489L201.687 44.0386M199.244 65.0827L208.204 57.4797M189.604 53.2708L195.578 66.0331" stroke="#323232" stroke-width="2" stroke-linecap="round" stroke-linejoin="round"/>
<path d="M83.2636 51.879L71.7565 55.0358L64.425 67.255C64.9426 71.568 67.1915 75.811 71.3611 77.0294C78.0764 78.9918 83.1284 76.0671 85.8765 73.6361C89.1248 70.7626 91.6833 62.8305 91.6477 56.0817C91.6419 54.9807 91.0867 53.9693 90.2219 53.2879C88.2576 51.7403 85.6752 51.2174 83.2636 51.879Z" fill="white"/>
<path d="M71.7565 55.0358L83.2636 51.879C85.6752 51.2174 88.2576 51.7403 90.2219 53.2879V53.2879C91.0867 53.9693 91.6419 54.9807 91.6477 56.0817C91.6833 62.8305 89.1248 70.7626 85.8765 73.6361C83.1284 76.0671 78.0764 78.9918 71.3611 77.0294C67.1915 75.811 64.9426 71.568 64.425 67.255V67.255M71.7565 55.0358L56.5504 46.6182M71.7565 55.0358L64.425 67.255M64.425 67.255L53.292 58.9731M73.9288 56.8008L67.0046 68.0696" stroke="#323232" stroke-width="2" stroke-linecap="round" stroke-linejoin="round"/>
</svg>
