<svg width="523" height="70" viewBox="0 0 523 70" fill="none" xmlns="http://www.w3.org/2000/svg">
<path fill-rule="evenodd" clip-rule="evenodd" d="M519.035 3.88889H18.7118V66.1111H519.035V3.88889ZM14.7473 0V70H523V0H14.7473Z" fill="#FA505D"/>
<g filter="url(#filter0_d)">
<path d="M30.1388 32.5953C31.8964 33.678 31.8964 36.3223 30.1388 37.405L9.06007 50.3896C7.26749 51.4939 5 50.1508 5 47.9848L5 22.0155C5 19.8495 7.26749 18.5064 9.06007 19.6106L30.1388 32.5953Z" fill="#FA3C4B"/>
</g>
<path d="M57.914 46.2469V23.7197H71.7159V26.8735H61.2214V33.0524H67.9951V36.2062H61.2214V43.0931H72.4155V46.2469H57.914Z" fill="#505050"/>
<path d="M85.123 46.633C83.1513 46.633 81.4446 46.1503 80.003 45.1849C78.5613 44.198 77.5648 42.8571 77.0136 41.1622L80.1302 40.0036C80.5966 41.0549 81.275 41.8916 82.1655 42.5138C83.0559 43.1145 84.0842 43.4149 85.2502 43.4149C86.4799 43.4149 87.4551 43.1145 88.176 42.5138C88.918 41.9131 89.289 41.0549 89.289 39.9392C89.289 39.4672 89.183 39.0382 88.971 38.652C88.7802 38.2443 88.5576 37.9118 88.3032 37.6543C88.0488 37.3969 87.6566 37.1394 87.1265 36.882C86.5965 36.6031 86.1513 36.3993 85.7909 36.2705C85.4516 36.1204 84.9428 35.9273 84.2644 35.6913C83.4163 35.3909 82.7803 35.1549 82.3563 34.9833C81.9323 34.8116 81.3704 34.5327 80.6708 34.1465C79.9924 33.7389 79.4729 33.342 79.1125 32.9558C78.7733 32.5482 78.4659 32.0226 78.1903 31.3789C77.9146 30.7353 77.7768 30.0166 77.7768 29.2227C77.7768 27.5708 78.4129 26.1762 79.6849 25.0391C80.957 23.902 82.6849 23.3335 84.8686 23.3335C86.6919 23.3335 88.1866 23.7411 89.3526 24.5564C90.5399 25.3717 91.3349 26.4551 91.7378 27.8068L88.6848 28.8366C88.388 28.15 87.8898 27.6029 87.1901 27.1953C86.5117 26.7662 85.6531 26.5517 84.6142 26.5517C83.5541 26.5517 82.7167 26.7877 82.1019 27.2597C81.5082 27.7317 81.2114 28.3967 81.2114 29.2549C81.2114 29.8342 81.4446 30.3491 81.9111 30.7996C82.3775 31.2502 82.8651 31.5827 83.3739 31.7973C83.8828 32.0118 84.6566 32.3015 85.6955 32.6662C86.3315 32.9022 86.7979 33.0845 87.0947 33.2133C87.4127 33.3205 87.8686 33.5136 88.4622 33.7925C89.0558 34.0715 89.5117 34.3289 89.8297 34.5649C90.1477 34.7794 90.5187 35.0798 90.9427 35.466C91.3667 35.8522 91.6848 36.2491 91.8968 36.6567C92.13 37.0429 92.3208 37.5256 92.4692 38.1049C92.6388 38.6627 92.7236 39.2634 92.7236 39.9071C92.7236 42.0096 92.0134 43.6616 90.5929 44.863C89.1724 46.043 87.3491 46.633 85.123 46.633Z" fill="#505050"/>
<path d="M114.562 26.9378V46.2469H111.255V26.9378H104.958V23.7197H120.859V26.9378H114.562Z" fill="#505050"/>
<path d="M126.419 46.2469V23.7197H135.801C138.324 23.7197 140.147 24.3526 141.271 25.6184C142.415 26.8842 142.988 28.4718 142.988 30.3813C142.988 31.8187 142.574 33.1382 141.748 34.3396C140.942 35.5196 139.744 36.3242 138.154 36.7533L142.733 46.2469H138.949L134.56 37.0429H129.727V46.2469H126.419ZM129.727 33.8247H135.864C137.136 33.8247 138.069 33.5029 138.663 32.8593C139.256 32.1942 139.553 31.3682 139.553 30.3813C139.553 29.4373 139.267 28.6327 138.695 27.9677C138.143 27.2811 137.2 26.9378 135.864 26.9378H129.727V33.8247Z" fill="#505050"/>
<path d="M162.876 46.2469L161.095 41.0656H152.096L150.283 46.2469H146.848L154.894 23.7197H158.297L166.311 46.2469H162.876ZM160.078 38.1049L157.375 30.4456C156.993 29.3944 156.739 28.5469 156.611 27.9033C156.421 28.6757 156.166 29.5231 155.848 30.4456L153.113 38.1049H160.078Z" fill="#505050"/>
<path d="M171.169 23.7197H179.596C182.056 23.7197 183.836 24.2882 184.939 25.4253C186.063 26.5624 186.624 27.9998 186.624 29.7377C186.624 30.7031 186.359 31.6042 185.829 32.4409C185.321 33.2562 184.568 33.9105 183.571 34.404C184.886 34.876 185.851 35.584 186.465 36.528C187.101 37.472 187.419 38.5125 187.419 39.6496C187.419 40.4649 187.282 41.248 187.006 41.9989C186.752 42.7283 186.349 43.4256 185.798 44.0907C185.246 44.7343 184.473 45.26 183.476 45.6676C182.501 46.0538 181.367 46.2469 180.073 46.2469H171.169V23.7197ZM179.056 33.0202C180.413 33.0202 181.451 32.7413 182.172 32.1835C182.893 31.6042 183.253 30.8426 183.253 29.8986C183.253 27.8389 182.066 26.8091 179.692 26.8091H174.476V33.0202H179.056ZM180.328 43.1574C181.663 43.1574 182.617 42.8356 183.19 42.192C183.762 41.5483 184.048 40.7545 184.048 39.8105C184.048 37.3433 182.49 36.1096 179.374 36.1096H174.476V43.1574H180.328Z" fill="#505050"/>
<path d="M207.16 46.2469L205.379 41.0656H196.379L194.567 46.2469H191.132L199.178 23.7197H202.581L210.595 46.2469H207.16ZM204.362 38.1049L201.658 30.4456C201.277 29.3944 201.022 28.5469 200.895 27.9033C200.704 28.6757 200.45 29.5231 200.132 30.4456L197.397 38.1049H204.362Z" fill="#505050"/>
<path d="M221.222 46.633C219.611 46.633 218.19 46.2683 216.96 45.5389C215.731 44.8094 214.798 43.7581 214.162 42.3851L217.024 40.9691C217.809 42.5996 219.208 43.4149 221.222 43.4149C222.452 43.4149 223.437 43.0501 224.179 42.3207C224.943 41.5698 225.324 40.2074 225.324 38.2336V23.7197H228.632V38.6842C228.632 40.186 228.409 41.484 227.964 42.5781C227.519 43.6509 226.914 44.4769 226.151 45.0561C225.409 45.614 224.625 46.0109 223.798 46.2469C222.992 46.5043 222.134 46.633 221.222 46.633Z" fill="#505050"/>
<path d="M248.14 45.9572C247.016 46.4078 245.765 46.633 244.387 46.633C243.009 46.633 241.758 46.4078 240.635 45.9572C239.511 45.5067 238.589 44.906 237.868 44.155C237.147 43.4041 236.543 42.5138 236.055 41.484C235.567 40.4542 235.218 39.4029 235.006 38.3302C234.794 37.2574 234.688 36.1418 234.688 34.9833C234.688 33.8247 234.794 32.7091 235.006 31.6364C235.218 30.5636 235.567 29.5124 236.055 28.4826C236.543 27.4528 237.147 26.5624 237.868 25.8115C238.589 25.0606 239.511 24.4599 240.635 24.0093C241.758 23.5588 243.009 23.3335 244.387 23.3335C245.765 23.3335 247.016 23.5588 248.14 24.0093C249.263 24.4599 250.186 25.0606 250.906 25.8115C251.627 26.5624 252.232 27.4528 252.719 28.4826C253.207 29.5124 253.557 30.5636 253.769 31.6364C253.981 32.7091 254.087 33.8247 254.087 34.9833C254.087 36.1418 253.981 37.2574 253.769 38.3302C253.557 39.4029 253.207 40.4542 252.719 41.484C252.232 42.5138 251.627 43.4041 250.906 44.155C250.186 44.906 249.263 45.5067 248.14 45.9572ZM241.461 42.6747C242.309 43.1681 243.285 43.4149 244.387 43.4149C245.49 43.4149 246.465 43.1574 247.313 42.6425C248.161 42.1061 248.818 41.4089 249.285 40.5507C249.751 39.6925 250.09 38.8022 250.302 37.8796C250.535 36.9356 250.652 35.9702 250.652 34.9833C250.652 33.9535 250.535 32.9665 250.302 32.0226C250.09 31.0571 249.751 30.156 249.285 29.3193C248.818 28.4826 248.161 27.8175 247.313 27.324C246.465 26.8091 245.49 26.5517 244.387 26.5517C243.285 26.5517 242.309 26.8198 241.461 27.3562C240.613 27.8711 239.956 28.5577 239.49 29.4158C239.023 30.274 238.673 31.1751 238.44 32.1191C238.228 33.0416 238.122 33.9964 238.122 34.9833C238.122 36.0131 238.228 37.0107 238.44 37.9762C238.673 38.9202 239.023 39.8105 239.49 40.6472C239.956 41.484 240.613 42.1598 241.461 42.6747Z" fill="#505050"/>
<path d="M257.464 49.9799C257.845 49.6367 258.238 49.1432 258.64 48.4996C259.064 47.8774 259.319 47.2552 259.404 46.633C258.831 46.5901 258.333 46.3649 257.909 45.9572C257.485 45.5281 257.273 45.0025 257.273 44.3803C257.273 43.6723 257.506 43.0931 257.973 42.6425C258.439 42.1705 258.99 41.9345 259.626 41.9345C260.347 41.9345 260.941 42.192 261.407 42.7069C261.895 43.2003 262.139 43.919 262.139 44.863C262.139 46.043 261.81 47.1694 261.153 48.2421C260.517 49.3148 259.701 50.1623 258.704 50.7845L257.464 49.9799Z" fill="#505050"/>
<path d="M293.142 46.2469H290.025L280.389 30.9606C280.093 30.4886 279.796 29.9307 279.499 29.2871C279.562 30.3169 279.594 30.8747 279.594 30.9606V46.2469H276.287V23.7197H279.626L289.008 38.7485C289.241 39.1347 289.548 39.714 289.93 40.4863C289.866 39.8427 289.834 39.2742 289.834 38.7807V23.7197H293.142V46.2469Z" fill="#505050"/>
<path d="M312.794 45.9572C311.67 46.4078 310.419 46.633 309.041 46.633C307.663 46.633 306.412 46.4078 305.289 45.9572C304.165 45.5067 303.243 44.906 302.522 44.155C301.801 43.4041 301.197 42.5138 300.709 41.484C300.222 40.4542 299.872 39.4029 299.66 38.3302C299.448 37.2574 299.342 36.1418 299.342 34.9833C299.342 33.8247 299.448 32.7091 299.66 31.6364C299.872 30.5636 300.222 29.5124 300.709 28.4826C301.197 27.4528 301.801 26.5624 302.522 25.8115C303.243 25.0606 304.165 24.4599 305.289 24.0093C306.412 23.5588 307.663 23.3335 309.041 23.3335C310.419 23.3335 311.67 23.5588 312.794 24.0093C313.918 24.4599 314.84 25.0606 315.561 25.8115C316.282 26.5624 316.886 27.4528 317.373 28.4826C317.861 29.5124 318.211 30.5636 318.423 31.6364C318.635 32.7091 318.741 33.8247 318.741 34.9833C318.741 36.1418 318.635 37.2574 318.423 38.3302C318.211 39.4029 317.861 40.4542 317.373 41.484C316.886 42.5138 316.282 43.4041 315.561 44.155C314.84 44.906 313.918 45.5067 312.794 45.9572ZM306.116 42.6747C306.964 43.1681 307.939 43.4149 309.041 43.4149C310.144 43.4149 311.119 43.1574 311.967 42.6425C312.815 42.1061 313.472 41.4089 313.939 40.5507C314.405 39.6925 314.744 38.8022 314.956 37.8796C315.19 36.9356 315.306 35.9702 315.306 34.9833C315.306 33.9535 315.19 32.9665 314.956 32.0226C314.744 31.0571 314.405 30.156 313.939 29.3193C313.472 28.4826 312.815 27.8175 311.967 27.324C311.119 26.8091 310.144 26.5517 309.041 26.5517C307.939 26.5517 306.964 26.8198 306.116 27.3562C305.268 27.8711 304.61 28.5577 304.144 29.4158C303.677 30.274 303.328 31.1751 303.094 32.1191C302.882 33.0416 302.776 33.9964 302.776 34.9833C302.776 36.0131 302.882 37.0107 303.094 37.9762C303.328 38.9202 303.677 39.8105 304.144 40.6472C304.61 41.484 305.268 42.1598 306.116 42.6747Z" fill="#505050"/>
<path d="M333.862 46.2469V23.7197H347.663V26.8735H337.169V33.0524H343.943V36.2062H337.169V43.0931H348.363V46.2469H333.862Z" fill="#505050"/>
<path d="M361.071 46.633C359.099 46.633 357.392 46.1503 355.951 45.1849C354.509 44.198 353.512 42.8571 352.961 41.1622L356.078 40.0036C356.544 41.0549 357.223 41.8916 358.113 42.5138C359.003 43.1145 360.032 43.4149 361.198 43.4149C362.427 43.4149 363.403 43.1145 364.124 42.5138C364.866 41.9131 365.237 41.0549 365.237 39.9392C365.237 39.4672 365.131 39.0382 364.919 38.652C364.728 38.2443 364.505 37.9118 364.251 37.6543C363.996 37.3969 363.604 37.1394 363.074 36.882C362.544 36.6031 362.099 36.3993 361.738 36.2705C361.399 36.1204 360.89 35.9273 360.212 35.6913C359.364 35.3909 358.728 35.1549 358.304 34.9833C357.88 34.8116 357.318 34.5327 356.618 34.1465C355.94 33.7389 355.421 33.342 355.06 32.9558C354.721 32.5482 354.413 32.0226 354.138 31.3789C353.862 30.7353 353.724 30.0166 353.724 29.2227C353.724 27.5708 354.36 26.1762 355.632 25.0391C356.905 23.902 358.632 23.3335 360.816 23.3335C362.639 23.3335 364.134 23.7411 365.3 24.5564C366.487 25.3717 367.282 26.4551 367.685 27.8068L364.632 28.8366C364.336 28.15 363.837 27.6029 363.138 27.1953C362.459 26.7662 361.601 26.5517 360.562 26.5517C359.502 26.5517 358.664 26.7877 358.049 27.2597C357.456 27.7317 357.159 28.3967 357.159 29.2549C357.159 29.8342 357.392 30.3491 357.859 30.7996C358.325 31.2502 358.813 31.5827 359.321 31.7973C359.83 32.0118 360.604 32.3015 361.643 32.6662C362.279 32.9022 362.745 33.0845 363.042 33.2133C363.36 33.3205 363.816 33.5136 364.41 33.7925C365.003 34.0715 365.459 34.3289 365.777 34.5649C366.095 34.7794 366.466 35.0798 366.89 35.466C367.314 35.8522 367.632 36.2491 367.844 36.6567C368.078 37.0429 368.268 37.5256 368.417 38.1049C368.586 38.6627 368.671 39.2634 368.671 39.9071C368.671 42.0096 367.961 43.6616 366.54 44.863C365.12 46.043 363.297 46.633 361.071 46.633Z" fill="#505050"/>
<path d="M396.838 46.2469L395.057 41.0656H386.057L384.245 46.2469H380.81L388.856 23.7197H392.259L400.273 46.2469H396.838ZM394.04 38.1049L391.337 30.4456C390.955 29.3944 390.7 28.5469 390.573 27.9033C390.382 28.6757 390.128 29.5231 389.81 30.4456L387.075 38.1049H394.04Z" fill="#505050"/>
<path d="M408.814 46.2469V37.4291L400.99 23.7197H404.775L410.467 34.0178L416.16 23.7197H419.944L412.121 37.3969V46.2469H408.814Z" fill="#505050"/>
<path d="M433.397 46.633C430.874 46.633 428.849 45.9358 427.323 44.5412C425.796 43.1252 425.033 40.8511 425.033 37.7187V23.7197H428.34V37.7187C428.34 39.8212 428.785 41.3016 429.676 42.1598C430.566 42.9965 431.807 43.4149 433.397 43.4149C434.987 43.4149 436.227 42.9965 437.118 42.1598C438.029 41.3016 438.485 39.8212 438.485 37.7187V23.7197H441.792V37.7187C441.792 40.8511 441.04 43.1252 439.534 44.5412C438.029 45.9358 435.983 46.633 433.397 46.633Z" fill="#505050"/>
<path d="M448.638 23.7197H454.871C456.737 23.7197 458.369 24.0415 459.769 24.6851C461.189 25.3288 462.302 26.1977 463.108 27.2918C463.914 28.386 464.507 29.5767 464.889 30.864C465.292 32.1513 465.493 33.5244 465.493 34.9833C465.493 36.3778 465.302 37.708 464.921 38.9738C464.56 40.2182 463.988 41.4089 463.203 42.546C462.419 43.6616 461.295 44.5627 459.832 45.2492C458.391 45.9143 456.695 46.2469 454.744 46.2469H448.638V23.7197ZM455.285 43.0931C456.493 43.0931 457.553 42.8571 458.465 42.3851C459.376 41.8916 460.087 41.248 460.596 40.4542C461.104 39.6389 461.475 38.7807 461.709 37.8796C461.942 36.9571 462.058 35.9916 462.058 34.9833C462.058 32.7305 461.518 30.8211 460.437 29.2549C459.355 27.6673 457.755 26.8735 455.635 26.8735H451.946V43.0931H455.285Z" fill="#505050"/>
<path d="M484.754 46.2469L482.973 41.0656H473.973L472.16 46.2469H468.726L476.771 23.7197H480.174L488.188 46.2469H484.754ZM481.955 38.1049L479.252 30.4456C478.87 29.3944 478.616 28.5469 478.489 27.9033C478.298 28.6757 478.043 29.5231 477.725 30.4456L474.99 38.1049H481.955Z" fill="#505050"/>
<defs>
<filter id="filter0_d" x="0" y="14.2158" width="46.457" height="51.5686" filterUnits="userSpaceOnUse" color-interpolation-filters="sRGB">
<feFlood flood-opacity="0" result="BackgroundImageFix"/>
<feColorMatrix in="SourceAlpha" type="matrix" values="0 0 0 0 0 0 0 0 0 0 0 0 0 0 0 0 0 0 127 0"/>
<feOffset dx="5" dy="5"/>
<feGaussianBlur stdDeviation="5"/>
<feColorMatrix type="matrix" values="0 0 0 0 0 0 0 0 0 0 0 0 0 0 0 0 0 0 0.25 0"/>
<feBlend mode="normal" in2="BackgroundImageFix" result="effect1_dropShadow"/>
<feBlend mode="normal" in="SourceGraphic" in2="effect1_dropShadow" result="shape"/>
</filter>
</defs>
</svg>
