<svg width="112" height="108" viewBox="0 0 112 108" fill="none" xmlns="http://www.w3.org/2000/svg">
<path d="M1.64648 28.6799H101.602V96.7809H1.64648V28.6799Z" fill="white"/>
<path d="M18.0358 37.4219H12.333C11.4272 37.4219 10.6924 38.1567 10.6924 39.0625C10.6924 39.9691 11.4272 40.7031 12.333 40.7031H18.0358C18.9416 40.7031 19.6764 39.9691 19.6764 39.0625C19.6764 38.1567 18.9416 37.4219 18.0358 37.4219Z" fill="black"/>
<path d="M18.0358 69.1106H12.333C11.4272 69.1106 10.6924 69.8455 10.6924 70.7512C10.6924 71.6578 11.4272 72.3918 12.333 72.3918H18.0358C18.9416 72.3918 19.6764 71.6578 19.6764 70.7512C19.6764 69.8455 18.9416 69.1106 18.0358 69.1106Z" fill="black"/>
<path d="M30.6728 40.7031H36.3757C37.2814 40.7031 38.0163 39.9691 38.0163 39.0625C38.0163 38.1567 37.2814 37.4219 36.3757 37.4219H30.6728C29.7671 37.4219 29.0322 38.1567 29.0322 39.0625C29.0322 39.9691 29.7671 40.7031 30.6728 40.7031Z" fill="black"/>
<path d="M30.6728 72.3918H36.3757C37.2814 72.3918 38.0163 71.6578 38.0163 70.7512C38.0163 69.8455 37.2814 69.1106 36.3757 69.1106H30.6728C29.7671 69.1106 29.0322 69.8455 29.0322 70.7512C29.0322 71.6578 29.7671 72.3918 30.6728 72.3918Z" fill="black"/>
<path d="M49.0127 40.7031H54.7147C55.6204 40.7031 56.3553 39.9691 56.3553 39.0625C56.3553 38.1567 55.6204 37.4219 54.7147 37.4219H49.0127C48.1061 37.4219 47.3721 38.1567 47.3721 39.0625C47.3721 39.9691 48.1061 40.7031 49.0127 40.7031Z" fill="black"/>
<path d="M49.0127 72.3918H54.7147C55.6204 72.3918 56.3553 71.6578 56.3553 70.7512C56.3553 69.8455 55.6204 69.1106 54.7147 69.1106H49.0127C48.1061 69.1106 47.3721 69.8455 47.3721 70.7512C47.3721 71.6578 48.1061 72.3918 49.0127 72.3918Z" fill="black"/>
<path d="M67.3506 40.7031H73.0534C73.9592 40.7031 74.694 39.9691 74.694 39.0625C74.694 38.1567 73.9592 37.4219 73.0534 37.4219H67.3506C66.4448 37.4219 65.71 38.1567 65.71 39.0625C65.71 39.9691 66.4448 40.7031 67.3506 40.7031Z" fill="black"/>
<path d="M67.3506 72.3918H73.0534C73.9592 72.3918 74.694 71.6578 74.694 70.7512C74.694 69.8455 73.9592 69.1106 73.0534 69.1106H67.3506C66.4448 69.1106 65.71 69.8455 65.71 70.7512C65.71 71.6578 66.4448 72.3918 67.3506 72.3918Z" fill="black"/>
<path d="M91.3924 37.4219H85.6904C84.7838 37.4219 84.0498 38.1567 84.0498 39.0625C84.0498 39.9691 84.7838 40.7031 85.6904 40.7031H91.3924C92.2981 40.7031 93.033 39.9691 93.033 39.0625C93.033 38.1567 92.2981 37.4219 91.3924 37.4219Z" fill="black"/>
<path d="M91.3924 69.1106H85.6904C84.7838 69.1106 84.0498 69.8455 84.0498 70.7512C84.0498 71.6578 84.7838 72.3918 85.6904 72.3918H91.3924C92.2981 72.3918 93.033 71.6578 93.033 70.7512C93.033 69.8455 92.2981 69.1106 91.3924 69.1106Z" fill="black"/>
<path d="M18.0358 53.2664H12.333C11.4272 53.2664 10.6924 54.0004 10.6924 54.907C10.6924 55.8136 11.4272 56.5476 12.333 56.5476H18.0358C18.9416 56.5476 19.6764 55.8136 19.6764 54.907C19.6764 54.0004 18.9416 53.2664 18.0358 53.2664Z" fill="black"/>
<path d="M18.0358 84.9553H12.333C11.4272 84.9553 10.6924 85.6893 10.6924 86.5959C10.6924 87.5025 11.4272 88.2365 12.333 88.2365H18.0358C18.9416 88.2365 19.6764 87.5025 19.6764 86.5959C19.6764 85.6893 18.9416 84.9553 18.0358 84.9553Z" fill="black"/>
<path d="M30.6728 56.5476H36.3757C37.2814 56.5476 38.0163 55.8136 38.0163 54.907C38.0163 54.0004 37.2814 53.2664 36.3757 53.2664H30.6728C29.7671 53.2664 29.0322 54.0004 29.0322 54.907C29.0322 55.8136 29.7671 56.5476 30.6728 56.5476Z" fill="black"/>
<path d="M30.6728 88.2365H36.3757C37.2814 88.2365 38.0163 87.5025 38.0163 86.5959C38.0163 85.6893 37.2814 84.9553 36.3757 84.9553H30.6728C29.7671 84.9553 29.0322 85.6893 29.0322 86.5959C29.0322 87.5025 29.7671 88.2365 30.6728 88.2365Z" fill="black"/>
<path d="M49.0127 56.5476H54.7147C55.6204 56.5476 56.3553 55.8136 56.3553 54.907C56.3553 54.0004 55.6204 53.2664 54.7147 53.2664H49.0127C48.1061 53.2664 47.3721 54.0004 47.3721 54.907C47.3721 55.8136 48.1061 56.5476 49.0127 56.5476Z" fill="black"/>
<path d="M49.0127 88.2365H54.7147C55.6204 88.2365 56.3553 87.5025 56.3553 86.5959C56.3553 85.6893 55.6204 84.9553 54.7147 84.9553H49.0127C48.1061 84.9553 47.3721 85.6893 47.3721 86.5959C47.3721 87.5025 48.1061 88.2365 49.0127 88.2365Z" fill="black"/>
<path d="M67.3506 56.5476H73.0534C73.9592 56.5476 74.694 55.8136 74.694 54.907C74.694 54.0004 73.9592 53.2664 73.0534 53.2664H67.3506C66.4448 53.2664 65.71 54.0004 65.71 54.907C65.71 55.8136 66.4448 56.5476 67.3506 56.5476Z" fill="black"/>
<path d="M67.3506 88.2365H73.0534C73.9592 88.2365 74.694 87.5025 74.694 86.5959C74.694 85.6893 73.9592 84.9553 73.0534 84.9553H67.3506C66.4448 84.9553 65.71 85.6893 65.71 86.5959C65.71 87.5025 66.4448 88.2365 67.3506 88.2365Z" fill="black"/>
<path d="M91.3924 53.2664H85.6904C84.7838 53.2664 84.0498 54.0004 84.0498 54.907C84.0498 55.8136 84.7838 56.5476 85.6904 56.5476H91.3924C92.2981 56.5476 93.033 55.8136 93.033 54.907C93.033 54.0004 92.2981 53.2664 91.3924 53.2664Z" fill="black"/>
<path d="M91.3924 84.9553H85.6904C84.7838 84.9553 84.0498 85.6893 84.0498 86.5959C84.0498 87.5025 84.7838 88.2365 85.6904 88.2365H91.3924C92.2981 88.2365 93.033 87.5025 93.033 86.5959C93.033 85.6893 92.2981 84.9553 91.3924 84.9553Z" fill="black"/>
<path d="M109.386 86.2538C109.386 96.8172 100.823 105.38 90.2594 105.38C79.6961 105.38 71.1328 96.8172 71.1328 86.2538C71.1328 75.6905 79.6961 67.1272 90.2594 67.1272C100.823 67.1272 109.386 75.6905 109.386 86.2538Z" fill="#B5B5B5"/>
<path d="M1.47168 16.0396C1.47168 11.3701 5.25706 7.58472 9.92656 7.58472H92.9726C97.6421 7.58472 101.427 11.3701 101.427 16.0396V28.6799H1.47168V16.0396Z" fill="#FF9191"/>
<path d="M14.5869 2.19824H21.4156V13.8018H14.5869V2.19824Z" fill="white"/>
<path d="M36.4082 2.19824H43.2369V13.8018H36.4082V2.19824Z" fill="white"/>
<path d="M58.4014 2.19824H65.23V13.8018H58.4014V2.19824Z" fill="white"/>
<path d="M80.3955 2.19824H87.2242V13.8018H80.3955V2.19824Z" fill="white"/>
<path d="M105.121 86.2538C105.121 94.4613 98.4679 101.115 90.2604 101.115C82.0529 101.115 75.3994 94.4613 75.3994 86.2538C75.3994 78.0463 82.0529 71.3928 90.2604 71.3928C98.4679 71.3928 105.121 78.0463 105.121 86.2538Z" fill="white"/>
<path d="M1.64061 79.8063C2.54636 79.8063 3.28122 79.0723 3.28122 78.1657V30.3821H100.215V48.416C100.215 49.3226 100.95 50.0566 101.855 50.0566C102.762 50.0566 103.496 49.3226 103.496 48.416V15.9925C103.496 10.4922 99.0211 6.01728 93.5217 6.01728H89.2193V3.98532C89.2193 1.78758 87.4317 0 85.234 0H82.1861C79.9892 0 78.2016 1.78758 78.2016 3.98532V6.01728H67.3206V3.98532C67.3206 1.78758 65.533 0 63.3353 0H60.2873C58.0904 0 56.3029 1.78758 56.3029 3.98532V6.01728H45.421V3.98532C45.421 1.78758 43.6334 0 41.4357 0H38.3886C36.1909 0 34.4033 1.78758 34.4033 3.98532V6.01728H23.5223V3.98532C23.5223 1.78758 21.7347 0 19.5369 0H16.4898C14.2921 0 12.5045 1.78758 12.5045 3.98532V6.01728H9.97526C4.47494 6.01728 0 10.4922 0 15.9925V78.1657C0 79.0723 0.734857 79.8063 1.64061 79.8063ZM81.4828 3.98532C81.4828 3.59738 81.799 3.28122 82.1869 3.28122H85.2349C85.6228 3.28122 85.9381 3.59738 85.9381 3.98532V11.956C85.9381 12.3439 85.6228 12.66 85.2349 12.66H82.1869C81.799 12.66 81.4828 12.3447 81.4828 11.956V3.98532ZM59.5841 3.98532C59.5841 3.59738 59.8994 3.28122 60.2873 3.28122H63.3353C63.7232 3.28122 64.0394 3.59738 64.0394 3.98532V11.956C64.0394 12.3439 63.7232 12.66 63.3353 12.66H60.2873C59.8994 12.66 59.5841 12.3447 59.5841 11.956V3.98532ZM37.6845 3.98532C37.6845 3.59738 38.0007 3.28122 38.3886 3.28122H41.4365C41.8245 3.28122 42.1406 3.59738 42.1406 3.98532V11.956C42.1406 12.3439 41.8245 12.66 41.4365 12.66H38.3886C38.0007 12.66 37.6845 12.3447 37.6845 11.956V3.98532ZM15.7858 3.98532C15.7858 3.59738 16.1019 3.28122 16.4898 3.28122H19.5378C19.9257 3.28122 20.241 3.59738 20.241 3.98532V11.956C20.241 12.3439 19.9257 12.66 19.5378 12.66H16.4898C16.1019 12.66 15.7858 12.3447 15.7858 11.956V3.98532ZM9.97526 9.2985H12.5045V11.956C12.5045 14.1537 14.2921 15.9413 16.4898 15.9413H19.5378C21.7347 15.9413 23.5223 14.1537 23.5223 11.956V9.2985H34.4041V11.956C34.4041 14.1537 36.1917 15.9413 38.3886 15.9413H41.4365C43.6343 15.9413 45.4219 14.1537 45.4219 11.956V9.2985H56.3029V11.956C56.3029 14.1537 58.0904 15.9413 60.2882 15.9413H63.3361C65.533 15.9413 67.3206 14.1537 67.3206 11.956V9.2985H78.2016V11.956C78.2016 14.1537 79.9892 15.9413 82.1869 15.9413H85.2349C87.4317 15.9413 89.2193 14.1537 89.2193 11.956V9.2985H93.5217C97.213 9.2985 100.216 12.3012 100.216 15.9925V27.1008H3.28122V15.9925C3.28122 12.3012 6.28388 9.2985 9.97526 9.2985Z" fill="black"/>
<path d="M18.5739 95.0639H4.26815C3.72385 95.0639 3.28122 94.6212 3.28122 94.0769V85.6423C3.28122 84.7357 2.54636 84.0017 1.64061 84.0017C0.734857 84.0017 0 84.7357 0 85.6423V94.0769C0 96.4302 1.9149 98.3451 4.26815 98.3451H18.5739C19.4797 98.3451 20.2145 97.6102 20.2145 96.7045C20.2145 95.7979 19.4797 95.0639 18.5739 95.0639Z" fill="black"/>
<path d="M90.2329 70.1145C81.3471 70.1145 74.1182 77.3443 74.1182 86.2292C74.1182 95.115 81.3471 102.344 90.2329 102.344C99.1187 102.344 106.347 95.115 106.347 86.2292C106.347 77.3443 99.1178 70.1145 90.2329 70.1145Z" fill="black"/>
<path d="M90.2144 72.1711C82.4761 72.1711 76.1807 78.4671 76.1807 86.2045C76.1807 93.9425 82.4761 100.238 90.2144 100.238C97.9526 100.238 104.247 93.9425 104.247 86.2045C104.247 78.4671 97.9519 72.1711 90.2144 72.1711Z" fill="white"/>
<path d="M96.0416 78.9349L86.5366 88.1843L83.0946 85.4285L81.0736 85.8719L80.1895 87.3924L80.6947 88.9445L85.0525 93.3791L86.5366 93.8226L87.9576 93.3791L99.1678 82.2292V79.7268L97.6521 78.5864L96.0416 78.9349Z" fill="#FF9090"/>
<path d="M80.2749 89.7963L84.2315 93.7402C84.8038 94.3106 85.5645 94.6246 86.3741 94.6246C87.1837 94.6246 87.9448 94.3106 88.5167 93.7402L99.352 82.9398C100.534 81.7621 100.534 79.8457 99.352 78.668C98.1705 77.4902 96.2479 77.4902 95.0664 78.668L86.3741 87.3322L84.5601 85.5245C83.379 84.3468 81.4564 84.3468 80.2745 85.5245C79.0933 86.7022 79.0933 88.6186 80.2749 89.7963ZM81.363 86.6091C81.6536 86.3195 82.0355 86.1745 82.4175 86.1745C82.7994 86.1745 83.1814 86.3195 83.472 86.6091L85.8298 88.9594C86.1304 89.259 86.6174 89.259 86.9179 88.9594L96.1545 79.753C96.7365 79.1733 97.6823 79.1733 98.2635 79.7526C98.845 80.3323 98.845 81.2755 98.2635 81.8551L87.4286 92.6551C87.1468 92.936 86.7725 93.0906 86.3741 93.0906C85.9757 93.0906 85.6014 92.936 85.3196 92.6551L81.363 88.7113C80.7815 88.1316 80.7815 87.1888 81.363 86.6091Z" fill="black"/>
<path d="M103.497 68.9841V55.8926C103.497 54.986 102.763 54.252 101.856 54.252C100.951 54.252 100.216 54.986 100.216 55.8926V66.8915C97.2242 65.3406 93.8294 64.463 90.2337 64.463C78.2316 64.463 68.4674 74.2273 68.4674 86.2293C68.4674 89.373 69.1382 92.362 70.3421 95.0639H26.0508C25.145 95.0639 24.4102 95.7979 24.4102 96.7045C24.4102 97.6102 25.145 98.3451 26.0508 98.3451H72.1596C76.0706 104.162 82.7125 107.996 90.2337 107.996C102.236 107.996 112 98.2314 112 86.2293C112 79.2157 108.664 72.9669 103.497 68.9841ZM90.2337 104.714C80.0405 104.714 71.7486 96.4225 71.7486 86.2293C71.7486 76.0362 80.0414 67.7443 90.2337 67.7443C100.426 67.7443 108.719 76.0362 108.719 86.2293C108.719 96.4225 100.426 104.714 90.2337 104.714Z" fill="black"/>
<path d="M8.82129 32.3433H59.3412V62.8156H8.82129V32.3433Z" fill="white"/>
<path d="M51.8571 58.8807C51.8571 59.4301 51.4117 59.8754 50.8624 59.8754H34.9517C34.4024 59.8754 33.957 59.4301 33.957 58.8807V55.9253C33.957 55.6624 34.0611 55.4101 34.2466 55.2237L39.9698 49.4717C41.2138 48.1669 42.1814 47.1254 42.8725 46.3471C43.5867 45.5689 44.082 44.905 44.3584 44.3557C44.6349 43.8063 44.7731 43.234 44.7731 42.6389C44.7731 41.9064 44.5312 41.3799 44.0474 41.0594C43.5867 40.739 43.0338 40.5787 42.3887 40.5787C41.6054 40.5787 40.8222 40.7962 40.0389 41.2311C39.4588 41.5532 38.8156 41.9946 38.1092 42.5552C37.6793 42.8963 37.0536 42.8512 36.6956 42.4352L34.3148 39.6678C33.9622 39.258 34.0003 38.6401 34.415 38.2934C34.9325 37.8607 35.471 37.4436 36.0304 37.0422C36.8828 36.447 37.8734 35.9663 39.0022 35.6001C40.131 35.2109 41.5133 35.0164 43.1489 35.0164C44.8307 35.0164 46.282 35.3139 47.503 35.9091C48.724 36.4813 49.6685 37.2711 50.3366 38.2782C51.0277 39.2854 51.3733 40.4299 51.3733 41.7118C51.3733 43.131 51.1084 44.4014 50.5785 45.5231C50.0717 46.6218 49.2884 47.732 48.2287 48.8536C47.192 49.9524 45.8904 51.2113 44.3238 52.6306L42.5663 54.2089C42.5413 54.2315 42.5269 54.2636 42.5269 54.2973C42.5269 54.3629 42.5801 54.416 42.6457 54.416H50.8624C51.4117 54.416 51.8571 54.8613 51.8571 55.4107V58.8807Z" fill="black"/>
<path d="M21.9463 44.8665C21.9463 45.4158 22.3916 45.8611 22.941 45.8611H27.3399C27.8892 45.8611 28.3345 46.3065 28.3345 46.8558V49.4777C28.3345 50.027 27.8892 50.4724 27.3399 50.4724H22.941C22.3916 50.4724 21.9463 50.9177 21.9463 51.467V55.6729C21.9463 56.2223 21.501 56.6676 20.9516 56.6676H18.3429C17.7935 56.6676 17.3482 56.2223 17.3482 55.6729V51.467C17.3482 50.9177 16.9029 50.4724 16.3535 50.4724H11.9546C11.4053 50.4724 10.96 50.027 10.96 49.4777V46.8558C10.96 46.3065 11.4053 45.8611 11.9546 45.8611H16.3535C16.9029 45.8611 17.3482 45.4158 17.3482 44.8665V40.555C17.3482 40.0056 17.7935 39.5603 18.3429 39.5603H20.9516C21.501 39.5603 21.9463 40.0056 21.9463 40.555V44.8665Z" fill="black"/>
</svg>
