<svg width="85" height="122" viewBox="0 0 85 122" fill="none" xmlns="http://www.w3.org/2000/svg">
<path d="M24.0856 31.3815C21.8392 32.8154 25.7559 32.8239 28.7417 29.613C29.3967 33.6329 27.9134 36.7344 24.8119 38.892C23.868 40.3753 31.1497 37.2738 32.0936 36.3299C33.8467 42.1283 28.3179 46.4434 26.1604 47.3873C27.374 50.4888 40.2519 41.8586 41.2632 39.4313C41.9375 37.8132 42.6117 38.3526 43.9602 35.5208C45.3086 32.689 63.2432 38.6223 66.075 38.8919C68.5023 39.701 72.5477 38.4874 74.031 37.0041C74.5704 35.9254 64.8614 38.5121 65.6705 32.2845C68.2326 33.2284 78.6158 29.5875 77.4021 24.733C73.6264 29.0481 67.5583 26.7557 65.1311 20.5528C64.8614 19.0695 68.6371 17.8558 69.9856 14.6195C70.8284 12.5968 67.1538 16.5074 64.1872 15.1589C63.6478 10.5741 62.1645 5.31509 59.4675 6.52872C55.0176 -0.0787823 46.6571 -0.213617 40.0018 3.56384C29.5344 4.90216 23.6938 14.2702 25.376 19.6713C27.0582 25.0723 26.332 29.9476 24.0856 31.3815Z" fill="#5A1C08"/>
<path d="M54.6159 18.3593C49.9797 10.1383 34.6846 11.0464 33.5854 21.7529C32.6045 31.3075 38.5892 42.6892 47.7355 39.7961C49.6234 42.9373 46.7916 46.3085 44.7689 48.1964C44.0905 48.8295 48.2186 50.2356 52.9945 49.9494C58.5232 49.618 65.885 46.3144 64.9959 45.4994C63.3777 44.0161 62.0722 39.7961 62.0722 37.9081C53.8034 34.658 59.2522 26.5803 54.6159 18.3593Z" fill="#893F1F"/>
<path d="M34.4125 70.8614C26.4784 70.3834 24.3752 62.2102 30.5888 57.5739C34.1623 54.9076 43.0163 49.6796 44.6344 48.1734C47.4662 52.9159 62.7039 49.4099 65.6705 45.6342C69.7159 47.1175 77.8067 47.5221 83.2006 66.1309C84.9536 87.8412 70.3902 108.877 78.481 121H9.17583C4.60487 116.637 2.4374 108.921 3.07657 100.656L6.02819 88.5633C10.4023 78.5267 19.6088 70.4195 34.4125 70.8614Z" fill="#214337"/>
<path d="M47.6853 39.7936C51.509 46.7241 36.7399 52.9377 30.5263 57.574C24.3127 62.2102 26.4159 70.3834 34.35 70.8614C19.5463 70.4195 10.3398 78.5267 5.9657 88.5633M9.11333 121C4.54238 116.637 2.37491 108.921 3.01408 100.656" stroke="black" stroke-width="2" stroke-linecap="round" stroke-linejoin="round"/>
<path d="M78.7057 120.904C68.5251 109.338 90.4156 77.5051 80.8565 58.6732C71.2974 39.8414 64.5577 53.3678 62.0723 37.8817" stroke="black" stroke-width="2" stroke-linecap="round" stroke-linejoin="round"/>
<path d="M67.1382 63.4529C63.7446 84.34 48.5453 88.6417 44.1002 89.8366C39.6552 91.0316 37.0264 89.7411 39.4162 98.201C41.806 106.661 43.0009 105.337 48.2107 104.271C53.4205 103.206 81.1904 93.8516 81.1904 68.376" stroke="black" stroke-width="2" stroke-linecap="round" stroke-linejoin="round"/>
<path d="M44.6748 48.0625C47.7338 52.1252 63.9846 49.2096 65.0361 45.3859" stroke="black" stroke-width="2" stroke-linecap="round" stroke-linejoin="round"/>
<path d="M38.8906 27.3665C40.2767 30.5689 38.5559 35.014 39.7988 35.3963C41.0416 35.7787 42.6667 34.0102 42.9057 33.1977" stroke="black" stroke-width="2" stroke-linecap="round" stroke-linejoin="round"/>
<path d="M65.8003 32.3374C64.3664 36.5435 71.3447 37.117 73.8302 36.5435C76.3156 35.97 70.341 41.1319 62.0722 37.8818C53.8034 34.6317 59.2522 26.554 54.6159 18.333C49.9797 10.112 34.6846 11.0201 33.5854 21.7266C32.4863 32.433 40.1334 45.4336 51.1745 38.073" stroke="black" stroke-width="2" stroke-linecap="round" stroke-linejoin="round"/>
<path d="M34.9248 8.34346C43.0502 -2.93655 59.4922 -0.498882 60.6394 10.7333" stroke="black" stroke-width="2" stroke-linecap="round" stroke-linejoin="round"/>
<path d="M59.3477 6.47942C61.6998 5.76437 63.5234 9.3303 64.3229 15.4174M62.8368 31.8131C74.7859 35.3977 80.5215 21.7743 76.2676 25.6458C72.4236 29.1444 66.4719 25.8125 64.9022 19.6713" stroke="black" stroke-width="2" stroke-linecap="round" stroke-linejoin="round"/>
<path d="M60.209 14.0314C62.7422 15.3219 66.5659 16.5645 70.0073 14.0313C70.9704 13.3224 67.952 19.9581 63.3158 19.9581" stroke="black" stroke-width="2" stroke-linecap="round" stroke-linejoin="round"/>
<path d="M28.8066 29.613C26.2733 32.3852 21.9041 32.8154 24.1505 31.3815C26.3969 29.9476 27.1231 25.0723 25.4409 19.6713C23.7586 14.2703 29.5992 4.90217 40.0666 3.56384" stroke="black" stroke-width="2" stroke-linecap="round" stroke-linejoin="round"/>
<path d="M41.281 39.4113C32.9165 48.875 22.927 48.9706 26.7985 47.0587C30.6701 45.1468 34.0161 41.0841 31.8172 36.4957" stroke="black" stroke-width="2" stroke-linecap="round" stroke-linejoin="round"/>
<path d="M28.567 28.5615C30.0009 34.5838 27.9934 36.3086 24.9344 38.6465C21.8755 40.9845 32.4384 36.8781 33.1076 35.492" stroke="black" stroke-width="2" stroke-linecap="round" stroke-linejoin="round"/>
<path d="M29.3876 93.2731C31.2812 94.4192 33.8673 95.088 37.6384 94.5369C37.7899 95.6219 38.0474 97.0084 38.4215 98.452C38.8135 99.9646 39.3456 101.589 40.0437 103.009C38.4251 103.387 36.2379 103.974 33.4607 104.9C30.0858 106.025 27.2458 105.446 25.7942 103.956C25.159 103.304 24.7967 102.055 24.7329 100.362C24.6711 98.7221 24.8965 96.8926 25.1993 95.3325C25.4422 94.0813 26.1646 93.4025 26.9641 93.1032C27.8115 92.786 28.7563 92.891 29.3876 93.2731Z" fill="#893F1F" stroke="black" stroke-width="2" stroke-linecap="round" stroke-linejoin="round"/>
<path d="M4.35864 90.0577C4.4801 89.9564 4.7773 89.8131 5.26543 89.7245C5.72998 89.6401 6.26992 89.6235 6.78418 89.6883C7.30614 89.754 7.73783 89.8952 8.02706 90.0756C8.30276 90.2476 8.38967 90.4112 8.41168 90.5553C8.45813 90.8595 8.40029 91.4967 8.18976 92.4299C7.98909 93.3195 7.67976 94.3544 7.32498 95.3817C6.97077 96.4073 6.57734 97.4078 6.21401 98.226C5.83685 99.0754 5.52963 99.6416 5.35796 99.8654C5.3232 99.9108 5.23422 99.9906 4.97386 100.017C4.70633 100.045 4.34775 100.002 3.94823 99.8805C3.55475 99.7604 3.17667 99.5801 2.88328 99.3865C2.73744 99.2902 2.62513 99.1989 2.54644 99.1212C2.50567 99.081 2.48002 99.0504 2.46489 99.0306C2.46452 99.0282 2.46414 99.0256 2.46376 99.0229C2.45484 98.9601 2.447 98.8632 2.44442 98.7271C2.43927 98.4553 2.456 98.0906 2.49589 97.6505C2.57536 96.774 2.74002 95.6706 2.95985 94.5578C3.17994 93.4436 3.45008 92.3468 3.7343 91.4785C3.87682 91.0432 4.01634 90.6855 4.14601 90.4196C4.26284 90.18 4.33944 90.0832 4.35659 90.0615C4.3606 90.0564 4.36136 90.0554 4.35864 90.0577Z" fill="#893F1F" stroke="black" stroke-width="2" stroke-linecap="round" stroke-linejoin="round"/>
</svg>
