<svg width="80" height="80" viewBox="0 0 80 80" fill="none" xmlns="http://www.w3.org/2000/svg">
<path fill-rule="evenodd" clip-rule="evenodd" d="M2.38438 52.9904L27.2916 77.9021L28.2222 78.8282L32.6024 74.448L23.9987 56.6098L5.55206 47.3977L1.17188 51.7779L2.38438 52.9904Z" fill="white"/>
<path fill-rule="evenodd" clip-rule="evenodd" d="M57.6933 22.7188L74.4488 32.6021L78.829 28.222L77.9029 27.2913L52.9911 2.38414L51.7786 1.17163L47.3984 5.55166L57.6933 22.7188Z" fill="white"/>
<path fill-rule="evenodd" clip-rule="evenodd" d="M7.62695 49.4737L14.5215 56.3683L56.3676 14.5223L49.473 7.62769C44.9094 11.7529 35.5989 19.8151 30.118 22.2893C26.2032 24.0565 24.0602 26.1951 22.2885 30.1189C19.8144 35.5996 11.752 44.9103 7.62695 49.4737Z" fill="#A9F0FF"/>
<path fill-rule="evenodd" clip-rule="evenodd" d="M24.2402 66.086L30.2176 72.0634C36.2845 67.0435 46.4407 57.5808 52.0109 52.0106C57.5811 46.4405 67.0438 36.2843 72.0637 30.2174L66.0863 24.24L24.2402 66.086Z" fill="#A1D4FF"/>
<path fill-rule="evenodd" clip-rule="evenodd" d="M13.3184 55.1648L19.345 61.1914L19.3807 61.2272L61.2269 19.381L55.1646 13.3186L13.3184 55.1648Z" fill="#A9F0FF"/>
<path fill-rule="evenodd" clip-rule="evenodd" d="M18.1514 59.9968L24.2406 66.0861L66.0868 24.24L61.2279 19.3811L18.1514 59.9968Z" fill="#A9F0FF"/>
<path fill-rule="evenodd" clip-rule="evenodd" d="M5.55273 47.3977L9.70464 51.5496C13.8298 46.986 21.8921 37.6755 24.3663 32.1947C26.138 28.2709 28.2812 26.1323 32.1959 24.3651C37.6767 21.8908 46.9872 13.8286 51.5508 9.70342L47.3989 5.55151C41.3231 11.6273 35.4979 16.276 29.7173 18.8888C26.6391 20.2758 24.6525 21.703 23.2433 23.2421C21.7042 24.6515 20.277 26.6379 18.89 29.716C16.277 35.4967 11.6286 41.3219 5.55273 47.3977Z" fill="white"/>
<path fill-rule="evenodd" clip-rule="evenodd" d="M70.606 28.7587C65.5861 34.8256 56.1188 44.9817 50.553 50.5519C44.9828 56.1177 34.8267 65.5848 28.7598 70.6047L32.6031 74.448C40.3075 68.2425 47.7568 61.7461 54.8035 54.8023C61.7473 47.7555 68.2436 40.3062 74.4493 32.6018L70.606 28.7587Z" fill="white"/>
<path d="M79.6572 27.3933L79.2141 26.9501C79.9283 24.0975 79.6069 20.8437 78.2672 17.4868C76.9591 14.2091 74.7659 10.9849 71.925 8.16283C69.1092 5.36578 65.9082 3.21576 62.6684 1.94529C59.3543 0.64559 56.145 0.348401 53.3327 1.06841L52.6069 0.342932C52.1492 -0.114415 51.4073 -0.114259 50.9498 0.343088L46.5697 4.72327C40.1081 11.1849 34.4375 15.4693 29.2353 17.8207C26.2175 19.1806 24.0479 20.6406 22.4134 22.4131C20.6411 24.0476 19.1809 26.2172 17.8217 29.2337C15.4696 34.4374 11.1852 40.1079 4.7236 46.5695L0.343264 50.9492C-0.114395 51.4067 -0.114395 52.1486 0.343108 52.6062L1.06858 53.332C0.348577 56.1445 0.645766 59.3538 1.94546 62.6679C3.21594 65.9077 5.36611 69.1085 8.163 71.9245C10.9852 74.7656 14.2093 76.9587 17.487 78.2667C19.6848 79.1439 21.8387 79.5855 23.8647 79.5855C24.9333 79.5855 25.9655 79.4605 26.9505 79.2137L27.3934 79.6567C27.6222 79.8855 27.9222 80 28.222 80C28.5219 80 28.8219 79.8856 29.0506 79.6567L33.3874 75.32C41.7382 68.5913 49.0131 62.1524 55.625 55.6369C55.6291 55.6328 55.6331 55.6287 55.6372 55.6247C62.1527 49.0126 68.5917 41.7379 75.3203 33.3871L79.6571 29.0503C80.1149 28.5928 80.1149 27.8508 79.6572 27.3933ZM19.9578 30.1975C21.192 27.4583 22.4873 25.5228 24.034 24.1064C24.0594 24.0832 24.0837 24.0589 24.1069 24.0336C25.5231 22.4868 27.4588 21.1917 30.1992 19.9568C35.4365 17.5896 41.0688 13.4138 47.3943 7.20516L49.8473 9.65815C45.5148 13.5297 36.8233 20.9903 31.713 23.2971C27.5411 25.1804 25.1817 27.54 23.2975 31.7127C20.9906 36.8229 13.5302 45.5145 9.65848 49.847L7.2055 47.394C13.4141 41.0685 17.5899 35.436 19.9578 30.1975ZM24.2403 64.4286L21.0387 61.2271L61.2276 21.0382L64.4291 24.2398L24.2403 64.4286ZM66.0863 25.8972L69.0189 28.8297C63.9346 34.8705 55.131 44.3118 49.7241 49.7231C44.3121 55.1306 34.8708 63.9343 28.83 69.0185L25.8975 66.086L66.0863 25.8972ZM19.3815 59.5699L16.1799 56.3683L56.3686 16.1794L59.5702 19.381L19.3815 59.5699ZM14.5226 54.7111L11.3185 51.507C15.8663 46.4282 23.0431 37.9727 25.4336 32.677C27.0766 29.0386 29.0399 27.0753 32.6774 25.4332C37.973 23.0426 46.4286 15.8658 51.5073 11.3182L54.7114 14.5222L14.5226 54.7111ZM28.2222 77.1709L16.586 65.5348C16.1284 65.0771 15.3863 65.0771 14.9288 65.5348C14.4712 65.9924 14.4712 66.7345 14.9288 67.192L24.9242 77.1873C20.2882 77.6262 14.5907 75.0695 9.82598 70.2728C5.12658 65.5418 2.63719 59.9139 3.08844 55.3528L11.0452 63.3129C11.5027 63.7707 12.2447 63.7707 12.7024 63.3132C13.1602 62.8557 13.1604 62.1136 12.7027 61.656L2.82906 51.7781L5.55205 49.0551L30.9452 74.4482L28.2222 77.1709ZM53.9741 53.9737C47.6231 60.2316 40.6518 66.4213 32.6858 72.8742L30.4933 70.6817C36.5901 65.5354 45.9812 56.7761 51.3814 51.3803C56.7766 45.9807 65.5359 36.5896 70.6822 30.493L72.8747 32.6855C66.4217 40.6515 60.2319 47.6226 53.9741 53.9737ZM77.1878 24.9237L66.8614 14.5974C66.4037 14.1397 65.6617 14.1397 65.2041 14.5974C64.7465 15.0551 64.7465 15.7971 65.2041 16.2546L77.1714 28.2219L74.4486 30.9447L49.0555 5.55172L51.7784 2.82873L61.039 12.085C61.4966 12.5424 62.2387 12.5422 62.6963 12.0847C63.1538 11.6269 63.1537 10.885 62.696 10.4274L55.3535 3.08811C59.9146 2.63701 65.5424 5.12624 70.2732 9.82565C75.0698 14.5902 77.6267 20.2877 77.1878 24.9237Z" fill="black"/>
</svg>
