<svg width="81" height="106" viewBox="0 0 81 106" fill="none" xmlns="http://www.w3.org/2000/svg">
<path d="M15.9982 60.387L10.728 63.4452L22.4643 83.8767L25.6073 82.0528C27.2583 81.0948 29.2155 80.8204 31.0642 81.2878L42.9654 84.2965C43.997 84.5573 45.0727 84.5894 46.1179 84.3908L58.9009 81.9608C59.5004 81.8468 60.0833 81.6582 60.6363 81.3992L75.3873 74.4897C77.2353 73.6241 77.9481 71.3528 76.9287 69.5781C76.1095 68.152 74.4104 67.4948 72.8513 68.0011L61.4197 71.7134C60.8313 71.9045 60.2213 72.02 59.604 72.0572L53.1659 72.4456L53.1209 71.692C52.917 68.2769 50.4023 65.4515 47.0481 64.8688L36.8853 63.1034C36.19 62.9827 35.5158 62.7617 34.8833 62.4474L29.8357 59.9389C25.4388 57.7538 20.2462 57.9219 15.9982 60.387Z" fill="#FFDDCE"/>
<path d="M23.9133 75.7993L19.3462 78.4496L22.4636 83.8767L25.6066 82.0529C27.2576 81.0948 29.2148 80.8204 31.0635 81.2878L42.9647 84.2965C43.9963 84.5573 45.072 84.5895 46.1171 84.3908L58.9002 81.9608C59.4997 81.8469 60.0826 81.6582 60.6356 81.3992L76.9786 73.7441C77.9708 73.2794 78.3535 72.0598 77.8062 71.107C77.3391 70.2939 76.3457 69.9534 75.4817 70.3101L59.9857 76.7084C59.4573 76.9266 58.9054 77.082 58.3412 77.1714L44.0524 79.4364L29.681 75.1202C27.7473 74.5395 25.661 74.7851 23.9133 75.7993Z" fill="#DAB7A7"/>
<path fill-rule="evenodd" clip-rule="evenodd" d="M75.9744 70.1315C75.4146 69.157 74.2536 68.7079 73.1882 69.0539L61.7566 72.7661C61.08 72.9859 60.3784 73.1187 59.6686 73.1615L53.2305 73.5499L53.2164 73.5507L40.436 74.1566C39.829 74.1854 39.3137 73.7141 39.2851 73.104C39.2565 72.4939 39.7253 71.976 40.3323 71.9473L51.989 71.3947C51.6666 68.6569 49.5904 66.4334 46.8594 65.959L36.6965 64.1936C35.897 64.0547 35.1216 63.8006 34.3943 63.4391L29.3467 60.9307C25.2795 58.9094 20.4764 59.0649 16.547 61.3451L12.2297 63.8504L22.8657 82.3664L25.0558 81.0955C26.9544 79.9937 29.2052 79.6782 31.3313 80.2157L43.2325 83.2244C44.1093 83.4461 45.0236 83.4734 45.912 83.3046L58.6951 80.8745C59.2046 80.7777 59.7001 80.6173 60.1701 80.3972L74.9211 73.4878C76.1839 72.8963 76.671 71.3442 75.9744 70.1315ZM54.1898 71.2763C53.8098 67.5071 50.9763 64.4296 47.2341 63.7795L37.0713 62.0141C36.4804 61.9115 35.9072 61.7237 35.3697 61.4565L30.3221 58.948C25.5953 56.599 20.0133 56.7797 15.4467 59.4296L10.1765 62.4879C9.65025 62.7933 9.46994 63.4696 9.77377 63.9986L21.5101 84.43C21.8139 84.9589 22.4869 85.1402 23.0131 84.8348L26.1561 83.0109C27.5594 82.1966 29.223 81.9634 30.7945 82.3606L42.6957 85.3694C43.882 85.6693 45.119 85.7063 46.321 85.4778L59.1041 83.0478C59.7934 82.9168 60.4638 82.6998 61.0997 82.4019L75.8507 75.4925C78.2839 74.3528 79.2224 71.3622 77.8802 69.0256C76.8016 67.1479 74.5644 66.2826 72.5117 66.9492L61.0801 70.6615C60.5799 70.8239 60.0614 70.9221 59.5367 70.9537L54.1898 71.2763Z" fill="black"/>
<path d="M6.98782 61.3588C8.74201 60.3408 10.9851 60.9449 11.9979 62.708L23.7342 83.1395C24.747 84.9026 24.1459 87.1571 22.3918 88.175L18.5803 90.3868C16.8261 91.4047 14.583 90.8006 13.5702 89.0375L1.8339 68.6061C0.821122 66.843 1.42215 64.5885 3.17634 63.5705L6.98782 61.3588Z" fill="#F2838D"/>
<path fill-rule="evenodd" clip-rule="evenodd" d="M21.8285 84.2454L10.0921 63.8139C9.68701 63.1087 8.78978 62.867 8.08811 63.2742L4.27662 65.486C3.57494 65.8932 3.33453 66.795 3.73965 67.5002L15.476 87.9316C15.8811 88.6369 16.7783 88.8785 17.48 88.4713L21.2915 86.2596C21.9932 85.8524 22.2336 84.9506 21.8285 84.2454ZM11.9979 62.708C10.9851 60.9449 8.74201 60.3408 6.98782 61.3588L3.17634 63.5705C1.42215 64.5885 0.821122 66.843 1.8339 68.6061L13.5702 89.0375C14.583 90.8006 16.8261 91.4047 18.5803 90.3868L22.3918 88.175C24.1459 87.1571 24.747 84.9026 23.7342 83.1395L11.9979 62.708Z" fill="black"/>
<path d="M16.524 77.9594C18.2781 76.9414 20.5212 77.5455 21.534 79.3086L23.7346 83.1395C24.7473 84.9026 24.1463 87.1571 22.3921 88.1751L18.5806 90.3868C16.8264 91.4048 14.5834 90.8007 13.5706 89.0376L11.37 85.2067C10.3573 83.4435 10.9583 81.1891 12.7125 80.1711L16.524 77.9594Z" fill="#CF727A"/>
<path fill-rule="evenodd" clip-rule="evenodd" d="M21.8288 84.2454L19.6283 80.4145C19.2231 79.7093 18.3259 79.4676 17.6242 79.8748L13.8128 82.0866C13.1111 82.4937 12.8707 83.3955 13.2758 84.1008L15.4763 87.9317C15.8815 88.6369 16.7787 88.8786 17.4804 88.4714L21.2918 86.2596C21.9935 85.8524 22.2339 84.9506 21.8288 84.2454ZM21.534 79.3086C20.5212 77.5455 18.2781 76.9414 16.524 77.9594L12.7125 80.1711C10.9583 81.1891 10.3573 83.4435 11.37 85.2067L13.5706 89.0376C14.5834 90.8007 16.8264 91.4048 18.5806 90.3868L22.3921 88.1751C24.1463 87.1571 24.7473 84.9026 23.7346 83.1395L21.534 79.3086Z" fill="black"/>
<g opacity="0.8">
<path d="M13.3135 18.5874H75.3858V53.9869H13.3135V18.5874Z" fill="#71E4BF"/>
<path d="M71.6402 27.4372V45.137C69.0886 45.137 67.0191 47.217 67.0191 49.7816C67.0191 49.9297 67.0266 50.0766 67.0404 50.2209H21.6614C21.6751 50.0766 21.6826 49.9297 21.6826 49.7816C21.6826 47.217 19.6131 45.137 17.0615 45.137V27.4372C19.6131 27.4372 21.6826 25.3572 21.6826 22.7926C21.6826 22.6445 21.6751 22.4976 21.6614 22.3533H67.0404C67.0266 22.4976 67.0191 22.6445 67.0191 22.7926C67.0191 25.3572 69.0886 27.4372 71.6402 27.4372Z" fill="#E1FD9E"/>
<path d="M69.1056 18.5872L64.4658 10.8176C62.278 12.1374 59.4386 11.4244 58.1254 9.22553C58.0496 9.09849 57.9808 8.96869 57.9186 8.83789L41.7578 18.5873H69.1056V18.5872Z" fill="#71E4BF"/>
<path d="M73.4748 18.5874L63.1464 1.29175L34.4766 18.5874H73.4748Z" fill="#71E4BF"/>
<path opacity="0.6" d="M44.3491 47.4905C50.6149 47.4905 55.6943 42.4625 55.6943 36.2602C55.6943 30.058 50.6149 25.03 44.3491 25.03C38.0833 25.03 33.0039 30.058 33.0039 36.2602C33.0039 42.4625 38.0833 47.4905 44.3491 47.4905Z" fill="#91EACD"/>
<path d="M13.3135 18.5874H15.8114V53.9869H13.3135V18.5874Z" fill="#5FA6B0"/>
<path d="M19.5594 45.137V27.4372C22.111 27.4372 24.1805 25.3572 24.1805 22.7926C24.1805 22.6445 24.173 22.4976 24.1593 22.3533H21.6614C21.6751 22.4976 21.6826 22.6445 21.6826 22.7926C21.6826 25.3572 19.6131 27.4372 17.0615 27.4372V45.137C19.6131 45.137 21.6826 47.217 21.6826 49.7816C21.6826 49.9297 21.6751 50.0766 21.6614 50.2209H24.1593C24.173 50.0766 24.1805 49.9297 24.1805 49.7816C24.1805 47.217 22.111 45.137 19.5594 45.137Z" fill="#8AE897"/>
<path d="M64.8557 11.4715L64.4653 10.8176C64.1043 11.0354 63.7255 11.1966 63.3389 11.3062C63.8297 11.4443 64.3424 11.5013 64.8557 11.4715Z" fill="#5FA6B0"/>
<path d="M58.1254 9.22553C58.0496 9.09849 57.9808 8.96869 57.9186 8.83789L41.7578 18.5873H44.2557L58.6299 9.91582C58.4445 9.70505 58.2747 9.47546 58.1254 9.22553Z" fill="#5FA6B0"/>
<path d="M63.1464 1.29175L34.4766 18.5874H36.9744L63.8079 2.39955L63.1464 1.29175Z" fill="#5FA6B0"/>
<path opacity="0.6" d="M31.9736 36.433C31.9736 43.2922 37.5258 48.8727 44.3502 48.8727C51.1747 48.8727 56.7268 43.2922 56.7268 36.433C56.7268 29.5738 51.1747 23.9934 44.3502 23.9934C37.5258 23.9934 31.9736 29.5738 31.9736 36.433ZM54.5806 36.433C54.5806 42.1028 49.9912 46.7155 44.3502 46.7155C38.7092 46.7155 34.1199 42.1028 34.1199 36.433C34.1199 30.7633 38.7092 26.1506 44.3502 26.1506C49.9912 26.1506 54.5806 30.7633 54.5806 36.433Z" fill="#C2C2C2"/>
<path d="M12.377 17.646V54.9284H22.8044V53.0455H14.2504V19.5289H74.4493V53.0455H24.6778V54.9284H76.3227V17.646H12.377Z" fill="black"/>
<path d="M20.6297 51.1622H68.0705L67.972 50.1309C67.9608 50.0131 67.9551 49.8955 67.9551 49.7814C67.9551 47.7395 69.6078 46.0783 71.6394 46.0783H72.5761V26.4956H71.6394C69.6078 26.4956 67.9551 24.8343 67.9551 22.7925C67.9551 22.6783 67.9608 22.5607 67.972 22.443L68.0705 21.4116H58.3657V23.2946H66.1039C66.3294 25.8269 68.2432 27.8779 70.7027 28.2992V44.2748C68.2432 44.6959 66.3293 46.7471 66.1039 49.2794H22.5963C22.3709 46.7471 20.457 44.6959 17.9974 44.2748V28.2992C20.457 27.8781 22.3709 25.8269 22.5963 23.2946H56.4923V21.4116H20.6297L20.7281 22.443C20.7394 22.5607 20.7451 22.6783 20.7451 22.7925C20.7451 24.8343 19.0924 26.4956 17.0607 26.4956H16.124V46.0783H17.0607C19.0924 46.0783 20.7451 47.7395 20.7451 49.7814C20.7451 49.8955 20.7394 50.0131 20.7281 50.1309L20.6297 51.1622Z" fill="black"/>
<path d="M61.1938 10.4278C60.2389 10.1879 59.4341 9.58879 58.9269 8.73895C58.8684 8.64154 58.8134 8.53836 58.7632 8.43253L58.3195 7.49658L47.5176 14.0141L48.4819 15.6284L57.5973 10.1286C58.3623 11.1862 59.4617 11.9334 60.7396 12.2545C61.872 12.539 63.0378 12.4617 64.1031 12.0425L66.0519 15.3059L67.6581 14.3368L64.7856 9.5264L63.9824 10.0109C63.1392 10.5197 62.1489 10.6677 61.1938 10.4278Z" fill="black"/>
<path d="M72.0282 14.3369L63.4668 0L40.2363 14.0142L41.2004 15.6286L62.8245 2.58353L70.422 15.3059L72.0282 14.3369Z" fill="black"/>
</g>
<path d="M56.1462 31.9927C56.9573 31.9927 57.5704 32.2753 57.9856 32.8406C58.4105 33.3963 58.6229 34.182 58.6229 35.1975C58.6229 36.2131 58.425 37.0084 58.0291 37.5832C57.6332 38.1485 57.0055 38.4312 56.1462 38.4312C55.3544 38.4312 54.7509 38.1485 54.3357 37.5832C53.9205 37.0084 53.7129 36.2131 53.7129 35.1975C53.7129 34.182 53.906 33.3963 54.2922 32.8406C54.6785 32.2753 55.2965 31.9927 56.1462 31.9927ZM62.2288 32.1364C62.7935 32.1364 63.1499 32.7439 62.8744 33.2369L57.9656 42.019C57.8349 42.2528 57.5879 42.3977 57.32 42.3977C56.7552 42.3977 56.3988 41.7903 56.6744 41.2973L61.5832 32.5151C61.7139 32.2813 61.9608 32.1364 62.2288 32.1364ZM56.1607 33.4586C55.7165 33.4586 55.4944 34.043 55.4944 35.2119C55.4944 36.3904 55.7165 36.9796 56.1607 36.9796C56.6145 36.9796 56.8414 36.3904 56.8414 35.2119C56.8414 34.043 56.6145 33.4586 56.1607 33.4586ZM63.3881 36.0886C64.1992 36.0886 64.8123 36.3712 65.2275 36.9365C65.6524 37.4922 65.8648 38.2779 65.8648 39.2935C65.8648 40.3091 65.6669 41.1043 65.271 41.6791C64.8751 42.2444 64.2474 42.5271 63.3881 42.5271C62.5963 42.5271 61.9928 42.2444 61.5776 41.6791C61.1624 41.1043 60.9548 40.3091 60.9548 39.2935C60.9548 38.2779 61.1479 37.4922 61.5341 36.9365C61.9204 36.3712 62.5384 36.0886 63.3881 36.0886ZM63.4026 37.5545C62.9584 37.5545 62.7363 38.1389 62.7363 39.3078C62.7363 40.4863 62.9584 41.0755 63.4026 41.0755C63.8564 41.0755 64.0833 40.4863 64.0833 39.3078C64.0833 38.1389 63.8564 37.5545 63.4026 37.5545Z" fill="black"/>
<path d="M28.6759 41.0899C28.6759 41.8266 28.0788 42.4238 27.3421 42.4238C26.6054 42.4238 26.0083 41.8266 26.0083 41.0899V35.0902C26.0083 34.7824 26.0141 34.3799 26.0259 33.8827C26.0388 33.6106 26.0499 33.3562 26.0593 33.1196C26.0664 32.9396 25.8211 32.8356 25.6902 32.9594C25.5018 33.1369 25.3251 33.2967 25.1602 33.4388L24.5183 33.9581C24.0736 34.3179 23.4211 34.2468 23.0643 33.7998C22.7094 33.3551 22.7818 32.707 23.2261 32.3517L26.0411 30.1006C26.3286 29.8706 26.6858 29.7454 27.054 29.7454C27.9498 29.7454 28.6759 30.4715 28.6759 31.3673V41.0899Z" fill="black"/>
<path d="M40.9415 36.0846C40.9415 37.4459 40.7942 38.612 40.4998 39.5827C40.2171 40.5534 39.7519 41.2992 39.1041 41.82C38.4681 42.3409 37.6083 42.6013 36.5247 42.6013C35.0054 42.6013 33.8924 42.0272 33.1857 40.8789C32.479 39.7188 32.1257 38.1207 32.1257 36.0846C32.1257 34.7114 32.267 33.5394 32.5497 32.5687C32.8324 31.598 33.2976 30.8522 33.9454 30.3313C34.5932 29.8105 35.4529 29.55 36.5247 29.55C38.0323 29.55 39.1453 30.1242 39.8638 31.2725C40.5822 32.4207 40.9415 34.0248 40.9415 36.0846ZM34.7757 36.0846C34.7757 37.5288 34.8994 38.6179 35.1467 39.3518C35.3941 40.0739 35.8534 40.435 36.5247 40.435C37.1843 40.435 37.6436 40.0739 37.9028 39.3518C38.1619 38.6297 38.2914 37.5406 38.2914 36.0846C38.2914 34.6403 38.1619 33.5513 37.9028 32.8173C37.6436 32.0834 37.1843 31.7164 36.5247 31.7164C35.8534 31.7164 35.3941 32.0834 35.1467 32.8173C34.8994 33.5513 34.7757 34.6403 34.7757 36.0846Z" fill="black"/>
<path d="M51.0516 36.0846C51.0516 37.4459 50.9044 38.612 50.6099 39.5827C50.3273 40.5534 49.862 41.2992 49.2142 41.82C48.5782 42.3409 47.7185 42.6013 46.6349 42.6013C45.1155 42.6013 44.0025 42.0272 43.2958 40.8789C42.5892 39.7188 42.2358 38.1207 42.2358 36.0846C42.2358 34.7114 42.3772 33.5394 42.6598 32.5687C42.9425 31.598 43.4077 30.8522 44.0555 30.3313C44.7033 29.8105 45.5631 29.55 46.6349 29.55C48.1425 29.55 49.2555 30.1242 49.9739 31.2725C50.6924 32.4207 51.0516 34.0248 51.0516 36.0846ZM44.8859 36.0846C44.8859 37.5288 45.0095 38.6179 45.2569 39.3518C45.5042 40.0739 45.9635 40.435 46.6349 40.435C47.2944 40.435 47.7538 40.0739 48.0129 39.3518C48.272 38.6297 48.4016 37.5406 48.4016 36.0846C48.4016 34.6403 48.272 33.5513 48.0129 32.8173C47.7538 32.0834 47.2944 31.7164 46.6349 31.7164C45.9635 31.7164 45.5042 32.0834 45.2569 32.8173C45.0095 33.5513 44.8859 34.6403 44.8859 36.0846Z" fill="black"/>
</svg>
