<svg width="60" height="57" viewBox="0 0 60 57" fill="none" xmlns="http://www.w3.org/2000/svg">
<g opacity="0.9">
<path d="M50.3548 10.0171H43.9209V21.2755H50.3548V10.0171Z" fill="#5C4B48"/>
<path fill-rule="evenodd" clip-rule="evenodd" d="M41.9951 8.09192H52.2792V23.2006H41.9951V8.09192ZM50.3541 10.0171V21.2754H43.9203V10.0171H50.3541Z" fill="black"/>
<path d="M52.8108 4.27063H41.4639V10.369H52.8108V4.27063Z" fill="#AAAAAA"/>
<path fill-rule="evenodd" clip-rule="evenodd" d="M39.5391 2.34546H54.7363V12.294H39.5391V2.34546ZM52.8112 4.27059V10.3689H41.4642V4.27059H52.8112Z" fill="black"/>
<path d="M6.77148 30.7155V54.8663H52.7274V30.7155C43.7003 22.301 38.6592 17.6019 29.7494 9.29663C20.8396 17.7111 15.7985 22.4102 6.77148 30.7155Z" fill="#FFD771"/>
<path fill-rule="evenodd" clip-rule="evenodd" d="M4.8457 29.8708L5.46738 29.2988C14.4882 20.9992 19.5232 16.3058 28.4269 7.89707L29.7401 6.65686L54.6518 29.8782V56.7914H4.8457V29.8708ZM6.77084 54.8663V30.7155C15.7979 22.4103 20.839 17.7112 29.7487 9.29669L52.7267 30.7155V54.8663H6.77084Z" fill="black"/>
<path d="M52.8105 32.2994C43.8032 23.2692 38.773 18.2264 29.8826 9.31348C25.3205 13.7699 21.8111 17.2881 18.3018 20.8064C14.7924 24.3246 11.283 27.8428 6.83789 32.2993V37.5766C15.8452 28.5465 20.8753 23.5036 29.7657 14.5907C38.773 23.6208 43.8032 28.6637 52.6936 37.5766V38.2803V32.2993H52.8105V32.2994Z" fill="#F7B64C"/>
<path d="M25.6716 54.8663H11.8682V41.2624C11.8682 37.3924 15.0266 34.3433 18.7699 34.3433C22.6302 34.3433 25.6716 37.5097 25.6716 41.2624V54.8663Z" fill="#415A6B"/>
<path fill-rule="evenodd" clip-rule="evenodd" d="M27.597 56.7915H9.94336V41.2625C9.94336 36.3126 13.9804 32.4182 18.7702 32.4182C23.7194 32.4182 27.597 36.4725 27.597 41.2625V56.7915ZM25.6719 54.8664V41.2625C25.6719 37.5098 22.6305 34.3433 18.7702 34.3433C15.0269 34.3433 11.8685 37.3925 11.8685 41.2625V54.8664H25.6719Z" fill="black"/>
<path d="M45.5412 34.2595H31.6709V46.6571H45.5412V34.2595Z" fill="#344A5E"/>
<path d="M37.8827 35.8026H33.0605V45.1977H37.8827V35.8026Z" fill="#8AD7F8"/>
<path fill-rule="evenodd" clip-rule="evenodd" d="M31.1348 33.8774H39.8071V47.1228H31.1348V33.8774ZM37.882 35.8026V45.1976H33.0599V35.8026H37.882Z" fill="black"/>
<path d="M44.16 35.8026H39.3379V45.1977H44.16V35.8026Z" fill="#8AD7F8"/>
<path fill-rule="evenodd" clip-rule="evenodd" d="M37.4131 33.8774H46.0855V47.1228H37.4131V33.8774ZM44.1603 35.8026V45.1976H39.3382V35.8026H44.1603Z" fill="black"/>
<path d="M57.0217 27.491L32.5732 2.98064C31.1695 1.57335 28.7129 1.57335 27.3092 2.98064L2.97761 27.491C1.57387 28.8983 1.57387 31.3611 2.97761 32.7684C4.38135 34.1757 6.8379 34.1757 8.24165 32.7684L29.9997 10.9553L51.7577 32.7684C53.1614 34.1757 55.618 34.1757 57.0217 32.7684C58.4255 31.2439 58.4255 28.8983 57.0217 27.491Z" fill="#AAAAAA"/>
<path fill-rule="evenodd" clip-rule="evenodd" d="M25.9449 1.62269L25.9465 1.62105C28.1025 -0.540351 31.7806 -0.540351 33.9366 1.62105L58.385 26.1314C60.5668 28.3187 60.4921 31.8419 58.4383 34.0724L58.4122 34.1007L58.385 34.1279C56.2291 36.2893 52.551 36.2893 50.395 34.1279L30 13.6813L9.60497 34.1279C7.44903 36.2893 3.77089 36.2893 1.61495 34.1279C-0.537714 31.9698 -0.538315 28.2922 1.61314 26.1332C1.61374 26.1326 1.61434 26.132 1.61495 26.1314L25.9449 1.62269ZM2.97794 27.491C1.5742 28.8983 1.5742 31.3611 2.97794 32.7683C4.38168 34.1756 6.83823 34.1756 8.24198 32.7683L30 10.9553L51.758 32.7683C53.1618 34.1756 55.6183 34.1756 57.022 32.7683C58.4258 31.2439 58.4258 28.8983 57.022 27.491L32.5736 2.98061C31.1698 1.57331 28.7133 1.57331 27.3095 2.98061L2.97794 27.491Z" fill="black"/>
</g>
</svg>
