<svg width="246" height="50" viewBox="0 0 246 50" fill="none" xmlns="http://www.w3.org/2000/svg">
<g filter="url(#filter0_d)">
<path d="M10.1348 5H231V35H10.1348V5Z" fill="#1E2DBE"/>
</g>
<g filter="url(#filter1_d)">
<path fill-rule="evenodd" clip-rule="evenodd" d="M229.277 6.66667H11.8576V33.3333H229.277V6.66667ZM10.1348 5V35H231V5H10.1348Z" fill="white"/>
</g>
<g filter="url(#filter2_d)">
<path d="M17.2363 19.0032C18.0319 19.4594 18.0319 20.5734 17.2363 21.0295L7.69407 26.4999C6.88258 26.9651 5.85611 26.3992 5.85611 25.4867L5.85611 14.5461C5.85611 13.6335 6.88258 13.0677 7.69408 13.5329L17.2363 19.0032Z" fill="#FA3C4B"/>
</g>
<path d="M29.3809 24.6667V15.3333H35.3625V16.64H30.8142V19.2H33.7499V20.5067H30.8142V23.36H35.6657V24.6667H29.3809Z" fill="white"/>
<path d="M41.173 24.8267C40.3185 24.8267 39.5788 24.6267 38.954 24.2267C38.3292 23.8178 37.8974 23.2622 37.6585 22.56L39.0092 22.08C39.2113 22.5156 39.5053 22.8622 39.8912 23.12C40.2771 23.3689 40.7228 23.4933 41.2281 23.4933C41.7611 23.4933 42.1837 23.3689 42.4961 23.12C42.8177 22.8711 42.9785 22.5156 42.9785 22.0533C42.9785 21.8578 42.9326 21.68 42.8407 21.52C42.758 21.3511 42.6615 21.2133 42.5513 21.1067C42.441 21 42.271 20.8933 42.0413 20.7867C41.8116 20.6711 41.6186 20.5867 41.4624 20.5333C41.3154 20.4711 41.0949 20.3911 40.8009 20.2933C40.4333 20.1689 40.1577 20.0711 39.9739 20C39.7902 19.9289 39.5467 19.8133 39.2435 19.6533C38.9494 19.4845 38.7243 19.32 38.5681 19.16C38.4211 18.9911 38.2879 18.7733 38.1684 18.5067C38.049 18.24 37.9892 17.9422 37.9892 17.6133C37.9892 16.9289 38.2649 16.3511 38.8162 15.88C39.3675 15.4089 40.1163 15.1733 41.0627 15.1733C41.8529 15.1733 42.5007 15.3422 43.0061 15.68C43.5206 16.0178 43.8652 16.4667 44.0398 17.0267L42.7167 17.4533C42.588 17.1689 42.3721 16.9422 42.0689 16.7733C41.7748 16.5956 41.4027 16.5067 40.9525 16.5067C40.4931 16.5067 40.1301 16.6044 39.8637 16.8C39.6064 16.9956 39.4778 17.2711 39.4778 17.6267C39.4778 17.8667 39.5788 18.08 39.781 18.2667C39.9831 18.4533 40.1944 18.5911 40.415 18.68C40.6355 18.7689 40.9709 18.8889 41.4211 19.04C41.6967 19.1378 41.8989 19.2133 42.0275 19.2667C42.1654 19.3111 42.3629 19.3911 42.6202 19.5067C42.8775 19.6222 43.075 19.7289 43.2128 19.8267C43.3507 19.9156 43.5114 20.04 43.6952 20.2C43.879 20.36 44.0168 20.5244 44.1087 20.6933C44.2098 20.8533 44.2925 21.0533 44.3568 21.2933C44.4303 21.5244 44.467 21.7733 44.467 22.04C44.467 22.9111 44.1592 23.5956 43.5436 24.0933C42.928 24.5822 42.1378 24.8267 41.173 24.8267Z" fill="white"/>
<path d="M53.9317 16.6667V24.6667H52.4983V16.6667H49.7693V15.3333H56.6606V16.6667H53.9317Z" fill="white"/>
<path d="M59.0704 24.6667V15.3333H63.1362C64.2297 15.3333 65.0199 15.5956 65.5068 16.12C66.003 16.6445 66.2511 17.3022 66.2511 18.0933C66.2511 18.6889 66.0719 19.2356 65.7136 19.7333C65.3644 20.2222 64.8453 20.5556 64.1562 20.7333L66.1408 24.6667H64.5007L62.5987 20.8533H60.5038V24.6667H59.0704ZM60.5038 19.52H63.1638C63.7151 19.52 64.1194 19.3867 64.3767 19.12C64.634 18.8445 64.7626 18.5022 64.7626 18.0933C64.7626 17.7022 64.6385 17.3689 64.3905 17.0933C64.1516 16.8089 63.7427 16.6667 63.1638 16.6667H60.5038V19.52Z" fill="white"/>
<path d="M74.8706 24.6667L74.0988 22.52H70.1983L69.4127 24.6667H67.9242L71.4112 15.3333H72.8859L76.3591 24.6667H74.8706ZM73.6577 21.2933L72.4862 18.12C72.3208 17.6845 72.2105 17.3333 72.1554 17.0667C72.0727 17.3867 71.9625 17.7378 71.8246 18.12L70.6393 21.2933H73.6577Z" fill="white"/>
<path d="M78.4645 15.3333H82.1169C83.1827 15.3333 83.9545 15.5689 84.4323 16.04C84.9193 16.5111 85.1628 17.1067 85.1628 17.8267C85.1628 18.2267 85.0479 18.6 84.8182 18.9467C84.5977 19.2845 84.2715 19.5556 83.8397 19.76C84.4094 19.9556 84.8274 20.2489 85.0939 20.64C85.3695 21.0311 85.5074 21.4622 85.5074 21.9333C85.5074 22.2711 85.4476 22.5956 85.3282 22.9067C85.2179 23.2089 85.0434 23.4978 84.8045 23.7733C84.5656 24.04 84.2302 24.2578 83.7983 24.4267C83.3757 24.5867 82.8841 24.6667 82.3236 24.6667H78.4645V15.3333ZM81.8826 19.1867C82.4706 19.1867 82.9208 19.0711 83.2332 18.84C83.5457 18.6 83.7019 18.2845 83.7019 17.8933C83.7019 17.04 83.1873 16.6133 82.1582 16.6133H79.8979V19.1867H81.8826ZM82.4339 23.3867C83.0127 23.3867 83.4262 23.2533 83.6743 22.9867C83.9224 22.72 84.0464 22.3911 84.0464 22C84.0464 20.9778 83.3711 20.4667 82.0204 20.4667H79.8979V23.3867H82.4339Z" fill="white"/>
<path d="M94.0628 24.6667L93.2909 22.52H89.3905L88.6049 24.6667H87.1164L90.6033 15.3333H92.0781L95.5513 24.6667H94.0628ZM92.8499 21.2933L91.6784 18.12C91.513 17.6845 91.4027 17.3333 91.3476 17.0667C91.2649 17.3867 91.1546 17.7378 91.0168 18.12L89.8315 21.2933H92.8499Z" fill="white"/>
<path d="M100.157 24.8267C99.4587 24.8267 98.8431 24.6756 98.3102 24.3733C97.7772 24.0711 97.3729 23.6356 97.0973 23.0667L98.3377 22.48C98.6777 23.1556 99.2841 23.4933 100.157 23.4933C100.69 23.4933 101.117 23.3422 101.439 23.04C101.77 22.7289 101.935 22.1645 101.935 21.3467V15.3333H103.368V21.5333C103.368 22.1556 103.272 22.6933 103.079 23.1467C102.886 23.5911 102.624 23.9333 102.293 24.1733C101.972 24.4044 101.632 24.5689 101.273 24.6667C100.924 24.7733 100.552 24.8267 100.157 24.8267Z" fill="white"/>
<path d="M111.823 24.5467C111.336 24.7333 110.794 24.8267 110.197 24.8267C109.599 24.8267 109.057 24.7333 108.57 24.5467C108.083 24.36 107.684 24.1111 107.371 23.8C107.059 23.4889 106.797 23.12 106.586 22.6933C106.374 22.2667 106.223 21.8311 106.131 21.3867C106.039 20.9422 105.993 20.48 105.993 20C105.993 19.52 106.039 19.0578 106.131 18.6133C106.223 18.1689 106.374 17.7333 106.586 17.3067C106.797 16.88 107.059 16.5111 107.371 16.2C107.684 15.8889 108.083 15.64 108.57 15.4533C109.057 15.2667 109.599 15.1733 110.197 15.1733C110.794 15.1733 111.336 15.2667 111.823 15.4533C112.31 15.64 112.71 15.8889 113.022 16.2C113.334 16.5111 113.596 16.88 113.808 17.3067C114.019 17.7333 114.171 18.1689 114.262 18.6133C114.354 19.0578 114.4 19.52 114.4 20C114.4 20.48 114.354 20.9422 114.262 21.3867C114.171 21.8311 114.019 22.2667 113.808 22.6933C113.596 23.12 113.334 23.4889 113.022 23.8C112.71 24.1111 112.31 24.36 111.823 24.5467ZM108.929 23.1867C109.296 23.3911 109.719 23.4933 110.197 23.4933C110.674 23.4933 111.097 23.3867 111.465 23.1733C111.832 22.9511 112.117 22.6622 112.319 22.3067C112.521 21.9511 112.668 21.5822 112.76 21.2C112.861 20.8089 112.912 20.4089 112.912 20C112.912 19.5733 112.861 19.1645 112.76 18.7733C112.668 18.3733 112.521 18 112.319 17.6533C112.117 17.3067 111.832 17.0311 111.465 16.8267C111.097 16.6133 110.674 16.5067 110.197 16.5067C109.719 16.5067 109.296 16.6178 108.929 16.84C108.561 17.0533 108.276 17.3378 108.074 17.6933C107.872 18.0489 107.72 18.4222 107.619 18.8133C107.527 19.1956 107.481 19.5911 107.481 20C107.481 20.4267 107.527 20.84 107.619 21.24C107.72 21.6311 107.872 22 108.074 22.3467C108.276 22.6933 108.561 22.9733 108.929 23.1867Z" fill="white"/>
<path d="M115.864 26.2133C116.029 26.0711 116.199 25.8667 116.374 25.6C116.558 25.3422 116.668 25.0844 116.705 24.8267C116.457 24.8089 116.241 24.7156 116.057 24.5467C115.873 24.3689 115.781 24.1511 115.781 23.8933C115.781 23.6 115.882 23.36 116.084 23.1733C116.287 22.9778 116.526 22.88 116.801 22.88C117.114 22.88 117.371 22.9867 117.573 23.2C117.784 23.4044 117.89 23.7022 117.89 24.0933C117.89 24.5822 117.748 25.0489 117.463 25.4933C117.187 25.9378 116.833 26.2889 116.401 26.5467L115.864 26.2133Z" fill="white"/>
<path d="M131.326 24.6667H129.976L125.8 18.3333C125.671 18.1378 125.542 17.9067 125.414 17.64C125.441 18.0667 125.455 18.2978 125.455 18.3333V24.6667H124.022V15.3333H125.469L129.535 21.56C129.636 21.72 129.769 21.96 129.934 22.28C129.907 22.0133 129.893 21.7778 129.893 21.5733V15.3333H131.326V24.6667Z" fill="white"/>
<path d="M139.844 24.5467C139.357 24.7333 138.814 24.8267 138.217 24.8267C137.62 24.8267 137.078 24.7333 136.591 24.5467C136.104 24.36 135.704 24.1111 135.392 23.8C135.079 23.4889 134.817 23.12 134.606 22.6933C134.395 22.2667 134.243 21.8311 134.151 21.3867C134.059 20.9422 134.014 20.48 134.014 20C134.014 19.52 134.059 19.0578 134.151 18.6133C134.243 18.1689 134.395 17.7333 134.606 17.3067C134.817 16.88 135.079 16.5111 135.392 16.2C135.704 15.8889 136.104 15.64 136.591 15.4533C137.078 15.2667 137.62 15.1733 138.217 15.1733C138.814 15.1733 139.357 15.2667 139.844 15.4533C140.331 15.64 140.73 15.8889 141.043 16.2C141.355 16.5111 141.617 16.88 141.828 17.3067C142.04 17.7333 142.191 18.1689 142.283 18.6133C142.375 19.0578 142.421 19.52 142.421 20C142.421 20.48 142.375 20.9422 142.283 21.3867C142.191 21.8311 142.04 22.2667 141.828 22.6933C141.617 23.12 141.355 23.4889 141.043 23.8C140.73 24.1111 140.331 24.36 139.844 24.5467ZM136.949 23.1867C137.317 23.3911 137.739 23.4933 138.217 23.4933C138.695 23.4933 139.118 23.3867 139.485 23.1733C139.853 22.9511 140.138 22.6622 140.34 22.3067C140.542 21.9511 140.689 21.5822 140.781 21.2C140.882 20.8089 140.932 20.4089 140.932 20C140.932 19.5733 140.882 19.1645 140.781 18.7733C140.689 18.3733 140.542 18 140.34 17.6533C140.138 17.3067 139.853 17.0311 139.485 16.8267C139.118 16.6133 138.695 16.5067 138.217 16.5067C137.739 16.5067 137.317 16.6178 136.949 16.84C136.582 17.0533 136.297 17.3378 136.095 17.6933C135.893 18.0489 135.741 18.4222 135.64 18.8133C135.548 19.1956 135.502 19.5911 135.502 20C135.502 20.4267 135.548 20.84 135.64 21.24C135.741 21.6311 135.893 22 136.095 22.3467C136.297 22.6933 136.582 22.9733 136.949 23.1867Z" fill="white"/>
<path d="M148.974 24.6667V15.3333H154.956V16.64H150.407V19.2H153.343V20.5067H150.407V23.36H155.259V24.6667H148.974Z" fill="white"/>
<path d="M160.766 24.8267C159.912 24.8267 159.172 24.6267 158.547 24.2267C157.922 23.8178 157.491 23.2622 157.252 22.56L158.602 22.08C158.804 22.5156 159.099 22.8622 159.484 23.12C159.87 23.3689 160.316 23.4933 160.821 23.4933C161.354 23.4933 161.777 23.3689 162.089 23.12C162.411 22.8711 162.572 22.5156 162.572 22.0533C162.572 21.8578 162.526 21.68 162.434 21.52C162.351 21.3511 162.255 21.2133 162.144 21.1067C162.034 21 161.864 20.8933 161.634 20.7867C161.405 20.6711 161.212 20.5867 161.056 20.5333C160.909 20.4711 160.688 20.3911 160.394 20.2933C160.027 20.1689 159.751 20.0711 159.567 20C159.383 19.9289 159.14 19.8133 158.837 19.6533C158.543 19.4845 158.318 19.32 158.161 19.16C158.014 18.9911 157.881 18.7733 157.762 18.5067C157.642 18.24 157.582 17.9422 157.582 17.6133C157.582 16.9289 157.858 16.3511 158.409 15.88C158.961 15.4089 159.71 15.1733 160.656 15.1733C161.446 15.1733 162.094 15.3422 162.599 15.68C163.114 16.0178 163.458 16.4667 163.633 17.0267L162.31 17.4533C162.181 17.1689 161.965 16.9422 161.662 16.7733C161.368 16.5956 160.996 16.5067 160.546 16.5067C160.086 16.5067 159.723 16.6044 159.457 16.8C159.2 16.9956 159.071 17.2711 159.071 17.6267C159.071 17.8667 159.172 18.08 159.374 18.2667C159.576 18.4533 159.788 18.5911 160.008 18.68C160.229 18.7689 160.564 18.8889 161.014 19.04C161.29 19.1378 161.492 19.2133 161.621 19.2667C161.759 19.3111 161.956 19.3911 162.213 19.5067C162.471 19.6222 162.668 19.7289 162.806 19.8267C162.944 19.9156 163.105 20.04 163.288 20.2C163.472 20.36 163.61 20.5244 163.702 20.6933C163.803 20.8533 163.886 21.0533 163.95 21.2933C164.023 21.5244 164.06 21.7733 164.06 22.04C164.06 22.9111 163.752 23.5956 163.137 24.0933C162.521 24.5822 161.731 24.8267 160.766 24.8267Z" fill="white"/>
<path d="M176.268 24.6667L175.496 22.52H171.595L170.81 24.6667H169.321L172.808 15.3333H174.283L177.756 24.6667H176.268ZM175.055 21.2933L173.883 18.12C173.718 17.6845 173.608 17.3333 173.552 17.0667C173.47 17.3867 173.359 17.7378 173.222 18.12L172.036 21.2933H175.055Z" fill="white"/>
<path d="M181.458 24.6667V21.0133L178.067 15.3333H179.707L182.174 19.6L184.641 15.3333H186.281L182.891 21V24.6667H181.458Z" fill="white"/>
<path d="M192.112 24.8267C191.018 24.8267 190.141 24.5378 189.479 23.96C188.818 23.3733 188.487 22.4311 188.487 21.1333V15.3333H189.92V21.1333C189.92 22.0044 190.113 22.6178 190.499 22.9733C190.885 23.32 191.423 23.4933 192.112 23.4933C192.801 23.4933 193.338 23.32 193.724 22.9733C194.119 22.6178 194.317 22.0044 194.317 21.1333V15.3333H195.75V21.1333C195.75 22.4311 195.424 23.3733 194.772 23.96C194.119 24.5378 193.233 24.8267 192.112 24.8267Z" fill="white"/>
<path d="M198.717 15.3333H201.419C202.227 15.3333 202.935 15.4667 203.541 15.7333C204.157 16 204.639 16.36 204.988 16.8133C205.337 17.2667 205.595 17.76 205.76 18.2933C205.935 18.8267 206.022 19.3956 206.022 20C206.022 20.5778 205.939 21.1289 205.774 21.6533C205.618 22.1689 205.37 22.6622 205.03 23.1333C204.69 23.5956 204.203 23.9689 203.569 24.2533C202.944 24.5289 202.209 24.6667 201.363 24.6667H198.717V15.3333ZM201.598 23.36C202.121 23.36 202.581 23.2622 202.976 23.0667C203.371 22.8622 203.679 22.5956 203.899 22.2667C204.12 21.9289 204.281 21.5733 204.382 21.2C204.483 20.8178 204.533 20.4178 204.533 20C204.533 19.0667 204.299 18.2756 203.831 17.6267C203.362 16.9689 202.668 16.64 201.749 16.64H200.151V23.36H201.598Z" fill="white"/>
<path d="M214.369 24.6667L213.597 22.52H209.697L208.911 24.6667H207.423L210.91 15.3333H212.385L215.858 24.6667H214.369ZM213.156 21.2933L211.985 18.12C211.82 17.6845 211.709 17.3333 211.654 17.0667C211.571 17.3867 211.461 17.7378 211.323 18.12L210.138 21.2933H213.156Z" fill="white"/>
<defs>
<filter id="filter0_d" x="5.13477" y="0" width="240.865" height="50" filterUnits="userSpaceOnUse" color-interpolation-filters="sRGB">
<feFlood flood-opacity="0" result="BackgroundImageFix"/>
<feColorMatrix in="SourceAlpha" type="matrix" values="0 0 0 0 0 0 0 0 0 0 0 0 0 0 0 0 0 0 127 0"/>
<feOffset dx="5" dy="5"/>
<feGaussianBlur stdDeviation="5"/>
<feColorMatrix type="matrix" values="0 0 0 0 0 0 0 0 0 0 0 0 0 0 0 0 0 0 0.25 0"/>
<feBlend mode="normal" in2="BackgroundImageFix" result="effect1_dropShadow"/>
<feBlend mode="normal" in="SourceGraphic" in2="effect1_dropShadow" result="shape"/>
</filter>
<filter id="filter1_d" x="5.13477" y="0" width="240.865" height="50" filterUnits="userSpaceOnUse" color-interpolation-filters="sRGB">
<feFlood flood-opacity="0" result="BackgroundImageFix"/>
<feColorMatrix in="SourceAlpha" type="matrix" values="0 0 0 0 0 0 0 0 0 0 0 0 0 0 0 0 0 0 127 0"/>
<feOffset dx="5" dy="5"/>
<feGaussianBlur stdDeviation="5"/>
<feColorMatrix type="matrix" values="0 0 0 0 0 0 0 0 0 0 0 0 0 0 0 0 0 0 0.25 0"/>
<feBlend mode="normal" in2="BackgroundImageFix" result="effect1_dropShadow"/>
<feBlend mode="normal" in="SourceGraphic" in2="effect1_dropShadow" result="shape"/>
</filter>
<filter id="filter2_d" x="0.856445" y="8.36658" width="31.9769" height="33.2996" filterUnits="userSpaceOnUse" color-interpolation-filters="sRGB">
<feFlood flood-opacity="0" result="BackgroundImageFix"/>
<feColorMatrix in="SourceAlpha" type="matrix" values="0 0 0 0 0 0 0 0 0 0 0 0 0 0 0 0 0 0 127 0"/>
<feOffset dx="5" dy="5"/>
<feGaussianBlur stdDeviation="5"/>
<feColorMatrix type="matrix" values="0 0 0 0 0 0 0 0 0 0 0 0 0 0 0 0 0 0 0.25 0"/>
<feBlend mode="normal" in2="BackgroundImageFix" result="effect1_dropShadow"/>
<feBlend mode="normal" in="SourceGraphic" in2="effect1_dropShadow" result="shape"/>
</filter>
</defs>
</svg>
