<svg width="228" height="81" viewBox="0 0 228 81" fill="none" xmlns="http://www.w3.org/2000/svg">
<path d="M118.299 24.1544C117.378 24.1544 116.553 23.9957 115.823 23.71C115.093 23.4243 114.458 23.0117 113.982 22.5356C113.506 22.0278 113.093 21.4565 112.776 20.8217C112.459 20.1552 112.205 19.4887 112.078 18.7904C111.951 18.0921 111.855 17.3621 111.855 16.6004C111.855 15.8386 111.919 15.1086 112.078 14.4103C112.205 13.7121 112.459 13.0138 112.776 12.379C113.093 11.7125 113.506 11.1412 113.982 10.6651C114.458 10.1573 115.061 9.77639 115.823 9.49074C116.585 9.20508 117.378 9.04639 118.299 9.04639C119.441 9.04639 120.425 9.26856 121.282 9.71291C122.139 10.1573 122.806 10.7603 123.282 11.4903C123.758 12.2521 124.139 13.0456 124.361 13.9025C124.583 14.7595 124.71 15.6799 124.71 16.6321C124.71 17.5843 124.583 18.5047 124.361 19.3617C124.139 20.2187 123.758 21.0439 123.282 21.7739C122.806 22.5356 122.139 23.1069 121.282 23.5513C120.425 23.9322 119.409 24.1544 118.299 24.1544ZM118.299 21.7422C118.965 21.7422 119.568 21.5835 120.076 21.2661C120.584 20.9487 120.996 20.5361 121.282 19.9965C121.568 19.4887 121.79 18.9173 121.917 18.346C122.044 17.7747 122.139 17.1717 122.139 16.5686C122.139 15.9338 122.076 15.3308 121.917 14.7277C121.79 14.1564 121.568 13.5851 121.282 13.0773C120.996 12.5695 120.584 12.1568 120.076 11.8395C119.568 11.5221 118.965 11.3634 118.299 11.3634C117.41 11.3634 116.648 11.649 116.045 12.2203C115.442 12.7916 115.029 13.4264 114.807 14.1882C114.585 14.9182 114.458 15.7117 114.458 16.5686C114.458 17.2034 114.522 17.8065 114.68 18.3778C114.807 18.9491 115.029 19.5204 115.315 20.0282C115.601 20.5361 116.013 20.9487 116.521 21.2661C116.997 21.6152 117.6 21.7422 118.299 21.7422Z" fill="black"/>
<path d="M126.836 23.8998V13.2036H129.28V14.3145C129.724 13.3941 130.454 12.9497 131.47 12.9497C132.232 12.9497 132.898 13.2036 133.469 13.6797L133.12 15.9332C132.581 15.5523 131.978 15.3619 131.311 15.3619C130.74 15.3619 130.264 15.5523 129.883 15.9332C129.502 16.3141 129.312 16.9806 129.312 17.9011V23.8998H126.836Z" fill="black"/>
<path d="M138.357 28.0894L137.056 26.1216C138.516 26.0263 139.531 25.8042 140.103 25.455C140.674 25.1059 140.96 24.5663 140.96 23.8046V23.2015C140.388 23.8363 139.563 24.1537 138.516 24.1537C137.214 24.1537 136.135 23.6776 135.31 22.6937C134.485 21.7098 134.072 20.345 134.072 18.5358C134.072 16.7902 134.485 15.4254 135.31 14.4415C136.135 13.4575 137.214 12.9497 138.516 12.9497C139.531 12.9497 140.325 13.2354 140.928 13.8384V13.2036H143.372V22.8524C143.372 24.6298 142.991 25.8994 142.229 26.6929C141.499 27.4864 140.198 27.9625 138.357 28.0894ZM138.928 21.805C139.817 21.805 140.484 21.4559 140.928 20.7576V16.3458C140.452 15.6476 139.754 15.2984 138.928 15.2984C138.167 15.2984 137.564 15.5841 137.151 16.1236C136.738 16.695 136.548 17.4884 136.548 18.5676C136.548 19.5832 136.77 20.3767 137.183 20.948C137.595 21.5194 138.167 21.805 138.928 21.805Z" fill="black"/>
<path d="M151.784 23.8998V23.0428C151.086 23.7728 150.134 24.1537 148.928 24.1537C147.785 24.1537 146.865 23.8363 146.135 23.2333C145.405 22.5985 145.056 21.7415 145.056 20.5989C145.056 19.4245 145.468 18.5676 146.294 17.9645C147.119 17.3615 148.103 17.0758 149.245 17.0758C150.261 17.0758 151.118 17.2663 151.784 17.6471V17.0758C151.784 16.3776 151.626 15.9015 151.277 15.5841C150.927 15.2667 150.42 15.108 149.69 15.108C148.515 15.108 147.468 15.4571 146.516 16.1236L145.754 14.1241C146.928 13.3306 148.325 12.9497 149.944 12.9497C150.515 12.9497 150.991 12.9814 151.435 13.0767C151.848 13.1719 152.292 13.3306 152.768 13.6162C153.213 13.8702 153.562 14.3145 153.816 14.8858C154.07 15.4571 154.197 16.1554 154.197 17.0124V23.8998H151.784ZM149.404 21.9954C150.324 21.9954 151.15 21.6463 151.784 20.9798V19.5832C151.181 19.2976 150.451 19.1389 149.658 19.1389C148.991 19.1389 148.484 19.2659 148.071 19.488C147.658 19.7102 147.468 20.0911 147.468 20.5672C147.468 21.0115 147.627 21.3289 147.976 21.5828C148.325 21.8367 148.769 21.9954 149.404 21.9954Z" fill="black"/>
<path d="M162.955 23.8998V17.7741C162.955 16.1236 162.288 15.2667 160.955 15.2667C159.495 15.2667 158.765 16.0919 158.765 17.7106V23.8998H156.321V13.2036H158.765V14.2193C159.463 13.3941 160.416 12.9497 161.59 12.9497C162.701 12.9497 163.621 13.2988 164.32 13.9971C165.018 14.6954 165.367 15.8063 165.367 17.3297V23.8998H162.955Z" fill="black"/>
<path d="M169.844 11.2994C169.559 11.5851 169.21 11.7438 168.829 11.7438C168.416 11.7438 168.067 11.5851 167.781 11.2994C167.496 11.0137 167.337 10.6646 167.337 10.252C167.337 9.83939 167.496 9.49026 167.781 9.23634C168.067 8.95069 168.416 8.82373 168.829 8.82373C169.241 8.82373 169.59 8.95069 169.844 9.23634C170.13 9.522 170.257 9.87113 170.257 10.252C170.257 10.6964 170.13 11.0137 169.844 11.2994ZM167.591 23.9V13.2038H170.035V23.9H167.591Z" fill="black"/>
<path d="M171.62 23.8998V21.932L177.238 15.3936H172.033V13.2036H180.253V15.0762L174.667 21.7415H180.253V23.9315H171.62V23.8998Z" fill="black"/>
<path d="M188.284 23.8998V23.0428C187.586 23.7728 186.634 24.1537 185.428 24.1537C184.285 24.1537 183.365 23.8363 182.635 23.2333C181.905 22.5985 181.556 21.7415 181.556 20.5989C181.556 19.4245 181.968 18.5676 182.794 17.9645C183.619 17.3615 184.603 17.0758 185.745 17.0758C186.761 17.0758 187.618 17.2663 188.284 17.6471V17.0758C188.284 16.3776 188.126 15.9015 187.777 15.5841C187.427 15.2667 186.92 15.108 186.19 15.108C185.015 15.108 183.968 15.4571 183.016 16.1236L182.254 14.1241C183.428 13.3306 184.825 12.9497 186.444 12.9497C187.015 12.9497 187.491 12.9814 187.935 13.0767C188.348 13.1719 188.792 13.3306 189.268 13.6162C189.713 13.8702 190.062 14.3145 190.316 14.8858C190.57 15.4571 190.697 16.1554 190.697 17.0124V23.8998H188.284ZM185.904 21.9954C186.824 21.9954 187.65 21.6463 188.284 20.9798V19.5832C187.681 19.2976 186.951 19.1389 186.158 19.1389C185.491 19.1389 184.984 19.2659 184.571 19.488C184.158 19.7102 183.968 20.0911 183.968 20.5672C183.968 21.0115 184.127 21.3289 184.476 21.5828C184.825 21.8367 185.269 21.9954 185.904 21.9954Z" fill="black"/>
<path d="M197.108 24.1537C195.648 24.1537 194.474 23.6459 193.617 22.662C192.76 21.678 192.315 20.3133 192.315 18.5676C192.315 16.8219 192.76 15.4571 193.617 14.4415C194.474 13.4575 195.648 12.9497 197.108 12.9497C199.33 12.9497 200.726 13.9336 201.361 15.9015L199.044 16.6632C198.695 15.7428 198.092 15.2667 197.203 15.2667C196.473 15.2667 195.87 15.5523 195.458 16.1554C195.045 16.7267 194.823 17.5519 194.823 18.5358C194.823 19.5198 195.013 20.3133 195.426 20.8846C195.839 21.4559 196.378 21.7415 197.076 21.7415C198.06 21.7415 198.727 21.2337 199.012 20.1863L201.361 20.8846C200.79 23.1063 199.362 24.1537 197.108 24.1537Z" fill="black"/>
<path d="M205.264 11.2994C204.979 11.5851 204.629 11.7438 204.249 11.7438C203.836 11.7438 203.487 11.5851 203.201 11.2994C202.916 11.0137 202.757 10.6646 202.757 10.252C202.757 9.83939 202.916 9.49026 203.201 9.23634C203.487 8.95069 203.836 8.82373 204.249 8.82373C204.661 8.82373 205.01 8.95069 205.264 9.23634C205.55 9.522 205.677 9.87113 205.677 10.252C205.677 10.6964 205.55 11.0137 205.264 11.2994ZM203.011 23.9V13.2038H205.455V23.9H203.011Z" fill="black"/>
<path d="M212.12 24.1539C210.596 24.1539 209.422 23.646 208.533 22.6621C207.645 21.6782 207.2 20.3134 207.2 18.5677C207.2 16.8221 207.645 15.4573 208.533 14.4416C209.422 13.4577 210.596 12.9499 212.12 12.9499C213.643 12.9499 214.818 13.4577 215.706 14.4416C216.595 15.4255 217.039 16.8221 217.039 18.5677C217.039 20.3134 216.595 21.6782 215.706 22.6621C214.849 23.6778 213.643 24.1539 212.12 24.1539ZM209.422 11.839L212.405 8.56982H215.579L211.866 11.839H209.422ZM212.12 21.8052C212.882 21.8052 213.485 21.5195 213.929 20.9482C214.373 20.3769 214.595 19.5834 214.595 18.5677C214.595 17.5521 214.373 16.7586 213.929 16.1555C213.485 15.5525 212.882 15.2668 212.12 15.2668C211.39 15.2668 210.787 15.5525 210.342 16.1555C209.898 16.7586 209.676 17.5521 209.676 18.5677C209.676 19.5834 209.898 20.3769 210.342 20.9482C210.787 21.5195 211.358 21.8052 212.12 21.8052Z" fill="black"/>
<path d="M225.451 23.8998V17.7741C225.451 16.1236 224.784 15.2667 223.451 15.2667C221.991 15.2667 221.261 16.0919 221.261 17.7106V23.8998H218.817V13.2036H221.261V14.2193C221.96 13.3941 222.912 12.9497 224.086 12.9497C225.197 12.9497 226.117 13.2988 226.816 13.9971C227.514 14.6954 227.863 15.8063 227.863 17.3297V23.8998H225.451Z" fill="black"/>
<path d="M112.489 44.8472V30.1836H114.997V44.8472H112.489Z" fill="black"/>
<path d="M124.042 44.848V38.7223C124.042 37.0719 123.375 36.2149 122.042 36.2149C120.582 36.2149 119.852 37.0402 119.852 38.6589V44.848H117.408V34.1519H119.852V35.1675C120.55 34.3423 121.503 33.8979 122.677 33.8979C123.788 33.8979 124.708 34.2471 125.407 34.9453C126.105 35.6436 126.454 36.7545 126.454 38.278V44.848H124.042Z" fill="black"/>
<path d="M131.788 45.1021C130.137 45.1021 129.28 44.1817 129.28 42.3725V36.3103H127.693V34.1838H129.28V30.9463L131.724 29.772V34.1838H134.2V36.3103H131.724V41.8964C131.724 42.5947 132.01 42.9121 132.613 42.9121C133.153 42.9121 133.724 42.7534 134.295 42.436L134.01 44.626C133.406 44.9434 132.676 45.1021 131.788 45.1021Z" fill="black"/>
<path d="M140.23 45.102C138.706 45.102 137.5 44.5941 136.611 43.6102C135.723 42.6263 135.278 41.2298 135.278 39.4841C135.278 37.7384 135.723 36.3736 136.611 35.3897C137.5 34.4058 138.706 33.8979 140.23 33.8979C141.594 33.8979 142.705 34.3106 143.594 35.1675C144.483 36.0245 144.895 37.2623 144.895 38.9128C144.895 39.4841 144.864 39.9919 144.8 40.4363H137.691C137.722 41.198 138.008 41.8011 138.484 42.2454C138.96 42.7215 139.531 42.9437 140.198 42.9437C141.15 42.9437 141.912 42.5628 142.451 41.8328L144.007 43.4198C143.118 44.5624 141.848 45.102 140.23 45.102ZM137.754 38.4049H142.483C142.42 37.6432 142.198 37.0402 141.785 36.6593C141.372 36.2467 140.864 36.0562 140.261 36.0562C139.563 36.0562 138.992 36.2467 138.547 36.6275C138.04 37.0084 137.786 37.6115 137.754 38.4049Z" fill="black"/>
<path d="M146.609 44.848V34.1519H149.053V35.2627C149.498 34.3423 150.228 33.8979 151.243 33.8979C152.005 33.8979 152.672 34.1519 153.243 34.628L152.894 36.8815C152.354 36.5006 151.751 36.3101 151.085 36.3101C150.513 36.3101 150.037 36.5006 149.656 36.8815C149.275 37.2623 149.085 37.9289 149.085 38.8493V44.848H146.609Z" fill="black"/>
<path d="M161.084 44.848V38.7223C161.084 37.0719 160.417 36.2149 159.084 36.2149C157.624 36.2149 156.894 37.0402 156.894 38.6589V44.848H154.45V34.1519H156.894V35.1675C157.592 34.3423 158.545 33.8979 159.719 33.8979C160.83 33.8979 161.75 34.2471 162.449 34.9453C163.147 35.6436 163.496 36.7545 163.496 38.278V44.848H161.084Z" fill="black"/>
<path d="M171.812 44.848V43.9911C171.113 44.7211 170.161 45.102 168.955 45.102C167.813 45.102 166.892 44.7846 166.162 44.1815C165.432 43.5467 165.083 42.6898 165.083 41.5471C165.083 40.3728 165.496 39.5158 166.321 38.9128C167.146 38.3097 168.13 38.0241 169.273 38.0241C170.288 38.0241 171.145 38.2145 171.812 38.5954V38.0241C171.812 37.3258 171.653 36.8497 171.304 36.5323C170.955 36.2149 170.447 36.0562 169.717 36.0562C168.543 36.0562 167.495 36.4054 166.543 37.0719L165.781 35.0723C166.956 34.2788 168.352 33.8979 169.971 33.8979C170.542 33.8979 171.018 33.9297 171.463 34.0249C171.875 34.1201 172.32 34.2788 172.796 34.5645C173.24 34.8184 173.589 35.2627 173.843 35.8341C174.097 36.4054 174.224 37.1036 174.224 37.9606V44.848H171.812ZM169.431 42.9437C170.352 42.9437 171.177 42.5946 171.812 41.928V40.5315C171.209 40.2458 170.479 40.0871 169.685 40.0871C169.019 40.0871 168.511 40.2141 168.098 40.4363C167.686 40.6584 167.495 41.0393 167.495 41.5154C167.495 41.9598 167.654 42.2772 168.003 42.5311C168.352 42.785 168.797 42.9437 169.431 42.9437Z" fill="black"/>
<path d="M180.634 45.102C179.174 45.102 178 44.5941 177.143 43.6102C176.286 42.6263 175.842 41.2615 175.842 39.5158C175.842 37.7702 176.286 36.4054 177.143 35.3897C178 34.4058 179.174 33.8979 180.634 33.8979C182.856 33.8979 184.253 34.8819 184.888 36.8497L182.571 37.6115C182.221 36.691 181.618 36.2149 180.73 36.2149C180 36.2149 179.397 36.5006 178.984 37.1036C178.571 37.6749 178.349 38.5002 178.349 39.4841C178.349 40.468 178.54 41.2615 178.952 41.8328C179.365 42.4041 179.904 42.6898 180.603 42.6898C181.587 42.6898 182.253 42.1819 182.539 41.1345L184.888 41.8328C184.316 44.0546 182.888 45.102 180.634 45.102Z" fill="black"/>
<path d="M188.824 32.2476C188.538 32.5333 188.189 32.692 187.808 32.692C187.396 32.692 187.046 32.5333 186.761 32.2476C186.475 31.962 186.316 31.6129 186.316 31.2002C186.316 30.7876 186.475 30.4385 186.761 30.1846C187.046 29.8989 187.396 29.772 187.808 29.772C188.221 29.772 188.57 29.8989 188.824 30.1846C189.109 30.4702 189.236 30.8194 189.236 31.2002C189.236 31.6446 189.078 31.962 188.824 32.2476ZM186.539 44.8482V34.152H188.983V44.8482H186.539Z" fill="black"/>
<path d="M195.679 45.102C194.156 45.102 192.982 44.5941 192.093 43.6102C191.204 42.6263 190.76 41.2615 190.76 39.5158C190.76 37.7702 191.204 36.4054 192.093 35.3897C192.982 34.4058 194.156 33.8979 195.679 33.8979C197.203 33.8979 198.377 34.4058 199.266 35.3897C200.155 36.3736 200.599 37.7702 200.599 39.5158C200.599 41.2615 200.155 42.6263 199.266 43.6102C198.377 44.6259 197.203 45.102 195.679 45.102ZM195.679 42.7532C196.441 42.7532 197.044 42.4676 197.489 41.8963C197.933 41.325 198.155 40.5315 198.155 39.5158C198.155 38.5002 197.933 37.7067 197.489 37.1036C197.044 36.5323 196.441 36.2149 195.679 36.2149C194.949 36.2149 194.346 36.5006 193.902 37.1036C193.458 37.7067 193.235 38.5002 193.235 39.5158C193.235 40.5315 193.458 41.325 193.902 41.8963C194.315 42.4676 194.918 42.7532 195.679 42.7532Z" fill="black"/>
<path d="M209.01 44.848V38.7223C209.01 37.0719 208.343 36.2149 207.01 36.2149C205.55 36.2149 204.82 37.0402 204.82 38.6589V44.848H202.376V34.1519H204.82V35.1675C205.518 34.3423 206.47 33.8979 207.645 33.8979C208.756 33.8979 209.676 34.2471 210.374 34.9453C211.073 35.6436 211.422 36.7545 211.422 38.278V44.848H209.01Z" fill="black"/>
<path d="M219.738 44.848V43.9911C219.039 44.7211 218.087 45.102 216.881 45.102C215.738 45.102 214.818 44.7846 214.088 44.1815C213.358 43.5467 213.009 42.6898 213.009 41.5471C213.009 40.3728 213.421 39.5158 214.247 38.9128C215.072 38.3097 216.056 38.0241 217.198 38.0241C218.214 38.0241 219.071 38.2145 219.738 38.5954V38.0241C219.738 37.3258 219.579 36.8497 219.23 36.5323C218.881 36.2149 218.373 36.0562 217.643 36.0562C216.468 36.0562 215.421 36.4054 214.469 37.0719L213.707 35.0723C214.881 34.2788 216.278 33.8979 217.897 33.8979C218.468 33.8979 218.944 33.9297 219.388 34.0249C219.801 34.1201 220.245 34.2788 220.721 34.5645C221.166 34.8184 221.515 35.2627 221.769 35.8341C222.023 36.4054 222.15 37.1036 222.15 37.9606V44.848H219.738ZM217.357 42.9437C218.278 42.9437 219.103 42.5946 219.738 41.928V40.5315C219.134 40.2458 218.404 40.0871 217.611 40.0871C216.944 40.0871 216.437 40.2141 216.024 40.4363C215.611 40.6584 215.421 41.0393 215.421 41.5154C215.421 41.9598 215.58 42.2772 215.929 42.5311C216.278 42.785 216.722 42.9437 217.357 42.9437Z" fill="black"/>
<path d="M224.34 44.8482V30.8829L226.784 29.7402V44.8799H224.34V44.8482Z" fill="black"/>
<path d="M116.109 66.0494C114.744 66.0494 113.665 65.5415 112.871 64.5576C112.078 63.5737 111.665 62.1772 111.665 60.4315C111.665 58.7176 112.078 57.3528 112.903 56.3371C113.728 55.3215 114.807 54.8136 116.109 54.8136C117.156 54.8136 117.949 55.1628 118.521 55.8293V51.7666L120.965 50.6558V65.7955H118.521V65.0337C117.981 65.732 117.156 66.0494 116.109 66.0494ZM116.458 63.7007C117.378 63.7007 118.045 63.3515 118.489 62.685V58.2097C118.013 57.5115 117.346 57.1941 116.458 57.1941C115.696 57.1941 115.125 57.4797 114.712 58.051C114.299 58.6224 114.109 59.4158 114.109 60.4632C114.109 61.4472 114.331 62.2406 114.744 62.8437C115.156 63.415 115.728 63.7007 116.458 63.7007Z" fill="black"/>
<path d="M127.693 66.0497C126.169 66.0497 124.963 65.5419 124.074 64.558C123.186 63.574 122.741 62.1775 122.741 60.4318C122.741 58.6862 123.186 57.3214 124.074 56.3375C124.963 55.3535 126.169 54.8457 127.693 54.8457C129.057 54.8457 130.168 55.2583 131.057 56.1153C131.946 56.9722 132.358 58.2101 132.358 59.8605C132.358 60.4318 132.327 60.9397 132.263 61.384H125.153C125.185 62.1458 125.471 62.7488 125.947 63.1932C126.423 63.6693 126.994 63.8914 127.661 63.8914C128.613 63.8914 129.375 63.5106 129.914 62.7806L131.47 64.3675C130.549 65.5101 129.28 66.0497 127.693 66.0497ZM125.185 59.3527H129.914C129.851 58.591 129.629 57.9879 129.216 57.607C128.803 57.1944 128.296 57.004 127.693 57.004C126.994 57.004 126.423 57.1944 125.979 57.5753C125.503 57.9562 125.249 58.5592 125.185 59.3527Z" fill="black"/>
<path d="M134.104 65.796V51.8306L136.548 50.688V65.8277H134.104V65.796Z" fill="black"/>
<path d="M150.037 53.545V65.7964H147.53V53.545H143.372V51.1328H154.227V53.545H150.037Z" fill="black"/>
<path d="M154.132 65.7958V55.0996H156.576V56.2105C157.02 55.2901 157.75 54.8457 158.766 54.8457C159.528 54.8457 160.194 55.0996 160.765 55.5757L160.416 57.8292C159.877 57.4483 159.274 57.2579 158.607 57.2579C158.036 57.2579 157.56 57.4483 157.179 57.8292C156.798 58.2101 156.608 58.8766 156.608 59.797V65.7958H154.132Z" fill="black"/>
<path d="M168.033 65.7958V64.9388C167.335 65.6688 166.383 66.0497 165.177 66.0497C164.034 66.0497 163.114 65.7323 162.384 65.1293C161.654 64.4945 161.305 63.6375 161.305 62.4949C161.305 61.3205 161.717 60.4636 162.543 59.8605C163.368 59.2575 164.352 58.9718 165.494 58.9718C166.51 58.9718 167.367 59.1623 168.033 59.5431V58.9718C168.033 58.2736 167.875 57.7975 167.526 57.4801C167.176 57.1627 166.669 57.004 165.939 57.004C164.764 57.004 163.717 57.3531 162.765 58.0196L162.003 56.0201C163.177 55.2266 164.574 54.8457 166.193 54.8457C166.764 54.8457 167.24 54.8774 167.684 54.9727C168.097 55.0679 168.541 55.2266 169.017 55.5122C169.462 55.7661 169.811 56.2105 170.065 56.7818C170.319 57.3531 170.446 58.0514 170.446 58.9083V65.7958H168.033ZM165.621 63.8914C166.542 63.8914 167.367 63.5423 168.002 62.8758V61.4792C167.399 61.1936 166.669 61.0349 165.875 61.0349C165.209 61.0349 164.701 61.1618 164.288 61.384C163.876 61.6062 163.685 61.9871 163.685 62.4632C163.685 62.9075 163.844 63.2249 164.193 63.4788C164.542 63.7327 165.018 63.8914 165.621 63.8914Z" fill="black"/>
<path d="M177.397 66.0494C176.381 66.0494 175.588 65.7002 175.016 64.9702V65.7955H172.572V51.7666L175.016 50.6558V55.861C175.619 55.1628 176.413 54.8136 177.428 54.8136C178.761 54.8136 179.841 55.3215 180.634 56.3371C181.459 57.3528 181.872 58.7176 181.872 60.4315C181.872 62.2089 181.459 63.6054 180.666 64.5894C179.872 65.5733 178.793 66.0494 177.397 66.0494ZM177.111 63.7007C177.873 63.7007 178.444 63.415 178.825 62.8437C179.238 62.2724 179.428 61.4789 179.428 60.4315C179.428 59.3841 179.238 58.5589 178.825 57.9876C178.412 57.4163 177.841 57.1623 177.111 57.1623C176.191 57.1623 175.492 57.5115 175.048 58.2097V62.685C175.461 63.3833 176.159 63.7007 177.111 63.7007Z" fill="black"/>
<path d="M189.808 65.7958V64.9388C189.11 65.6688 188.157 66.0497 186.951 66.0497C185.809 66.0497 184.888 65.7323 184.158 65.1293C183.428 64.4945 183.079 63.6375 183.079 62.4949C183.079 61.3205 183.492 60.4636 184.317 59.8605C185.142 59.2575 186.126 58.9718 187.269 58.9718C188.284 58.9718 189.141 59.1623 189.808 59.5431V58.9718C189.808 58.2736 189.649 57.7975 189.3 57.4801C188.951 57.1627 188.443 57.004 187.713 57.004C186.539 57.004 185.491 57.3531 184.539 58.0196L183.777 56.0201C184.952 55.2266 186.348 54.8457 187.967 54.8457C188.538 54.8457 189.014 54.8774 189.459 54.9727C189.871 55.0679 190.316 55.2266 190.792 55.5122C191.236 55.7661 191.585 56.2105 191.839 56.7818C192.093 57.3531 192.22 58.0514 192.22 58.9083V65.7958H189.808ZM187.396 63.8914C188.316 63.8914 189.141 63.5423 189.776 62.8758V61.4792C189.173 61.1936 188.443 61.0349 187.65 61.0349C186.983 61.0349 186.475 61.1618 186.063 61.384C185.65 61.6062 185.46 61.9871 185.46 62.4632C185.46 62.9075 185.618 63.2249 185.967 63.4788C186.317 63.7327 186.793 63.8914 187.396 63.8914Z" fill="black"/>
<path d="M192.6 70.3034L191.394 68.4308C192.504 68.2086 193.298 67.8912 193.711 67.5421C194.123 67.193 194.345 66.6851 194.345 65.9869V55.1003H196.789V65.2569C196.789 66.8121 196.44 67.923 195.774 68.653C195.012 69.4465 193.964 69.986 192.6 70.3034ZM196.599 53.1959C196.313 53.4815 195.964 53.6402 195.583 53.6402C195.171 53.6402 194.821 53.4815 194.536 53.1959C194.25 52.9102 194.091 52.5611 194.091 52.1485C194.091 51.7359 194.25 51.3867 194.536 51.1328C194.821 50.8472 195.171 50.7202 195.583 50.7202C195.996 50.7202 196.345 50.8472 196.599 51.1328C196.884 51.4185 197.011 51.7676 197.011 52.1485C197.043 52.5928 196.884 52.9102 196.599 53.1959Z" fill="black"/>
<path d="M203.456 66.0497C201.932 66.0497 200.758 65.5419 199.869 64.558C198.98 63.574 198.536 62.2092 198.536 60.4636C198.536 58.7179 198.98 57.3531 199.869 56.3375C200.758 55.3535 201.932 54.8457 203.456 54.8457C204.979 54.8457 206.154 55.3535 207.042 56.3375C207.931 57.3214 208.375 58.7179 208.375 60.4636C208.375 62.2092 207.931 63.574 207.042 64.558C206.185 65.5736 204.979 66.0497 203.456 66.0497ZM203.456 63.701C204.217 63.701 204.821 63.4153 205.265 62.844C205.709 62.2727 205.931 61.4792 205.931 60.4636C205.931 59.4479 205.709 58.6544 205.265 58.0514C204.821 57.4483 204.217 57.1627 203.456 57.1627C202.726 57.1627 202.123 57.4483 201.678 58.0514C201.234 58.6544 201.012 59.4479 201.012 60.4636C201.012 61.4792 201.234 62.2727 201.678 62.844C202.123 63.4153 202.726 63.701 203.456 63.701Z" fill="black"/>
<path d="M22.5397 21.4245C22.1271 22.1228 22.0001 22.4084 22.0001 22.4084C21.6827 23.0115 20.921 23.3289 20.2862 23.0749L19.1436 22.6306C18.5088 22.3767 17.7788 22.7258 17.5566 23.3606L16.6679 25.6776C16.414 26.3124 16.7631 27.0424 17.3979 27.2645L18.5405 27.7089C19.1753 27.9628 19.5562 28.6928 19.3975 29.3593L18.8897 31.8668C18.7944 32.5333 18.1279 33.0729 17.4614 33.0411L16.2235 33.0094C15.557 32.9776 14.9857 33.5172 14.954 34.2155L14.8588 36.6912C14.827 37.3577 15.3666 37.929 16.0649 37.9607L17.3027 37.9925C17.9692 38.0242 18.604 38.5955 18.6357 39.262L18.9849 41.8012C19.1118 42.4677 18.6675 43.166 18.0327 43.3882L16.8266 43.769C16.1918 43.9595 15.8109 44.6577 16.0014 45.3243L17.0805 48.8791L23.7458 46.816C20.6988 39.3573 20.9845 30.6289 25.3328 23.1067C29.6811 15.5844 37.1081 10.9505 45.0747 9.87134L43.5512 3.01562L39.9329 3.84085C39.2664 3.99955 38.8538 4.66607 39.0125 5.3326L39.2981 6.57044C39.4568 7.23697 39.0442 7.96697 38.4094 8.18915L36.0289 9.17307C35.4259 9.45873 34.6007 9.20481 34.2515 8.6335L33.585 7.5861C33.2359 7.01479 32.4741 6.82436 31.8711 7.20523L29.7763 8.50655C29.205 8.85568 29.0145 9.61742 29.3954 10.2205L30.0619 11.2679C30.4111 11.8392 30.2841 12.6644 29.7445 13.077L27.8084 14.791C27.3323 15.267 26.4754 15.2988 25.9676 14.8544L25.0154 14.0609C24.4758 13.6166 23.7141 13.7118 23.2697 14.2514L21.7145 16.1557C21.2701 16.6953 21.3653 17.4571 21.9049 17.9014L22.8571 18.6949C23.3967 19.1393 23.5236 19.9327 23.1427 20.504C23.111 20.4723 22.9523 20.7262 22.5397 21.4245Z" fill="black"/>
<path d="M48.2812 66.0176C49.0747 66.0176 49.4238 65.9858 49.4238 65.9858C50.0904 65.9541 50.7569 66.4619 50.8521 67.1285L51.0426 68.3663C51.1378 69.0328 51.7726 69.5089 52.4708 69.382L54.9148 69.0011C55.5813 68.9059 56.0574 68.2393 55.9304 67.5728L55.74 66.3667C55.6448 65.7002 56.0891 65.0019 56.7239 64.8115L59.1678 63.9863C59.8026 63.7323 60.5961 64.018 60.9135 64.6211L61.4848 65.7002C61.8022 66.3032 62.564 66.5254 63.167 66.208L65.357 65.0337C65.9601 64.7163 66.1823 63.9545 65.8649 63.3515L65.2618 62.2406C64.9444 61.6375 65.1348 60.8441 65.6744 60.4314L67.7057 58.8762C68.2136 58.4319 69.0705 58.4636 69.5466 58.908L70.4671 59.7649C70.9749 60.241 71.7366 60.2093 72.2127 59.7014L74.7519 57.0036L69.6418 52.2744C64.7222 58.654 56.9778 62.7484 48.313 62.7484C39.6164 62.7484 31.9037 58.654 26.9841 52.2744L21.874 57.0036L24.4132 59.7014C24.8893 60.2093 25.651 60.241 26.1588 59.7649L27.0793 58.908C27.5871 58.4319 28.4123 58.4319 28.9202 58.8762L30.9515 60.4314C31.4911 60.8123 31.7132 61.6375 31.3641 62.2406L30.7611 63.3515C30.4437 63.9545 30.6658 64.7163 31.2689 65.0337L33.4589 66.208C34.062 66.5254 34.8237 66.3032 35.1411 65.7002L35.7124 64.6211C36.0298 64.018 36.8233 63.7323 37.4581 63.9863L39.902 64.8115C40.5685 65.0019 41.0129 65.7002 40.8859 66.3667L40.6955 67.5728C40.6003 68.2393 41.0446 68.8741 41.7112 69.0011L44.1551 69.382C44.8216 69.4772 45.4564 69.0328 45.5834 68.3663L45.7738 67.1285C45.869 66.4619 46.5356 65.9541 47.2021 65.9858C47.1386 65.9858 47.456 66.0176 48.2812 66.0176Z" fill="black"/>
<path d="M74.0208 21.4562C73.6082 20.758 73.4495 20.4723 73.4495 20.4723C73.0686 19.901 73.1956 19.0758 73.7352 18.6632L74.6874 17.8697C75.2269 17.4253 75.2904 16.6636 74.8778 16.124L73.3226 14.2196C72.8782 13.6801 72.1165 13.6166 71.5769 14.0292L70.6247 14.8227C70.0851 15.267 69.2599 15.2036 68.7838 14.7592L66.8477 13.0453C66.3082 12.6327 66.1812 11.8074 66.5303 11.2361L67.1969 10.1887C67.546 9.61742 67.3873 8.85568 66.816 8.4748L64.7212 7.17349C64.1499 6.82435 63.3881 6.98305 63.0073 7.55436L62.3407 8.60176C61.9916 9.17307 61.1981 9.42699 60.5633 9.14133L58.1829 8.15741C57.5481 7.93523 57.1355 7.20523 57.2942 6.5387L57.5798 5.30086C57.7385 4.63434 57.3259 3.96781 56.6594 3.80911L53.0093 3.01562L51.4541 9.80786C59.4524 10.887 66.8477 15.521 71.196 23.0432C75.5443 30.5654 75.83 39.2938 72.783 46.7525L79.4483 48.8156L80.5274 45.2608C80.7178 44.626 80.3687 43.9277 79.7022 43.7056L78.4961 43.3247C77.8613 43.1342 77.417 42.4042 77.5439 41.7377L77.893 39.1986C77.9565 38.532 78.5596 37.9607 79.2261 37.929L80.4639 37.8972C81.1305 37.8655 81.67 37.2942 81.67 36.6277L81.5748 34.152C81.5431 33.4855 80.9718 32.9459 80.3052 32.9459L79.0674 32.9776C78.4009 33.0094 77.7343 32.4698 77.6391 31.8033L77.1313 29.2959C76.9726 28.6293 77.3535 27.8993 77.9883 27.6454L79.1309 27.2011C79.7657 26.9471 80.0831 26.2489 79.8609 25.6141L78.9722 23.2971C78.7183 22.6623 78.02 22.3449 77.3852 22.5671L76.2426 23.0115C75.6078 23.2654 74.8461 22.948 74.5287 22.3449C74.5604 22.4401 74.4017 22.1228 74.0208 21.4562Z" fill="black"/>
<path d="M9.65381 20.853C9.62207 20.8848 9.62207 20.9165 9.62207 20.9165C9.62207 20.9165 9.65381 20.8848 9.65381 20.853Z" fill="black"/>
<path d="M20.2861 6.8562L20.3814 6.98316C20.667 6.79272 21.6827 6.06272 22.8888 5.71358C29.6175 3.80922 29.2684 1.49224 32.1249 0.127446L32.0297 0.000488281C31.7441 0.190925 30.8871 0.698755 29.6493 0.698755C21.7779 0.793974 22.3809 5.39619 20.2861 6.8562Z" fill="black"/>
<path d="M12.4482 15.6152L12.6069 15.7105C14.1939 13.9331 15.7491 13.6157 16.0031 13.5204C22.2557 11.6796 24.4457 7.5217 26.1279 6.34734L26.0645 6.25212C23.7475 7.90257 21.0179 6.22038 16.3205 11.2352C16.2887 11.2669 16.1618 11.0765 16.1618 11.0765C19.9705 6.50604 20.0657 3.39557 21.8114 1.68164L21.7162 1.58643C10.6391 8.21996 15.4952 11.8383 12.4482 15.6152Z" fill="black"/>
<path d="M12.9244 7.9668C2.48212 18.3138 8.95696 20.9482 7.33825 26.09L7.43347 26.1217C8.38565 23.9317 10.7978 22.9795 10.8613 22.9478C15.2731 20.9165 16.6696 15.743 18.447 14.1877L18.3518 14.1242C16.1935 16.473 12.6387 15.1399 9.71871 20.9482C9.71871 20.98 9.52827 20.853 9.52827 20.853C11.877 15.8064 10.7661 11.236 13.0196 8.06202C12.9879 8.03028 12.9561 7.9668 12.9244 7.9668Z" fill="black"/>
<path d="M5.33793 39.8338H5.49662C5.46488 39.2307 5.30619 36.7868 7.75012 34.5015C12.7015 29.8993 11.8762 25.8367 13.9076 22.6627L13.7489 22.5675C12.1619 25.2654 6.38533 28.2171 6.16315 32.3433L5.94097 32.3115C6.79794 26.3763 3.65574 22.4406 5.36967 18.6636C5.30619 18.6318 5.24271 18.6001 5.21097 18.5684C-1.42257 32.248 4.06835 32.0576 5.33793 39.8338Z" fill="black"/>
<path d="M7.87689 52.7835L8.03559 52.72C6.6708 49.6413 8.95603 45.4516 9.05125 45.2295C12.0665 39.3894 11.0508 34.0889 11.7491 32.248L11.5904 32.2163C9.9717 36.2155 5.52818 38.4055 6.22645 45.1343H6.00427C5.306 40.9446 0.545089 36.9455 0.703786 32.375C0.672046 32.375 0.640307 32.375 0.608568 32.375C-2.31146 48.5938 6.13123 48.4986 7.87689 52.7835Z" fill="black"/>
<path d="M14.6372 64.78L14.7642 64.6848C11.9394 61.257 12.7963 57.5435 12.8598 57.2895C14.2563 49.196 11.6537 47.736 11.5902 44.0859H11.4633C11.3363 48.1803 7.1467 52.7825 10.9554 58.4956L10.765 58.6226C6.57539 52.4969 3.24275 53.9886 1.27491 47.9264C1.21143 47.9264 1.14795 47.9581 1.11621 47.9899C4.0045 65.7957 11.9394 60.4 14.6372 64.78Z" fill="black"/>
<path d="M30.9818 72.5573L30.9501 72.3986C25.4274 73.5095 22.6026 72.4303 21.6187 67.352C20.2222 60.2106 15.366 57.4811 14.7947 54.6245C14.6995 54.6245 14.6678 54.6245 14.6678 54.6562C15.7152 59.7028 13.2712 62.6863 19.3335 68.7168L19.1748 68.8438C13.3347 64.2098 9.3038 65.9237 6.98682 62.6863C6.95508 62.7181 6.8916 62.7498 6.8916 62.7815C14.0964 74.8425 21.8726 75.4773 30.9818 72.5573Z" fill="black"/>
<path d="M17.334 74.6202L17.3657 74.5567C24.7927 78.8733 32.5689 72.8428 41.9638 72.6206C44.3125 72.5571 51.3904 73.0015 57.8652 80.5237L56.1513 80.9998C54.0247 77.2863 50.7239 74.5885 47.7086 73.8585C39.139 71.7319 38.9803 79.6985 29.4902 79.8255C22.444 79.9524 17.6196 74.9059 17.334 74.6202Z" fill="black"/>
<path d="M86.7812 20.853C86.813 20.8848 86.813 20.9165 86.813 20.9165C86.813 20.9165 86.813 20.8848 86.7812 20.853Z" fill="black"/>
<path d="M86.7812 20.853C86.813 20.8848 86.813 20.9165 86.813 20.9165C86.813 20.9165 86.813 20.8848 86.7812 20.853Z" fill="black"/>
<path d="M9.65381 20.853C9.62207 20.8848 9.62207 20.9165 9.62207 20.9165C9.62207 20.9165 9.65381 20.8848 9.65381 20.853Z" fill="black"/>
<path d="M86.7812 20.853C86.813 20.8848 86.813 20.9165 86.813 20.9165C86.813 20.9165 86.813 20.8848 86.7812 20.853Z" fill="black"/>
<path d="M76.1484 6.8562L76.0532 6.98316C75.7675 6.79272 74.7518 6.06272 73.5457 5.71358C66.817 3.80922 67.1661 1.49224 64.3096 0.127446L64.4048 0.000488281C64.6904 0.190925 65.5474 0.698755 66.7852 0.698755C74.6884 0.793974 74.0853 5.39619 76.1484 6.8562Z" fill="black"/>
<path d="M83.9878 15.6152L83.8608 15.7105C82.2739 13.9331 80.7186 13.6157 80.4647 13.5204C74.212 11.6796 72.022 7.5217 70.3398 6.34734L70.4033 6.25212C72.7203 7.90257 75.4499 6.22038 80.1473 11.2352C80.1791 11.2669 80.306 11.0765 80.306 11.0765C76.4973 6.4743 76.4021 3.36383 74.6564 1.68164L74.7516 1.58643C85.8287 8.21996 80.9408 11.8383 83.9878 15.6152Z" fill="black"/>
<path d="M83.5441 7.9668C93.9864 18.3138 87.4798 20.9482 89.1303 26.1217L89.0351 26.1535C88.0829 23.9635 85.6707 23.0113 85.6072 22.9795C81.1954 20.9482 79.7989 15.7747 78.0215 14.2195L78.1167 14.1242C80.275 16.473 83.8298 15.1399 86.7498 20.9482C86.7498 20.98 86.9403 20.853 86.9403 20.853C84.5915 15.8064 85.7024 11.236 83.4489 8.06202C83.4807 8.03028 83.5124 7.9668 83.5441 7.9668Z" fill="black"/>
<path d="M91.1302 39.8338H90.9715C91.0032 39.2307 91.1619 36.7868 88.718 34.5015C83.7666 29.8993 84.5919 25.8367 82.5605 22.6627L82.7192 22.5675C84.3062 25.2654 90.0828 28.2171 90.305 32.3433L90.5271 32.3115C89.6702 26.3763 92.8124 22.4406 91.0984 18.6636C91.1619 18.6318 91.2254 18.6001 91.2571 18.5684C97.8907 32.248 92.368 32.0576 91.1302 39.8338Z" fill="black"/>
<path d="M88.5587 52.7835L88.4 52.72C89.7648 49.6413 87.4796 45.4516 87.3844 45.2295C84.3691 39.3894 85.3848 34.0889 84.6865 32.248L84.8452 32.2163C86.4639 36.2155 90.9074 38.4055 90.2092 45.1343H90.4314C91.1296 40.9446 95.8905 36.9455 95.7318 32.375C95.7636 32.375 95.7953 32.375 95.8271 32.375C98.7471 48.5938 90.3361 48.4986 88.5587 52.7835Z" fill="black"/>
<path d="M81.8301 64.78L81.7031 64.6848C84.5279 61.257 83.671 57.5435 83.6075 57.2895C82.211 49.196 84.8136 47.736 84.8771 44.0859H85.004C85.131 48.1803 89.3206 52.7825 85.5119 58.4956L85.7023 58.6226C89.8919 52.4969 93.2245 53.9886 95.1924 47.9264C95.2559 47.9264 95.3193 47.9581 95.3511 47.9899C92.431 65.7957 84.4962 60.4 81.8301 64.78Z" fill="black"/>
<path d="M65.4512 72.5573L65.4829 72.3986C71.0056 73.5095 73.8304 72.4303 74.8143 67.352C76.2108 60.2106 81.067 57.4811 81.6383 54.6245C81.7335 54.6245 81.7652 54.6245 81.7652 54.6562C80.7178 59.7028 83.1618 62.6863 77.0995 68.7168L77.2582 68.8438C83.0983 64.2098 87.1292 65.9237 89.4462 62.6863C89.4779 62.7181 89.5414 62.7498 89.5414 62.7815C82.3683 74.8425 74.5921 75.4773 65.4512 72.5573Z" fill="black"/>
<path d="M79.1006 74.6202L79.0688 74.5567C71.6418 78.8733 63.8656 72.8428 54.4708 72.6206C52.1221 72.5571 45.0442 73.0015 38.5693 80.5237L40.2833 80.9998C42.4098 77.2863 45.7107 74.5885 48.7259 73.8585C57.2956 71.7319 57.4543 79.6985 66.9444 79.8255C74.0223 79.9524 78.8467 74.9059 79.1006 74.6202Z" fill="black"/>
<path d="M9.65381 20.853C9.62207 20.8848 9.62207 20.9165 9.62207 20.9165C9.62207 20.9165 9.65381 20.8848 9.65381 20.853Z" fill="black"/>
<path d="M9.65381 20.853C9.62207 20.8848 9.62207 20.9165 9.62207 20.9165C9.62207 20.9165 9.65381 20.8848 9.65381 20.853Z" fill="black"/>
<path d="M86.7812 20.853C86.813 20.8848 86.813 20.9165 86.813 20.9165C86.813 20.9165 86.813 20.8848 86.7812 20.853Z" fill="black"/>
<path d="M50.9158 20.7892C51.011 19.4244 52.471 19.3292 52.471 19.3292H54.4071V17.5518H43.0127V19.3292H44.9488C44.9488 19.3292 46.4088 19.4244 46.504 20.7892V50.4338C46.4088 51.7986 44.9488 51.8938 44.9488 51.8938H43.0127V53.6712H54.4071V51.8938H52.471C52.471 51.8938 51.011 51.7986 50.9158 50.4338V20.7892Z" fill="black"/>
<path d="M69.482 23.5508V31.2635H68.0537V29.1687C68.0537 29.1687 68.4029 24.5982 63.4198 25.0108V45.451C63.4198 45.451 63.5467 46.6571 65.8002 46.4984V47.7997H57.1989V46.4984C59.4841 46.6253 59.5793 45.451 59.5793 45.451V25.0108C54.6597 24.5982 54.9771 29.1687 54.9771 29.1687V31.2635H53.5488V23.5508H69.482Z" fill="black"/>
<path d="M34.5394 22.7881H34.4125C30.9529 22.7881 27.5885 25.0098 25.938 28.7551C25.0811 30.6595 24.8906 33.1034 24.8906 35.4839C24.8906 37.8643 25.0811 40.3082 25.938 42.2126C27.5885 45.9261 30.9529 48.497 34.4125 48.497H34.5394C37.999 48.497 41.3634 45.9579 43.0138 42.2126C43.8708 40.3082 44.0612 37.8643 44.0612 35.4839C44.0612 33.1034 43.8708 30.6595 43.0138 28.7551C41.3316 25.0416 37.999 22.7881 34.5394 22.7881ZM39.8716 35.6425C39.8716 37.8643 39.8082 39.8004 39.8082 39.8004C39.6812 41.6096 39.6495 43.4504 38.7925 44.6883C37.8403 46.1166 36.3168 46.8466 34.7616 46.8466L34.6981 46.8783H34.5077L34.4442 46.8466C32.9207 46.8466 31.3655 46.1166 30.4133 44.6883C29.5563 43.4504 29.5246 41.6096 29.3976 39.8004C29.3976 39.8004 29.3341 37.896 29.3341 35.706V35.6108C29.3341 33.389 29.3976 31.4529 29.3976 31.4529C29.5246 29.6438 29.5563 27.8029 30.4133 26.5651C31.3655 25.1368 32.889 24.4068 34.4442 24.4068L34.5077 24.3751H34.6981L34.7616 24.4068C36.2851 24.4068 37.8403 25.1368 38.7925 26.5651C39.6495 27.8029 39.6812 29.6438 39.8082 31.4529C39.8082 31.4529 39.8716 33.3573 39.8716 35.5473V35.6425Z" fill="black"/>
</svg>
