<svg width="137" height="19" viewBox="0 0 137 19" fill="none" xmlns="http://www.w3.org/2000/svg">
<g clip-path="url(#clip0)">
<path d="M112.401 14.9473C112.401 14.7068 112.478 14.5118 112.63 14.3619C112.786 14.2121 112.981 14.1372 113.213 14.1372C113.448 14.1372 113.643 14.2121 113.795 14.3619C113.951 14.5118 114.029 14.7068 114.029 14.9473C114.029 15.1842 113.953 15.3775 113.8 15.5273C113.648 15.6737 113.452 15.7468 113.213 15.7468C112.977 15.7468 112.783 15.6737 112.63 15.5273C112.478 15.3775 112.401 15.1842 112.401 14.9473Z" fill="white"/>
<path d="M117.535 14.5766C117.8 14.5766 118.016 14.5 118.182 14.3467C118.348 14.1934 118.434 13.9896 118.441 13.7352H119.79C119.786 14.1185 119.687 14.4704 119.491 14.7909C119.295 15.1079 119.026 15.3553 118.685 15.533C118.346 15.7072 117.971 15.7943 117.559 15.7943C116.789 15.7943 116.182 15.5382 115.737 15.0261C115.293 14.5104 115.07 13.7997 115.07 12.8938V12.7945C115.07 11.9235 115.291 11.2285 115.732 10.7093C116.174 10.1902 116.779 9.93066 117.549 9.93066C118.223 9.93066 118.763 10.1327 119.167 10.5369C119.576 10.9376 119.783 11.4723 119.79 12.1413H118.441C118.434 11.8486 118.348 11.6117 118.182 11.4305C118.016 11.2459 117.797 11.1536 117.525 11.1536C117.189 11.1536 116.936 11.2825 116.763 11.5403C116.594 11.7946 116.509 12.2092 116.509 12.7841V12.9409C116.509 13.5227 116.594 13.9408 116.763 14.1951C116.932 14.4495 117.189 14.5766 117.535 14.5766Z" fill="white"/>
<path d="M120.387 12.8102C120.387 12.2493 120.49 11.7493 120.695 11.3104C120.901 10.8714 121.196 10.5317 121.581 10.2913C121.97 10.0509 122.42 9.93066 122.931 9.93066C123.657 9.93066 124.25 10.1641 124.708 10.6309C125.169 11.0978 125.426 11.7319 125.48 12.5332L125.489 12.92C125.489 13.7875 125.259 14.4843 124.797 15.0104C124.336 15.533 123.717 15.7943 122.941 15.7943C122.164 15.7943 121.543 15.533 121.079 15.0104C120.617 14.4878 120.387 13.7771 120.387 12.8782V12.8102ZM121.826 12.92C121.826 13.4565 121.922 13.8676 122.114 14.1533C122.307 14.4355 122.582 14.5766 122.941 14.5766C123.289 14.5766 123.561 14.4373 123.757 14.1585C123.953 13.8763 124.051 13.4269 124.051 12.8102C124.051 12.2841 123.953 11.8765 123.757 11.5873C123.561 11.2981 123.286 11.1536 122.931 11.1536C122.579 11.1536 122.307 11.2981 122.114 11.5873C121.922 11.873 121.826 12.3172 121.826 12.92Z" fill="white"/>
<path d="M126.151 12.8102C126.151 12.2493 126.254 11.7493 126.46 11.3104C126.666 10.8714 126.961 10.5317 127.346 10.2913C127.735 10.0509 128.184 9.93066 128.695 9.93066C129.422 9.93066 130.015 10.1641 130.473 10.6309C130.934 11.0978 131.191 11.7319 131.244 12.5332L131.254 12.92C131.254 13.7875 131.024 14.4843 130.562 15.0104C130.101 15.533 129.482 15.7943 128.705 15.7943C127.929 15.7943 127.308 15.533 126.843 15.0104C126.382 14.4878 126.151 13.7771 126.151 12.8782V12.8102ZM127.59 12.92C127.59 13.4565 127.686 13.8676 127.879 14.1533C128.071 14.4355 128.347 14.5766 128.705 14.5766C129.054 14.5766 129.326 14.4373 129.522 14.1585C129.717 13.8763 129.815 13.4269 129.815 12.8102C129.815 12.2841 129.717 11.8765 129.522 11.5873C129.326 11.2981 129.05 11.1536 128.695 11.1536C128.343 11.1536 128.071 11.2981 127.879 11.5873C127.686 11.873 127.59 12.3172 127.59 12.92Z" fill="white"/>
<path d="M136.989 12.9147C136.989 13.7858 136.8 14.4843 136.422 15.0104C136.047 15.533 135.539 15.7943 134.899 15.7943C134.354 15.7943 133.915 15.5957 133.579 15.1985V17.8638H132.141V10.0352H133.475L133.525 10.5892C133.873 10.1502 134.328 9.93066 134.889 9.93066C135.552 9.93066 136.069 10.1885 136.437 10.7041C136.805 11.2198 136.989 11.9305 136.989 12.8364V12.9147ZM135.551 12.805C135.551 12.2789 135.461 11.873 135.282 11.5873C135.106 11.3016 134.849 11.1588 134.51 11.1588C134.059 11.1588 133.749 11.34 133.579 11.7023V14.0174C133.755 14.3902 134.069 14.5766 134.52 14.5766C135.207 14.5766 135.551 13.9861 135.551 12.805Z" fill="white"/>
<path d="M74.8437 15.6896H61.8496L68.3466 0.972168L74.8437 15.6896ZM62.9985 14.9237H73.6948L68.3466 2.79375L62.9985 14.9237Z" fill="url(#paint0_linear)"/>
<path fill-rule="evenodd" clip-rule="evenodd" d="M68.3466 0.0805664C68.6776 0.0805664 68.9784 0.282273 69.1175 0.597467L75.6146 15.3149C75.7365 15.5911 75.7158 15.9135 75.5597 16.1701C75.4036 16.4266 75.1337 16.5819 74.8438 16.5819H61.8496C61.5597 16.5819 61.2897 16.4266 61.1336 16.1701C60.9775 15.9135 60.9568 15.5911 61.0788 15.3149L67.5758 0.597467C67.7149 0.282273 68.0157 0.0805664 68.3466 0.0805664ZM64.328 14.0322H72.3653L68.3466 4.9175L64.328 14.0322Z" fill="url(#paint1_linear)"/>
<path d="M79.2891 15.6896V0.972168H79.9922V14.9072H89.2058V15.6896H79.2891Z" fill="url(#paint2_linear)"/>
<path fill-rule="evenodd" clip-rule="evenodd" d="M78.4395 0.972482C78.4395 0.479891 78.8198 0.0805664 79.289 0.0805664H79.9921C80.4613 0.0805664 80.8416 0.479891 80.8416 0.972482V14.0156H89.2057C89.6749 14.0156 90.0552 14.415 90.0552 14.9076V15.6899C90.0552 16.1825 89.6749 16.5819 89.2057 16.5819H79.289C78.8198 16.5819 78.4395 16.1825 78.4395 15.6899V0.972482Z" fill="url(#paint3_linear)"/>
<path d="M101.174 0.972168V1.75456H96.2129V15.6896H95.5338V1.75456H90.5732V0.972168H101.174Z" fill="url(#paint4_linear)"/>
<path fill-rule="evenodd" clip-rule="evenodd" d="M89.7236 0.972482C89.7236 0.479891 90.1042 0.0805664 90.5734 0.0805664H101.174C101.643 0.0805664 102.023 0.479891 102.023 0.972482V1.75487C102.023 2.24747 101.643 2.6468 101.174 2.6468H97.0628V15.6899C97.0628 16.1825 96.6824 16.5819 96.213 16.5819H95.534C95.0648 16.5819 94.6845 16.1825 94.6845 15.6899V2.6468H90.5734C90.1042 2.6468 89.7236 2.24747 89.7236 1.75487V0.972482Z" fill="url(#paint5_linear)"/>
<path d="M109.367 8.34196L104.593 3.31245L105.112 2.76758L110.406 8.34196L105.112 13.8954L104.593 13.3506L109.367 8.34196Z" fill="url(#paint6_linear)"/>
<path fill-rule="evenodd" clip-rule="evenodd" d="M105.113 1.87598C105.339 1.8762 105.555 1.97053 105.714 2.13819L111.008 7.71259C111.339 8.06114 111.338 8.62528 111.006 8.97317L105.713 14.5266C105.381 14.8747 104.843 14.8747 104.512 14.5266L103.992 13.9818C103.833 13.8145 103.743 13.5875 103.743 13.3509C103.743 13.1142 103.833 12.8873 103.992 12.72L108.166 8.34098L103.991 3.94233C103.66 3.59376 103.661 3.02972 103.992 2.68188L104.512 2.137C104.671 1.96966 104.888 1.87575 105.113 1.87598Z" fill="url(#paint7_linear)"/>
<path d="M57.9109 2.76758L58.4303 3.31245L53.656 8.34196L58.4303 13.3506L57.9109 13.8954L52.6172 8.34196L57.9109 2.76758Z" fill="url(#paint8_linear)"/>
<path fill-rule="evenodd" clip-rule="evenodd" d="M57.9101 1.87598C58.1357 1.87575 58.352 1.96966 58.5115 2.137L59.0309 2.68188C59.3625 3.02972 59.3631 3.59376 59.0322 3.94233L54.8567 8.34098L59.0309 12.72C59.1904 12.8873 59.28 13.1142 59.28 13.3509C59.28 13.5875 59.1904 13.8145 59.0309 13.9818L58.5115 14.5266C58.1798 14.8747 57.6421 14.8747 57.3104 14.5266L52.0166 8.97317C51.685 8.62528 51.6845 8.06114 52.0155 7.71259L57.3092 2.13819C57.4684 1.97053 57.6846 1.8762 57.9101 1.87598Z" fill="url(#paint9_linear)"/>
</g>
<path d="M5.11222 14.0596C5.11222 14.8008 4.94815 15.3896 4.62003 15.8262C4.2919 16.2598 3.85245 16.4766 3.30167 16.4766C2.65128 16.4766 2.15323 16.248 1.80753 15.791V18.2168H1.28458V11.6338H1.77237L1.79874 12.3062C2.14151 11.7993 2.6381 11.5459 3.28849 11.5459C3.85685 11.5459 4.30216 11.7612 4.62442 12.1919C4.94962 12.6226 5.11222 13.2202 5.11222 13.9849V14.0596ZM4.58487 13.9673C4.58487 13.3608 4.46036 12.8818 4.21134 12.5303C3.96231 12.1787 3.61515 12.0029 3.16983 12.0029C2.84757 12.0029 2.57071 12.0806 2.33927 12.2358C2.10782 12.3911 1.93058 12.6167 1.80753 12.9126V15.1934C1.93351 15.4658 2.11368 15.6738 2.34806 15.8174C2.58243 15.9609 2.85929 16.0327 3.17862 16.0327C3.62101 16.0327 3.96524 15.8569 4.21134 15.5054C4.46036 15.1509 4.58487 14.6382 4.58487 13.9673ZM5.99112 13.9409C5.99112 13.4839 6.07901 13.0723 6.2548 12.7061C6.43351 12.3398 6.68399 12.0557 7.00626 11.8535C7.33146 11.6484 7.69913 11.5459 8.10929 11.5459C8.7421 11.5459 9.2548 11.7686 9.64737 12.2139C10.04 12.6562 10.2362 13.2437 10.2362 13.9761V14.0859C10.2362 14.5459 10.1469 14.9604 9.96817 15.3296C9.79239 15.6958 9.54337 15.9785 9.2211 16.1777C8.89884 16.377 8.53116 16.4766 8.11808 16.4766C7.48819 16.4766 6.9755 16.2554 6.57999 15.813C6.18741 15.3677 5.99112 14.7788 5.99112 14.0464V13.9409ZM6.51847 14.0859C6.51847 14.6543 6.66495 15.1216 6.95792 15.4878C7.25382 15.8511 7.64054 16.0327 8.11808 16.0327C8.59269 16.0327 8.97647 15.8511 9.26944 15.4878C9.56534 15.1216 9.71329 14.6396 9.71329 14.042V13.9409C9.71329 13.5776 9.64591 13.2451 9.51114 12.9434C9.37638 12.6416 9.18741 12.4087 8.94425 12.2446C8.70108 12.0776 8.42276 11.9941 8.10929 11.9941C7.64054 11.9941 7.25821 12.1787 6.96231 12.5479C6.66642 12.9141 6.51847 13.3945 6.51847 13.9893V14.0859ZM12.4643 15.2944L12.5434 15.7031L12.6488 15.2725L13.7914 11.6338H14.2397L15.3691 15.2417L15.4921 15.7427L15.5932 15.2812L16.5688 11.6338H17.1137L15.7294 16.3887H15.2812L14.0595 12.6182L14.0024 12.3589L13.9452 12.6226L12.7455 16.3887H12.2973L10.9174 11.6338H11.4579L12.4643 15.2944ZM19.9525 16.4766C19.5483 16.4766 19.182 16.377 18.8539 16.1777C18.5287 15.9785 18.2753 15.7017 18.0937 15.3472C17.912 14.9897 17.8212 14.5898 17.8212 14.1475V13.9585C17.8212 13.5015 17.9091 13.0898 18.0849 12.7236C18.2636 12.3574 18.5111 12.0703 18.8275 11.8623C19.144 11.6514 19.4867 11.5459 19.8559 11.5459C20.433 11.5459 20.89 11.7437 21.227 12.1392C21.5668 12.5317 21.7367 13.0693 21.7367 13.752V14.0464H18.3442V14.1475C18.3442 14.6865 18.498 15.1362 18.8056 15.4966C19.1161 15.854 19.5058 16.0327 19.9745 16.0327C20.2558 16.0327 20.5033 15.9814 20.7172 15.8789C20.934 15.7764 21.1303 15.6123 21.3061 15.3867L21.6357 15.6372C21.2489 16.1968 20.6879 16.4766 19.9525 16.4766ZM19.8559 11.9941C19.4604 11.9941 19.1264 12.1392 18.8539 12.4292C18.5844 12.7192 18.4203 13.1089 18.3617 13.5981H21.2138V13.541C21.1991 13.084 21.0688 12.7119 20.8227 12.4248C20.5766 12.1377 20.2543 11.9941 19.8559 11.9941ZM24.9579 12.082C24.8466 12.0615 24.7279 12.0513 24.602 12.0513C24.2738 12.0513 23.9955 12.1436 23.767 12.3281C23.5414 12.5098 23.3803 12.7749 23.2836 13.1235V16.3887H22.7607V11.6338H23.2748L23.2836 12.3896C23.5619 11.8271 24.0087 11.5459 24.6239 11.5459C24.7704 11.5459 24.8861 11.5649 24.9711 11.603L24.9579 12.082ZM27.5463 16.4766C27.142 16.4766 26.7758 16.377 26.4477 16.1777C26.1225 15.9785 25.8691 15.7017 25.6874 15.3472C25.5058 14.9897 25.415 14.5898 25.415 14.1475V13.9585C25.415 13.5015 25.5028 13.0898 25.6786 12.7236C25.8573 12.3574 26.1049 12.0703 26.4213 11.8623C26.7377 11.6514 27.0805 11.5459 27.4496 11.5459C28.0268 11.5459 28.4838 11.7437 28.8207 12.1392C29.1606 12.5317 29.3305 13.0693 29.3305 13.752V14.0464H25.9379V14.1475C25.9379 14.6865 26.0917 15.1362 26.3993 15.4966C26.7099 15.854 27.0995 16.0327 27.5683 16.0327C27.8495 16.0327 28.0971 15.9814 28.3109 15.8789C28.5277 15.7764 28.724 15.6123 28.8998 15.3867L29.2294 15.6372C28.8427 16.1968 28.2817 16.4766 27.5463 16.4766ZM27.4496 11.9941C27.0541 11.9941 26.7201 12.1392 26.4477 12.4292C26.1781 12.7192 26.0141 13.1089 25.9555 13.5981H28.8075V13.541C28.7929 13.084 28.6625 12.7119 28.4164 12.4248C28.1703 12.1377 27.8481 11.9941 27.4496 11.9941ZM30.1435 13.9673C30.1435 13.229 30.3075 12.6416 30.6357 12.2051C30.9667 11.7656 31.415 11.5459 31.9804 11.5459C32.622 11.5459 33.1112 11.7993 33.4482 12.3062V9.63867H33.9711V16.3887H33.4789L33.4569 15.7559C33.12 16.2363 32.6249 16.4766 31.9716 16.4766C31.4237 16.4766 30.9814 16.2568 30.6444 15.8174C30.3105 15.375 30.1435 14.7788 30.1435 14.0288V13.9673ZM30.6752 14.0596C30.6752 14.666 30.7968 15.145 31.04 15.4966C31.2831 15.8452 31.6259 16.0195 32.0683 16.0195C32.7157 16.0195 33.1757 15.7339 33.4482 15.1626V12.9302C33.1757 12.312 32.7187 12.0029 32.0771 12.0029C31.6347 12.0029 31.2904 12.1772 31.0443 12.5259C30.7983 12.8716 30.6752 13.3828 30.6752 14.0596ZM41.3715 14.0596C41.3715 14.8008 41.2074 15.3896 40.8793 15.8262C40.5512 16.2598 40.1103 16.4766 39.5566 16.4766C38.8944 16.4766 38.3935 16.2305 38.0536 15.7383L38.0317 16.3887H37.5395V9.63867H38.0624V12.3237C38.3964 11.8052 38.8915 11.5459 39.5478 11.5459C40.1103 11.5459 40.5541 11.7612 40.8793 12.1919C41.2074 12.6196 41.3715 13.2158 41.3715 13.9805V14.0596ZM40.8442 13.9673C40.8442 13.3403 40.7226 12.8569 40.4794 12.5171C40.2362 12.1743 39.8935 12.0029 39.4511 12.0029C39.1142 12.0029 38.8285 12.0864 38.5942 12.2534C38.3598 12.4175 38.1825 12.6592 38.0624 12.9785V15.123C38.3261 15.7207 38.7919 16.0195 39.4599 16.0195C39.8935 16.0195 40.2318 15.8481 40.475 15.5054C40.7211 15.1626 40.8442 14.6499 40.8442 13.9673ZM43.9906 15.6328L45.3793 11.6338H45.9462L43.9159 17.1973L43.8105 17.4434C43.5497 18.0205 43.1469 18.3091 42.602 18.3091C42.476 18.3091 42.3412 18.2886 42.1977 18.2476L42.1933 17.8125L42.4657 17.8389C42.7235 17.8389 42.9316 17.7744 43.0898 17.6455C43.2509 17.5195 43.3871 17.3013 43.4984 16.9907L43.7314 16.3491L41.9384 11.6338H42.5141L43.9906 15.6328Z" fill="white"/>
<defs>
<linearGradient id="paint0_linear" x1="68.3466" y1="0.972168" x2="68.3466" y2="15.6896" gradientUnits="userSpaceOnUse">
<stop stop-color="#45E8D4"/>
<stop offset="1" stop-color="#E1B4E6"/>
</linearGradient>
<linearGradient id="paint1_linear" x1="68.3466" y1="0.972481" x2="68.3466" y2="15.69" gradientUnits="userSpaceOnUse">
<stop stop-color="#45E8D4"/>
<stop offset="0.515625" stop-color="#808080"/>
<stop offset="1" stop-color="#DD62E8"/>
</linearGradient>
<linearGradient id="paint2_linear" x1="84.2474" y1="0.972168" x2="84.2474" y2="15.6896" gradientUnits="userSpaceOnUse">
<stop stop-color="#45E8D4"/>
<stop offset="1" stop-color="#E1B4E6"/>
</linearGradient>
<linearGradient id="paint3_linear" x1="84.2473" y1="0.972481" x2="84.2473" y2="15.69" gradientUnits="userSpaceOnUse">
<stop stop-color="#45E8D4"/>
<stop offset="0.515625" stop-color="#808080"/>
<stop offset="1" stop-color="#DD62E8"/>
</linearGradient>
<linearGradient id="paint4_linear" x1="95.8735" y1="0.972168" x2="95.8735" y2="15.6896" gradientUnits="userSpaceOnUse">
<stop stop-color="#45E8D4"/>
<stop offset="1" stop-color="#E1B4E6"/>
</linearGradient>
<linearGradient id="paint5_linear" x1="95.8736" y1="0.972481" x2="95.8736" y2="15.69" gradientUnits="userSpaceOnUse">
<stop stop-color="#45E8D4"/>
<stop offset="0.515625" stop-color="#808080"/>
<stop offset="1" stop-color="#DD62E8"/>
</linearGradient>
<linearGradient id="paint6_linear" x1="107.499" y1="2.76758" x2="107.499" y2="13.8954" gradientUnits="userSpaceOnUse">
<stop stop-color="#45E8D4"/>
<stop offset="1" stop-color="#E1B4E6"/>
</linearGradient>
<linearGradient id="paint7_linear" x1="107.5" y1="2.76789" x2="107.5" y2="13.8957" gradientUnits="userSpaceOnUse">
<stop stop-color="#45E8D4"/>
<stop offset="0.515625" stop-color="#808080"/>
<stop offset="1" stop-color="#DD62E8"/>
</linearGradient>
<linearGradient id="paint8_linear" x1="55.5237" y1="2.76758" x2="55.5237" y2="13.8954" gradientUnits="userSpaceOnUse">
<stop stop-color="#45E8D4"/>
<stop offset="1" stop-color="#E1B4E6"/>
</linearGradient>
<linearGradient id="paint9_linear" x1="55.5238" y1="2.76789" x2="55.5238" y2="13.8957" gradientUnits="userSpaceOnUse">
<stop stop-color="#45E8D4"/>
<stop offset="0.515625" stop-color="#808080"/>
<stop offset="1" stop-color="#DD62E8"/>
</linearGradient>
<clipPath id="clip0">
<rect width="85.2444" height="17.9444" fill="white" transform="translate(51.7559)"/>
</clipPath>
</defs>
</svg>
