<svg width="185" height="115" viewBox="0 0 185 115" fill="none" xmlns="http://www.w3.org/2000/svg">
<path d="M54.6219 5.59854C54.6219 8.48908 52.2786 10.8323 49.3881 10.8323C46.4975 10.8323 44.1543 8.48908 44.1543 5.59854C44.1543 2.70799 46.4975 0.364746 49.3881 0.364746C52.2786 0.364746 54.6219 2.70799 54.6219 5.59854Z" fill="#784707"/>
<path fill-rule="evenodd" clip-rule="evenodd" d="M49.3886 0.729523C46.6995 0.729523 44.5196 2.90946 44.5196 5.59855C44.5196 8.28764 46.6995 10.4676 49.3886 10.4676C52.0777 10.4676 54.2576 8.28764 54.2576 5.59855C54.2576 2.90946 52.0777 0.729523 49.3886 0.729523ZM43.79 5.59855C43.79 2.50656 46.2966 0 49.3886 0C52.4806 0 54.9871 2.50656 54.9871 5.59855C54.9871 8.69055 52.4806 11.1971 49.3886 11.1971C46.2966 11.1971 43.79 8.69055 43.79 5.59855Z" fill="black"/>
<path d="M61.5488 7.69207C60.9596 5.18693 58.4512 3.63374 55.9461 4.22291L55.8074 4.25552C53.2257 4.8627 51.625 7.4478 52.2322 10.0295L52.7493 12.228C53.0519 9.61112 57.9367 5.35492 61.5488 7.69207V7.69207Z" fill="#784707"/>
<path fill-rule="evenodd" clip-rule="evenodd" d="M51.8772 10.113C51.2239 7.3352 52.9462 4.55374 55.724 3.90044L55.8626 3.86783C58.5639 3.23254 61.2687 4.90731 61.904 7.60855L63.3438 13.7307C63.9971 16.5085 62.2748 19.2899 59.497 19.9432C56.7192 20.5965 53.9378 18.8743 53.2845 16.0965L51.8772 10.113ZM55.891 4.61059C53.5054 5.17164 52.0263 7.56039 52.5874 9.94599L52.8079 10.8835C52.9818 10.5402 53.201 10.1972 53.4539 9.86544C54.0367 9.10103 54.8201 8.36775 55.7109 7.79539C57.2365 6.81524 59.1478 6.26988 60.9128 6.95749C60.0762 5.14122 58.0518 4.10241 56.0297 4.57798L55.891 4.61059ZM61.2283 7.92216C59.6188 6.96121 57.7156 7.37453 56.1053 8.40914C55.2856 8.9358 54.5652 9.61116 54.0341 10.3078C53.5176 10.9852 53.2001 11.656 53.1197 12.2092L53.9946 15.9295C54.5557 18.3151 56.9444 19.7942 59.33 19.2331C61.7156 18.672 63.1947 16.2833 62.6337 13.8977L61.2283 7.92216Z" fill="black"/>
<path d="M53.6394 16.013C54.2466 18.5947 56.8317 20.1954 59.4134 19.5882V19.5882C61.9951 18.981 63.5958 16.3959 62.9886 13.8142L61.5488 7.69207C57.9367 5.35492 53.0519 9.61112 52.7493 12.228L53.6394 16.013Z" fill="#E78A34"/>
<path fill-rule="evenodd" clip-rule="evenodd" d="M51.8772 10.113C51.2239 7.3352 52.9462 4.55374 55.724 3.90044L55.8626 3.86783C58.5639 3.23254 61.2687 4.90731 61.904 7.60855L63.3438 13.7307C63.9971 16.5085 62.2748 19.2899 59.497 19.9432C56.7192 20.5965 53.9378 18.8743 53.2845 16.0965L51.8772 10.113ZM55.891 4.61059C53.5054 5.17164 52.0263 7.56039 52.5874 9.94599L52.8079 10.8835C52.9818 10.5402 53.201 10.1972 53.4539 9.86544C54.0367 9.10103 54.8201 8.36775 55.7109 7.79539C57.2365 6.81524 59.1478 6.26988 60.9128 6.95749C60.0762 5.14122 58.0518 4.10241 56.0297 4.57798L55.891 4.61059ZM61.2283 7.92216C59.6188 6.96121 57.7156 7.37453 56.1053 8.40914C55.2856 8.9358 54.5652 9.61116 54.0341 10.3078C53.5176 10.9852 53.2001 11.656 53.1197 12.2092L53.9946 15.9295C54.5557 18.3151 56.9444 19.7942 59.33 19.2331C61.7156 18.672 63.1947 16.2833 62.6337 13.8977L61.2283 7.92216Z" fill="black"/>
<path fill-rule="evenodd" clip-rule="evenodd" d="M63.3277 10.0258C64.5439 9.24505 66.1628 9.59804 66.9436 10.8143L74.1622 21.9978C75.9068 24.4402 74.3367 28.8017 69.8007 28.1038L60.044 26.6457L58.9541 46.9455H75.7324C76.4654 46.9455 77.1649 47.2529 77.6605 47.793L91.2683 62.6221C92.2455 63.687 92.1744 65.3424 91.1095 66.3195C90.0447 67.2967 88.3893 67.2256 87.4121 66.1608L74.582 52.1793H59.6285L64.8218 71.0235C65.0021 71.6776 64.9212 72.3762 64.5963 72.9718L54.1288 92.1624C53.4367 93.4312 51.8471 93.8987 50.5783 93.2067C49.3095 92.5146 48.842 90.925 49.534 89.6562L59.4951 71.3943L53.67 50.2576C53.5951 49.9858 53.5646 49.7036 53.5798 49.4221L54.7628 27.3882L45.3337 30.8379L38.9429 48.6994C38.456 50.0601 36.9581 50.7686 35.5973 50.2817C34.2366 49.7948 33.5281 48.297 34.015 46.9362L40.8189 27.9201C41.0807 27.1885 41.654 26.611 42.3837 26.3441L56.6894 21.1103C57.2397 21.1103 57.8427 21.1103 58.2864 21.1103L68.0789 22.7296C68.3967 22.7821 68.6217 22.4269 68.4383 22.1621L62.5392 13.6417C61.7585 12.4255 62.1115 10.8066 63.3277 10.0258Z" fill="#E78A34"/>
<path fill-rule="evenodd" clip-rule="evenodd" d="M66.3297 11.2084C65.7665 10.3312 64.599 10.0766 63.7218 10.6397C62.8479 11.2008 62.5919 12.3617 63.1469 13.2378L69.0381 21.7468C69.5882 22.5414 68.9134 23.607 67.9598 23.4493L58.2265 21.8398H56.8187L42.6344 27.0292C42.1081 27.2217 41.6946 27.6382 41.5058 28.1658L34.7019 47.1819C34.3507 48.1634 34.8617 49.2437 35.8431 49.5948C36.8245 49.946 37.9048 49.435 38.256 48.4536L44.6468 30.5921C44.7198 30.3882 44.8796 30.2272 45.083 30.1528L54.5121 26.7031C54.7424 26.6189 54.9995 26.6559 55.1966 26.8017C55.3937 26.9475 55.5044 27.1825 55.4912 27.4273L54.3082 49.4612C54.2973 49.6642 54.3193 49.8677 54.3733 50.0638L60.1984 71.2004C60.2487 71.3828 60.2261 71.5775 60.1355 71.7436L50.1745 90.0055C49.6753 90.9206 50.0125 92.0671 50.9276 92.5662C51.8427 93.0654 52.9892 92.7282 53.4883 91.8131L63.9559 72.6225C64.1902 72.1929 64.2485 71.6891 64.1185 71.2173L58.9252 52.3731C58.8647 52.1535 58.9102 51.9184 59.0482 51.7372C59.1862 51.5561 59.4008 51.4497 59.6285 51.4497H74.582C74.7864 51.4497 74.9814 51.5354 75.1195 51.686L87.9496 65.6675C88.6544 66.4355 89.8483 66.4868 90.6163 65.782C91.3843 65.0773 91.4356 63.8834 90.7308 63.1153L77.123 48.2863C76.7655 47.8967 76.2611 47.675 75.7324 47.675H58.9541C58.7538 47.675 58.5623 47.5927 58.4246 47.4473C58.2868 47.3019 58.2148 47.1063 58.2256 46.9064L59.3155 26.6065C59.3265 26.4014 59.4236 26.2103 59.5828 26.0804C59.742 25.9505 59.9486 25.8938 60.1518 25.9241L69.9117 27.3828C71.9036 27.6893 73.1213 26.8935 73.702 25.8687C74.3125 24.7914 74.2656 23.3975 73.5686 22.4218C73.562 22.4125 73.5555 22.403 73.5493 22.3934L66.3297 11.2084ZM56.6894 21.1103H58.2864L68.0789 22.7296C68.3967 22.7821 68.6217 22.4269 68.4383 22.1621L62.5392 13.6417C61.7585 12.4255 62.1115 10.8066 63.3277 10.0258C64.5439 9.24505 66.1628 9.59804 66.9436 10.8143L74.1622 21.9978C75.9068 24.4402 74.3367 28.8017 69.8007 28.1038L60.044 26.6457L58.9541 46.9455H75.7324C76.4654 46.9455 77.1649 47.2529 77.6605 47.793L91.2683 62.6221C92.2455 63.687 92.1744 65.3424 91.1095 66.3195C90.0447 67.2967 88.3893 67.2256 87.4121 66.1608L74.582 52.1793H59.6285L64.8218 71.0235C65.0021 71.6776 64.9212 72.3762 64.5963 72.9718L54.1288 92.1624C53.4367 93.4312 51.8471 93.8987 50.5783 93.2067C49.3095 92.5146 48.842 90.925 49.534 89.6562L59.4951 71.3943L53.67 50.2576C53.5951 49.9858 53.5646 49.7036 53.5798 49.4221L54.7628 27.3882L45.3337 30.8379L38.9429 48.6994C38.456 50.0601 36.9581 50.7686 35.5973 50.2817C34.2366 49.7948 33.5281 48.297 34.015 46.9362L40.8189 27.9201C41.0807 27.1885 41.654 26.611 42.3837 26.3441L56.6894 21.1103Z" fill="black"/>
<path d="M75.1614 47.1001L58.6685 69.8167C58.1447 70.5383 57.024 70.3639 56.7441 69.5173L50.526 50.7114C50.3519 50.1849 50.3001 49.6257 50.3746 49.0762L51.6571 39.6182V28.6272L48.7096 29.7131C48.5111 29.7863 48.2922 29.6757 48.2332 29.4725L46.8622 24.75C46.8108 24.5731 46.8994 24.3857 47.0688 24.3131L51.6571 22.3467L53.8472 21.0952C54.0126 21.0007 54.1997 20.951 54.3901 20.951H61.0878C61.1969 20.951 61.3054 20.9673 61.4096 20.9994L63.5203 21.6488L67.2017 22.2891C67.3888 22.3216 67.5197 22.4923 67.5025 22.6815L67.0445 27.7188C67.0256 27.9277 66.8346 28.0776 66.6272 28.0465L63.5203 27.5805V39.6182L74.7816 45.4867C75.3744 45.7956 75.5542 46.5592 75.1614 47.1001Z" fill="#EBEBEB"/>
<path fill-rule="evenodd" clip-rule="evenodd" d="M54.3897 21.3158C54.2628 21.3158 54.138 21.3489 54.0278 21.4119L52.0214 22.5584V39.2534H63.1552V21.9182L61.302 21.348C61.2324 21.3266 61.1601 21.3158 61.0874 21.3158H54.3897ZM63.8847 22.0825V27.2663L66.6809 27.6858L67.1388 22.6484L63.8847 22.0825ZM63.8847 28.004V39.397L74.9498 45.1633C75.7402 45.5752 75.9798 46.5932 75.4562 47.3144L58.9633 70.031C58.2648 70.9931 56.7706 70.7607 56.3973 69.6319L50.1792 50.8259C49.9877 50.2468 49.9308 49.6316 50.0128 49.0272L51.2919 39.5936V29.1503L48.8353 30.0554C48.4383 30.2017 48.0005 29.9806 47.8825 29.5743L46.5115 24.8518C46.4087 24.4979 46.586 24.123 46.9247 23.9778L51.4938 22.0196L53.6658 20.7785C53.8863 20.6525 54.1358 20.5862 54.3897 20.5862H61.0874C61.2329 20.5862 61.3775 20.608 61.5165 20.6508L63.6052 21.2934L67.2638 21.9297C67.6381 21.9948 67.8997 22.3362 67.8653 22.7145L67.4074 27.7518C67.3694 28.1697 66.9876 28.4695 66.5726 28.4072L63.8847 28.004ZM51.2919 22.8999L47.2121 24.6484L48.5831 29.3709L51.2919 28.3729V22.8999ZM51.9753 39.9829L50.7357 49.1252C50.6686 49.6198 50.7152 50.1231 50.8719 50.5969L57.09 69.4028C57.2766 69.9672 58.0237 70.0835 58.3729 69.6024L74.8659 46.8858C75.1277 46.5252 75.0078 46.0162 74.6127 45.8102L63.4306 39.9829H51.9753Z" fill="black"/>
<path fill-rule="evenodd" clip-rule="evenodd" d="M51.8073 39.7926L50.5249 49.2507C50.4504 49.8002 50.5067 50.3868 50.6983 50.9072C57.5973 69.6394 74.8522 45.6197 63.6706 39.7926H51.8073Z" fill="#4398D1"/>
<path fill-rule="evenodd" clip-rule="evenodd" d="M51.4454 39.7436C51.4699 39.5628 51.6243 39.4279 51.8069 39.4279H63.6701C63.7288 39.4279 63.7866 39.4421 63.8387 39.4692C66.7889 41.0066 67.8538 43.7545 67.6948 46.6418C67.5367 49.5124 66.1742 52.5502 64.2407 54.7975C62.3144 57.0365 59.7504 58.567 57.1639 58.2547C54.5526 57.9395 52.1011 55.7727 50.3556 51.0333C50.1421 50.4538 50.0809 49.8067 50.163 49.2017L51.4454 39.7436ZM52.1255 40.1574L50.8859 49.2997C50.8189 49.7937 50.8703 50.32 51.0401 50.7811C52.7441 55.4078 55.0366 57.2631 57.2514 57.5305C59.4911 57.8009 61.8356 56.4745 63.6877 54.3217C65.5326 52.1773 66.8184 49.2883 66.9664 46.6017C67.112 43.9584 66.1613 41.5406 63.5797 40.1574H52.1255Z" fill="black"/>
<path d="M57.8316 94.9219H49.4048C49.2033 94.9219 49.04 94.7586 49.04 94.5571V91.0996C49.04 90.8982 49.2033 90.7349 49.4048 90.7349H55.8514C55.9822 90.7349 56.1029 90.8049 56.1679 90.9183L58.1481 94.3759C58.2874 94.619 58.1118 94.9219 57.8316 94.9219Z" fill="#4398D1"/>
<path fill-rule="evenodd" clip-rule="evenodd" d="M48.6748 91.0996C48.6748 90.6967 49.0014 90.3701 49.4043 90.3701H55.8509C56.1125 90.3701 56.354 90.5101 56.484 90.7371L56.484 90.7371L58.4642 94.1946C58.7427 94.6809 58.3916 95.2867 57.8311 95.2867H49.4043C49.0014 95.2867 48.6748 94.9601 48.6748 94.5571V91.0996ZM55.8509 91.0996H49.4043V94.5571L57.8311 94.5571L55.8509 91.0996Z" fill="black"/>
<path d="M93.7701 67.7062H85.3433C85.1418 67.7062 84.9785 67.5429 84.9785 67.3414V63.8839C84.9785 63.6825 85.1418 63.5192 85.3433 63.5192H91.7899C91.9206 63.5192 92.0414 63.5892 92.1064 63.7026L94.0866 67.1602C94.2259 67.4033 94.0503 67.7062 93.7701 67.7062Z" fill="#4398D1"/>
<path fill-rule="evenodd" clip-rule="evenodd" d="M84.6143 63.8839C84.6143 63.481 84.9409 63.1544 85.3438 63.1544H91.7904C92.0519 63.1544 92.2934 63.2944 92.4234 63.5213L92.4234 63.5213L94.4036 66.9789C94.6822 67.4652 94.331 68.0709 93.7706 68.0709H85.3438C84.9409 68.0709 84.6143 67.7443 84.6143 67.3414V63.8839ZM91.7904 63.8839H85.3438V67.3414L93.7706 67.3414L91.7904 63.8839Z" fill="black"/>
<path d="M57.3227 25.8299L54.2734 20.951H61.2518L58.5802 25.7955C58.3114 26.2829 57.6178 26.3019 57.3227 25.8299Z" fill="#E78A34"/>
<path fill-rule="evenodd" clip-rule="evenodd" d="M53.9549 20.7742C54.0192 20.6582 54.1413 20.5862 54.2739 20.5862H61.2523C61.3814 20.5862 61.5008 20.6544 61.5664 20.7655C61.632 20.8766 61.6341 21.0142 61.5717 21.1271L58.9001 25.9717C58.4969 26.7028 57.4564 26.7312 57.0139 26.0232L53.9646 21.1443C53.8943 21.0319 53.8906 20.8902 53.9549 20.7742ZM54.9321 21.3158L57.6326 25.6366C57.7801 25.8726 58.1269 25.8631 58.2613 25.6194L60.6346 21.3158H54.9321Z" fill="black"/>
<path d="M59.1458 11.735L59.9748 10.9981C60.3395 10.674 60.8351 10.5397 61.3135 10.6354C61.9131 10.7553 62.3888 11.2165 62.5229 11.813C63.3012 15.2775 63.512 17.292 60.816 18.8312C60.1577 19.2071 59.3373 19.0163 58.8168 18.4652L56.7158 16.2406L56.3668 13.2748L58.7924 11.9812C58.9195 11.9134 59.0381 11.8307 59.1458 11.735Z" fill="#EBEBEB"/>
<path fill-rule="evenodd" clip-rule="evenodd" d="M59.7328 10.7255C60.1829 10.3253 60.7947 10.1596 61.3853 10.2777C62.125 10.4256 62.7131 10.9947 62.879 11.7331C63.2656 13.4538 63.5329 14.8931 63.3324 16.1037C63.1242 17.3609 62.4214 18.3348 60.9971 19.148C60.168 19.6214 59.1672 19.3672 58.5518 18.7157L56.5766 16.6243L53.7928 16.9518L53.7076 16.2272L56.3111 15.9209L56.0472 13.6773L53.2671 13.9862L53.1865 13.2612L56.2572 12.92L58.621 11.6593C58.7227 11.6051 58.8176 11.539 58.9037 11.4624L59.1387 11.7268L58.9037 11.4624L59.7328 10.7255ZM56.7584 13.4794L57.0641 16.078L59.0822 18.2147C59.5079 18.6654 60.1479 18.7928 60.6354 18.5145C61.9071 17.7884 62.4469 16.9854 62.6127 15.9845C62.7862 14.9369 62.5589 13.6366 62.1672 11.893C62.065 11.4382 61.7017 11.0849 61.2422 10.993C60.876 10.9198 60.4966 11.0226 60.2174 11.2707L59.3884 12.0077C59.2592 12.1225 59.1168 12.2216 58.9643 12.303L56.7584 13.4794Z" fill="black"/>
<path fill-rule="evenodd" clip-rule="evenodd" d="M170.679 30.1162L184.934 26.3606L181.059 40.5838L176.768 36.2565L142.244 70.4913C142.005 70.7284 141.682 70.8615 141.345 70.8615H82.9158L64.1473 97.4949C63.9081 97.8343 63.5189 98.0362 63.1037 98.0362H18.5721L2.16432 113.909C1.65756 114.399 0.849329 114.386 0.359091 113.879C-0.131147 113.372 -0.117751 112.564 0.389012 112.074L17.168 95.842C17.4061 95.6116 17.7244 95.4829 18.0557 95.4829H62.4416L81.2101 68.8494C81.4492 68.51 81.8385 68.3081 82.2537 68.3081H140.819L174.97 34.4434L170.679 30.1162Z" fill="#1E2DBE"/>
</svg>
