<svg width="42" height="80" viewBox="0 0 42 80" fill="none" xmlns="http://www.w3.org/2000/svg">
<path d="M33.2629 69.5765H10.6894C10.6894 64.681 11.5054 57.6098 8.51366 54.3461C5.52196 51.0825 2.53036 48.6348 2.25839 41.0197C2.03876 34.87 2.25837 31.9083 0.898485 25.925C-0.461404 19.9417 5.25002 21.6333 7.1538 23.5371C9.05759 25.4409 10.4174 27.3447 10.4174 29.5204C10.4174 27.3447 11.2333 24.109 11.2333 18.9136C11.2333 12.9013 11.2333 5.85905 14.7689 5.85905C18.3045 5.85905 19.3924 8.57875 19.3924 10.2106C19.3924 6.36462 18.5765 0.69165 23.2 0.69165C27.8235 0.69165 27.2795 7.76285 27.2795 11.0265C27.3585 7.76285 27.8235 5.85905 31.3591 5.85905C34.8947 5.85905 34.6227 9.9386 34.6227 12.6583V21.6333C34.6227 20.2735 35.2986 17.8257 38.4303 17.8257C41.5619 17.8257 40.878 24.6249 40.878 31.9681C40.878 39.3113 41.422 38.8439 39.7902 44.2832C38.1583 49.7226 36.2545 50.2666 34.6227 54.3461C33.3173 57.6098 33.2629 65.225 33.2629 69.5765Z" fill="#A9F0FF"/>
<path fill-rule="evenodd" clip-rule="evenodd" d="M20.158 1.15679C20.8829 0.408812 21.8895 0 23.2001 0C24.5611 0 25.5877 0.532913 26.3179 1.40287C27.0233 2.24334 27.4201 3.35833 27.6515 4.49752C27.7683 5.07223 27.8463 5.67441 27.8979 6.27881C28.6699 5.51409 29.8104 5.1674 31.3592 5.1674C32.3863 5.1674 33.2057 5.46837 33.8237 6.02511C34.4279 6.56943 34.7765 7.30154 34.9838 8.05539C35.3368 9.33912 35.3258 10.889 35.3171 12.1277C35.3158 12.3121 35.3145 12.4896 35.3145 12.6583V18.2225C36.0254 17.5677 37.0418 17.1341 38.4304 17.1341C38.956 17.1341 39.4302 17.2797 39.8361 17.5689C40.2339 17.8524 40.5295 18.2473 40.7526 18.6934C41.1903 19.5684 41.406 20.7576 41.5178 22.0851C41.672 23.9158 41.6383 26.2013 41.6025 28.6289C41.5863 29.7227 41.5698 30.8452 41.5698 31.9681C41.5698 33.7195 41.6008 35.0238 41.6259 36.0746L41.6291 36.2089C41.6544 37.2771 41.6724 38.1023 41.6371 38.8713C41.565 40.4411 41.272 41.7514 40.4528 44.482C39.6126 47.2825 38.6941 48.8403 37.7821 50.2083C37.6479 50.4095 37.5152 50.605 37.3839 50.7983C36.6343 51.9022 35.9313 52.9375 35.2651 54.603C34.6587 56.1189 34.3209 58.7341 34.1437 61.5961C33.9684 64.4284 33.9547 67.4012 33.9547 69.5765V70.2681H9.99797V69.5765C9.99797 68.7078 10.0222 67.7946 10.047 66.8575C10.0943 65.0744 10.1438 63.2049 10.0332 61.3915C9.86444 58.6231 9.32623 56.2559 8.00398 54.8135C7.74046 54.526 7.47319 54.2414 7.20503 53.9557C5.98976 52.6613 4.75609 51.3473 3.76962 49.6645C2.54708 47.579 1.70677 44.9478 1.56736 41.0443C1.52432 39.8392 1.49797 38.7597 1.47355 37.7591C1.37256 33.6207 1.30448 30.8313 0.224213 26.0783C-0.131815 24.5118 -0.0653522 23.2891 0.434419 22.4163C0.957656 21.5025 1.85662 21.1356 2.76226 21.0829C3.65114 21.0312 4.61071 21.2707 5.45306 21.6292C6.29775 21.9888 7.09153 22.4965 7.64304 23.048C8.58 23.985 9.4277 24.9595 10.0502 25.9991C10.0795 25.7614 10.1093 25.5178 10.1387 25.2684C10.341 23.5519 10.5419 21.4736 10.5419 18.9136V18.8697C10.5419 15.8948 10.5418 12.5836 10.9943 10.0119C11.2211 8.72279 11.5729 7.54437 12.1476 6.67265C12.7431 5.76938 13.6035 5.1674 14.7691 5.1674C16.522 5.1674 17.7898 5.77646 18.6469 6.65311C18.656 5.71035 18.7111 4.75318 18.8839 3.87524C19.0837 2.86102 19.4535 1.88375 20.158 1.15679ZM20.0842 10.2106C20.0842 9.71951 20.0712 9.20132 20.058 8.67978L20.0575 8.65956C20.0443 8.14156 20.031 7.61883 20.029 7.09798C20.0248 6.03789 20.0677 5.02329 20.2412 4.1425C20.4154 3.25773 20.7085 2.57639 21.1513 2.11949C21.5738 1.68359 22.199 1.38328 23.2001 1.38328C24.1509 1.38328 24.7901 1.73427 25.2583 2.29215C25.7513 2.87952 26.0854 3.73631 26.2959 4.77287C26.6431 6.48209 26.6175 8.45255 26.5969 10.039C26.5923 10.3892 26.588 10.7206 26.588 11.0265V28.4325H27.9713V11.0349C28.0116 9.38593 28.1571 8.28992 28.6051 7.59284C28.9947 6.98659 29.7132 6.55069 31.3592 6.55069C32.1 6.55069 32.5724 6.75967 32.8978 7.05283C33.237 7.35842 33.4834 7.81617 33.65 8.42217C33.9477 9.50463 33.9403 10.8355 33.9333 12.0965C33.9323 12.2857 33.9312 12.4733 33.9312 12.6583V30.6083H35.3145V21.6333C35.3145 21.0456 35.4643 20.2506 35.9144 19.6225C36.3374 19.0323 37.0743 18.5173 38.4304 18.5173C38.6878 18.5173 38.8773 18.5842 39.0333 18.6954C39.1976 18.8125 39.3623 19.0061 39.5155 19.3122C39.8303 19.9415 40.0308 20.9111 40.1394 22.2012C40.2877 23.962 40.2555 26.1321 40.2201 28.5177C40.2036 29.6277 40.1865 30.7843 40.1865 31.9681C40.1865 33.736 40.2179 35.054 40.243 36.106L40.2462 36.2418C40.2718 37.3212 40.2879 38.096 40.2552 38.8079C40.1913 40.2001 39.9405 41.3757 39.1278 44.0845C38.3362 46.7234 37.487 48.1572 36.6311 49.441C36.5048 49.6305 36.3771 49.8183 36.2484 50.0076C35.4935 51.1179 34.706 52.276 33.9807 54.0893C33.2816 55.837 32.9395 58.6612 32.7631 61.5106C32.6031 64.0957 32.5759 66.7868 32.572 68.8848H11.3862C11.3943 68.2839 11.4109 67.6473 11.4281 66.9885C11.4758 65.1662 11.5279 63.1754 11.414 61.3073C11.2428 58.5003 10.6931 55.7 9.02367 53.8788C8.73724 53.5663 8.45482 53.2651 8.17767 52.9695C6.97058 51.6821 5.86373 50.5015 4.96298 48.9649C3.87379 47.1069 3.08232 44.7066 2.94976 40.995C2.90773 39.8181 2.88195 38.7547 2.85787 37.7616C2.75696 33.5987 2.68591 30.6679 1.5731 25.7717C1.24918 24.3465 1.38669 23.537 1.63483 23.1036C1.85951 22.7113 2.2524 22.4982 2.84261 22.4639C3.44958 22.4285 4.18982 22.5949 4.91131 22.902C5.63045 23.2081 6.26452 23.6258 6.66491 24.0262C8.55182 25.9131 9.72595 27.6422 9.72595 29.5204V37.1355H11.1092V29.5204C11.1092 28.7122 11.2279 27.7512 11.3795 26.5242C11.4219 26.1812 11.4668 25.8174 11.5124 25.4303C11.718 23.6862 11.9251 21.5489 11.9251 18.9136C11.9251 15.8875 11.9274 12.6914 12.3566 10.2515C12.5718 9.02853 12.8828 8.07061 13.3025 7.43403C13.7014 6.82899 14.1669 6.55069 14.7691 6.55069C16.3361 6.55069 17.2911 7.14235 17.8686 7.85745C18.4679 8.59935 18.7009 9.52658 18.7009 10.2106V28.4325H20.0842V10.2106Z" fill="black"/>
<path d="M12.709 68.9449H31.9352V80H12.709V68.9449Z" fill="#DD9F83"/>
<path fill-rule="evenodd" clip-rule="evenodd" d="M30.552 70.3282H14.0923V78.6168H30.552V70.3282ZM12.709 68.9449V80H31.9352V68.9449H12.709Z" fill="black"/>
</svg>
