<svg width="66" height="80" viewBox="0 0 66 80" fill="none" xmlns="http://www.w3.org/2000/svg">
<path d="M44.6771 1.63438C35.4065 0.39829 21.0713 1.63438 15.0625 2.40693V8.07229C29.226 5.23958 45.4497 5.75462 51.6301 9.10236C57.8106 12.4501 58.5831 14.5102 59.0981 17.3429C58.4114 18.2872 55.9049 19.9696 53.4327 21.2057C50.9606 22.4418 47.5957 23.4375 45.9647 23.5234V30.9914C45.9647 30.9914 60.1282 26.6136 63.991 20.9482C63.991 18.2872 64.3968 12.6243 63.991 11.6775C63.2184 9.87492 61.9308 8.3298 60.6433 7.29973C59.3557 6.26966 56.2654 3.17949 44.6771 1.63438Z" fill="black"/>
<path fill-rule="evenodd" clip-rule="evenodd" d="M16.1716 3.38834V6.72873C22.9514 5.48117 30.102 4.97642 36.3713 5.15991C42.9958 5.35379 48.8233 6.31997 52.1578 8.12615C55.2948 9.82536 57.1866 11.2624 58.3545 12.7222C59.556 14.2241 59.9201 15.6637 60.1893 17.1443C60.2436 17.4428 60.1734 17.7506 59.9949 17.9959C59.5255 18.6414 58.5766 19.3919 57.5573 20.0836C56.4932 20.8056 55.2059 21.5598 53.9281 22.1987C52.6262 22.8497 51.1075 23.4292 49.7069 23.8576C48.778 24.1417 47.8629 24.3711 47.0738 24.5063V29.4523C47.3123 29.3695 47.5761 29.2767 47.8615 29.1741C49.2314 28.6817 51.0951 27.9678 53.0743 27.0811C55.0569 26.1929 57.1347 25.1405 58.9418 23.9746C60.6352 22.8821 62.0184 21.7356 62.8818 20.5887C62.8909 19.7716 62.9275 18.7404 62.9651 17.6837C62.9895 16.9959 63.0144 16.2973 63.0322 15.6399C63.0575 14.7106 63.0694 13.8555 63.0512 13.1812C63.0421 12.8433 63.0259 12.5682 63.0029 12.3607C62.982 12.1723 62.9617 12.101 62.9631 12.1006C62.9632 12.1006 62.9634 12.1009 62.9637 12.1016C62.2704 10.491 61.107 9.09335 59.9486 8.16665C59.8639 8.09886 59.7737 8.0243 59.6762 7.94365C59.013 7.39527 58.0095 6.5655 56.0583 5.66901C53.8 4.63139 50.2425 3.4966 44.5293 2.73484C35.8722 1.58057 22.6211 2.62034 16.1716 3.38834ZM45.9636 30.9914C46.2914 32.0521 46.2916 32.0521 46.2919 32.052L46.2927 32.0517L46.3041 32.0482L46.3371 32.0379C46.3657 32.0289 46.4074 32.0157 46.4615 31.9984C46.5697 31.9638 46.7275 31.9128 46.9288 31.8461C47.3314 31.7128 47.9086 31.5166 48.6125 31.2636C50.019 30.7581 51.9376 30.0234 53.9821 29.1075C56.0232 28.1931 58.2106 27.0888 60.1455 25.8405C62.0633 24.6032 63.818 23.171 64.9072 21.5736C65.0329 21.3893 65.1001 21.1713 65.1001 20.9482C65.1001 20.1218 65.1396 19.0142 65.1819 17.8303C65.2068 17.1328 65.2326 16.4088 65.2518 15.7002C65.2773 14.7628 65.2907 13.8583 65.2709 13.1214C65.261 12.7537 65.2424 12.4103 65.2099 12.1165C65.1809 11.8544 65.1305 11.5207 65.0103 11.2402C64.1579 9.25113 62.7493 7.5637 61.3357 6.43279C61.26 6.37227 61.1761 6.30273 61.0824 6.2252C60.4005 5.66055 59.2063 4.67179 56.9854 3.65135C54.4796 2.50009 50.6979 1.31724 44.8227 0.533892C35.3984 -0.722685 20.9402 0.531722 14.9198 1.30577C14.3659 1.37698 13.9512 1.8485 13.9512 2.40692V8.07228C13.9512 8.40489 14.1003 8.71998 14.3575 8.93085C14.6147 9.14173 14.953 9.22616 15.2791 9.16093C22.276 7.76156 29.7887 7.18863 36.3064 7.37939C42.8797 7.57178 48.2543 8.53699 51.1002 10.0786C54.1437 11.7271 55.7284 12.994 56.6206 14.1093C57.3638 15.0383 57.6732 15.9174 57.9024 17.0137C57.574 17.3267 57.0369 17.7533 56.3105 18.2462C55.3316 18.9105 54.1295 19.6155 52.9351 20.2127C51.7649 20.7978 50.365 21.3343 49.0574 21.7342C47.7311 22.1399 46.5847 22.3789 45.9052 22.4147C45.3156 22.4457 44.8534 22.9329 44.8534 23.5234V30.9914C44.8534 31.344 45.0208 31.6756 45.3046 31.8849C45.5883 32.0942 45.9546 32.1562 46.2914 32.0521L45.9636 30.9914Z" fill="black"/>
<path d="M1.15569 11.1625C0.537642 7.24821 6.39189 4.20949 9.39627 3.17942L15.0617 2.40686V8.07226L9.39627 13.7377V20.5587C10.484 21.1237 11.614 21.6016 12.7441 21.9783C17.0704 23.4204 31.8004 23.7809 38.7534 23.7809L46.2215 23.2658V30.9914L38.7534 37.1718V78.8898C31.8004 78.8898 17.0704 78.5293 12.7441 77.0872C7.33618 75.2846 1.92824 71.1643 1.15569 66.2714C1.09368 65.8787 1.09682 65.4949 1.15569 65.1209L1.15569 11.1625Z" fill="#A9F0FF"/>
<path fill-rule="evenodd" clip-rule="evenodd" d="M15.7927 1.57046C16.0343 1.78129 16.1729 2.08625 16.1729 2.40685V8.07226C16.1729 8.36671 16.0559 8.6491 15.8477 8.8573L10.5074 14.1975V19.873C11.3569 20.2823 12.2272 20.6354 13.0961 20.925C14.0576 21.2455 15.6878 21.529 17.7808 21.7651C19.8486 21.9983 22.2889 22.1771 24.8235 22.3117C29.8731 22.5798 35.2526 22.67 38.7162 22.6707L46.146 22.1583C46.453 22.1371 46.755 22.2443 46.9799 22.4542C47.2049 22.6642 47.3326 22.9581 47.3326 23.2658V30.9914C47.3326 31.3222 47.1851 31.6358 46.9302 31.8467L39.8646 37.6941V78.8898C39.8646 79.503 39.3675 80 38.7543 80C35.2634 80 29.8224 79.9096 24.7058 79.6379C22.148 79.5021 19.66 79.3204 17.5319 79.0805C15.4289 78.8433 13.5955 78.541 12.3939 78.1404C9.56563 77.1977 6.72778 75.6477 4.47969 73.6721C2.24082 71.7046 0.500693 69.2357 0.0599791 66.4446C-0.0155869 65.966 -0.0166583 65.4962 0.0463932 65.0397L0.0463931 11.2441C-0.308035 8.69321 1.42746 6.62793 3.2346 5.2148C5.12122 3.73951 7.45609 2.67127 9.03713 2.1292C9.10536 2.10581 9.17572 2.08912 9.24719 2.07937L14.9127 1.30682C15.2303 1.2635 15.5512 1.35962 15.7927 1.57046ZM2.26682 16.2189V61.1586C2.75669 60.6891 3.28785 60.2653 3.81955 59.8887C5.29096 58.8465 6.94878 58.0375 8.28698 57.514V21.2223C5.9778 19.9389 3.81188 18.2352 2.26682 16.2189ZM8.28698 18.6412V4.81052C7.08931 5.34137 5.73617 6.07735 4.60238 6.96393C2.90738 8.28938 2.04462 9.66808 2.25324 10.9893C2.70829 13.8714 5.08496 16.6093 8.28698 18.6412ZM10.5074 4.14851V11.0574L13.9524 7.61239V3.67873L10.5074 4.14851ZM10.5074 22.3124V58.2883C10.5074 58.7627 10.206 59.1847 9.75726 59.3385C8.48189 59.7758 6.6541 60.602 5.10295 61.7006C3.53882 62.8085 2.49009 64.0269 2.26682 65.2153V66.1809C2.62062 68.2533 3.96158 70.2608 5.94542 72.0042C7.9464 73.7626 10.5165 75.1741 13.0961 76.0339C14.0576 76.3545 15.6878 76.638 17.7808 76.874C19.8486 77.1072 22.2889 77.286 24.8235 77.4206C29.378 77.6625 34.2008 77.7595 37.6441 77.7767V24.8883C34.1722 24.8711 29.3078 24.7734 24.7058 24.529C22.148 24.3932 19.66 24.2115 17.5319 23.9715C15.4289 23.7344 13.5955 23.432 12.3939 23.0315C11.7623 22.821 11.1313 22.5805 10.5074 22.3124ZM39.8646 24.8172V34.8119L45.1122 30.4691V24.4553L39.8646 24.8172Z" fill="black"/>
</svg>
