<svg width="123" height="125" viewBox="0 0 123 125" fill="none" xmlns="http://www.w3.org/2000/svg">
<path d="M74.828 14.0805C78.5531 14.0805 81.5729 11.0701 81.5729 7.35664C81.5729 3.64317 78.5531 0.632812 74.828 0.632812C71.1028 0.632812 68.083 3.64317 68.083 7.35664C68.083 11.0701 71.1028 14.0805 74.828 14.0805Z" fill="#784707"/>
<path fill-rule="evenodd" clip-rule="evenodd" d="M74.828 1.2656C71.4534 1.2656 68.7178 3.99264 68.7178 7.35662C68.7178 10.7206 71.4534 13.4476 74.828 13.4476C78.2025 13.4476 80.9381 10.7206 80.9381 7.35662C80.9381 3.99264 78.2025 1.2656 74.828 1.2656ZM67.4482 7.35662C67.4482 3.29367 70.7523 0 74.828 0C78.9037 0 82.2077 3.29367 82.2077 7.35662C82.2077 11.4196 78.9037 14.7132 74.828 14.7132C70.7523 14.7132 67.4482 11.4196 67.4482 7.35662Z" fill="black"/>
<path d="M20.8696 108.585V30.1411C20.8696 28.9033 19.863 27.8998 18.6213 27.8998C17.3796 27.8998 16.373 28.9033 16.373 30.1411V108.585C16.373 109.823 17.3796 110.826 18.6213 110.826C19.863 110.826 20.8696 109.823 20.8696 108.585Z" fill="#337AB5"/>
<path fill-rule="evenodd" clip-rule="evenodd" d="M15.7363 30.141C15.7363 28.5537 17.0271 27.267 18.6194 27.267C20.2117 27.267 21.5025 28.5537 21.5025 30.141V108.585C21.5025 110.172 20.2117 111.459 18.6194 111.459C17.0271 111.459 15.7363 110.172 15.7363 108.585V30.141ZM18.6194 28.5326C17.7283 28.5326 17.0059 29.2527 17.0059 30.141V108.585C17.0059 109.473 17.7283 110.193 18.6194 110.193C19.5105 110.193 20.2329 109.473 20.2329 108.585V30.141C20.2329 29.2527 19.5105 28.5326 18.6194 28.5326Z" fill="black"/>
<path d="M74.8291 45.8307V50.3134L76.8068 75.9439C76.9594 77.9221 78.6141 79.4496 80.6043 79.4496H82.2619C84.3654 79.4496 86.0706 77.7497 86.0706 75.6528V45.8307H74.8291Z" fill="#E78A34"/>
<path fill-rule="evenodd" clip-rule="evenodd" d="M74.1953 45.1979H86.7064V75.6528C86.7064 78.0992 84.717 80.0824 82.2629 80.0824H80.6053C78.2834 80.0824 76.3529 78.3003 76.1748 75.9925L74.1953 50.3378V45.1979ZM75.4649 46.4635V50.2892L77.4407 75.8955C77.5679 77.5439 78.9468 78.8168 80.6053 78.8168H82.2629C84.0158 78.8168 85.4368 77.4002 85.4368 75.6528V46.4635H75.4649Z" fill="black"/>
<path d="M63.6058 85.9342H53.7031V115.296H63.6058V85.9342Z" fill="#E78A34"/>
<path fill-rule="evenodd" clip-rule="evenodd" d="M53.0684 85.3015H64.2406V115.929H53.0684V85.3015ZM54.3379 86.5671V114.663H62.971V86.5671H54.3379Z" fill="black"/>
<path d="M63.6061 85.9342H73.5088V115.296H63.6061V85.9342Z" fill="#E78A34"/>
<path fill-rule="evenodd" clip-rule="evenodd" d="M74.1436 85.3015H62.9713V115.929H74.1436V85.3015ZM72.874 86.5671V114.663H64.2409V86.5671H72.874Z" fill="black"/>
<path d="M74.829 50.3134V30.1419H52.3459V50.3134L48.3498 84.1743C48.0835 86.4315 49.8526 88.4147 52.1325 88.4147H75.0424C77.3223 88.4147 79.0915 86.4315 78.8251 84.1743L74.829 50.3134Z" fill="#E78A34"/>
<path fill-rule="evenodd" clip-rule="evenodd" d="M51.7122 29.5092H75.4648V50.2763L79.4566 84.1004C79.7674 86.7338 77.7034 89.0476 75.0435 89.0476H52.1336C49.4737 89.0476 47.4097 86.7338 47.7205 84.1004L51.7122 50.2763V29.5092ZM52.9818 30.7748V50.3505L48.9814 84.2483C48.7594 86.1292 50.2337 87.782 52.1336 87.782H75.0435C76.9434 87.782 78.4177 86.1293 78.1957 84.2483L74.1953 50.3505V30.7748H52.9818Z" fill="black"/>
<path d="M71.376 9.67408C68.9478 5.37086 63.4822 3.84446 59.1654 6.26507C56.3348 7.85189 54.5856 10.8417 54.5948 14.0804V18.5628C54.5948 23.5137 58.6214 27.5278 63.5879 27.5278C63.8823 27.5278 64.1793 27.5143 64.4714 27.4851C69.1635 26.9024 72.6597 22.8884 72.581 18.1772V14.0806C72.5718 12.5319 72.1559 11.0123 71.376 9.67408Z" fill="#E78A34"/>
<path fill-rule="evenodd" clip-rule="evenodd" d="M71.9271 9.35992C69.326 4.75517 63.4753 3.12225 58.8542 5.71352C55.8235 7.41253 53.9505 10.6136 53.96 14.0813V18.5628C53.96 23.8632 58.2708 28.1606 63.5879 28.1606C63.9014 28.1606 64.2197 28.1462 64.5347 28.1147L64.5423 28.114L64.5499 28.113C69.5621 27.4906 73.2972 23.2041 73.2158 18.1719V14.0787L73.2158 14.0769C73.206 12.4191 72.7612 10.7927 71.9271 9.35992ZM70.8228 9.9843C68.5664 5.98559 63.4878 4.56737 59.4767 6.81658C56.8465 8.29103 55.221 11.0692 55.2296 14.0786L55.2296 14.0804L55.2296 18.5628C55.2296 23.1642 58.972 26.895 63.5879 26.895C63.8606 26.895 64.1337 26.8826 64.4005 26.8562C68.767 26.3101 72.0196 22.5732 71.9463 18.1877L71.9462 18.1824V14.0824C71.9374 12.6448 71.5511 11.2343 70.8272 9.99192L70.8249 9.98812L70.8228 9.9843Z" fill="black"/>
<path d="M32.1115 48.072H17.9337C15.8302 48.072 14.125 49.7719 14.125 51.8688V53.2401C14.125 55.3371 15.8302 57.0369 17.9337 57.0369H36.5428C37.9953 57.0369 39.3576 56.3377 40.2007 55.1586L47.0174 45.8306L38.8562 39.051L32.1115 48.072Z" fill="#E78A34"/>
<path fill-rule="evenodd" clip-rule="evenodd" d="M38.7477 38.1372L47.8807 45.7241L40.7176 55.526C40.717 55.5269 40.7163 55.5278 40.7156 55.5287C39.7533 56.8729 38.1993 57.6698 36.5428 57.6698H17.9337C15.4797 57.6698 13.4902 55.6866 13.4902 53.2402V51.8689C13.4902 49.4225 15.4797 47.4393 17.9337 47.4393H31.7929L38.7477 38.1372ZM38.9647 39.9649L32.4301 48.7049H17.9337C16.1808 48.7049 14.7598 50.1214 14.7598 51.8689V53.2402C14.7598 54.9876 16.1808 56.4042 17.9337 56.4042H36.5428C37.7903 56.4042 38.96 55.8038 39.6838 54.7914L39.6857 54.7888L46.1542 45.9373L38.9647 39.9649Z" fill="black"/>
<path d="M74.8297 50.3133V30.1418H70.3331L64.6758 39.5412C64.1829 40.36 62.9926 40.3606 62.499 39.5421L56.83 30.1418H52.3467V50.3133L48.1837 85.5877C48.0062 87.0925 49.1856 88.4146 50.7055 88.4146H76.4708C77.9908 88.4146 79.1702 87.0925 78.9926 85.5877L74.8297 50.3133Z" fill="#EBEBEB"/>
<path fill-rule="evenodd" clip-rule="evenodd" d="M51.71 29.5091H57.1872L63.0412 39.2161C63.288 39.6253 63.8832 39.6251 64.1296 39.2157L69.9719 29.5091H75.4626V50.2763L79.6212 85.5138C79.8432 87.3948 78.3689 89.0475 76.469 89.0475H50.7037C48.8038 89.0475 47.3295 87.3948 47.5515 85.5138L51.71 50.2763V29.5091ZM52.9796 30.7747V50.3505L48.8123 85.6617C48.6791 86.7903 49.5637 87.7819 50.7037 87.7819H76.469C77.6089 87.7819 78.4935 86.7903 78.3603 85.6617L74.1931 50.3505V30.7747H70.6907L65.2182 39.8668C64.479 41.0951 62.6935 41.0959 61.9531 39.8682L56.4691 30.7747H52.9796Z" fill="black"/>
<path d="M77.5974 75.1329L74.7487 51.0035H52.2657L49.417 75.1329C49.1269 77.5916 50.8896 79.8193 53.356 80.1085C53.5315 80.1285 53.709 80.1399 53.8842 80.1399H73.1296C75.6139 80.1399 77.6262 78.1339 77.6285 75.6598C77.629 75.4828 77.618 75.3079 77.5974 75.1329Z" fill="#4398D1"/>
<path fill-rule="evenodd" clip-rule="evenodd" d="M51.8152 50.4974H75.2013L78.1028 75.0738C78.1256 75.2669 78.1379 75.462 78.1373 75.6607C78.1346 78.414 75.8952 80.6463 73.1307 80.6463H53.8853C53.6882 80.6463 53.4912 80.6334 53.2992 80.6115L53.2977 80.6113C50.5525 80.2894 48.5908 77.81 48.9137 75.0739L51.8152 50.4974ZM78.1373 75.6607C78.1373 75.6609 78.1373 75.6611 78.1373 75.6613L77.6295 75.6598L78.1373 75.6603C78.1373 75.6605 78.1373 75.6606 78.1373 75.6607ZM52.7183 51.5099L49.9224 75.1921C49.9224 75.1922 49.9224 75.1921 49.9224 75.1921C49.6651 77.373 51.2282 79.3486 53.4152 79.6056C53.574 79.6238 53.732 79.6338 53.8853 79.6338H73.1307C75.3345 79.6338 77.1197 77.8542 77.1217 75.6594L77.1217 75.6584C77.1221 75.5034 77.1126 75.3487 77.0941 75.1921L74.2982 51.5099H52.7183Z" fill="black"/>
<path d="M52.581 115.296C52.1111 115.296 51.6797 115.555 51.4595 115.968L48.0912 122.296C47.6426 123.139 48.2555 124.155 49.2127 124.155H63.6063V115.296H52.581Z" fill="#4398D1"/>
<path fill-rule="evenodd" clip-rule="evenodd" d="M52.5809 115.929C52.346 115.929 52.1302 116.058 52.0201 116.265L48.6519 122.593C48.4276 123.014 48.734 123.522 49.2126 123.522H62.9715V115.929H52.5809ZM50.8987 115.672C51.229 115.051 51.8761 114.663 52.5809 114.663H64.241V124.788H49.2126C47.7768 124.788 46.8574 123.264 47.5304 122L50.8987 115.672Z" fill="black"/>
<path d="M74.631 115.296C75.1008 115.296 75.5322 115.555 75.7524 115.968L79.1207 122.296C79.5693 123.139 78.9564 124.155 77.9992 124.155H63.6056V115.296H74.631Z" fill="#4398D1"/>
<path fill-rule="evenodd" clip-rule="evenodd" d="M74.631 115.929C74.866 115.929 75.0817 116.058 75.1918 116.265L78.56 122.593C78.7843 123.014 78.4779 123.522 77.9993 123.522H64.2405V115.929H74.631ZM76.3133 115.672C75.9829 115.051 75.3358 114.663 74.631 114.663H62.9709V124.788H77.9993C79.4351 124.788 80.3545 123.264 79.6815 122L76.3133 115.672Z" fill="black"/>
<path d="M48.9737 30.1418C46.8514 30.1418 44.8526 31.1391 43.5779 32.8313L38.8564 39.0509L47.0177 45.8306L49.7198 41.8985C49.9565 41.5541 50.3483 41.3481 50.7672 41.3481H52.3464V30.1418H48.9737Z" fill="#EBEBEB"/>
<path fill-rule="evenodd" clip-rule="evenodd" d="M43.0706 32.4504C44.465 30.6 46.6514 29.5091 48.9734 29.5091H52.9807V41.981H50.7668C50.5573 41.981 50.3614 42.0839 50.2431 42.2562L47.1468 46.7619L37.9844 39.1506L43.0699 32.4514C43.0701 32.4511 43.0704 32.4508 43.0706 32.4504ZM48.9734 30.7747C47.0511 30.7747 45.2401 31.678 44.0851 33.2114L44.0837 33.2132L39.7277 38.9514L46.8878 44.8994L49.1957 41.5409C49.5507 41.0243 50.1385 40.7154 50.7668 40.7154H51.7112V30.7747H48.9734Z" fill="black"/>
<path d="M34.3589 121.744C34.3589 123.141 33.2221 124.275 31.8198 124.275H5.42196C4.01963 124.275 2.88281 123.141 2.88281 121.744V110.827H34.3589V121.744Z" fill="#97D3E6"/>
<path fill-rule="evenodd" clip-rule="evenodd" d="M2.24805 110.194H34.9937V121.743C34.9937 123.491 33.5727 124.907 31.8198 124.907H5.42199C3.66907 124.907 2.24805 123.491 2.24805 121.743V110.194ZM3.51762 111.46V121.743C3.51762 122.792 4.37023 123.642 5.42199 123.642H31.8198C32.8715 123.642 33.7242 122.792 33.7242 121.743V111.46H3.51762Z" fill="black"/>
<path fill-rule="evenodd" clip-rule="evenodd" d="M6.98244 116.435C7.33303 116.435 7.61723 116.718 7.61723 117.068V123.649C7.61723 123.998 7.33303 124.282 6.98244 124.282C6.63186 124.282 6.34766 123.998 6.34766 123.649V117.068C6.34766 116.718 6.63186 116.435 6.98244 116.435Z" fill="black"/>
<path fill-rule="evenodd" clip-rule="evenodd" d="M10.918 116.435C11.2686 116.435 11.5528 116.718 11.5528 117.068V123.649C11.5528 123.998 11.2686 124.282 10.918 124.282C10.5674 124.282 10.2832 123.998 10.2832 123.649V117.068C10.2832 116.718 10.5674 116.435 10.918 116.435Z" fill="black"/>
<path fill-rule="evenodd" clip-rule="evenodd" d="M14.8545 116.435C15.2051 116.435 15.4893 116.718 15.4893 117.068V123.649C15.4893 123.998 15.2051 124.282 14.8545 124.282C14.5039 124.282 14.2197 123.998 14.2197 123.649V117.068C14.2197 116.718 14.5039 116.435 14.8545 116.435Z" fill="black"/>
<path fill-rule="evenodd" clip-rule="evenodd" d="M22.7246 116.435C23.0752 116.435 23.3594 116.718 23.3594 117.068V123.649C23.3594 123.998 23.0752 124.282 22.7246 124.282C22.374 124.282 22.0898 123.998 22.0898 123.649V117.068C22.0898 116.718 22.374 116.435 22.7246 116.435Z" fill="black"/>
<path fill-rule="evenodd" clip-rule="evenodd" d="M30.5967 116.435C30.9473 116.435 31.2315 116.718 31.2315 117.068V123.649C31.2315 123.998 30.9473 124.282 30.5967 124.282C30.2461 124.282 29.9619 123.998 29.9619 123.649V117.068C29.9619 116.718 30.2461 116.435 30.5967 116.435Z" fill="black"/>
<path fill-rule="evenodd" clip-rule="evenodd" d="M26.6602 116.435C27.0108 116.435 27.295 116.718 27.295 117.068V123.649C27.295 123.998 27.0108 124.282 26.6602 124.282C26.3096 124.282 26.0254 123.998 26.0254 123.649V117.068C26.0254 116.718 26.3096 116.435 26.6602 116.435Z" fill="black"/>
<path fill-rule="evenodd" clip-rule="evenodd" d="M18.7891 116.435C19.1397 116.435 19.4239 116.718 19.4239 117.068V123.649C19.4239 123.998 19.1397 124.282 18.7891 124.282C18.4385 124.282 18.1543 123.998 18.1543 123.649V117.068C18.1543 116.718 18.4385 116.435 18.7891 116.435Z" fill="black"/>
<path d="M34.3589 108.587H2.88304C1.64135 108.587 0.634766 109.59 0.634766 110.828C0.634766 112.066 1.64136 113.069 2.88305 113.069H34.3589C35.6006 113.069 36.6072 112.066 36.6072 110.828C36.6072 109.59 35.6006 108.587 34.3589 108.587Z" fill="#337AB5"/>
<path fill-rule="evenodd" clip-rule="evenodd" d="M0 110.828C0 109.241 1.29079 107.954 2.88306 107.954H34.3589C35.9512 107.954 37.242 109.241 37.242 110.828C37.242 112.415 35.9512 113.702 34.3589 113.702H2.88307C1.2908 113.702 0 112.415 0 110.828ZM2.88306 109.219C1.99196 109.219 1.26958 109.939 1.26958 110.828C1.26958 111.716 1.99196 112.436 2.88307 112.436H34.3589C35.25 112.436 35.9724 111.716 35.9724 110.828C35.9724 109.939 35.25 109.219 34.3589 109.219H2.88306Z" fill="black"/>
<path d="M86.0706 39.1071C86.0706 34.1562 82.044 30.1422 77.0775 30.1422H74.8291V45.8309H86.0706V39.1071Z" fill="#EBEBEB"/>
<path fill-rule="evenodd" clip-rule="evenodd" d="M74.1943 29.5094H77.0775C82.3946 29.5094 86.7054 33.8067 86.7054 39.1071V46.4638H74.1943V29.5094ZM75.4639 30.775V45.1982H85.4358V39.1071C85.4358 34.5057 81.6934 30.775 77.0775 30.775H75.4639Z" fill="black"/>
<path d="M118.108 122.16C117.904 123.38 116.844 124.275 115.603 124.275H97.4222C96.181 124.275 95.1217 123.38 94.9176 122.16L90.7744 97.3797H122.251L118.108 122.16Z" fill="#4398D1"/>
<path fill-rule="evenodd" clip-rule="evenodd" d="M90.0254 96.7469H123L118.734 122.264C118.479 123.789 117.155 124.908 115.603 124.908H97.4225C95.871 124.908 94.5468 123.789 94.2918 122.264L90.0254 96.7469ZM91.5241 98.0125L95.5441 122.056C95.6971 122.971 96.4916 123.642 97.4225 123.642H115.603C116.534 123.642 117.329 122.971 117.482 122.056L121.502 98.0125H91.5241Z" fill="black"/>
<path d="M122.251 97.3796H117.754V92.8971C117.754 86.709 112.72 81.6908 106.512 81.6908C100.305 81.6908 95.271 86.709 95.271 92.8971V97.3796H90.7744V92.8971C90.7744 84.2326 97.8207 77.2084 106.512 77.2084C115.204 77.2084 122.251 84.2326 122.251 92.8971V97.3796Z" fill="#97D3E6"/>
<path fill-rule="evenodd" clip-rule="evenodd" d="M106.513 77.8412C98.1722 77.8412 91.4102 84.5821 91.4102 92.8972V96.7468H94.6372V92.8972C94.6372 86.3596 99.9553 81.0581 106.513 81.0581C113.072 81.0581 118.39 86.3596 118.39 92.8972V96.7468H121.617V92.8972C121.617 84.5821 114.855 77.8412 106.513 77.8412ZM122.252 97.3796H122.886V92.8972C122.886 83.8831 115.556 76.5756 106.513 76.5756C97.4711 76.5756 90.1406 83.8831 90.1406 92.8972V98.0124H95.9068V92.8972C95.9068 87.0585 100.656 82.3237 106.513 82.3237C112.37 82.3237 117.12 87.0585 117.12 92.8972V98.0124H122.252V97.3796Z" fill="black"/>
<path d="M71.375 9.67389C68.9468 5.37068 63.4812 3.84428 59.1645 6.26488C56.3338 7.85171 54.5846 10.8415 54.5938 14.0802V17.8073C59.4026 16.7699 66.9279 14.4659 71.375 9.67389Z" fill="#784707"/>
<path fill-rule="evenodd" clip-rule="evenodd" d="M58.8542 5.7134C63.4766 3.12139 69.3293 4.75597 71.9293 9.36369L72.156 9.76537L71.842 10.1037C67.251 15.0507 59.5511 17.3856 54.729 18.4259L53.96 18.5918V14.0811C53.9505 10.6135 55.8235 7.41241 58.8542 5.7134ZM70.5834 9.58588C68.2228 5.8934 63.3516 4.6436 59.4767 6.81646C56.8465 8.29091 55.221 11.0691 55.2296 14.0784L55.2296 14.0802L55.2296 17.0171C59.8877 15.9402 66.4745 13.7581 70.5834 9.58588Z" fill="black"/>
</svg>
