<svg width="147" height="131" viewBox="0 0 147 131" fill="none" xmlns="http://www.w3.org/2000/svg">
<path d="M0 1.49935C0 0.671279 0.665924 0 1.48738 0H83.5126C84.3341 0 85 0.671281 85 1.49935V22.5007C85 23.3287 84.3341 24 83.5126 24H1.48739C0.665928 24 0 23.3287 0 22.5007V1.49935Z" fill="#F3F3F3"/>
<path fill-rule="evenodd" clip-rule="evenodd" d="M83.5126 1.49935L1.48738 1.49935V22.5007L83.5126 22.5007V1.49935ZM1.48738 0C0.665924 0 0 0.671279 0 1.49935V22.5007C0 23.3287 0.665928 24 1.48739 24H83.5126C84.3341 24 85 23.3287 85 22.5007V1.49935C85 0.671281 84.3341 0 83.5126 0H1.48738Z" fill="black"/>
<path fill-rule="evenodd" clip-rule="evenodd" d="M28 11C28 10.4477 28.3407 10 28.7609 10H76.2391C76.6593 10 77 10.4477 77 11C77 11.5523 76.6593 12 76.2391 12H28.7609C28.3407 12 28 11.5523 28 11Z" fill="#505050"/>
<path fill-rule="evenodd" clip-rule="evenodd" d="M28 16C28 15.4477 28.3407 15 28.7609 15H76.2391C76.6593 15 77 15.4477 77 16C77 16.5523 76.6593 17 76.2391 17H28.7609C28.3407 17 28 16.5523 28 16Z" fill="#505050"/>
<path d="M16 17H14.0374V10.7675C14.0374 10.4687 14.0426 10.1513 14.053 9.81513C14.0633 9.47899 14.0789 9.1662 14.0997 8.87675C13.9958 8.97012 13.866 9.08217 13.7103 9.21288C13.5545 9.33427 13.3936 9.46032 13.2274 9.59104L11.9813 10.4874L11 9.39496L14.3645 7H16V17Z" fill="#505050"/>
<path d="M0 28.4993C0 27.6713 0.665924 27 1.48738 27H83.5126C84.3341 27 85 27.6713 85 28.4993V49.5007C85 50.3287 84.3341 51 83.5126 51H1.48739C0.665928 51 0 50.3287 0 49.5007V28.4993Z" fill="#F3F3F3"/>
<path fill-rule="evenodd" clip-rule="evenodd" d="M83.5126 28.4993L1.48738 28.4993V49.5007L83.5126 49.5007V28.4993ZM1.48738 27C0.665924 27 0 27.6713 0 28.4993V49.5007C0 50.3287 0.665928 51 1.48739 51H83.5126C84.3341 51 85 50.3287 85 49.5007V28.4993C85 27.6713 84.3341 27 83.5126 27H1.48738Z" fill="black"/>
<path fill-rule="evenodd" clip-rule="evenodd" d="M28 38C28 37.4477 28.3407 37 28.7609 37H76.2391C76.6593 37 77 37.4477 77 38C77 38.5523 76.6593 39 76.2391 39H28.7609C28.3407 39 28 38.5523 28 38Z" fill="#505050"/>
<path fill-rule="evenodd" clip-rule="evenodd" d="M28 42.5C28 42.2239 28.3407 42 28.7609 42H76.2391C76.6593 42 77 42.2239 77 42.5C77 42.7761 76.6593 43 76.2391 43H28.7609C28.3407 43 28 42.7761 28 42.5Z" fill="#505050"/>
<path d="M17 44H10V42.7155L12.6053 40.174C13.1207 39.6676 13.5406 39.2348 13.865 38.8757C14.199 38.5166 14.4424 38.1805 14.5951 37.8674C14.7573 37.5451 14.8384 37.1998 14.8384 36.8315C14.8384 36.3803 14.7048 36.0442 14.4376 35.8232C14.1704 35.593 13.8173 35.4779 13.3783 35.4779C12.9489 35.4779 12.5481 35.5654 12.1759 35.7403C11.8037 35.9061 11.4172 36.1455 11.0164 36.4586L10.0286 35.3122C10.4485 34.9622 10.9257 34.6584 11.4601 34.4006C11.9945 34.1335 12.6673 34 13.4785 34C14.137 34 14.7048 34.1151 15.182 34.3453C15.6592 34.5663 16.0218 34.8748 16.2699 35.2707C16.5276 35.6667 16.6564 36.1271 16.6564 36.6519C16.6564 37.186 16.5467 37.6786 16.3272 38.1298C16.1077 38.5718 15.788 39.0184 15.3681 39.4696C14.9577 39.9116 14.4663 40.3904 13.8937 40.9061L12.2761 42.4116V42.4945H17V44Z" fill="#505050"/>
<path d="M0 55.4369C0 54.6433 0.665924 54 1.48738 54H83.5126C84.3341 54 85 54.6433 85 55.4369V75.5631C85 76.3567 84.3341 77 83.5126 77H1.48739C0.665928 77 0 76.3567 0 75.5631V55.4369Z" fill="#F3F3F3"/>
<path fill-rule="evenodd" clip-rule="evenodd" d="M83.5126 55.4369L1.48738 55.4369V75.5631L83.5126 75.5631V55.4369ZM1.48738 54C0.665924 54 0 54.6433 0 55.4369V75.5631C0 76.3567 0.665928 77 1.48739 77H83.5126C84.3341 77 85 76.3567 85 75.5631V55.4369C85 54.6433 84.3341 54 83.5126 54H1.48738Z" fill="black"/>
<path fill-rule="evenodd" clip-rule="evenodd" d="M28 64.5C28 64.2239 28.3407 64 28.7609 64H76.2391C76.6593 64 77 64.2239 77 64.5C77 64.7761 76.6593 65 76.2391 65H28.7609C28.3407 65 28 64.7761 28 64.5Z" fill="#505050"/>
<path fill-rule="evenodd" clip-rule="evenodd" d="M28 69.5C28 69.2239 28.3407 69 28.7609 69H76.2391C76.6593 69 77 69.2239 77 69.5C77 69.7761 76.6593 70 76.2391 70H28.7609C28.3407 70 28 69.7761 28 69.5Z" fill="#505050"/>
<path d="M16.6825 63.3569C16.6825 64.02 16.4756 64.5513 16.0619 64.951C15.6577 65.3415 15.1333 65.6049 14.4887 65.7411V65.782C15.3162 65.8819 15.9416 66.1272 16.3649 66.5177C16.7883 66.8992 17 67.4124 17 68.0572C17 68.6203 16.8557 69.1244 16.567 69.5695C16.2784 70.0145 15.8309 70.3642 15.2247 70.6185C14.6282 70.8728 13.8584 71 12.9155 71C12.3574 71 11.8378 70.9546 11.3567 70.8638C10.8756 70.782 10.4234 70.6503 10 70.4687V68.9564C10.433 69.1653 10.8948 69.3243 11.3856 69.4332C11.8763 69.5422 12.3381 69.5967 12.7711 69.5967C13.6082 69.5967 14.2 69.4559 14.5464 69.1744C14.8928 68.8837 15.066 68.4841 15.066 67.9755C15.066 67.4941 14.8639 67.1353 14.4598 66.8992C14.0557 66.663 13.3821 66.545 12.4392 66.545H11.5732V65.1689H12.4536C13.3677 65.1689 13.9979 65.0327 14.3443 64.7602C14.6907 64.4787 14.8639 64.1108 14.8639 63.6567C14.8639 63.2661 14.7292 62.9619 14.4598 62.7439C14.1904 62.5259 13.7863 62.4169 13.2474 62.4169C12.7278 62.4169 12.2804 62.4986 11.9052 62.6621C11.5299 62.8165 11.1931 62.9846 10.8948 63.1662L10.0289 61.9809C10.4137 61.7084 10.8756 61.4768 11.4144 61.2861C11.9629 61.0954 12.6027 61 13.334 61C14.4021 61 15.2247 61.2134 15.8021 61.6403C16.389 62.0581 16.6825 62.6303 16.6825 63.3569Z" fill="#505050"/>
<path d="M0 81.4993C0 80.6713 0.665924 80 1.48738 80H83.5126C84.3341 80 85 80.6713 85 81.4993V102.501C85 103.329 84.3341 104 83.5126 104H1.48739C0.665928 104 0 103.329 0 102.501V81.4993Z" fill="#F3F3F3"/>
<path fill-rule="evenodd" clip-rule="evenodd" d="M83.5126 81.4993L1.48738 81.4993V102.501L83.5126 102.501V81.4993ZM1.48738 80C0.665924 80 0 80.6713 0 81.4993V102.501C0 103.329 0.665928 104 1.48739 104H83.5126C84.3341 104 85 103.329 85 102.501V81.4993C85 80.6713 84.3341 80 83.5126 80H1.48738Z" fill="black"/>
<path fill-rule="evenodd" clip-rule="evenodd" d="M28 91.5C28 91.2239 28.3407 91 28.7609 91H76.2391C76.6593 91 77 91.2239 77 91.5C77 91.7761 76.6593 92 76.2391 92H28.7609C28.3407 92 28 91.7761 28 91.5Z" fill="#505050"/>
<path fill-rule="evenodd" clip-rule="evenodd" d="M28 96C28 95.4477 28.3407 95 28.7609 95H76.2391C76.6593 95 77 95.4477 77 96C77 96.5523 76.6593 97 76.2391 97H28.7609C28.3407 97 28 96.5523 28 96Z" fill="#505050"/>
<path d="M18 95.8631H16.6093V98H14.7551V95.8631H10V94.5503L14.8 88H16.6093V94.4246H18V95.8631ZM14.7551 92.1899C14.7551 91.9385 14.7601 91.6685 14.7701 91.3799C14.7801 91.0912 14.79 90.8259 14.8 90.5838C14.8199 90.3324 14.8349 90.1415 14.8449 90.0112H14.785C14.6056 90.4022 14.3913 90.7654 14.1421 91.1006L11.7196 94.4246H14.7551V92.1899Z" fill="#505050"/>
<path d="M0 108.499C0 107.671 0.665924 107 1.48738 107H83.5126C84.3341 107 85 107.671 85 108.499V129.501C85 130.329 84.3341 131 83.5126 131H1.48739C0.665928 131 0 130.329 0 129.501V108.499Z" fill="#F3F3F3"/>
<path fill-rule="evenodd" clip-rule="evenodd" d="M83.5126 108.499L1.48738 108.499V129.501L83.5126 129.501V108.499ZM1.48738 107C0.665924 107 0 107.671 0 108.499V129.501C0 130.329 0.665928 131 1.48739 131H83.5126C84.3341 131 85 130.329 85 129.501V108.499C85 107.671 84.3341 107 83.5126 107H1.48738Z" fill="black"/>
<path fill-rule="evenodd" clip-rule="evenodd" d="M28 118.5C28 118.224 28.3407 118 28.7609 118H76.2391C76.6593 118 77 118.224 77 118.5C77 118.776 76.6593 119 76.2391 119H28.7609C28.3407 119 28 118.776 28 118.5Z" fill="#505050"/>
<path fill-rule="evenodd" clip-rule="evenodd" d="M28 123C28 122.448 28.3407 122 28.7609 122H76.2391C76.6593 122 77 122.448 77 123C77 123.552 76.6593 124 76.2391 124H28.7609C28.3407 124 28 123.552 28 123Z" fill="#505050"/>
<path d="M14.0385 118.026C14.6197 118.026 15.1325 118.153 15.5769 118.406C16.0214 118.649 16.3675 119.014 16.6154 119.5C16.8718 119.986 17 120.579 17 121.278C17 122.432 16.6923 123.344 16.0769 124.012C15.4701 124.671 14.5897 125 13.4359 125C12.9573 125 12.5085 124.949 12.0897 124.848C11.6709 124.747 11.3077 124.6 11 124.407V122.706C11.3162 122.908 11.6966 123.076 12.141 123.207C12.5855 123.339 13.0043 123.405 13.3974 123.405C14.0043 123.405 14.4786 123.248 14.8205 122.934C15.1709 122.62 15.3462 122.128 15.3462 121.46C15.3462 120.862 15.1838 120.407 14.859 120.093C14.5342 119.768 14.0299 119.606 13.3462 119.606C13.1068 119.606 12.8462 119.632 12.5641 119.682C12.2906 119.733 12.0641 119.784 11.8846 119.834L11.1923 119.378L11.5385 114H16.359V115.671H12.9615L12.7692 118.178C12.9145 118.148 13.0855 118.117 13.2821 118.087C13.4786 118.047 13.7308 118.026 14.0385 118.026Z" fill="#505050"/>
<path fill-rule="evenodd" clip-rule="evenodd" d="M104.862 67.0897C105.687 57.4073 101.793 47.2462 90.0519 38.2638C89.3985 37.7639 89.274 36.829 89.7739 36.1756C90.2738 35.5222 91.2087 35.3977 91.8621 35.8976C104.296 45.4101 108.754 56.5103 107.831 67.3426C107.009 76.9806 101.948 86.1904 94.9277 93.7003L104.874 93.9242C105.696 93.9428 106.348 94.6245 106.329 95.447C106.311 96.2695 105.629 96.9212 104.807 96.9027L91.4036 96.6009C90.5811 96.5824 89.9293 95.9006 89.9479 95.0782L90.2497 81.6751C90.2682 80.8526 90.9499 80.2008 91.7724 80.2194C92.5949 80.2379 93.2466 80.9196 93.2281 81.7421L93.011 91.3866C99.5732 84.2751 104.123 75.7673 104.862 67.0897Z" fill="#E73D57"/>
<path d="M110 49.4912C110 48.6676 110.668 48 111.491 48H142.509C143.332 48 144 48.6676 144 49.4912V80.5088C144 81.3324 143.332 82 142.509 82H111.491C110.668 82 110 81.3324 110 80.5088V49.4912Z" fill="#F3F3F3"/>
<path fill-rule="evenodd" clip-rule="evenodd" d="M112.982 50.9825V79.0175H141.018V50.9825H112.982ZM111.491 48C110.668 48 110 48.6676 110 49.4912V80.5088C110 81.3324 110.668 82 111.491 82H142.509C143.332 82 144 81.3324 144 80.5088V49.4912C144 48.6676 143.332 48 142.509 48H111.491Z" fill="black"/>
<path fill-rule="evenodd" clip-rule="evenodd" d="M124.765 70.1911C125.928 69.0277 127.815 69.0277 128.978 70.1911L133.789 75.0021C134.585 75.7981 135.876 75.7981 136.672 75.0021C137.467 74.2062 137.467 72.9157 136.672 72.1197L131.86 67.3087C130.697 66.1453 130.697 64.2589 131.86 63.0955L136.48 58.4764C137.276 57.6804 137.276 56.39 136.48 55.594C135.684 54.7981 134.393 54.7981 133.597 55.594L128.978 60.2131C127.815 61.3765 125.928 61.3765 124.765 60.2131L120.338 55.7862C119.542 54.9902 118.251 54.9902 117.456 55.7862C116.66 56.5821 116.66 57.8726 117.456 58.6686L121.882 63.0955C123.046 64.2589 123.046 66.1453 121.882 67.3087L117.264 71.9276C116.468 72.7235 116.468 74.014 117.264 74.81C118.06 75.6059 119.35 75.6059 120.146 74.81L124.765 70.1911Z" fill="#E73D57"/>
</svg>
