<svg width="508" height="314" viewBox="0 0 508 314" fill="none" xmlns="http://www.w3.org/2000/svg">
<circle cx="135.899" cy="16.0805" r="14.3485" fill="#784707" stroke="black" stroke-width="2" stroke-linecap="round" stroke-linejoin="round"/>
<path d="M169.237 21.8199C167.622 14.9521 160.745 10.694 153.877 12.3092L153.497 12.3986C146.419 14.0632 142.031 21.1503 143.695 28.2281L145.113 34.2553C145.943 27.0811 159.334 15.4126 169.237 21.8199Z" fill="#784707"/>
<path d="M145.113 34.2553L147.553 44.6319C149.218 51.7097 156.305 56.0979 163.383 54.4333V54.4333C170.461 52.7688 174.849 45.6816 173.184 38.6039L169.237 21.8199M145.113 34.2553L143.695 28.2281C142.031 21.1503 146.419 14.0632 153.497 12.3986L153.877 12.3092C160.745 10.694 167.622 14.9521 169.237 21.8199V21.8199M145.113 34.2553C145.943 27.0811 159.334 15.4126 169.237 21.8199" stroke="black" stroke-width="2" stroke-linecap="round" stroke-linejoin="round"/>
<path d="M147.553 44.6319C149.218 51.7097 156.305 56.0979 163.383 54.4334C170.461 52.7688 174.849 45.6816 173.184 38.6039L169.237 21.8199C159.334 15.4126 145.943 27.0811 145.113 34.2553L147.553 44.6319Z" fill="#E78A34"/>
<path d="M145.113 34.2553L147.553 44.6319C149.218 51.7097 156.305 56.0979 163.383 54.4333V54.4333C170.461 52.7688 174.849 45.6816 173.184 38.6039L169.237 21.8199M145.113 34.2553L143.695 28.2281C142.031 21.1503 146.419 14.0632 153.497 12.3986L153.877 12.3092C160.745 10.694 167.622 14.9521 169.237 21.8199V21.8199M145.113 34.2553C145.943 27.0811 159.334 15.4126 169.237 21.8199" stroke="black" stroke-width="2" stroke-linecap="round" stroke-linejoin="round"/>
<path d="M183.184 30.9197L183.185 30.9218L202.975 61.5815C202.984 61.5947 202.992 61.6077 203.002 61.6204C205.153 64.632 205.277 68.8743 203.424 72.1446C201.611 75.3429 197.85 77.6892 192.01 76.7908L192.006 76.7902L165.258 72.7925C164.979 72.7509 164.696 72.8286 164.478 73.0067C164.259 73.1848 164.126 73.4466 164.111 73.7279L161.123 129.38C161.108 129.654 161.207 129.922 161.396 130.122C161.585 130.321 161.847 130.434 162.122 130.434H208.12C209.849 130.434 211.5 131.159 212.669 132.434L249.975 173.088C252.281 175.6 252.113 179.506 249.601 181.811C247.088 184.117 243.182 183.949 240.877 181.437L205.703 143.106C205.514 142.9 205.246 142.782 204.966 142.782H163.971C163.659 142.782 163.364 142.928 163.175 143.176C162.986 143.425 162.924 143.747 163.007 144.048L177.244 195.71C177.67 197.253 177.479 198.901 176.712 200.307L148.015 252.918C146.382 255.912 142.632 257.015 139.638 255.382C136.645 253.749 135.542 249.999 137.174 247.005L164.483 196.939C164.607 196.712 164.638 196.445 164.569 196.195L148.6 138.249C148.423 137.607 148.351 136.941 148.387 136.277L151.63 75.8709C151.648 75.5353 151.496 75.2132 151.226 75.0133C150.956 74.8135 150.603 74.7627 150.288 74.8782L124.438 84.3355C124.159 84.4375 123.94 84.6582 123.84 84.9378L106.319 133.905C105.17 137.116 101.636 138.787 98.4258 137.639C95.2152 136.49 93.5437 132.956 94.6925 129.745L113.346 77.6122C113.963 75.8861 115.316 74.5237 117.038 73.8939L156.09 59.6062H156.091H156.1H156.108H156.117H156.126H156.135H156.144H156.153H156.162H156.171H156.18H156.189H156.198H156.207H156.216H156.224H156.233H156.242H156.251H156.26H156.269H156.278H156.287H156.296H156.305H156.314H156.323H156.332H156.341H156.35H156.359H156.368H156.377H156.386H156.395H156.404H156.413H156.422H156.431H156.44H156.449H156.458H156.467H156.476H156.485H156.494H156.503H156.512H156.521H156.53H156.539H156.548H156.557H156.566H156.575H156.584H156.593H156.602H156.611H156.62H156.629H156.638H156.647H156.656H156.665H156.674H156.683H156.692H156.701H156.71H156.719H156.728H156.737H156.746H156.755H156.764H156.773H156.782H156.791H156.8H156.809H156.818H156.827H156.836H156.846H156.855H156.864H156.873H156.882H156.891H156.9H156.909H156.918H156.927H156.936H156.945H156.954H156.963H156.972H156.981H156.99H156.999H157.008H157.017H157.026H157.036H157.045H157.054H157.063H157.072H157.081H157.09H157.099H157.108H157.117H157.126H157.135H157.144H157.153H157.162H157.171H157.18H157.189H157.198H157.207H157.216H157.226H157.235H157.244H157.253H157.262H157.271H157.28H157.289H157.298H157.307H157.316H157.325H157.334H157.343H157.352H157.361H157.37H157.379H157.388H157.397H157.406H157.415H157.424H157.433H157.442H157.451H157.46H157.47H157.479H157.488H157.497H157.506H157.515H157.524H157.533H157.542H157.551H157.56H157.569H157.578H157.587H157.596H157.605H157.614H157.623H157.632H157.641H157.65H157.659H157.668H157.677H157.686H157.695H157.704H157.713H157.722H157.731H157.74H157.749H157.757H157.766H157.775H157.784H157.793H157.802H157.811H157.82H157.829H157.838H157.847H157.856H157.865H157.874H157.883H157.892H157.901H157.91H157.919H157.928H157.936H157.945H157.954H157.963H157.972H157.981H157.99H157.999H158.008H158.017H158.026H158.035H158.043H158.052H158.061H158.07H158.079H158.088H158.097H158.106H158.114H158.123H158.132H158.141H158.15H158.159H158.168H158.176H158.185H158.194H158.203H158.212H158.221H158.23H158.238H158.247H158.256H158.265H158.274H158.282H158.291H158.3H158.309H158.318H158.326H158.335H158.344H158.353H158.362H158.37H158.379H158.388H158.397H158.405H158.414H158.423H158.432H158.44H158.449H158.458H158.467H158.475H158.484H158.493H158.501H158.51H158.519H158.528H158.536H158.545H158.554H158.562H158.571H158.58H158.588H158.597H158.606H158.614H158.623H158.632H158.64H158.649H158.658H158.666H158.675H158.683H158.692H158.701H158.709H158.718H158.726H158.735H158.744H158.752H158.761H158.769H158.778H158.786H158.795H158.804H158.812H158.821H158.829H158.838H158.846H158.855H158.863H158.872H158.88H158.889H158.897H158.906H158.914H158.923H158.931H158.94H158.948H158.957H158.965H158.973H158.982H158.99H158.999H159.007H159.016H159.024H159.032H159.041H159.049H159.058H159.066H159.074H159.083H159.091H159.099H159.108H159.116H159.124H159.133H159.141H159.149H159.158H159.166H159.174H159.183H159.191H159.199H159.207H159.216H159.224H159.232H159.241H159.249H159.257H159.265H159.273H159.282H159.29H159.298H159.306H159.314H159.323H159.331H159.339H159.347H159.355H159.363H159.372H159.38H159.388H159.396H159.404H159.412H159.42H159.428H159.437H159.445H159.453H159.461H159.469H159.477H159.485H159.493H159.501H159.509H159.517H159.525H159.533H159.541H159.549H159.557H159.565H159.573H159.581H159.589H159.597H159.605H159.613H159.621H159.628H159.636H159.644H159.652H159.66H159.668H159.676H159.684H159.691H159.699H159.707H159.715H159.723H159.731H159.738H159.746H159.754H159.762H159.769H159.777H159.785H159.793H159.8H159.808H159.816H159.824H159.831H159.839H159.847H159.854H159.862H159.87H159.877H159.885H159.893H159.9H159.908H159.915H159.923H159.931H159.938H159.946H159.953H159.961H159.968H159.976H159.984H159.991H159.999H160.006H160.014H160.021H160.029H160.036H160.043H160.051H160.058H160.066H160.073H160.081H160.088H160.095H160.103H160.11H160.118H160.125H160.132H160.14H160.147H160.154H160.162H160.169H160.176H160.183H160.191H160.198H160.205H160.209L186.974 64.0321C188.717 64.3203 189.951 62.3728 188.945 60.9204L172.783 37.5767C170.953 34.7087 171.788 30.8986 174.652 29.0595C177.522 27.2173 181.341 28.0502 183.184 30.9197Z" fill="#E78A34" stroke="black" stroke-width="2" stroke-linecap="round" stroke-linejoin="round"/>
<path d="M206.554 129.858L161.339 192.136C159.902 194.114 156.83 193.636 156.063 191.315L139.016 139.758C138.538 138.315 138.396 136.782 138.601 135.275L142.117 109.346V79.214L134.036 82.191C133.492 82.3915 132.892 82.0884 132.73 81.5315L128.971 68.5846C128.83 68.0996 129.073 67.5856 129.538 67.3867L142.117 61.9957L148.121 58.5647C148.574 58.3057 149.087 58.1694 149.609 58.1694H167.971C168.27 58.1694 168.568 58.2141 168.853 58.3021L174.64 60.0826L184.732 61.8378C185.245 61.927 185.604 62.395 185.557 62.9135L184.302 76.7235C184.25 77.2963 183.726 77.7072 183.157 77.6219L174.64 76.3442V109.346L205.513 125.435C207.138 126.282 207.631 128.375 206.554 129.858Z" fill="#EBEBEB"/>
<path d="M174.64 109.346L205.513 125.435C207.138 126.282 207.631 128.375 206.554 129.858L161.339 192.136C159.902 194.114 156.83 193.636 156.063 191.315L139.016 139.758C138.538 138.315 138.396 136.782 138.601 135.275L142.117 109.346M174.64 109.346H142.117M174.64 109.346V76.3442M142.117 109.346V79.214M142.117 61.9957L129.538 67.3867C129.073 67.5856 128.83 68.0996 128.971 68.5846L132.73 81.5315C132.892 82.0885 133.492 82.3915 134.036 82.191L142.117 79.214M142.117 61.9957V79.214M142.117 61.9957L148.121 58.5647C148.574 58.3057 149.087 58.1694 149.609 58.1694H167.971C168.27 58.1694 168.568 58.2141 168.853 58.3021L174.64 60.0826M174.64 60.0826L184.732 61.8378C185.245 61.927 185.604 62.395 185.557 62.9135L184.302 76.7235C184.249 77.2963 183.726 77.7072 183.157 77.6219L174.64 76.3442M174.64 60.0826V76.3442" stroke="black" stroke-width="2" stroke-linecap="round" stroke-linejoin="round"/>
<path fill-rule="evenodd" clip-rule="evenodd" d="M142.528 109.824L139.012 135.754C138.808 137.26 138.962 138.868 139.487 140.295C158.401 191.65 205.706 125.799 175.051 109.824H142.528Z" fill="#4398D1" stroke="black" stroke-width="2" stroke-linecap="round" stroke-linejoin="round"/>
<path d="M159.044 260.962H135.942C135.39 260.962 134.942 260.515 134.942 259.962V250.483C134.942 249.931 135.39 249.483 135.942 249.483H153.616C153.974 249.483 154.305 249.675 154.483 249.986L159.912 259.465C160.294 260.132 159.813 260.962 159.044 260.962Z" fill="#4398D1" stroke="black" stroke-width="2" stroke-linecap="round" stroke-linejoin="round"/>
<path d="M257.571 186.35H234.469C233.916 186.35 233.469 185.902 233.469 185.35V175.871C233.469 175.319 233.916 174.871 234.469 174.871H252.142C252.501 174.871 252.832 175.063 253.01 175.374L258.439 184.853C258.821 185.519 258.339 186.35 257.571 186.35Z" fill="#4398D1" stroke="black" stroke-width="2" stroke-linecap="round" stroke-linejoin="round"/>
<path d="M157.651 71.545L149.291 58.1694H168.422L161.098 71.4508C160.361 72.7871 158.459 72.839 157.651 71.545Z" fill="#E78A34" stroke="black" stroke-width="2" stroke-linecap="round" stroke-linejoin="round"/>
<path d="M162.647 32.9037L164.92 30.8834C165.919 29.9948 167.278 29.6266 168.59 29.8889C170.233 30.2177 171.538 31.482 171.905 33.1175C174.039 42.6153 174.617 48.1381 167.226 52.3581C165.421 53.3885 163.172 52.8655 161.745 51.3546L155.985 45.2558L155.028 37.125L161.678 33.5784C162.026 33.3926 162.352 33.1661 162.647 32.9037Z" fill="#EBEBEB"/>
<path d="M155.028 37.125L161.678 33.5784C162.026 33.3926 162.352 33.1661 162.647 32.9037L164.92 30.8834C165.919 29.9948 167.278 29.6266 168.59 29.8889V29.8889C170.233 30.2177 171.538 31.482 171.905 33.1175C174.039 42.6153 174.617 48.1381 167.226 52.3581C165.421 53.3885 163.172 52.8655 161.745 51.3546L155.985 45.2558M155.028 37.125L155.985 45.2558M155.028 37.125L146.419 38.0815M155.985 45.2558L147.854 46.2124" stroke="black" stroke-width="2"/>
<path d="M1.56648 307.984C0.177181 309.328 0.140456 311.544 1.48445 312.934C2.82845 314.323 5.04422 314.36 6.43352 313.016L1.56648 307.984ZM50 266V262.5C49.0918 262.5 48.2192 262.853 47.5665 263.484L50 266ZM173.5 266V269.5C174.638 269.5 175.705 268.947 176.361 268.016L173.5 266ZM226 191.5V188C224.862 188 223.795 188.553 223.139 189.484L226 191.5ZM388 191.5V195C388.923 195 389.809 194.635 390.464 193.985L388 191.5ZM507.5 73L468.419 83.2959L496.876 111.993L507.5 73ZM6.43352 313.016L52.4335 268.516L47.5665 263.484L1.56648 307.984L6.43352 313.016ZM50 269.5H173.5V262.5H50V269.5ZM176.361 268.016L228.861 193.516L223.139 189.484L170.639 263.984L176.361 268.016ZM226 195H388V188H226V195ZM390.464 193.985L487.597 97.6653L482.668 92.6948L385.536 189.015L390.464 193.985Z" fill="white"/>
</svg>
