<svg width="185" height="95" viewBox="0 0 185 95" fill="none" xmlns="http://www.w3.org/2000/svg">
<path d="M40.3089 4.83549C40.3089 7.3392 38.2793 9.36885 35.7756 9.36885C33.2718 9.36885 31.2422 7.3392 31.2422 4.83549C31.2422 2.33178 33.2718 0.302124 35.7756 0.302124C38.2793 0.302124 40.3089 2.33178 40.3089 4.83549Z" fill="#784707"/>
<path fill-rule="evenodd" clip-rule="evenodd" d="M35.776 0.604448C33.4392 0.604448 31.5449 2.49879 31.5449 4.83559C31.5449 7.17238 33.4392 9.06673 35.776 9.06673C38.1128 9.06673 40.0072 7.17238 40.0072 4.83559C40.0072 2.49879 38.1128 0.604448 35.776 0.604448ZM30.9404 4.83559C30.9404 2.16497 33.1054 0 35.776 0C38.4466 0 40.6116 2.16497 40.6116 4.83559C40.6116 7.50621 38.4466 9.67118 35.776 9.67118C33.1054 9.67118 30.9404 7.50621 30.9404 4.83559Z" fill="black"/>
<path d="M46.3091 6.64897C45.7988 4.4791 43.6261 3.13377 41.4562 3.64409L41.3361 3.67234C39.0999 4.19826 37.7135 6.4374 38.2394 8.6736L38.6872 10.5779C38.9493 8.31121 43.1805 4.6246 46.3091 6.64897Z" fill="#784707"/>
<path fill-rule="evenodd" clip-rule="evenodd" d="M37.9453 8.74258C37.3812 6.3439 38.8683 3.94206 41.267 3.37793L41.3871 3.34968C43.7195 2.80114 46.0549 4.24722 46.6034 6.57957L47.8506 11.8824C48.4147 14.2811 46.9275 16.6829 44.5288 17.247C42.1302 17.8112 39.7283 16.324 39.1642 13.9253L37.9453 8.74258ZM41.4054 3.96632C39.3317 4.45403 38.046 6.53048 38.5337 8.6042L38.7333 9.45307C38.8861 9.14543 39.0815 8.83735 39.3085 8.53961C39.8124 7.87877 40.4897 7.24471 41.26 6.74981C42.5885 5.89624 44.2528 5.42544 45.7849 6.03776C45.0664 4.43959 43.2949 3.52193 41.5255 3.93807L41.4054 3.96632ZM46.0436 6.83927C44.6422 5.9993 42.9854 6.35971 41.5867 7.25834C40.8754 7.71538 40.2502 8.30144 39.7892 8.90609C39.3403 9.49488 39.0637 10.0791 38.9941 10.562L39.7526 13.7869C40.2403 15.8606 42.3167 17.1464 44.3905 16.6586C46.4642 16.1709 47.7499 14.0945 47.2622 12.0208L46.0436 6.83927Z" fill="black"/>
<path d="M39.4583 13.8563C39.9842 16.0925 42.2233 17.479 44.4595 16.9531C46.6957 16.4271 48.0822 14.188 47.5563 11.9518L46.3091 6.64897C43.1805 4.6246 38.9493 8.31121 38.6872 10.5779L39.4583 13.8563Z" fill="#E78A34"/>
<path fill-rule="evenodd" clip-rule="evenodd" d="M37.9453 8.74258C37.3812 6.3439 38.8683 3.94206 41.267 3.37793L41.3871 3.34968C43.7195 2.80114 46.0549 4.24722 46.6034 6.57957L47.8506 11.8824C48.4147 14.2811 46.9275 16.6829 44.5288 17.247C42.1302 17.8112 39.7283 16.324 39.1642 13.9253L37.9453 8.74258ZM41.4054 3.96632C39.3317 4.45403 38.046 6.53048 38.5337 8.6042L38.7333 9.45307C38.8861 9.14543 39.0815 8.83735 39.3085 8.53961C39.8124 7.87877 40.4897 7.24471 41.26 6.74981C42.5885 5.89624 44.2528 5.42544 45.7849 6.03776C45.0664 4.43959 43.2949 3.52193 41.5255 3.93807L41.4054 3.96632ZM46.0436 6.83927C44.6422 5.9993 42.9854 6.35971 41.5867 7.25834C40.8754 7.71538 40.2502 8.30144 39.7892 8.90609C39.3403 9.49488 39.0637 10.0791 38.9941 10.562L39.7526 13.7869C40.2403 15.8606 42.3167 17.1464 44.3905 16.6586C46.4642 16.1709 47.7499 14.0945 47.2622 12.0208L46.0436 6.83927Z" fill="black"/>
<path fill-rule="evenodd" clip-rule="evenodd" d="M47.8491 8.67024C48.9026 7.99395 50.3048 8.2997 50.9811 9.35315L57.2337 19.04C58.7448 21.1556 57.3848 24.9334 53.4559 24.3289L45.0048 23.0659L44.0608 40.649H58.5937C59.2286 40.649 59.8345 40.9153 60.2638 41.3831L72.0505 54.2277C72.8969 55.15 72.8353 56.5839 71.913 57.4303C70.9906 58.2767 69.5568 58.2151 68.7104 57.2928L57.5973 45.1824H44.645L49.1433 61.5047C49.2994 62.0713 49.2294 62.6764 48.948 63.1923L39.8812 79.8147C39.2818 80.9137 37.9049 81.3186 36.8059 80.7192C35.7069 80.1197 35.302 78.7428 35.9014 77.6439L44.5294 61.8259L39.4839 43.5179C39.419 43.2824 39.3926 43.038 39.4057 42.7942L40.4304 23.7091L32.2632 26.6971L26.7277 42.1682C26.3059 43.3468 25.0085 43.9605 23.8299 43.5387C22.6512 43.117 22.0376 41.8196 22.4593 40.641L28.3527 24.1697C28.5794 23.536 29.076 23.0359 29.7081 22.8046L42.0992 18.2713C42.5758 18.2713 43.0982 18.2713 43.4825 18.2713L51.9964 19.6791C52.2598 19.7227 52.4461 19.4284 52.2942 19.2089L47.1662 11.8022C46.4899 10.7488 46.7956 9.34653 47.8491 8.67024Z" fill="#E78A34"/>
<path fill-rule="evenodd" clip-rule="evenodd" d="M50.4724 9.6797C49.9765 8.90716 48.9482 8.68295 48.1756 9.17889C47.4058 9.67308 47.1805 10.6959 47.6696 11.4675L52.7912 18.8649C53.247 19.5233 52.6879 20.4061 51.8978 20.2755L43.4329 18.8757H42.2063L29.9157 23.3723C29.4522 23.5419 29.088 23.9087 28.9218 24.3734L23.0284 40.8446C22.7191 41.7089 23.1691 42.6604 24.0335 42.9696C24.8979 43.2789 25.8493 42.8289 26.1585 41.9645L31.6941 26.4934C31.7545 26.3245 31.887 26.1911 32.0555 26.1294L40.2227 23.1414C40.4135 23.0716 40.6266 23.1023 40.7899 23.2231C40.9532 23.3439 41.0449 23.5386 41.034 23.7415L40.0093 42.8266C39.9997 43.0054 40.0191 43.1846 40.0666 43.3573L45.1121 61.6653C45.1538 61.8164 45.1351 61.9777 45.0601 62.1153L36.4321 77.9333C35.9925 78.7392 36.2894 79.7489 37.0954 80.1885L36.8059 80.7192C35.7069 80.1197 35.302 78.7428 35.9014 77.6439L44.5294 61.8259L39.4839 43.5179C39.419 43.2824 39.3926 43.038 39.4057 42.7942L40.4304 23.7091L32.2632 26.6971L26.7277 42.1682C26.3059 43.3468 25.0085 43.9605 23.8299 43.5387C22.6512 43.117 22.0376 41.8196 22.4593 40.641L28.3527 24.1697C28.5794 23.536 29.076 23.0359 29.7081 22.8046L42.0992 18.2713H43.4825L51.9964 19.6791C52.2598 19.7227 52.4461 19.4284 52.2942 19.2089L47.1662 11.8022C46.4899 10.7488 46.7956 9.34653 47.8491 8.67024C48.9026 7.99395 50.3048 8.2997 50.9811 9.35315L57.2337 19.04C58.7448 21.1556 57.3848 24.9334 53.4559 24.3289L45.0048 23.0659L44.0608 40.649H58.5937C59.2286 40.649 59.8345 40.9153 60.2638 41.3831L72.0505 54.2277C72.8969 55.15 72.8353 56.5839 71.913 57.4303C70.9906 58.2767 69.5568 58.2151 68.7104 57.2928L57.5973 45.1824H44.645L49.1433 61.5047C49.2994 62.0713 49.2294 62.6764 48.948 63.1923L39.8812 79.8147C39.2818 80.9137 37.9049 81.3186 36.8059 80.7192L37.0954 80.1885C37.9013 80.6281 38.911 80.3312 39.3506 79.5252L48.4173 62.9029C48.6237 62.5245 48.6751 62.0808 48.5606 61.6653L44.0623 45.343C44.0121 45.1611 44.0498 44.9662 44.1642 44.8161C44.2785 44.666 44.4563 44.5779 44.645 44.5779H57.5973C57.7666 44.5779 57.9282 44.6489 58.0427 44.7737L69.1557 56.8841C69.7764 57.5605 70.8279 57.6056 71.5043 56.9849C72.1807 56.3642 72.2259 55.3127 71.6052 54.6363L59.8184 41.7918C59.5036 41.4487 59.0593 41.2534 58.5937 41.2534H44.0608C43.8949 41.2534 43.7362 41.1852 43.6221 41.0648C43.5079 40.9444 43.4483 40.7823 43.4572 40.6166L44.4013 23.0335C44.4104 22.8634 44.4908 22.7052 44.6227 22.5975C44.7546 22.4899 44.9258 22.4429 45.0942 22.4681L53.5478 23.7315C55.2836 23.9985 56.3499 23.3048 56.8589 22.4065C57.3926 21.4646 57.3521 20.2457 56.7418 19.3913C56.7387 19.3869 56.7356 19.3825 56.7326 19.3781C56.7303 19.3747 56.7281 19.3712 56.7259 19.3678L50.4724 9.6797Z" fill="black"/>
<path d="M58.1268 40.7445L43.7659 60.5246C43.3318 61.1225 42.4033 60.978 42.1713 60.2766L36.7502 43.8811C36.606 43.4449 36.5631 42.9815 36.6248 42.5262L37.7399 34.3025V24.7824L35.1731 25.7281C35.0086 25.7887 34.8272 25.6971 34.7784 25.5288L33.5833 21.4125C33.5408 21.2659 33.6142 21.1106 33.7545 21.0504L37.7399 19.3424L39.6464 18.253C39.7834 18.1747 39.9385 18.1335 40.0963 18.1335H45.9148C46.0051 18.1335 46.095 18.147 46.1814 18.1736L48.0155 18.738L51.2167 19.2947C51.3718 19.3217 51.4802 19.4631 51.4659 19.6198L51.0668 24.0101C51.0511 24.1832 50.8929 24.3074 50.721 24.2816L48.0155 23.8758V34.3025L57.8121 39.4078C58.3032 39.6637 58.4522 40.2963 58.1268 40.7445Z" fill="#EBEBEB"/>
<path fill-rule="evenodd" clip-rule="evenodd" d="M40.0968 18.4357C39.9916 18.4357 39.8882 18.4632 39.7969 18.5154L38.0427 19.5178V34.0003H47.7138V18.9612L46.093 18.4625C46.0354 18.4448 45.9755 18.4357 45.9153 18.4357H40.0968ZM48.3183 19.0973V23.6155L50.7663 23.9827L51.1654 19.5925L48.3183 19.0973ZM48.3183 24.2267V34.1192L57.9523 39.1398C58.6071 39.481 58.8057 40.3245 58.3719 40.9221L44.0109 60.7022C43.4322 61.4993 42.1941 61.3067 41.8849 60.3715L36.4638 43.976C36.3051 43.4961 36.258 42.9864 36.3259 42.4856L37.4382 34.2821V25.2159L35.2781 26.0117C34.9491 26.1329 34.5864 25.9497 34.4887 25.6131L33.2936 21.4968C33.2085 21.2036 33.3554 20.8929 33.636 20.7727L37.6055 19.0714L39.497 17.9906C39.6797 17.8862 39.8864 17.8313 40.0968 17.8313H45.9153C46.0358 17.8313 46.1556 17.8493 46.2708 17.8848L48.0867 18.4435L51.269 18.9969C51.5791 19.0509 51.7959 19.3337 51.7674 19.6472L51.3683 24.0374C51.3368 24.3837 51.0205 24.6321 50.6767 24.5805L48.3183 24.2267ZM37.4382 19.8008L33.8741 21.3282L35.0691 25.4445L37.4382 24.5717V19.8008ZM38.0045 34.6047L36.9248 42.5668C36.8693 42.9766 36.9079 43.3936 37.0377 43.7862L42.4588 60.1817C42.6134 60.6494 43.2324 60.7457 43.5218 60.3471L57.8827 40.5669C58.0997 40.2682 58.0004 39.8464 57.6729 39.6758L47.942 34.6047H38.0045Z" fill="black"/>
<path fill-rule="evenodd" clip-rule="evenodd" d="M37.8698 34.4537L36.7547 42.6774C36.693 43.1327 36.7401 43.6195 36.8982 44.0508C42.8665 60.3317 57.8366 39.504 48.1454 34.4537H37.8698Z" fill="#4398D1"/>
<path fill-rule="evenodd" clip-rule="evenodd" d="M37.5708 34.4129C37.5911 34.2631 37.7191 34.1513 37.8703 34.1513H48.1459C48.1945 34.1513 48.2424 34.163 48.2856 34.1855C50.8368 35.515 51.7569 37.8915 51.618 40.39C51.4799 42.8746 50.2989 45.5044 48.6235 47.4486C46.9542 49.3859 44.735 50.7055 42.4997 50.4298C40.2442 50.1515 38.124 48.2714 36.6149 44.1547C36.439 43.6747 36.3877 43.1381 36.4557 42.6366L37.5708 34.4129ZM38.1343 34.7558L37.0547 42.7178C36.9992 43.1269 37.0421 43.5639 37.1824 43.9467C38.6575 47.9704 40.6467 49.5921 42.5737 49.8299C44.5211 50.0701 46.5578 48.9198 48.1656 47.054C49.7675 45.1951 50.8849 42.6886 51.0145 40.3564C51.1422 38.06 50.3165 35.9574 48.071 34.7558H38.1343Z" fill="black"/>
<path d="M43.1133 82.2048H35.7768C35.6099 82.2048 35.4746 82.0695 35.4746 81.9026V78.8803C35.4746 78.7134 35.6099 78.5781 35.7768 78.5781H41.3824C41.4907 78.5781 41.5908 78.6361 41.6446 78.7301L43.3755 81.7524C43.4909 81.9539 43.3455 82.2048 43.1133 82.2048Z" fill="#4398D1"/>
<path fill-rule="evenodd" clip-rule="evenodd" d="M35.1709 78.8805C35.1709 78.5467 35.4415 78.2761 35.7753 78.2761H41.3809C41.5976 78.2761 41.7977 78.3921 41.9054 78.5801L43.6363 81.6024C43.8671 82.0053 43.5762 82.5072 43.1118 82.5072H35.7753C35.4415 82.5072 35.1709 82.2366 35.1709 81.9028V78.8805ZM41.3809 78.8805H35.7753V81.9028H43.1118L41.3809 78.8805Z" fill="black"/>
<path d="M74.2422 58.6315H66.9057C66.7388 58.6315 66.6035 58.4962 66.6035 58.3293V55.3071C66.6035 55.1402 66.7388 55.0049 66.9057 55.0049H72.5113C72.6196 55.0049 72.7197 55.0629 72.7735 55.1569L74.5045 58.1791C74.6198 58.3806 74.4744 58.6315 74.2422 58.6315Z" fill="#4398D1"/>
<path fill-rule="evenodd" clip-rule="evenodd" d="M66.3018 55.3069C66.3018 54.9731 66.5724 54.7025 66.9062 54.7025H72.5117C72.7284 54.7025 72.9286 54.8185 73.0363 55.0065L74.7672 58.0288C74.998 58.4317 74.707 58.9336 74.2427 58.9336H66.9062C66.5724 58.9336 66.3018 58.663 66.3018 58.3292V55.3069ZM72.5117 55.3069H66.9062V58.3292H74.2427L72.5117 55.3069Z" fill="black"/>
<path d="M42.6718 22.3991L40.0059 18.1335H46.0503L43.7137 22.3706C43.491 22.7745 42.9163 22.7902 42.6718 22.3991Z" fill="#E78A34"/>
<path fill-rule="evenodd" clip-rule="evenodd" d="M39.742 17.987C39.7952 17.8909 39.8965 17.8313 40.0063 17.8313H46.0508C46.1577 17.8313 46.2567 17.8878 46.311 17.9798C46.3654 18.0719 46.3671 18.1858 46.3155 18.2795L43.9788 22.5166C43.6448 23.1223 42.7827 23.1459 42.416 22.5593L39.75 18.2937C39.6918 18.2005 39.6887 18.0831 39.742 17.987ZM40.5516 18.4357L42.9286 22.2389C43.0508 22.4345 43.3382 22.4266 43.4495 22.2247L45.539 18.4357H40.5516Z" fill="black"/>
<g filter="url(#filter0_i)">
<path d="M1 84.6225C1 83.621 1.81186 82.8091 2.81335 82.8091H49.9603C50.9618 82.8091 51.7737 83.621 51.7737 84.6225V92.1781C51.7737 93.1795 50.9618 93.9914 49.9603 93.9914H2.81334C1.81186 93.9914 1 93.1795 1 92.1781V84.6225Z" fill="#F3C72C"/>
</g>
<g filter="url(#filter1_i)">
<path fill-rule="evenodd" clip-rule="evenodd" d="M2.8133 82.2046H49.9603C51.2956 82.2046 52.3781 83.2871 52.3781 84.6224V92.178C52.3781 93.5133 51.2956 94.5958 49.9603 94.5958H2.8133C1.47799 94.5958 0.395508 93.5133 0.395508 92.178V84.6224C0.395508 83.2871 1.47799 82.2046 2.8133 82.2046ZM2.8133 82.809C1.81182 82.809 0.999956 83.6209 0.999956 84.6224V92.178C0.999956 93.1795 1.81182 93.9913 2.8133 93.9913H49.9603C50.9618 93.9913 51.7736 93.1795 51.7736 92.178V84.6224C51.7736 83.6209 50.9618 82.809 49.9603 82.809H2.8133Z" fill="black"/>
</g>
<g filter="url(#filter2_i)">
<path fill-rule="evenodd" clip-rule="evenodd" d="M51.7737 84.6225C51.7737 83.621 50.9618 82.8091 49.9603 82.8091H43.5401L37.4793 93.9914H49.9603C50.9618 93.9914 51.7737 93.1795 51.7737 92.1781V84.6225Z" fill="#DAB227"/>
</g>
<g filter="url(#filter3_i)">
<path d="M1.60449 84.3996C1.60449 84.1492 1.80746 83.9462 2.05783 83.9462C2.3082 83.9462 2.51116 84.1492 2.51116 84.3996V92.5862C2.51116 92.8366 2.3082 93.0395 2.05783 93.0395C1.80746 93.0395 1.60449 92.8366 1.60449 92.5862V84.3996Z" fill="#F2D15B"/>
<path d="M4.4834 84.2519C4.4834 83.9301 4.74427 83.6693 5.06606 83.6693C5.38786 83.6693 5.64873 83.9301 5.64873 84.2519V92.7636C5.64873 93.0854 5.38786 93.3462 5.06606 93.3462C4.74427 93.3462 4.4834 93.0854 4.4834 92.7636V84.2519Z" fill="#F2D15B"/>
<path d="M7.5127 84.3685C7.5127 83.9823 7.82574 83.6693 8.21189 83.6693C8.59805 83.6693 8.91109 83.9823 8.91109 84.3685V92.647C8.91109 93.0332 8.59805 93.3462 8.21189 93.3462C7.82574 93.3462 7.5127 93.0332 7.5127 92.647V84.3685Z" fill="#F2D15B"/>
<path d="M10.7764 84.3685C10.7764 83.9823 11.0894 83.6693 11.4756 83.6693C11.8617 83.6693 12.1748 83.9823 12.1748 84.3685V92.647C12.1748 93.0332 11.8617 93.3462 11.4756 93.3462C11.0894 93.3462 10.7764 93.0332 10.7764 92.647V84.3685Z" fill="#F2D15B"/>
<path d="M14.0391 84.3685C14.0391 83.9823 14.3521 83.6693 14.7383 83.6693C15.1244 83.6693 15.4375 83.9823 15.4375 84.3685V92.647C15.4375 93.0332 15.1244 93.3462 14.7383 93.3462C14.3521 93.3462 14.0391 93.0332 14.0391 92.647V84.3685Z" fill="#F2D15B"/>
<path d="M17.3018 84.3685C17.3018 83.9823 17.6148 83.6693 18.001 83.6693C18.3871 83.6693 18.7002 83.9823 18.7002 84.3685V92.647C18.7002 93.0332 18.3871 93.3462 18.001 93.3462C17.6148 93.3462 17.3018 93.0332 17.3018 92.647V84.3685Z" fill="#F2D15B"/>
<path d="M20.5645 84.3685C20.5645 83.9823 20.8775 83.6693 21.2637 83.6693C21.6498 83.6693 21.9629 83.9823 21.9629 84.3685V92.647C21.9629 93.0332 21.6498 93.3462 21.2637 93.3462C20.8775 93.3462 20.5645 93.0332 20.5645 92.647V84.3685Z" fill="#F2D15B"/>
<path d="M23.8271 84.3685C23.8271 83.9823 24.1402 83.6693 24.5263 83.6693C24.9125 83.6693 25.2255 83.9823 25.2255 84.3685V92.647C25.2255 93.0332 24.9125 93.3462 24.5263 93.3462C24.1402 93.3462 23.8271 93.0332 23.8271 92.647V84.3685Z" fill="#F2D15B"/>
<path d="M27.0908 84.3685C27.0908 83.9823 27.4039 83.6693 27.79 83.6693C28.1762 83.6693 28.4892 83.9823 28.4892 84.3685V92.647C28.4892 93.0332 28.1762 93.3462 27.79 93.3462C27.4039 93.3462 27.0908 93.0332 27.0908 92.647V84.3685Z" fill="#F2D15B"/>
<path d="M30.3535 84.3685C30.3535 83.9823 30.6666 83.6693 31.0527 83.6693C31.4389 83.6693 31.7519 83.9823 31.7519 84.3685V92.647C31.7519 93.0332 31.4389 93.3462 31.0527 93.3462C30.6666 93.3462 30.3535 93.0332 30.3535 92.647V84.3685Z" fill="#F2D15B"/>
<path d="M33.6162 84.3685C33.6162 83.9823 33.9293 83.6693 34.3154 83.6693C34.7016 83.6693 35.0146 83.9823 35.0146 84.3685V92.647C35.0146 93.0332 34.7016 93.3462 34.3154 93.3462C33.9293 93.3462 33.6162 93.0332 33.6162 92.647V84.3685Z" fill="#F2D15B"/>
<path d="M36.8789 84.3685C36.8789 83.9823 37.1919 83.6693 37.5781 83.6693C37.9643 83.6693 38.2773 83.9823 38.2773 84.3685V92.647C38.2773 93.0332 37.9643 93.3462 37.5781 93.3462C37.1919 93.3462 36.8789 93.0332 36.8789 92.647V84.3685Z" fill="#F2D15B"/>
<path d="M40.1416 84.3685C40.1416 83.9823 40.4546 83.6693 40.8408 83.6693C41.227 83.6693 41.54 83.9823 41.54 84.3685V92.647C41.54 93.0332 41.227 93.3462 40.8408 93.3462C40.4546 93.3462 40.1416 93.0332 40.1416 92.647V84.3685Z" fill="#E8C753"/>
<path d="M43.4053 84.3685C43.4053 83.9823 43.7183 83.6693 44.1045 83.6693C44.4906 83.6693 44.8037 83.9823 44.8037 84.3685V92.647C44.8037 93.0332 44.4906 93.3462 44.1045 93.3462C43.7183 93.3462 43.4053 93.0332 43.4053 92.647V84.3685Z" fill="#E8C753"/>
<path d="M46.668 84.2519C46.668 83.9301 46.9288 83.6693 47.2506 83.6693C47.5724 83.6693 47.8333 83.9301 47.8333 84.2519V92.7636C47.8333 93.0854 47.5724 93.3462 47.2506 93.3462C46.9288 93.3462 46.668 93.0854 46.668 92.7636V84.2519Z" fill="#E8C753"/>
<path d="M49.6582 84.399C49.6582 84.1486 49.8612 83.9457 50.1115 83.9457C50.3619 83.9457 50.5649 84.1486 50.5649 84.399V92.5856C50.5649 92.836 50.3619 93.039 50.1115 93.039C49.8612 93.039 49.6582 92.836 49.6582 92.5856V84.399Z" fill="#E8C753"/>
</g>
<g filter="url(#filter4_i)">
<path d="M59.1914 84.6225C59.1914 83.621 60.0033 82.8091 61.0048 82.8091H108.152C109.153 82.8091 109.965 83.621 109.965 84.6225V92.1781C109.965 93.1796 109.153 93.9914 108.152 93.9914H61.0048C60.0033 93.9914 59.1914 93.1796 59.1914 92.1781V84.6225Z" fill="#F3C72C"/>
</g>
<g filter="url(#filter5_i)">
<path fill-rule="evenodd" clip-rule="evenodd" d="M61.0047 82.2046H108.152C109.487 82.2046 110.569 83.2871 110.569 84.6224V92.178C110.569 93.5133 109.487 94.5958 108.152 94.5958H61.0047C59.6694 94.5958 58.5869 93.5133 58.5869 92.178V84.6224C58.5869 83.2871 59.6694 82.2046 61.0047 82.2046ZM61.0047 82.8091C60.0032 82.8091 59.1914 83.6209 59.1914 84.6224V92.178C59.1914 93.1795 60.0032 93.9914 61.0047 93.9914H108.152C109.153 93.9914 109.965 93.1795 109.965 92.178V84.6224C109.965 83.6209 109.153 82.8091 108.152 82.8091H61.0047Z" fill="black"/>
</g>
<g filter="url(#filter6_i)">
<path fill-rule="evenodd" clip-rule="evenodd" d="M109.965 84.6225C109.965 83.621 109.153 82.8091 108.152 82.8091H101.732L95.6707 93.9914H108.152C109.153 93.9914 109.965 93.1796 109.965 92.1781V84.6225Z" fill="#DAB227"/>
</g>
<g filter="url(#filter7_i)">
<path d="M59.7959 84.3996C59.7959 84.1492 59.9989 83.9463 60.2492 83.9463C60.4996 83.9463 60.7026 84.1492 60.7026 84.3996V92.5862C60.7026 92.8366 60.4996 93.0396 60.2492 93.0396C59.9989 93.0396 59.7959 92.8366 59.7959 92.5862V84.3996Z" fill="#F2D15B"/>
<path d="M62.6748 84.2519C62.6748 83.9301 62.9357 83.6693 63.2575 83.6693C63.5793 83.6693 63.8401 83.9301 63.8401 84.2519V92.7636C63.8401 93.0854 63.5793 93.3463 63.2575 93.3463C62.9357 93.3463 62.6748 93.0854 62.6748 92.7636V84.2519Z" fill="#F2D15B"/>
<path d="M65.7041 84.3685C65.7041 83.9823 66.0171 83.6693 66.4033 83.6693C66.7895 83.6693 67.1025 83.9823 67.1025 84.3685V92.6471C67.1025 93.0332 66.7895 93.3463 66.4033 93.3463C66.0171 93.3463 65.7041 93.0332 65.7041 92.6471V84.3685Z" fill="#F2D15B"/>
<path d="M68.9678 84.3685C68.9678 83.9823 69.2808 83.6693 69.667 83.6693C70.0531 83.6693 70.3662 83.9823 70.3662 84.3685V92.6471C70.3662 93.0332 70.0531 93.3463 69.667 93.3463C69.2808 93.3463 68.9678 93.0332 68.9678 92.6471V84.3685Z" fill="#F2D15B"/>
<path d="M72.2305 84.3685C72.2305 83.9823 72.5435 83.6693 72.9297 83.6693C73.3158 83.6693 73.6289 83.9823 73.6289 84.3685V92.6471C73.6289 93.0332 73.3158 93.3463 72.9297 93.3463C72.5435 93.3463 72.2305 93.0332 72.2305 92.6471V84.3685Z" fill="#F2D15B"/>
<path d="M75.4932 84.3685C75.4932 83.9823 75.8062 83.6693 76.1924 83.6693C76.5785 83.6693 76.8916 83.9823 76.8916 84.3685V92.6471C76.8916 93.0332 76.5785 93.3463 76.1924 93.3463C75.8062 93.3463 75.4932 93.0332 75.4932 92.6471V84.3685Z" fill="#F2D15B"/>
<path d="M78.7559 84.3685C78.7559 83.9823 79.0689 83.6693 79.4551 83.6693C79.8412 83.6693 80.1543 83.9823 80.1543 84.3685V92.6471C80.1543 93.0332 79.8412 93.3463 79.4551 93.3463C79.0689 93.3463 78.7559 93.0332 78.7559 92.6471V84.3685Z" fill="#F2D15B"/>
<path d="M82.0186 84.3685C82.0186 83.9823 82.3316 83.6693 82.7178 83.6693C83.1039 83.6693 83.417 83.9823 83.417 84.3685V92.6471C83.417 93.0332 83.1039 93.3463 82.7178 93.3463C82.3316 93.3463 82.0186 93.0332 82.0186 92.6471V84.3685Z" fill="#F2D15B"/>
<path d="M85.2822 84.3685C85.2822 83.9823 85.5953 83.6693 85.9814 83.6693C86.3676 83.6693 86.6806 83.9823 86.6806 84.3685V92.6471C86.6806 93.0332 86.3676 93.3463 85.9814 93.3463C85.5953 93.3463 85.2822 93.0332 85.2822 92.6471V84.3685Z" fill="#F2D15B"/>
<path d="M88.5449 84.3685C88.5449 83.9823 88.858 83.6693 89.2441 83.6693C89.6303 83.6693 89.9433 83.9823 89.9433 84.3685V92.6471C89.9433 93.0332 89.6303 93.3463 89.2441 93.3463C88.858 93.3463 88.5449 93.0332 88.5449 92.6471V84.3685Z" fill="#F2D15B"/>
<path d="M91.8076 84.3685C91.8076 83.9823 92.1207 83.6693 92.5068 83.6693C92.893 83.6693 93.206 83.9823 93.206 84.3685V92.6471C93.206 93.0332 92.893 93.3463 92.5068 93.3463C92.1207 93.3463 91.8076 93.0332 91.8076 92.6471V84.3685Z" fill="#F2D15B"/>
<path d="M95.0703 84.3685C95.0703 83.9823 95.3834 83.6693 95.7695 83.6693C96.1557 83.6693 96.4687 83.9823 96.4687 84.3685V92.6471C96.4687 93.0332 96.1557 93.3463 95.7695 93.3463C95.3834 93.3463 95.0703 93.0332 95.0703 92.6471V84.3685Z" fill="#F2D15B"/>
<path d="M98.333 84.3685C98.333 83.9823 98.6461 83.6693 99.0322 83.6693C99.4184 83.6693 99.7314 83.9823 99.7314 84.3685V92.6471C99.7314 93.0332 99.4184 93.3463 99.0322 93.3463C98.6461 93.3463 98.333 93.0332 98.333 92.6471V84.3685Z" fill="#E8C753"/>
<path d="M101.597 84.3685C101.597 83.9823 101.91 83.6693 102.296 83.6693C102.682 83.6693 102.995 83.9823 102.995 84.3685V92.6471C102.995 93.0332 102.682 93.3463 102.296 93.3463C101.91 93.3463 101.597 93.0332 101.597 92.6471V84.3685Z" fill="#E8C753"/>
<path d="M104.859 84.2519C104.859 83.9301 105.12 83.6693 105.442 83.6693C105.764 83.6693 106.025 83.9302 106.025 84.2519V92.7636C106.025 93.0854 105.764 93.3463 105.442 93.3463C105.12 93.3463 104.859 93.0854 104.859 92.7636V84.2519Z" fill="#E8C753"/>
<path d="M107.85 84.399C107.85 84.1487 108.053 83.9457 108.303 83.9457C108.553 83.9457 108.756 84.1487 108.756 84.399V92.5857C108.756 92.836 108.553 93.039 108.303 93.039C108.053 93.039 107.85 92.836 107.85 92.5857V84.399Z" fill="#E8C753"/>
</g>
<g filter="url(#filter8_i)">
<path d="M60.7012 72.8357C60.7012 71.8342 61.513 71.0223 62.5145 71.0223H109.661C110.663 71.0223 111.475 71.8342 111.475 72.8357V80.3913C111.475 81.3927 110.663 82.2046 109.661 82.2046H62.5145C61.513 82.2046 60.7012 81.3927 60.7012 80.3913V72.8357Z" fill="#F3C72C"/>
</g>
<g filter="url(#filter9_i)">
<path fill-rule="evenodd" clip-rule="evenodd" d="M62.5145 70.4178H109.661C110.997 70.4178 112.079 71.5002 112.079 72.8355V80.3912C112.079 81.7265 110.997 82.8089 109.661 82.8089H62.5145C61.1792 82.8089 60.0967 81.7265 60.0967 80.3912V72.8355C60.0967 71.5002 61.1792 70.4178 62.5145 70.4178ZM62.5145 71.0222C61.513 71.0222 60.7011 71.8341 60.7011 72.8355V80.3912C60.7011 81.3926 61.513 82.2045 62.5145 82.2045H109.661C110.663 82.2045 111.475 81.3926 111.475 80.3912V72.8355C111.475 71.8341 110.663 71.0222 109.661 71.0222H62.5145Z" fill="black"/>
</g>
<g filter="url(#filter10_i)">
<path fill-rule="evenodd" clip-rule="evenodd" d="M111.475 72.8357C111.475 71.8342 110.663 71.0223 109.661 71.0223H103.241L97.1805 82.2046H109.661C110.663 82.2046 111.475 81.3927 111.475 80.3913V72.8357Z" fill="#DAB227"/>
</g>
<g filter="url(#filter11_i)">
<path d="M61.3057 72.6128C61.3057 72.3624 61.5086 72.1594 61.759 72.1594C62.0094 72.1594 62.2123 72.3624 62.2123 72.6128V80.7994C62.2123 81.0498 62.0094 81.2527 61.759 81.2527C61.5086 81.2527 61.3057 81.0498 61.3057 80.7994V72.6128Z" fill="#F2D15B"/>
<path d="M64.1846 72.4651C64.1846 72.1433 64.4454 71.8824 64.7672 71.8824C65.089 71.8824 65.3499 72.1433 65.3499 72.4651V80.9767C65.3499 81.2985 65.089 81.5594 64.7672 81.5594C64.4454 81.5594 64.1846 81.2985 64.1846 80.9767V72.4651Z" fill="#F2D15B"/>
<path d="M67.2139 72.5816C67.2139 72.1955 67.5269 71.8824 67.9131 71.8824C68.2992 71.8824 68.6123 72.1955 68.6123 72.5816V80.8602C68.6123 81.2464 68.2992 81.5594 67.9131 81.5594C67.5269 81.5594 67.2139 81.2464 67.2139 80.8602V72.5816Z" fill="#F2D15B"/>
<path d="M70.4775 72.5816C70.4775 72.1955 70.7906 71.8824 71.1767 71.8824C71.5629 71.8824 71.8759 72.1955 71.8759 72.5816V80.8602C71.8759 81.2464 71.5629 81.5594 71.1767 81.5594C70.7906 81.5594 70.4775 81.2464 70.4775 80.8602V72.5816Z" fill="#F2D15B"/>
<path d="M73.7402 72.5816C73.7402 72.1955 74.0533 71.8824 74.4394 71.8824C74.8256 71.8824 75.1386 72.1955 75.1386 72.5816V80.8602C75.1386 81.2464 74.8256 81.5594 74.4394 81.5594C74.0533 81.5594 73.7402 81.2464 73.7402 80.8602V72.5816Z" fill="#F2D15B"/>
<path d="M77.0029 72.5816C77.0029 72.1955 77.316 71.8824 77.7021 71.8824C78.0883 71.8824 78.4013 72.1955 78.4013 72.5816V80.8602C78.4013 81.2464 78.0883 81.5594 77.7021 81.5594C77.316 81.5594 77.0029 81.2464 77.0029 80.8602V72.5816Z" fill="#F2D15B"/>
<path d="M80.2656 72.5816C80.2656 72.1955 80.5787 71.8824 80.9648 71.8824C81.351 71.8824 81.664 72.1955 81.664 72.5816V80.8602C81.664 81.2464 81.351 81.5594 80.9648 81.5594C80.5787 81.5594 80.2656 81.2464 80.2656 80.8602V72.5816Z" fill="#F2D15B"/>
<path d="M83.5283 72.5816C83.5283 72.1955 83.8414 71.8824 84.2275 71.8824C84.6137 71.8824 84.9267 72.1955 84.9267 72.5816V80.8602C84.9267 81.2464 84.6137 81.5594 84.2275 81.5594C83.8414 81.5594 83.5283 81.2464 83.5283 80.8602V72.5816Z" fill="#F2D15B"/>
<path d="M86.792 72.5816C86.792 72.1955 87.105 71.8824 87.4912 71.8824C87.8774 71.8824 88.1904 72.1955 88.1904 72.5816V80.8602C88.1904 81.2464 87.8774 81.5594 87.4912 81.5594C87.105 81.5594 86.792 81.2464 86.792 80.8602V72.5816Z" fill="#F2D15B"/>
<path d="M90.0547 72.5816C90.0547 72.1955 90.3677 71.8824 90.7539 71.8824C91.14 71.8824 91.4531 72.1955 91.4531 72.5816V80.8602C91.4531 81.2464 91.14 81.5594 90.7539 81.5594C90.3677 81.5594 90.0547 81.2464 90.0547 80.8602V72.5816Z" fill="#F2D15B"/>
<path d="M93.3174 72.5816C93.3174 72.1955 93.6304 71.8824 94.0166 71.8824C94.4027 71.8824 94.7158 72.1955 94.7158 72.5816V80.8602C94.7158 81.2464 94.4027 81.5594 94.0166 81.5594C93.6304 81.5594 93.3174 81.2464 93.3174 80.8602V72.5816Z" fill="#F2D15B"/>
<path d="M96.5801 72.5816C96.5801 72.1955 96.8931 71.8824 97.2793 71.8824C97.6654 71.8824 97.9785 72.1955 97.9785 72.5816V80.8602C97.9785 81.2464 97.6654 81.5594 97.2793 81.5594C96.8931 81.5594 96.5801 81.2464 96.5801 80.8602V72.5816Z" fill="#F2D15B"/>
<path d="M99.8428 72.5816C99.8428 72.1955 100.156 71.8824 100.542 71.8824C100.928 71.8824 101.241 72.1955 101.241 72.5816V80.8602C101.241 81.2464 100.928 81.5594 100.542 81.5594C100.156 81.5594 99.8428 81.2464 99.8428 80.8602V72.5816Z" fill="#E8C753"/>
<path d="M103.106 72.5816C103.106 72.1955 103.419 71.8824 103.806 71.8824C104.192 71.8824 104.505 72.1955 104.505 72.5816V80.8602C104.505 81.2464 104.192 81.5594 103.806 81.5594C103.419 81.5594 103.106 81.2464 103.106 80.8602V72.5816Z" fill="#E8C753"/>
<path d="M106.369 72.4651C106.369 72.1433 106.63 71.8824 106.952 71.8824C107.274 71.8824 107.534 72.1433 107.534 72.4651V80.9767C107.534 81.2985 107.274 81.5594 106.952 81.5594C106.63 81.5594 106.369 81.2985 106.369 80.9767V72.4651Z" fill="#E8C753"/>
<path d="M109.359 72.6121C109.359 72.3618 109.562 72.1588 109.813 72.1588C110.063 72.1588 110.266 72.3618 110.266 72.6121V80.7988C110.266 81.0491 110.063 81.2521 109.813 81.2521C109.562 81.2521 109.359 81.0491 109.359 80.7988V72.6121Z" fill="#E8C753"/>
</g>
<g filter="url(#filter12_i)">
<path d="M57.376 61.0488C57.376 60.0474 58.1878 59.2355 59.1893 59.2355H106.336C107.338 59.2355 108.15 60.0474 108.15 61.0488V68.6045C108.15 69.6059 107.338 70.4178 106.336 70.4178H59.1893C58.1878 70.4178 57.376 69.6059 57.376 68.6045V61.0488Z" fill="#F3C72C"/>
</g>
<g filter="url(#filter13_i)">
<path fill-rule="evenodd" clip-rule="evenodd" d="M59.1893 58.631H106.336C107.672 58.631 108.754 59.7134 108.754 61.0487V68.6044C108.754 69.9397 107.672 71.0221 106.336 71.0221H59.1893C57.854 71.0221 56.7715 69.9397 56.7715 68.6044V61.0487C56.7715 59.7134 57.854 58.631 59.1893 58.631ZM59.1893 59.2354C58.1878 59.2354 57.3759 60.0473 57.3759 61.0487V68.6044C57.3759 69.6058 58.1878 70.4177 59.1893 70.4177H106.336C107.338 70.4177 108.15 69.6058 108.15 68.6044V61.0487C108.15 60.0473 107.338 59.2354 106.336 59.2354H59.1893Z" fill="black"/>
</g>
<g filter="url(#filter14_i)">
<path fill-rule="evenodd" clip-rule="evenodd" d="M108.15 61.0488C108.15 60.0474 107.338 59.2355 106.336 59.2355H99.9161L93.8553 70.4178H106.336C107.338 70.4178 108.15 69.6059 108.15 68.6045V61.0488Z" fill="#DAB227"/>
</g>
<g filter="url(#filter15_i)">
<path d="M57.9805 60.826C57.9805 60.5756 58.1834 60.3726 58.4338 60.3726C58.6842 60.3726 58.8871 60.5756 58.8871 60.826V69.0126C58.8871 69.2629 58.6842 69.4659 58.4338 69.4659C58.1834 69.4659 57.9805 69.2629 57.9805 69.0126V60.826Z" fill="#F2D15B"/>
<path d="M60.8594 60.6783C60.8594 60.3565 61.1202 60.0956 61.442 60.0956C61.7638 60.0956 62.0247 60.3565 62.0247 60.6783V69.1899C62.0247 69.5117 61.7638 69.7726 61.442 69.7726C61.1202 69.7726 60.8594 69.5117 60.8594 69.1899V60.6783Z" fill="#F2D15B"/>
<path d="M63.8887 60.7948C63.8887 60.4087 64.2017 60.0956 64.5879 60.0956C64.974 60.0956 65.2871 60.4087 65.2871 60.7948V69.0734C65.2871 69.4596 64.974 69.7726 64.5879 69.7726C64.2017 69.7726 63.8887 69.4596 63.8887 69.0734V60.7948Z" fill="#F2D15B"/>
<path d="M67.1523 60.7948C67.1523 60.4087 67.4654 60.0956 67.8515 60.0956C68.2377 60.0956 68.5507 60.4087 68.5507 60.7948V69.0734C68.5507 69.4596 68.2377 69.7726 67.8515 69.7726C67.4654 69.7726 67.1523 69.4596 67.1523 69.0734V60.7948Z" fill="#F2D15B"/>
<path d="M70.415 60.7948C70.415 60.4087 70.7281 60.0956 71.1142 60.0956C71.5004 60.0956 71.8134 60.4087 71.8134 60.7948V69.0734C71.8134 69.4596 71.5004 69.7726 71.1142 69.7726C70.7281 69.7726 70.415 69.4596 70.415 69.0734V60.7948Z" fill="#F2D15B"/>
<path d="M73.6777 60.7948C73.6777 60.4087 73.9908 60.0956 74.3769 60.0956C74.7631 60.0956 75.0761 60.4087 75.0761 60.7948V69.0734C75.0761 69.4596 74.7631 69.7726 74.3769 69.7726C73.9908 69.7726 73.6777 69.4596 73.6777 69.0734V60.7948Z" fill="#F2D15B"/>
<path d="M76.9404 60.7948C76.9404 60.4087 77.2535 60.0956 77.6396 60.0956C78.0258 60.0956 78.3388 60.4087 78.3388 60.7948V69.0734C78.3388 69.4596 78.0258 69.7726 77.6396 69.7726C77.2535 69.7726 76.9404 69.4596 76.9404 69.0734V60.7948Z" fill="#F2D15B"/>
<path d="M80.2031 60.7948C80.2031 60.4087 80.5162 60.0956 80.9023 60.0956C81.2885 60.0956 81.6015 60.4087 81.6015 60.7948V69.0734C81.6015 69.4596 81.2885 69.7726 80.9023 69.7726C80.5162 69.7726 80.2031 69.4596 80.2031 69.0734V60.7948Z" fill="#F2D15B"/>
<path d="M83.4668 60.7948C83.4668 60.4087 83.7798 60.0956 84.166 60.0956C84.5522 60.0956 84.8652 60.4087 84.8652 60.7948V69.0734C84.8652 69.4596 84.5522 69.7726 84.166 69.7726C83.7798 69.7726 83.4668 69.4596 83.4668 69.0734V60.7948Z" fill="#F2D15B"/>
<path d="M86.7295 60.7948C86.7295 60.4087 87.0425 60.0956 87.4287 60.0956C87.8149 60.0956 88.1279 60.4087 88.1279 60.7948V69.0734C88.1279 69.4596 87.8149 69.7726 87.4287 69.7726C87.0425 69.7726 86.7295 69.4596 86.7295 69.0734V60.7948Z" fill="#F2D15B"/>
<path d="M89.9922 60.7948C89.9922 60.4087 90.3052 60.0956 90.6914 60.0956C91.0775 60.0956 91.3906 60.4087 91.3906 60.7948V69.0734C91.3906 69.4596 91.0775 69.7726 90.6914 69.7726C90.3052 69.7726 89.9922 69.4596 89.9922 69.0734V60.7948Z" fill="#F2D15B"/>
<path d="M93.2549 60.7948C93.2549 60.4087 93.5679 60.0956 93.9541 60.0956C94.3402 60.0956 94.6533 60.4087 94.6533 60.7948V69.0734C94.6533 69.4596 94.3402 69.7726 93.9541 69.7726C93.5679 69.7726 93.2549 69.4596 93.2549 69.0734V60.7948Z" fill="#F2D15B"/>
<path d="M96.5176 60.7948C96.5176 60.4087 96.8306 60.0956 97.2168 60.0956C97.6029 60.0956 97.916 60.4087 97.916 60.7948V69.0734C97.916 69.4596 97.6029 69.7726 97.2168 69.7726C96.8306 69.7726 96.5176 69.4596 96.5176 69.0734V60.7948Z" fill="#E8C753"/>
<path d="M99.7812 60.7948C99.7812 60.4087 100.094 60.0956 100.48 60.0956C100.867 60.0956 101.18 60.4087 101.18 60.7948V69.0734C101.18 69.4596 100.867 69.7726 100.48 69.7726C100.094 69.7726 99.7812 69.4596 99.7812 69.0734V60.7948Z" fill="#E8C753"/>
<path d="M103.044 60.6783C103.044 60.3565 103.305 60.0956 103.627 60.0956C103.948 60.0956 104.209 60.3565 104.209 60.6783V69.1899C104.209 69.5117 103.948 69.7726 103.627 69.7726C103.305 69.7726 103.044 69.5117 103.044 69.1899V60.6783Z" fill="#E8C753"/>
<path d="M106.034 60.8253C106.034 60.575 106.237 60.372 106.488 60.372C106.738 60.372 106.941 60.575 106.941 60.8253V69.012C106.941 69.2623 106.738 69.4653 106.488 69.4653C106.237 69.4653 106.034 69.2623 106.034 69.012V60.8253Z" fill="#E8C753"/>
</g>
<g filter="url(#filter16_i)">
<path d="M121.137 84.6225C121.137 83.621 121.949 82.8091 122.95 82.8091H170.097C171.099 82.8091 171.91 83.621 171.91 84.6225V92.1781C171.91 93.1795 171.099 93.9914 170.097 93.9914H122.95C121.949 93.9914 121.137 93.1795 121.137 92.1781V84.6225Z" fill="#F3C72C"/>
</g>
<g filter="url(#filter17_i)">
<path fill-rule="evenodd" clip-rule="evenodd" d="M122.95 82.2046H170.097C171.432 82.2046 172.515 83.2871 172.515 84.6224V92.178C172.515 93.5133 171.432 94.5958 170.097 94.5958H122.95C121.615 94.5958 120.532 93.5133 120.532 92.178V84.6224C120.532 83.2871 121.615 82.2046 122.95 82.2046ZM122.95 82.809C121.949 82.809 121.137 83.6209 121.137 84.6224V92.178C121.137 93.1795 121.949 93.9913 122.95 93.9913H170.097C171.098 93.9913 171.91 93.1795 171.91 92.178V84.6224C171.91 83.6209 171.098 82.809 170.097 82.809H122.95Z" fill="black"/>
</g>
<g filter="url(#filter18_i)">
<path fill-rule="evenodd" clip-rule="evenodd" d="M171.91 84.6225C171.91 83.621 171.099 82.8091 170.097 82.8091H163.677L157.616 93.9914H170.097C171.099 93.9914 171.91 93.1795 171.91 92.1781V84.6225Z" fill="#DAB227"/>
</g>
<g filter="url(#filter19_i)">
<path d="M121.741 84.3996C121.741 84.1492 121.944 83.9462 122.195 83.9462C122.445 83.9462 122.648 84.1492 122.648 84.3996V92.5862C122.648 92.8366 122.445 93.0395 122.195 93.0395C121.944 93.0395 121.741 92.8366 121.741 92.5862V84.3996Z" fill="#F2D15B"/>
<path d="M124.62 84.2519C124.62 83.9301 124.881 83.6693 125.203 83.6693C125.525 83.6693 125.785 83.9301 125.785 84.2519V92.7636C125.785 93.0854 125.525 93.3462 125.203 93.3462C124.881 93.3462 124.62 93.0854 124.62 92.7636V84.2519Z" fill="#F2D15B"/>
<path d="M127.649 84.3685C127.649 83.9823 127.962 83.6693 128.349 83.6693C128.735 83.6693 129.048 83.9823 129.048 84.3685V92.647C129.048 93.0332 128.735 93.3462 128.349 93.3462C127.962 93.3462 127.649 93.0332 127.649 92.647V84.3685Z" fill="#F2D15B"/>
<path d="M130.913 84.3685C130.913 83.9823 131.226 83.6693 131.612 83.6693C131.998 83.6693 132.311 83.9823 132.311 84.3685V92.647C132.311 93.0332 131.998 93.3462 131.612 93.3462C131.226 93.3462 130.913 93.0332 130.913 92.647V84.3685Z" fill="#F2D15B"/>
<path d="M134.176 84.3685C134.176 83.9823 134.489 83.6693 134.875 83.6693C135.261 83.6693 135.574 83.9823 135.574 84.3685V92.647C135.574 93.0332 135.261 93.3462 134.875 93.3462C134.489 93.3462 134.176 93.0332 134.176 92.647V84.3685Z" fill="#F2D15B"/>
<path d="M137.438 84.3685C137.438 83.9823 137.752 83.6693 138.138 83.6693C138.524 83.6693 138.837 83.9823 138.837 84.3685V92.647C138.837 93.0332 138.524 93.3462 138.138 93.3462C137.752 93.3462 137.438 93.0332 137.438 92.647V84.3685Z" fill="#F2D15B"/>
<path d="M140.701 84.3685C140.701 83.9823 141.014 83.6693 141.4 83.6693C141.787 83.6693 142.1 83.9823 142.1 84.3685V92.647C142.1 93.0332 141.787 93.3462 141.4 93.3462C141.014 93.3462 140.701 93.0332 140.701 92.647V84.3685Z" fill="#F2D15B"/>
<path d="M143.964 84.3685C143.964 83.9823 144.277 83.6693 144.663 83.6693C145.049 83.6693 145.362 83.9823 145.362 84.3685V92.647C145.362 93.0332 145.049 93.3462 144.663 93.3462C144.277 93.3462 143.964 93.0332 143.964 92.647V84.3685Z" fill="#F2D15B"/>
<path d="M147.228 84.3685C147.228 83.9823 147.541 83.6693 147.927 83.6693C148.313 83.6693 148.626 83.9823 148.626 84.3685V92.647C148.626 93.0332 148.313 93.3462 147.927 93.3462C147.541 93.3462 147.228 93.0332 147.228 92.647V84.3685Z" fill="#F2D15B"/>
<path d="M150.49 84.3685C150.49 83.9823 150.803 83.6693 151.189 83.6693C151.576 83.6693 151.889 83.9823 151.889 84.3685V92.647C151.889 93.0332 151.576 93.3462 151.189 93.3462C150.803 93.3462 150.49 93.0332 150.49 92.647V84.3685Z" fill="#F2D15B"/>
<path d="M153.753 84.3685C153.753 83.9823 154.066 83.6693 154.452 83.6693C154.838 83.6693 155.151 83.9823 155.151 84.3685V92.647C155.151 93.0332 154.838 93.3462 154.452 93.3462C154.066 93.3462 153.753 93.0332 153.753 92.647V84.3685Z" fill="#F2D15B"/>
<path d="M157.016 84.3685C157.016 83.9823 157.329 83.6693 157.715 83.6693C158.101 83.6693 158.414 83.9823 158.414 84.3685V92.647C158.414 93.0332 158.101 93.3462 157.715 93.3462C157.329 93.3462 157.016 93.0332 157.016 92.647V84.3685Z" fill="#F2D15B"/>
<path d="M160.278 84.3685C160.278 83.9823 160.591 83.6693 160.978 83.6693C161.364 83.6693 161.677 83.9823 161.677 84.3685V92.647C161.677 93.0332 161.364 93.3462 160.978 93.3462C160.591 93.3462 160.278 93.0332 160.278 92.647V84.3685Z" fill="#E8C753"/>
<path d="M163.542 84.3685C163.542 83.9823 163.855 83.6693 164.241 83.6693C164.627 83.6693 164.94 83.9823 164.94 84.3685V92.647C164.94 93.0332 164.627 93.3462 164.241 93.3462C163.855 93.3462 163.542 93.0332 163.542 92.647V84.3685Z" fill="#E8C753"/>
<path d="M166.805 84.2519C166.805 83.9301 167.066 83.6693 167.387 83.6693C167.709 83.6693 167.97 83.9301 167.97 84.2519V92.7636C167.97 93.0854 167.709 93.3462 167.387 93.3462C167.066 93.3462 166.805 93.0854 166.805 92.7636V84.2519Z" fill="#E8C753"/>
<path d="M169.795 84.399C169.795 84.1486 169.998 83.9457 170.248 83.9457C170.499 83.9457 170.702 84.1486 170.702 84.399V92.5856C170.702 92.836 170.499 93.039 170.248 93.039C169.998 93.039 169.795 92.836 169.795 92.5856V84.399Z" fill="#E8C753"/>
</g>
<g filter="url(#filter20_i)">
<path d="M119.627 72.8357C119.627 71.8342 120.439 71.0223 121.44 71.0223H168.587C169.589 71.0223 170.401 71.8342 170.401 72.8357V80.3913C170.401 81.3927 169.589 82.2046 168.587 82.2046H121.44C120.439 82.2046 119.627 81.3927 119.627 80.3913V72.8357Z" fill="#F3C72C"/>
</g>
<g filter="url(#filter21_i)">
<path fill-rule="evenodd" clip-rule="evenodd" d="M121.44 70.4178H168.587C169.923 70.4178 171.005 71.5002 171.005 72.8355V80.3912C171.005 81.7265 169.923 82.8089 168.587 82.8089H121.44C120.105 82.8089 119.022 81.7265 119.022 80.3912V72.8355C119.022 71.5002 120.105 70.4178 121.44 70.4178ZM121.44 71.0222C120.439 71.0222 119.627 71.8341 119.627 72.8355V80.3912C119.627 81.3926 120.439 82.2045 121.44 82.2045H168.587C169.589 82.2045 170.401 81.3926 170.401 80.3912V72.8355C170.401 71.8341 169.589 71.0222 168.587 71.0222H121.44Z" fill="black"/>
</g>
<g filter="url(#filter22_i)">
<path fill-rule="evenodd" clip-rule="evenodd" d="M170.401 72.8357C170.401 71.8342 169.589 71.0223 168.587 71.0223H162.167L156.106 82.2046H168.587C169.589 82.2046 170.401 81.3927 170.401 80.3913V72.8357Z" fill="#DAB227"/>
</g>
<g filter="url(#filter23_i)">
<path d="M120.231 72.6128C120.231 72.3624 120.434 72.1594 120.685 72.1594C120.935 72.1594 121.138 72.3624 121.138 72.6128V80.7994C121.138 81.0498 120.935 81.2527 120.685 81.2527C120.434 81.2527 120.231 81.0498 120.231 80.7994V72.6128Z" fill="#F2D15B"/>
<path d="M123.11 72.4651C123.11 72.1433 123.371 71.8824 123.693 71.8824C124.015 71.8824 124.276 72.1433 124.276 72.4651V80.9767C124.276 81.2985 124.015 81.5594 123.693 81.5594C123.371 81.5594 123.11 81.2985 123.11 80.9767V72.4651Z" fill="#F2D15B"/>
<path d="M126.14 72.5816C126.14 72.1955 126.453 71.8824 126.839 71.8824C127.225 71.8824 127.538 72.1955 127.538 72.5816V80.8602C127.538 81.2464 127.225 81.5594 126.839 81.5594C126.453 81.5594 126.14 81.2464 126.14 80.8602V72.5816Z" fill="#F2D15B"/>
<path d="M129.403 72.5816C129.403 72.1955 129.716 71.8824 130.103 71.8824C130.489 71.8824 130.802 72.1955 130.802 72.5816V80.8602C130.802 81.2464 130.489 81.5594 130.103 81.5594C129.716 81.5594 129.403 81.2464 129.403 80.8602V72.5816Z" fill="#F2D15B"/>
<path d="M132.666 72.5816C132.666 72.1955 132.979 71.8824 133.365 71.8824C133.751 71.8824 134.064 72.1955 134.064 72.5816V80.8602C134.064 81.2464 133.751 81.5594 133.365 81.5594C132.979 81.5594 132.666 81.2464 132.666 80.8602V72.5816Z" fill="#F2D15B"/>
<path d="M135.929 72.5816C135.929 72.1955 136.242 71.8824 136.628 71.8824C137.014 71.8824 137.327 72.1955 137.327 72.5816V80.8602C137.327 81.2464 137.014 81.5594 136.628 81.5594C136.242 81.5594 135.929 81.2464 135.929 80.8602V72.5816Z" fill="#F2D15B"/>
<path d="M139.191 72.5816C139.191 72.1955 139.504 71.8824 139.891 71.8824C140.277 71.8824 140.59 72.1955 140.59 72.5816V80.8602C140.59 81.2464 140.277 81.5594 139.891 81.5594C139.504 81.5594 139.191 81.2464 139.191 80.8602V72.5816Z" fill="#F2D15B"/>
<path d="M142.454 72.5816C142.454 72.1955 142.767 71.8824 143.153 71.8824C143.539 71.8824 143.852 72.1955 143.852 72.5816V80.8602C143.852 81.2464 143.539 81.5594 143.153 81.5594C142.767 81.5594 142.454 81.2464 142.454 80.8602V72.5816Z" fill="#F2D15B"/>
<path d="M145.718 72.5816C145.718 72.1955 146.031 71.8824 146.417 71.8824C146.803 71.8824 147.116 72.1955 147.116 72.5816V80.8602C147.116 81.2464 146.803 81.5594 146.417 81.5594C146.031 81.5594 145.718 81.2464 145.718 80.8602V72.5816Z" fill="#F2D15B"/>
<path d="M148.98 72.5816C148.98 72.1955 149.294 71.8824 149.68 71.8824C150.066 71.8824 150.379 72.1955 150.379 72.5816V80.8602C150.379 81.2464 150.066 81.5594 149.68 81.5594C149.294 81.5594 148.98 81.2464 148.98 80.8602V72.5816Z" fill="#F2D15B"/>
<path d="M152.243 72.5816C152.243 72.1955 152.556 71.8824 152.942 71.8824C153.329 71.8824 153.642 72.1955 153.642 72.5816V80.8602C153.642 81.2464 153.329 81.5594 152.942 81.5594C152.556 81.5594 152.243 81.2464 152.243 80.8602V72.5816Z" fill="#F2D15B"/>
<path d="M155.506 72.5816C155.506 72.1955 155.819 71.8824 156.205 71.8824C156.591 71.8824 156.904 72.1955 156.904 72.5816V80.8602C156.904 81.2464 156.591 81.5594 156.205 81.5594C155.819 81.5594 155.506 81.2464 155.506 80.8602V72.5816Z" fill="#F2D15B"/>
<path d="M158.769 72.5816C158.769 72.1955 159.082 71.8824 159.468 71.8824C159.854 71.8824 160.167 72.1955 160.167 72.5816V80.8602C160.167 81.2464 159.854 81.5594 159.468 81.5594C159.082 81.5594 158.769 81.2464 158.769 80.8602V72.5816Z" fill="#E8C753"/>
<path d="M162.032 72.5816C162.032 72.1955 162.345 71.8824 162.731 71.8824C163.118 71.8824 163.431 72.1955 163.431 72.5816V80.8602C163.431 81.2464 163.118 81.5594 162.731 81.5594C162.345 81.5594 162.032 81.2464 162.032 80.8602V72.5816Z" fill="#E8C753"/>
<path d="M165.295 72.4651C165.295 72.1433 165.556 71.8824 165.878 71.8824C166.199 71.8824 166.46 72.1433 166.46 72.4651V80.9767C166.46 81.2985 166.199 81.5594 165.878 81.5594C165.556 81.5594 165.295 81.2985 165.295 80.9767V72.4651Z" fill="#E8C753"/>
<path d="M168.285 72.6121C168.285 72.3618 168.488 72.1588 168.738 72.1588C168.989 72.1588 169.192 72.3618 169.192 72.6121V80.7988C169.192 81.0491 168.989 81.2521 168.738 81.2521C168.488 81.2521 168.285 81.0491 168.285 80.7988V72.6121Z" fill="#E8C753"/>
</g>
<g filter="url(#filter24_i)">
<path d="M122.346 61.0488C122.346 60.0474 123.158 59.2355 124.159 59.2355H171.306C172.308 59.2355 173.119 60.0474 173.119 61.0488V68.6045C173.119 69.6059 172.308 70.4178 171.306 70.4178H124.159C123.158 70.4178 122.346 69.6059 122.346 68.6045V61.0488Z" fill="#F3C72C"/>
</g>
<g filter="url(#filter25_i)">
<path fill-rule="evenodd" clip-rule="evenodd" d="M124.159 58.631H171.306C172.641 58.631 173.724 59.7134 173.724 61.0487V68.6044C173.724 69.9397 172.641 71.0221 171.306 71.0221H124.159C122.824 71.0221 121.741 69.9397 121.741 68.6044V61.0487C121.741 59.7134 122.824 58.631 124.159 58.631ZM124.159 59.2354C123.158 59.2354 122.346 60.0473 122.346 61.0487V68.6044C122.346 69.6058 123.158 70.4177 124.159 70.4177H171.306C172.307 70.4177 173.119 69.6058 173.119 68.6044V61.0487C173.119 60.0473 172.307 59.2354 171.306 59.2354H124.159Z" fill="black"/>
</g>
<g filter="url(#filter26_i)">
<path fill-rule="evenodd" clip-rule="evenodd" d="M173.119 61.0488C173.119 60.0474 172.308 59.2355 171.306 59.2355H164.886L158.825 70.4178H171.306C172.308 70.4178 173.119 69.6059 173.119 68.6045V61.0488Z" fill="#DAB227"/>
</g>
<g filter="url(#filter27_i)">
<path d="M122.95 60.826C122.95 60.5756 123.153 60.3726 123.404 60.3726C123.654 60.3726 123.857 60.5756 123.857 60.826V69.0126C123.857 69.2629 123.654 69.4659 123.404 69.4659C123.153 69.4659 122.95 69.2629 122.95 69.0126V60.826Z" fill="#F2D15B"/>
<path d="M125.829 60.6783C125.829 60.3565 126.09 60.0956 126.412 60.0956C126.734 60.0956 126.994 60.3565 126.994 60.6783V69.1899C126.994 69.5117 126.734 69.7726 126.412 69.7726C126.09 69.7726 125.829 69.5117 125.829 69.1899V60.6783Z" fill="#F2D15B"/>
<path d="M128.858 60.7948C128.858 60.4087 129.171 60.0956 129.558 60.0956C129.944 60.0956 130.257 60.4087 130.257 60.7948V69.0734C130.257 69.4596 129.944 69.7726 129.558 69.7726C129.171 69.7726 128.858 69.4596 128.858 69.0734V60.7948Z" fill="#F2D15B"/>
<path d="M132.122 60.7948C132.122 60.4087 132.435 60.0956 132.821 60.0956C133.207 60.0956 133.52 60.4087 133.52 60.7948V69.0734C133.52 69.4596 133.207 69.7726 132.821 69.7726C132.435 69.7726 132.122 69.4596 132.122 69.0734V60.7948Z" fill="#F2D15B"/>
<path d="M135.385 60.7948C135.385 60.4087 135.698 60.0956 136.084 60.0956C136.47 60.0956 136.783 60.4087 136.783 60.7948V69.0734C136.783 69.4596 136.47 69.7726 136.084 69.7726C135.698 69.7726 135.385 69.4596 135.385 69.0734V60.7948Z" fill="#F2D15B"/>
<path d="M138.647 60.7948C138.647 60.4087 138.961 60.0956 139.347 60.0956C139.733 60.0956 140.046 60.4087 140.046 60.7948V69.0734C140.046 69.4596 139.733 69.7726 139.347 69.7726C138.961 69.7726 138.647 69.4596 138.647 69.0734V60.7948Z" fill="#F2D15B"/>
<path d="M141.91 60.7948C141.91 60.4087 142.223 60.0956 142.609 60.0956C142.996 60.0956 143.309 60.4087 143.309 60.7948V69.0734C143.309 69.4596 142.996 69.7726 142.609 69.7726C142.223 69.7726 141.91 69.4596 141.91 69.0734V60.7948Z" fill="#F2D15B"/>
<path d="M145.173 60.7948C145.173 60.4087 145.486 60.0956 145.872 60.0956C146.258 60.0956 146.571 60.4087 146.571 60.7948V69.0734C146.571 69.4596 146.258 69.7726 145.872 69.7726C145.486 69.7726 145.173 69.4596 145.173 69.0734V60.7948Z" fill="#F2D15B"/>
<path d="M148.437 60.7948C148.437 60.4087 148.75 60.0956 149.136 60.0956C149.522 60.0956 149.835 60.4087 149.835 60.7948V69.0734C149.835 69.4596 149.522 69.7726 149.136 69.7726C148.75 69.7726 148.437 69.4596 148.437 69.0734V60.7948Z" fill="#F2D15B"/>
<path d="M151.699 60.7948C151.699 60.4087 152.012 60.0956 152.398 60.0956C152.785 60.0956 153.098 60.4087 153.098 60.7948V69.0734C153.098 69.4596 152.785 69.7726 152.398 69.7726C152.012 69.7726 151.699 69.4596 151.699 69.0734V60.7948Z" fill="#F2D15B"/>
<path d="M154.962 60.7948C154.962 60.4087 155.275 60.0956 155.661 60.0956C156.047 60.0956 156.36 60.4087 156.36 60.7948V69.0734C156.36 69.4596 156.047 69.7726 155.661 69.7726C155.275 69.7726 154.962 69.4596 154.962 69.0734V60.7948Z" fill="#F2D15B"/>
<path d="M158.225 60.7948C158.225 60.4087 158.538 60.0956 158.924 60.0956C159.31 60.0956 159.623 60.4087 159.623 60.7948V69.0734C159.623 69.4596 159.31 69.7726 158.924 69.7726C158.538 69.7726 158.225 69.4596 158.225 69.0734V60.7948Z" fill="#F2D15B"/>
<path d="M161.487 60.7948C161.487 60.4087 161.8 60.0956 162.187 60.0956C162.573 60.0956 162.886 60.4087 162.886 60.7948V69.0734C162.886 69.4596 162.573 69.7726 162.187 69.7726C161.8 69.7726 161.487 69.4596 161.487 69.0734V60.7948Z" fill="#E8C753"/>
<path d="M164.751 60.7948C164.751 60.4087 165.064 60.0956 165.45 60.0956C165.836 60.0956 166.149 60.4087 166.149 60.7948V69.0734C166.149 69.4596 165.836 69.7726 165.45 69.7726C165.064 69.7726 164.751 69.4596 164.751 69.0734V60.7948Z" fill="#E8C753"/>
<path d="M168.014 60.6783C168.014 60.3565 168.275 60.0956 168.596 60.0956C168.918 60.0956 169.179 60.3565 169.179 60.6783V69.1899C169.179 69.5117 168.918 69.7726 168.596 69.7726C168.275 69.7726 168.014 69.5117 168.014 69.1899V60.6783Z" fill="#E8C753"/>
<path d="M171.004 60.8253C171.004 60.575 171.207 60.372 171.457 60.372C171.708 60.372 171.911 60.575 171.911 60.8253V69.012C171.911 69.2623 171.708 69.4653 171.457 69.4653C171.207 69.4653 171.004 69.2623 171.004 69.012V60.8253Z" fill="#E8C753"/>
</g>
<g filter="url(#filter28_i)">
<path d="M133.227 49.262C133.227 48.2606 134.038 47.4487 135.04 47.4487H182.187C183.188 47.4487 184 48.2606 184 49.262V56.8177C184 57.8191 183.188 58.631 182.187 58.631H135.04C134.038 58.631 133.227 57.8191 133.227 56.8177V49.262Z" fill="#F3C72C"/>
</g>
<g filter="url(#filter29_i)">
<path fill-rule="evenodd" clip-rule="evenodd" d="M135.04 46.8441H182.187C183.522 46.8441 184.605 47.9266 184.605 49.2619V56.8175C184.605 58.1529 183.522 59.2353 182.187 59.2353H135.04C133.705 59.2353 132.622 58.1529 132.622 56.8175V49.2619C132.622 47.9266 133.705 46.8441 135.04 46.8441ZM135.04 47.4486C134.038 47.4486 133.227 48.2605 133.227 49.2619V56.8175C133.227 57.819 134.038 58.6309 135.04 58.6309H182.187C183.188 58.6309 184 57.819 184 56.8175V49.2619C184 48.2605 183.188 47.4486 182.187 47.4486H135.04Z" fill="black"/>
</g>
<g filter="url(#filter30_i)">
<path fill-rule="evenodd" clip-rule="evenodd" d="M184 49.262C184 48.2606 183.188 47.4487 182.187 47.4487H175.767L169.706 58.631H182.187C183.188 58.631 184 57.8191 184 56.8176V49.262Z" fill="#DAB227"/>
</g>
<g filter="url(#filter31_i)">
<path d="M133.831 49.0392C133.831 48.7888 134.034 48.5858 134.284 48.5858C134.535 48.5858 134.738 48.7888 134.738 49.0392V57.2258C134.738 57.4761 134.535 57.6791 134.284 57.6791C134.034 57.6791 133.831 57.4761 133.831 57.2258V49.0392Z" fill="#F2D15B"/>
<path d="M136.71 48.8915C136.71 48.5697 136.971 48.3088 137.293 48.3088C137.614 48.3088 137.875 48.5697 137.875 48.8915V57.4031C137.875 57.7249 137.614 57.9858 137.293 57.9858C136.971 57.9858 136.71 57.7249 136.71 57.4031V48.8915Z" fill="#F2D15B"/>
<path d="M139.739 49.008C139.739 48.6218 140.052 48.3088 140.438 48.3088C140.825 48.3088 141.138 48.6218 141.138 49.008V57.2866C141.138 57.6728 140.825 57.9858 140.438 57.9858C140.052 57.9858 139.739 57.6728 139.739 57.2866V49.008Z" fill="#F2D15B"/>
<path d="M143.003 49.008C143.003 48.6218 143.316 48.3088 143.702 48.3088C144.088 48.3088 144.401 48.6218 144.401 49.008V57.2866C144.401 57.6728 144.088 57.9858 143.702 57.9858C143.316 57.9858 143.003 57.6728 143.003 57.2866V49.008Z" fill="#F2D15B"/>
<path d="M146.266 49.008C146.266 48.6218 146.579 48.3088 146.965 48.3088C147.351 48.3088 147.664 48.6218 147.664 49.008V57.2866C147.664 57.6728 147.351 57.9858 146.965 57.9858C146.579 57.9858 146.266 57.6728 146.266 57.2866V49.008Z" fill="#F2D15B"/>
<path d="M149.528 49.008C149.528 48.6218 149.841 48.3088 150.228 48.3088C150.614 48.3088 150.927 48.6218 150.927 49.008V57.2866C150.927 57.6728 150.614 57.9858 150.228 57.9858C149.841 57.9858 149.528 57.6728 149.528 57.2866V49.008Z" fill="#F2D15B"/>
<path d="M152.791 49.008C152.791 48.6218 153.104 48.3088 153.49 48.3088C153.876 48.3088 154.189 48.6218 154.189 49.008V57.2866C154.189 57.6728 153.876 57.9858 153.49 57.9858C153.104 57.9858 152.791 57.6728 152.791 57.2866V49.008Z" fill="#F2D15B"/>
<path d="M156.054 49.008C156.054 48.6218 156.367 48.3088 156.753 48.3088C157.139 48.3088 157.452 48.6218 157.452 49.008V57.2866C157.452 57.6728 157.139 57.9858 156.753 57.9858C156.367 57.9858 156.054 57.6728 156.054 57.2866V49.008Z" fill="#F2D15B"/>
<path d="M159.317 49.008C159.317 48.6218 159.63 48.3088 160.017 48.3088C160.403 48.3088 160.716 48.6218 160.716 49.008V57.2866C160.716 57.6728 160.403 57.9858 160.017 57.9858C159.63 57.9858 159.317 57.6728 159.317 57.2866V49.008Z" fill="#F2D15B"/>
<path d="M162.58 49.008C162.58 48.6218 162.893 48.3088 163.279 48.3088C163.665 48.3088 163.978 48.6218 163.978 49.008V57.2866C163.978 57.6728 163.665 57.9858 163.279 57.9858C162.893 57.9858 162.58 57.6728 162.58 57.2866V49.008Z" fill="#F2D15B"/>
<path d="M165.843 49.008C165.843 48.6218 166.156 48.3088 166.542 48.3088C166.928 48.3088 167.241 48.6218 167.241 49.008V57.2866C167.241 57.6728 166.928 57.9858 166.542 57.9858C166.156 57.9858 165.843 57.6728 165.843 57.2866V49.008Z" fill="#F2D15B"/>
<path d="M169.105 49.008C169.105 48.6218 169.419 48.3088 169.805 48.3088C170.191 48.3088 170.504 48.6218 170.504 49.008V57.2866C170.504 57.6728 170.191 57.9858 169.805 57.9858C169.419 57.9858 169.105 57.6728 169.105 57.2866V49.008Z" fill="#F2D15B"/>
<path d="M172.368 49.008C172.368 48.6218 172.681 48.3088 173.067 48.3088C173.454 48.3088 173.767 48.6218 173.767 49.008V57.2866C173.767 57.6728 173.454 57.9858 173.067 57.9858C172.681 57.9858 172.368 57.6728 172.368 57.2866V49.008Z" fill="#E8C753"/>
<path d="M175.632 49.008C175.632 48.6218 175.945 48.3088 176.331 48.3088C176.717 48.3088 177.03 48.6218 177.03 49.008V57.2866C177.03 57.6728 176.717 57.9858 176.331 57.9858C175.945 57.9858 175.632 57.6728 175.632 57.2866V49.008Z" fill="#E8C753"/>
<path d="M178.895 48.8915C178.895 48.5697 179.155 48.3088 179.477 48.3088C179.799 48.3088 180.06 48.5697 180.06 48.8915V57.4031C180.06 57.7249 179.799 57.9858 179.477 57.9858C179.155 57.9858 178.895 57.7249 178.895 57.4031V48.8915Z" fill="#E8C753"/>
<path d="M181.885 49.0385C181.885 48.7882 182.088 48.5852 182.338 48.5852C182.588 48.5852 182.791 48.7882 182.791 49.0385V57.2252C182.791 57.4755 182.588 57.6785 182.338 57.6785C182.088 57.6785 181.885 57.4755 181.885 57.2252V49.0385Z" fill="#E8C753"/>
</g>
<defs>
<filter id="filter0_i" x="-4" y="79.8091" width="55.7737" height="14.1823" filterUnits="userSpaceOnUse" color-interpolation-filters="sRGB">
<feFlood flood-opacity="0" result="BackgroundImageFix"/>
<feBlend mode="normal" in="SourceGraphic" in2="BackgroundImageFix" result="shape"/>
<feColorMatrix in="SourceAlpha" type="matrix" values="0 0 0 0 0 0 0 0 0 0 0 0 0 0 0 0 0 0 127 0" result="hardAlpha"/>
<feOffset dx="-5" dy="-3"/>
<feGaussianBlur stdDeviation="5"/>
<feComposite in2="hardAlpha" operator="arithmetic" k2="-1" k3="1"/>
<feColorMatrix type="matrix" values="0 0 0 0 0 0 0 0 0 0 0 0 0 0 0 0 0 0 0.25 0"/>
<feBlend mode="normal" in2="shape" result="effect1_innerShadow"/>
</filter>
<filter id="filter1_i" x="-4.60449" y="79.2046" width="56.9826" height="15.3912" filterUnits="userSpaceOnUse" color-interpolation-filters="sRGB">
<feFlood flood-opacity="0" result="BackgroundImageFix"/>
<feBlend mode="normal" in="SourceGraphic" in2="BackgroundImageFix" result="shape"/>
<feColorMatrix in="SourceAlpha" type="matrix" values="0 0 0 0 0 0 0 0 0 0 0 0 0 0 0 0 0 0 127 0" result="hardAlpha"/>
<feOffset dx="-5" dy="-3"/>
<feGaussianBlur stdDeviation="5"/>
<feComposite in2="hardAlpha" operator="arithmetic" k2="-1" k3="1"/>
<feColorMatrix type="matrix" values="0 0 0 0 0 0 0 0 0 0 0 0 0 0 0 0 0 0 0.25 0"/>
<feBlend mode="normal" in2="shape" result="effect1_innerShadow"/>
</filter>
<filter id="filter2_i" x="32.4795" y="79.8091" width="19.2944" height="14.1823" filterUnits="userSpaceOnUse" color-interpolation-filters="sRGB">
<feFlood flood-opacity="0" result="BackgroundImageFix"/>
<feBlend mode="normal" in="SourceGraphic" in2="BackgroundImageFix" result="shape"/>
<feColorMatrix in="SourceAlpha" type="matrix" values="0 0 0 0 0 0 0 0 0 0 0 0 0 0 0 0 0 0 127 0" result="hardAlpha"/>
<feOffset dx="-5" dy="-3"/>
<feGaussianBlur stdDeviation="5"/>
<feComposite in2="hardAlpha" operator="arithmetic" k2="-1" k3="1"/>
<feColorMatrix type="matrix" values="0 0 0 0 0 0 0 0 0 0 0 0 0 0 0 0 0 0 0.25 0"/>
<feBlend mode="normal" in2="shape" result="effect1_innerShadow"/>
</filter>
<filter id="filter3_i" x="1.60449" y="83.6693" width="49.9604" height="10.677" filterUnits="userSpaceOnUse" color-interpolation-filters="sRGB">
<feFlood flood-opacity="0" result="BackgroundImageFix"/>
<feBlend mode="normal" in="SourceGraphic" in2="BackgroundImageFix" result="shape"/>
<feColorMatrix in="SourceAlpha" type="matrix" values="0 0 0 0 0 0 0 0 0 0 0 0 0 0 0 0 0 0 127 0" result="hardAlpha"/>
<feOffset dx="1" dy="1"/>
<feGaussianBlur stdDeviation="0.5"/>
<feComposite in2="hardAlpha" operator="arithmetic" k2="-1" k3="1"/>
<feColorMatrix type="matrix" values="0 0 0 0 0 0 0 0 0 0 0 0 0 0 0 0 0 0 0.2 0"/>
<feBlend mode="normal" in2="shape" result="effect1_innerShadow"/>
</filter>
<filter id="filter4_i" x="54.1914" y="79.8091" width="55.7737" height="14.1823" filterUnits="userSpaceOnUse" color-interpolation-filters="sRGB">
<feFlood flood-opacity="0" result="BackgroundImageFix"/>
<feBlend mode="normal" in="SourceGraphic" in2="BackgroundImageFix" result="shape"/>
<feColorMatrix in="SourceAlpha" type="matrix" values="0 0 0 0 0 0 0 0 0 0 0 0 0 0 0 0 0 0 127 0" result="hardAlpha"/>
<feOffset dx="-5" dy="-3"/>
<feGaussianBlur stdDeviation="5"/>
<feComposite in2="hardAlpha" operator="arithmetic" k2="-1" k3="1"/>
<feColorMatrix type="matrix" values="0 0 0 0 0 0 0 0 0 0 0 0 0 0 0 0 0 0 0.25 0"/>
<feBlend mode="normal" in2="shape" result="effect1_innerShadow"/>
</filter>
<filter id="filter5_i" x="53.5869" y="79.2046" width="56.9826" height="15.3912" filterUnits="userSpaceOnUse" color-interpolation-filters="sRGB">
<feFlood flood-opacity="0" result="BackgroundImageFix"/>
<feBlend mode="normal" in="SourceGraphic" in2="BackgroundImageFix" result="shape"/>
<feColorMatrix in="SourceAlpha" type="matrix" values="0 0 0 0 0 0 0 0 0 0 0 0 0 0 0 0 0 0 127 0" result="hardAlpha"/>
<feOffset dx="-5" dy="-3"/>
<feGaussianBlur stdDeviation="5"/>
<feComposite in2="hardAlpha" operator="arithmetic" k2="-1" k3="1"/>
<feColorMatrix type="matrix" values="0 0 0 0 0 0 0 0 0 0 0 0 0 0 0 0 0 0 0.25 0"/>
<feBlend mode="normal" in2="shape" result="effect1_innerShadow"/>
</filter>
<filter id="filter6_i" x="90.6709" y="79.8091" width="19.2944" height="14.1823" filterUnits="userSpaceOnUse" color-interpolation-filters="sRGB">
<feFlood flood-opacity="0" result="BackgroundImageFix"/>
<feBlend mode="normal" in="SourceGraphic" in2="BackgroundImageFix" result="shape"/>
<feColorMatrix in="SourceAlpha" type="matrix" values="0 0 0 0 0 0 0 0 0 0 0 0 0 0 0 0 0 0 127 0" result="hardAlpha"/>
<feOffset dx="-5" dy="-3"/>
<feGaussianBlur stdDeviation="5"/>
<feComposite in2="hardAlpha" operator="arithmetic" k2="-1" k3="1"/>
<feColorMatrix type="matrix" values="0 0 0 0 0 0 0 0 0 0 0 0 0 0 0 0 0 0 0.25 0"/>
<feBlend mode="normal" in2="shape" result="effect1_innerShadow"/>
</filter>
<filter id="filter7_i" x="59.7959" y="83.6693" width="49.9604" height="10.677" filterUnits="userSpaceOnUse" color-interpolation-filters="sRGB">
<feFlood flood-opacity="0" result="BackgroundImageFix"/>
<feBlend mode="normal" in="SourceGraphic" in2="BackgroundImageFix" result="shape"/>
<feColorMatrix in="SourceAlpha" type="matrix" values="0 0 0 0 0 0 0 0 0 0 0 0 0 0 0 0 0 0 127 0" result="hardAlpha"/>
<feOffset dx="1" dy="1"/>
<feGaussianBlur stdDeviation="0.5"/>
<feComposite in2="hardAlpha" operator="arithmetic" k2="-1" k3="1"/>
<feColorMatrix type="matrix" values="0 0 0 0 0 0 0 0 0 0 0 0 0 0 0 0 0 0 0.2 0"/>
<feBlend mode="normal" in2="shape" result="effect1_innerShadow"/>
</filter>
<filter id="filter8_i" x="55.7012" y="68.0223" width="55.7737" height="14.1823" filterUnits="userSpaceOnUse" color-interpolation-filters="sRGB">
<feFlood flood-opacity="0" result="BackgroundImageFix"/>
<feBlend mode="normal" in="SourceGraphic" in2="BackgroundImageFix" result="shape"/>
<feColorMatrix in="SourceAlpha" type="matrix" values="0 0 0 0 0 0 0 0 0 0 0 0 0 0 0 0 0 0 127 0" result="hardAlpha"/>
<feOffset dx="-5" dy="-3"/>
<feGaussianBlur stdDeviation="5"/>
<feComposite in2="hardAlpha" operator="arithmetic" k2="-1" k3="1"/>
<feColorMatrix type="matrix" values="0 0 0 0 0 0 0 0 0 0 0 0 0 0 0 0 0 0 0.25 0"/>
<feBlend mode="normal" in2="shape" result="effect1_innerShadow"/>
</filter>
<filter id="filter9_i" x="55.0967" y="67.4178" width="56.9826" height="15.3912" filterUnits="userSpaceOnUse" color-interpolation-filters="sRGB">
<feFlood flood-opacity="0" result="BackgroundImageFix"/>
<feBlend mode="normal" in="SourceGraphic" in2="BackgroundImageFix" result="shape"/>
<feColorMatrix in="SourceAlpha" type="matrix" values="0 0 0 0 0 0 0 0 0 0 0 0 0 0 0 0 0 0 127 0" result="hardAlpha"/>
<feOffset dx="-5" dy="-3"/>
<feGaussianBlur stdDeviation="5"/>
<feComposite in2="hardAlpha" operator="arithmetic" k2="-1" k3="1"/>
<feColorMatrix type="matrix" values="0 0 0 0 0 0 0 0 0 0 0 0 0 0 0 0 0 0 0.25 0"/>
<feBlend mode="normal" in2="shape" result="effect1_innerShadow"/>
</filter>
<filter id="filter10_i" x="92.1807" y="68.0223" width="19.2944" height="14.1823" filterUnits="userSpaceOnUse" color-interpolation-filters="sRGB">
<feFlood flood-opacity="0" result="BackgroundImageFix"/>
<feBlend mode="normal" in="SourceGraphic" in2="BackgroundImageFix" result="shape"/>
<feColorMatrix in="SourceAlpha" type="matrix" values="0 0 0 0 0 0 0 0 0 0 0 0 0 0 0 0 0 0 127 0" result="hardAlpha"/>
<feOffset dx="-5" dy="-3"/>
<feGaussianBlur stdDeviation="5"/>
<feComposite in2="hardAlpha" operator="arithmetic" k2="-1" k3="1"/>
<feColorMatrix type="matrix" values="0 0 0 0 0 0 0 0 0 0 0 0 0 0 0 0 0 0 0.25 0"/>
<feBlend mode="normal" in2="shape" result="effect1_innerShadow"/>
</filter>
<filter id="filter11_i" x="61.3057" y="71.8824" width="49.9604" height="10.677" filterUnits="userSpaceOnUse" color-interpolation-filters="sRGB">
<feFlood flood-opacity="0" result="BackgroundImageFix"/>
<feBlend mode="normal" in="SourceGraphic" in2="BackgroundImageFix" result="shape"/>
<feColorMatrix in="SourceAlpha" type="matrix" values="0 0 0 0 0 0 0 0 0 0 0 0 0 0 0 0 0 0 127 0" result="hardAlpha"/>
<feOffset dx="1" dy="1"/>
<feGaussianBlur stdDeviation="0.5"/>
<feComposite in2="hardAlpha" operator="arithmetic" k2="-1" k3="1"/>
<feColorMatrix type="matrix" values="0 0 0 0 0 0 0 0 0 0 0 0 0 0 0 0 0 0 0.2 0"/>
<feBlend mode="normal" in2="shape" result="effect1_innerShadow"/>
</filter>
<filter id="filter12_i" x="52.376" y="56.2355" width="55.7737" height="14.1823" filterUnits="userSpaceOnUse" color-interpolation-filters="sRGB">
<feFlood flood-opacity="0" result="BackgroundImageFix"/>
<feBlend mode="normal" in="SourceGraphic" in2="BackgroundImageFix" result="shape"/>
<feColorMatrix in="SourceAlpha" type="matrix" values="0 0 0 0 0 0 0 0 0 0 0 0 0 0 0 0 0 0 127 0" result="hardAlpha"/>
<feOffset dx="-5" dy="-3"/>
<feGaussianBlur stdDeviation="5"/>
<feComposite in2="hardAlpha" operator="arithmetic" k2="-1" k3="1"/>
<feColorMatrix type="matrix" values="0 0 0 0 0 0 0 0 0 0 0 0 0 0 0 0 0 0 0.25 0"/>
<feBlend mode="normal" in2="shape" result="effect1_innerShadow"/>
</filter>
<filter id="filter13_i" x="51.7715" y="55.631" width="56.9826" height="15.3912" filterUnits="userSpaceOnUse" color-interpolation-filters="sRGB">
<feFlood flood-opacity="0" result="BackgroundImageFix"/>
<feBlend mode="normal" in="SourceGraphic" in2="BackgroundImageFix" result="shape"/>
<feColorMatrix in="SourceAlpha" type="matrix" values="0 0 0 0 0 0 0 0 0 0 0 0 0 0 0 0 0 0 127 0" result="hardAlpha"/>
<feOffset dx="-5" dy="-3"/>
<feGaussianBlur stdDeviation="5"/>
<feComposite in2="hardAlpha" operator="arithmetic" k2="-1" k3="1"/>
<feColorMatrix type="matrix" values="0 0 0 0 0 0 0 0 0 0 0 0 0 0 0 0 0 0 0.25 0"/>
<feBlend mode="normal" in2="shape" result="effect1_innerShadow"/>
</filter>
<filter id="filter14_i" x="88.8555" y="56.2355" width="19.2944" height="14.1823" filterUnits="userSpaceOnUse" color-interpolation-filters="sRGB">
<feFlood flood-opacity="0" result="BackgroundImageFix"/>
<feBlend mode="normal" in="SourceGraphic" in2="BackgroundImageFix" result="shape"/>
<feColorMatrix in="SourceAlpha" type="matrix" values="0 0 0 0 0 0 0 0 0 0 0 0 0 0 0 0 0 0 127 0" result="hardAlpha"/>
<feOffset dx="-5" dy="-3"/>
<feGaussianBlur stdDeviation="5"/>
<feComposite in2="hardAlpha" operator="arithmetic" k2="-1" k3="1"/>
<feColorMatrix type="matrix" values="0 0 0 0 0 0 0 0 0 0 0 0 0 0 0 0 0 0 0.25 0"/>
<feBlend mode="normal" in2="shape" result="effect1_innerShadow"/>
</filter>
<filter id="filter15_i" x="57.9805" y="60.0956" width="49.9604" height="10.677" filterUnits="userSpaceOnUse" color-interpolation-filters="sRGB">
<feFlood flood-opacity="0" result="BackgroundImageFix"/>
<feBlend mode="normal" in="SourceGraphic" in2="BackgroundImageFix" result="shape"/>
<feColorMatrix in="SourceAlpha" type="matrix" values="0 0 0 0 0 0 0 0 0 0 0 0 0 0 0 0 0 0 127 0" result="hardAlpha"/>
<feOffset dx="1" dy="1"/>
<feGaussianBlur stdDeviation="0.5"/>
<feComposite in2="hardAlpha" operator="arithmetic" k2="-1" k3="1"/>
<feColorMatrix type="matrix" values="0 0 0 0 0 0 0 0 0 0 0 0 0 0 0 0 0 0 0.2 0"/>
<feBlend mode="normal" in2="shape" result="effect1_innerShadow"/>
</filter>
<filter id="filter16_i" x="116.137" y="79.8091" width="55.7737" height="14.1823" filterUnits="userSpaceOnUse" color-interpolation-filters="sRGB">
<feFlood flood-opacity="0" result="BackgroundImageFix"/>
<feBlend mode="normal" in="SourceGraphic" in2="BackgroundImageFix" result="shape"/>
<feColorMatrix in="SourceAlpha" type="matrix" values="0 0 0 0 0 0 0 0 0 0 0 0 0 0 0 0 0 0 127 0" result="hardAlpha"/>
<feOffset dx="-5" dy="-3"/>
<feGaussianBlur stdDeviation="5"/>
<feComposite in2="hardAlpha" operator="arithmetic" k2="-1" k3="1"/>
<feColorMatrix type="matrix" values="0 0 0 0 0 0 0 0 0 0 0 0 0 0 0 0 0 0 0.25 0"/>
<feBlend mode="normal" in2="shape" result="effect1_innerShadow"/>
</filter>
<filter id="filter17_i" x="115.532" y="79.2046" width="56.9826" height="15.3912" filterUnits="userSpaceOnUse" color-interpolation-filters="sRGB">
<feFlood flood-opacity="0" result="BackgroundImageFix"/>
<feBlend mode="normal" in="SourceGraphic" in2="BackgroundImageFix" result="shape"/>
<feColorMatrix in="SourceAlpha" type="matrix" values="0 0 0 0 0 0 0 0 0 0 0 0 0 0 0 0 0 0 127 0" result="hardAlpha"/>
<feOffset dx="-5" dy="-3"/>
<feGaussianBlur stdDeviation="5"/>
<feComposite in2="hardAlpha" operator="arithmetic" k2="-1" k3="1"/>
<feColorMatrix type="matrix" values="0 0 0 0 0 0 0 0 0 0 0 0 0 0 0 0 0 0 0.25 0"/>
<feBlend mode="normal" in2="shape" result="effect1_innerShadow"/>
</filter>
<filter id="filter18_i" x="152.616" y="79.8091" width="19.2944" height="14.1823" filterUnits="userSpaceOnUse" color-interpolation-filters="sRGB">
<feFlood flood-opacity="0" result="BackgroundImageFix"/>
<feBlend mode="normal" in="SourceGraphic" in2="BackgroundImageFix" result="shape"/>
<feColorMatrix in="SourceAlpha" type="matrix" values="0 0 0 0 0 0 0 0 0 0 0 0 0 0 0 0 0 0 127 0" result="hardAlpha"/>
<feOffset dx="-5" dy="-3"/>
<feGaussianBlur stdDeviation="5"/>
<feComposite in2="hardAlpha" operator="arithmetic" k2="-1" k3="1"/>
<feColorMatrix type="matrix" values="0 0 0 0 0 0 0 0 0 0 0 0 0 0 0 0 0 0 0.25 0"/>
<feBlend mode="normal" in2="shape" result="effect1_innerShadow"/>
</filter>
<filter id="filter19_i" x="121.741" y="83.6693" width="49.9604" height="10.677" filterUnits="userSpaceOnUse" color-interpolation-filters="sRGB">
<feFlood flood-opacity="0" result="BackgroundImageFix"/>
<feBlend mode="normal" in="SourceGraphic" in2="BackgroundImageFix" result="shape"/>
<feColorMatrix in="SourceAlpha" type="matrix" values="0 0 0 0 0 0 0 0 0 0 0 0 0 0 0 0 0 0 127 0" result="hardAlpha"/>
<feOffset dx="1" dy="1"/>
<feGaussianBlur stdDeviation="0.5"/>
<feComposite in2="hardAlpha" operator="arithmetic" k2="-1" k3="1"/>
<feColorMatrix type="matrix" values="0 0 0 0 0 0 0 0 0 0 0 0 0 0 0 0 0 0 0.2 0"/>
<feBlend mode="normal" in2="shape" result="effect1_innerShadow"/>
</filter>
<filter id="filter20_i" x="114.627" y="68.0223" width="55.7737" height="14.1823" filterUnits="userSpaceOnUse" color-interpolation-filters="sRGB">
<feFlood flood-opacity="0" result="BackgroundImageFix"/>
<feBlend mode="normal" in="SourceGraphic" in2="BackgroundImageFix" result="shape"/>
<feColorMatrix in="SourceAlpha" type="matrix" values="0 0 0 0 0 0 0 0 0 0 0 0 0 0 0 0 0 0 127 0" result="hardAlpha"/>
<feOffset dx="-5" dy="-3"/>
<feGaussianBlur stdDeviation="5"/>
<feComposite in2="hardAlpha" operator="arithmetic" k2="-1" k3="1"/>
<feColorMatrix type="matrix" values="0 0 0 0 0 0 0 0 0 0 0 0 0 0 0 0 0 0 0.25 0"/>
<feBlend mode="normal" in2="shape" result="effect1_innerShadow"/>
</filter>
<filter id="filter21_i" x="114.022" y="67.4178" width="56.9826" height="15.3912" filterUnits="userSpaceOnUse" color-interpolation-filters="sRGB">
<feFlood flood-opacity="0" result="BackgroundImageFix"/>
<feBlend mode="normal" in="SourceGraphic" in2="BackgroundImageFix" result="shape"/>
<feColorMatrix in="SourceAlpha" type="matrix" values="0 0 0 0 0 0 0 0 0 0 0 0 0 0 0 0 0 0 127 0" result="hardAlpha"/>
<feOffset dx="-5" dy="-3"/>
<feGaussianBlur stdDeviation="5"/>
<feComposite in2="hardAlpha" operator="arithmetic" k2="-1" k3="1"/>
<feColorMatrix type="matrix" values="0 0 0 0 0 0 0 0 0 0 0 0 0 0 0 0 0 0 0.25 0"/>
<feBlend mode="normal" in2="shape" result="effect1_innerShadow"/>
</filter>
<filter id="filter22_i" x="151.106" y="68.0223" width="19.2944" height="14.1823" filterUnits="userSpaceOnUse" color-interpolation-filters="sRGB">
<feFlood flood-opacity="0" result="BackgroundImageFix"/>
<feBlend mode="normal" in="SourceGraphic" in2="BackgroundImageFix" result="shape"/>
<feColorMatrix in="SourceAlpha" type="matrix" values="0 0 0 0 0 0 0 0 0 0 0 0 0 0 0 0 0 0 127 0" result="hardAlpha"/>
<feOffset dx="-5" dy="-3"/>
<feGaussianBlur stdDeviation="5"/>
<feComposite in2="hardAlpha" operator="arithmetic" k2="-1" k3="1"/>
<feColorMatrix type="matrix" values="0 0 0 0 0 0 0 0 0 0 0 0 0 0 0 0 0 0 0.25 0"/>
<feBlend mode="normal" in2="shape" result="effect1_innerShadow"/>
</filter>
<filter id="filter23_i" x="120.231" y="71.8824" width="49.9604" height="10.677" filterUnits="userSpaceOnUse" color-interpolation-filters="sRGB">
<feFlood flood-opacity="0" result="BackgroundImageFix"/>
<feBlend mode="normal" in="SourceGraphic" in2="BackgroundImageFix" result="shape"/>
<feColorMatrix in="SourceAlpha" type="matrix" values="0 0 0 0 0 0 0 0 0 0 0 0 0 0 0 0 0 0 127 0" result="hardAlpha"/>
<feOffset dx="1" dy="1"/>
<feGaussianBlur stdDeviation="0.5"/>
<feComposite in2="hardAlpha" operator="arithmetic" k2="-1" k3="1"/>
<feColorMatrix type="matrix" values="0 0 0 0 0 0 0 0 0 0 0 0 0 0 0 0 0 0 0.2 0"/>
<feBlend mode="normal" in2="shape" result="effect1_innerShadow"/>
</filter>
<filter id="filter24_i" x="117.346" y="56.2355" width="55.7737" height="14.1823" filterUnits="userSpaceOnUse" color-interpolation-filters="sRGB">
<feFlood flood-opacity="0" result="BackgroundImageFix"/>
<feBlend mode="normal" in="SourceGraphic" in2="BackgroundImageFix" result="shape"/>
<feColorMatrix in="SourceAlpha" type="matrix" values="0 0 0 0 0 0 0 0 0 0 0 0 0 0 0 0 0 0 127 0" result="hardAlpha"/>
<feOffset dx="-5" dy="-3"/>
<feGaussianBlur stdDeviation="5"/>
<feComposite in2="hardAlpha" operator="arithmetic" k2="-1" k3="1"/>
<feColorMatrix type="matrix" values="0 0 0 0 0 0 0 0 0 0 0 0 0 0 0 0 0 0 0.25 0"/>
<feBlend mode="normal" in2="shape" result="effect1_innerShadow"/>
</filter>
<filter id="filter25_i" x="116.741" y="55.631" width="56.9826" height="15.3912" filterUnits="userSpaceOnUse" color-interpolation-filters="sRGB">
<feFlood flood-opacity="0" result="BackgroundImageFix"/>
<feBlend mode="normal" in="SourceGraphic" in2="BackgroundImageFix" result="shape"/>
<feColorMatrix in="SourceAlpha" type="matrix" values="0 0 0 0 0 0 0 0 0 0 0 0 0 0 0 0 0 0 127 0" result="hardAlpha"/>
<feOffset dx="-5" dy="-3"/>
<feGaussianBlur stdDeviation="5"/>
<feComposite in2="hardAlpha" operator="arithmetic" k2="-1" k3="1"/>
<feColorMatrix type="matrix" values="0 0 0 0 0 0 0 0 0 0 0 0 0 0 0 0 0 0 0.25 0"/>
<feBlend mode="normal" in2="shape" result="effect1_innerShadow"/>
</filter>
<filter id="filter26_i" x="153.825" y="56.2355" width="19.2944" height="14.1823" filterUnits="userSpaceOnUse" color-interpolation-filters="sRGB">
<feFlood flood-opacity="0" result="BackgroundImageFix"/>
<feBlend mode="normal" in="SourceGraphic" in2="BackgroundImageFix" result="shape"/>
<feColorMatrix in="SourceAlpha" type="matrix" values="0 0 0 0 0 0 0 0 0 0 0 0 0 0 0 0 0 0 127 0" result="hardAlpha"/>
<feOffset dx="-5" dy="-3"/>
<feGaussianBlur stdDeviation="5"/>
<feComposite in2="hardAlpha" operator="arithmetic" k2="-1" k3="1"/>
<feColorMatrix type="matrix" values="0 0 0 0 0 0 0 0 0 0 0 0 0 0 0 0 0 0 0.25 0"/>
<feBlend mode="normal" in2="shape" result="effect1_innerShadow"/>
</filter>
<filter id="filter27_i" x="122.95" y="60.0956" width="49.9604" height="10.677" filterUnits="userSpaceOnUse" color-interpolation-filters="sRGB">
<feFlood flood-opacity="0" result="BackgroundImageFix"/>
<feBlend mode="normal" in="SourceGraphic" in2="BackgroundImageFix" result="shape"/>
<feColorMatrix in="SourceAlpha" type="matrix" values="0 0 0 0 0 0 0 0 0 0 0 0 0 0 0 0 0 0 127 0" result="hardAlpha"/>
<feOffset dx="1" dy="1"/>
<feGaussianBlur stdDeviation="0.5"/>
<feComposite in2="hardAlpha" operator="arithmetic" k2="-1" k3="1"/>
<feColorMatrix type="matrix" values="0 0 0 0 0 0 0 0 0 0 0 0 0 0 0 0 0 0 0.2 0"/>
<feBlend mode="normal" in2="shape" result="effect1_innerShadow"/>
</filter>
<filter id="filter28_i" x="128.227" y="44.4487" width="55.7737" height="14.1823" filterUnits="userSpaceOnUse" color-interpolation-filters="sRGB">
<feFlood flood-opacity="0" result="BackgroundImageFix"/>
<feBlend mode="normal" in="SourceGraphic" in2="BackgroundImageFix" result="shape"/>
<feColorMatrix in="SourceAlpha" type="matrix" values="0 0 0 0 0 0 0 0 0 0 0 0 0 0 0 0 0 0 127 0" result="hardAlpha"/>
<feOffset dx="-5" dy="-3"/>
<feGaussianBlur stdDeviation="5"/>
<feComposite in2="hardAlpha" operator="arithmetic" k2="-1" k3="1"/>
<feColorMatrix type="matrix" values="0 0 0 0 0 0 0 0 0 0 0 0 0 0 0 0 0 0 0.25 0"/>
<feBlend mode="normal" in2="shape" result="effect1_innerShadow"/>
</filter>
<filter id="filter29_i" x="127.622" y="43.8441" width="56.9826" height="15.3912" filterUnits="userSpaceOnUse" color-interpolation-filters="sRGB">
<feFlood flood-opacity="0" result="BackgroundImageFix"/>
<feBlend mode="normal" in="SourceGraphic" in2="BackgroundImageFix" result="shape"/>
<feColorMatrix in="SourceAlpha" type="matrix" values="0 0 0 0 0 0 0 0 0 0 0 0 0 0 0 0 0 0 127 0" result="hardAlpha"/>
<feOffset dx="-5" dy="-3"/>
<feGaussianBlur stdDeviation="5"/>
<feComposite in2="hardAlpha" operator="arithmetic" k2="-1" k3="1"/>
<feColorMatrix type="matrix" values="0 0 0 0 0 0 0 0 0 0 0 0 0 0 0 0 0 0 0.25 0"/>
<feBlend mode="normal" in2="shape" result="effect1_innerShadow"/>
</filter>
<filter id="filter30_i" x="164.706" y="44.4487" width="19.2944" height="14.1823" filterUnits="userSpaceOnUse" color-interpolation-filters="sRGB">
<feFlood flood-opacity="0" result="BackgroundImageFix"/>
<feBlend mode="normal" in="SourceGraphic" in2="BackgroundImageFix" result="shape"/>
<feColorMatrix in="SourceAlpha" type="matrix" values="0 0 0 0 0 0 0 0 0 0 0 0 0 0 0 0 0 0 127 0" result="hardAlpha"/>
<feOffset dx="-5" dy="-3"/>
<feGaussianBlur stdDeviation="5"/>
<feComposite in2="hardAlpha" operator="arithmetic" k2="-1" k3="1"/>
<feColorMatrix type="matrix" values="0 0 0 0 0 0 0 0 0 0 0 0 0 0 0 0 0 0 0.25 0"/>
<feBlend mode="normal" in2="shape" result="effect1_innerShadow"/>
</filter>
<filter id="filter31_i" x="133.831" y="48.3088" width="49.9604" height="10.677" filterUnits="userSpaceOnUse" color-interpolation-filters="sRGB">
<feFlood flood-opacity="0" result="BackgroundImageFix"/>
<feBlend mode="normal" in="SourceGraphic" in2="BackgroundImageFix" result="shape"/>
<feColorMatrix in="SourceAlpha" type="matrix" values="0 0 0 0 0 0 0 0 0 0 0 0 0 0 0 0 0 0 127 0" result="hardAlpha"/>
<feOffset dx="1" dy="1"/>
<feGaussianBlur stdDeviation="0.5"/>
<feComposite in2="hardAlpha" operator="arithmetic" k2="-1" k3="1"/>
<feColorMatrix type="matrix" values="0 0 0 0 0 0 0 0 0 0 0 0 0 0 0 0 0 0 0.2 0"/>
<feBlend mode="normal" in2="shape" result="effect1_innerShadow"/>
</filter>
</defs>
</svg>
