<svg width="55" height="73" viewBox="0 0 55 73" fill="none" xmlns="http://www.w3.org/2000/svg">
<path d="M10.9758 41.4287L7.36021 43.5268L15.4119 57.5438L17.5682 56.2926C18.7008 55.6353 20.0436 55.4471 21.3119 55.7677L29.4767 57.8319C30.1845 58.0108 30.9224 58.0329 31.6395 57.8965L40.4093 56.2294C40.8206 56.1513 41.2205 56.0218 41.5999 55.8441L51.7198 51.1039C52.9876 50.5101 53.4767 48.9518 52.7773 47.7343C52.2153 46.7559 51.0496 46.3051 49.98 46.6524L42.1373 49.1992C41.7337 49.3303 41.3151 49.4096 40.8917 49.4351L36.4748 49.7016L36.4439 49.1845C36.304 46.8416 34.5788 44.9032 32.2777 44.5035L25.3054 43.2923C24.8285 43.2095 24.3659 43.0579 23.932 42.8423L20.4691 41.1213C17.4526 39.6222 13.8902 39.7376 10.9758 41.4287Z" fill="#FFDDCE"/>
<path d="M16.4056 52.0024L13.2723 53.8206L15.4111 57.5439L17.5673 56.2927C18.7 55.6354 20.0427 55.4472 21.311 55.7678L29.4759 57.8319C30.1836 58.0109 30.9215 58.0329 31.6386 57.8966L40.4085 56.2295C40.8197 56.1513 41.2196 56.0219 41.599 55.8442L52.8111 50.5924C53.4918 50.2736 53.7544 49.4369 53.3789 48.7832C53.0585 48.2254 52.377 47.9918 51.7842 48.2365L41.1532 52.6261C40.7907 52.7758 40.412 52.8824 40.0249 52.9437L30.2221 54.4976L20.3625 51.5365C19.0359 51.1381 17.6047 51.3066 16.4056 52.0024Z" fill="#DAB7A7"/>
<path fill-rule="evenodd" clip-rule="evenodd" d="M52.1236 48.1138C51.7396 47.4452 50.9431 47.1371 50.2122 47.3745L42.3695 49.9213C41.9053 50.0721 41.424 50.1632 40.937 50.1926L36.5201 50.459L36.5105 50.4596L27.7424 50.8752C27.326 50.895 26.9725 50.5717 26.9529 50.1531C26.9332 49.7346 27.2549 49.3793 27.6713 49.3595L35.6684 48.9804C35.4472 47.1022 34.0228 45.5767 32.1492 45.2512L25.177 44.0401C24.6285 43.9448 24.0965 43.7705 23.5975 43.5225L20.1346 41.8016C17.3443 40.4149 14.0491 40.5216 11.3534 42.0859L8.39143 43.8047L15.6883 56.5076L17.1909 55.6357C18.4934 54.8798 20.0375 54.6633 21.4961 55.0321L29.661 57.0962C30.2625 57.2483 30.8898 57.2671 31.4993 57.1512L40.2691 55.4841C40.6187 55.4177 40.9586 55.3076 41.2811 55.1566L51.401 50.4164C52.2674 50.0106 52.6015 48.9458 52.1236 48.1138ZM37.1783 48.8992C36.9176 46.3133 34.9737 44.202 32.4063 43.756L25.4341 42.5449C25.0287 42.4744 24.6355 42.3456 24.2667 42.1623L20.8038 40.4414C17.561 38.8298 13.7314 38.9538 10.5985 40.7718L6.98286 42.8699C6.62182 43.0794 6.49812 43.5434 6.70656 43.9063L14.7583 57.9233C14.9667 58.2862 15.4284 58.4105 15.7894 58.201L17.9457 56.9498C18.9084 56.3911 20.0498 56.2311 21.1279 56.5036L29.2927 58.5678C30.1066 58.7735 30.9552 58.7989 31.7798 58.6422L40.5497 56.9751C41.0226 56.8852 41.4825 56.7363 41.9188 56.532L52.0387 51.7918C53.708 51.0099 54.3519 48.9582 53.4311 47.3551C52.6911 46.0669 51.1563 45.4733 49.748 45.9306L41.9053 48.4774C41.5622 48.5888 41.2065 48.6562 40.8465 48.6779L37.1783 48.8992Z" fill="black"/>
<path d="M4.79555 42.0954C5.99901 41.3971 7.53787 41.8115 8.23269 43.0211L16.2844 57.0381C16.9792 58.2477 16.5669 59.7944 15.3634 60.4928L12.7486 62.0102C11.5451 62.7085 10.0062 62.2941 9.31142 61.0845L1.25969 47.0675C0.564869 45.8579 0.977206 44.3112 2.18067 43.6128L4.79555 42.0954Z" fill="#F2838D"/>
<path fill-rule="evenodd" clip-rule="evenodd" d="M14.977 57.7968L6.92525 43.7798C6.64733 43.2959 6.03178 43.1302 5.5504 43.4095L2.93552 44.9269C2.45413 45.2062 2.2892 45.8249 2.56713 46.3088L10.6189 60.3258C10.8968 60.8096 11.5123 60.9754 11.9937 60.6961L14.6086 59.1787C15.09 58.8993 15.2549 58.2806 14.977 57.7968ZM8.23269 43.0211C7.53787 41.8115 5.99901 41.3971 4.79555 42.0954L2.18067 43.6128C0.977206 44.3112 0.564869 45.8579 1.25969 47.0675L9.31142 61.0845C10.0062 62.2941 11.5451 62.7085 12.7486 62.0102L15.3634 60.4928C16.5669 59.7944 16.9792 58.2477 16.2844 57.0381L8.23269 43.0211Z" fill="black"/>
<path d="M11.3366 53.4842C12.54 52.7859 14.0789 53.2003 14.7737 54.4099L16.2834 57.0381C16.9782 58.2477 16.5659 59.7944 15.3624 60.4927L12.7476 62.0101C11.5441 62.7085 10.0052 62.294 9.3104 61.0844L7.8007 58.4563C7.10588 57.2467 7.51822 55.7 8.72168 55.0016L11.3366 53.4842Z" fill="#CF727A"/>
<path fill-rule="evenodd" clip-rule="evenodd" d="M14.976 57.7968L13.4663 55.1686C13.1883 54.6847 12.5728 54.519 12.0914 54.7983L9.47653 56.3157C8.99515 56.595 8.83021 57.2137 9.10814 57.6976L10.6178 60.3257C10.8958 60.8096 11.5113 60.9754 11.9927 60.696L14.6076 59.1786C15.089 58.8993 15.2539 58.2806 14.976 57.7968ZM14.7737 54.4099C14.0789 53.2003 12.54 52.7859 11.3366 53.4842L8.72168 55.0016C7.51822 55.7 7.10588 57.2467 7.8007 58.4563L9.3104 61.0844C10.0052 62.294 11.5441 62.7085 12.7476 62.0101L15.3624 60.4927C16.5659 59.7944 16.9782 58.2477 16.2834 57.0381L14.7737 54.4099Z" fill="black"/>
<g opacity="0.8">
<path d="M9.13477 12.752H51.7196V37.0378H9.13477V12.752Z" fill="#71E4BF"/>
<path d="M49.1499 18.8233V30.9662C47.3993 30.9662 45.9796 32.3933 45.9796 34.1527C45.9796 34.2543 45.9847 34.3551 45.9941 34.4541H14.8618C14.8712 34.3551 14.8764 34.2543 14.8764 34.1527C14.8764 32.3933 13.4566 30.9662 11.7061 30.9662V18.8233C13.4566 18.8233 14.8764 17.3963 14.8764 15.6369C14.8764 15.5352 14.8712 15.4345 14.8618 15.3354H45.9941C45.9847 15.4345 45.9796 15.5352 45.9796 15.6369C45.9796 17.3963 47.3993 18.8233 49.1499 18.8233Z" fill="#E1FD9E"/>
<path d="M47.4104 12.7519L44.2273 7.42155C42.7264 8.32702 40.7783 7.83786 39.8775 6.32929C39.8255 6.24214 39.7782 6.15309 39.7356 6.06335L28.6484 12.752H47.4104V12.7519Z" fill="#71E4BF"/>
<path d="M50.4082 12.7519L43.3223 0.88623L23.6533 12.7519H50.4082Z" fill="#71E4BF"/>
<path opacity="0.6" d="M30.427 32.5809C34.7256 32.5809 38.2104 29.1315 38.2104 24.8764C38.2104 20.6213 34.7256 17.1719 30.427 17.1719C26.1283 17.1719 22.6436 20.6213 22.6436 24.8764C22.6436 29.1315 26.1283 32.5809 30.427 32.5809Z" fill="#91EACD"/>
<path d="M9.13477 12.752H10.8484V37.0378H9.13477V12.752Z" fill="#5FA6B0"/>
<path d="M13.4197 30.9662V18.8233C15.1703 18.8233 16.59 17.3963 16.59 15.6369C16.59 15.5352 16.5849 15.4345 16.5755 15.3354H14.8618C14.8712 15.4345 14.8764 15.5352 14.8764 15.6369C14.8764 17.3963 13.4566 18.8233 11.7061 18.8233V30.9662C13.4566 30.9662 14.8764 32.3933 14.8764 34.1527C14.8764 34.2543 14.8712 34.3551 14.8618 34.4541H16.5755C16.5849 34.3551 16.59 34.2543 16.59 34.1527C16.59 32.3933 15.1703 30.9662 13.4197 30.9662Z" fill="#8AE897"/>
<path d="M44.4947 7.87011L44.2269 7.42151C43.9793 7.57093 43.7194 7.68151 43.4541 7.75669C43.7908 7.85142 44.1426 7.89052 44.4947 7.87011Z" fill="#5FA6B0"/>
<path d="M39.8775 6.32929C39.8255 6.24214 39.7782 6.15309 39.7356 6.06335L28.6484 12.752H30.3621L40.2235 6.80287C40.0964 6.65827 39.9799 6.50076 39.8775 6.32929Z" fill="#5FA6B0"/>
<path d="M43.3223 0.88623L23.6533 12.7519H25.367L43.7762 1.64624L43.3223 0.88623Z" fill="#5FA6B0"/>
<path opacity="0.6" d="M21.9355 24.9949C21.9355 29.7007 25.7446 33.5291 30.4265 33.5291C35.1085 33.5291 38.9175 29.7007 38.9175 24.9949C38.9175 20.2892 35.1085 16.4607 30.4265 16.4607C25.7446 16.4607 21.9355 20.2892 21.9355 24.9949ZM37.4451 24.9949C37.4451 28.8846 34.2966 32.0492 30.4265 32.0492C26.5565 32.0492 23.408 28.8846 23.408 24.9949C23.408 21.1052 26.5565 17.9406 30.4265 17.9406C34.2966 17.9406 37.4451 21.1052 37.4451 24.9949Z" fill="#C2C2C2"/>
<path d="M8.49219 12.106V37.6836H15.6459V36.3918H9.77744V13.3978H51.077V36.3918H16.9312V37.6836H52.3623V12.106H8.49219Z" fill="black"/>
<path d="M14.1536 35.0999H46.7004L46.6329 34.3924C46.6252 34.3116 46.6213 34.2309 46.6213 34.1526C46.6213 32.7518 47.7551 31.6121 49.1489 31.6121H49.7916V18.1773H49.1489C47.7551 18.1773 46.6213 17.0376 46.6213 15.6368C46.6213 15.5585 46.6252 15.4778 46.6329 15.397L46.7004 14.6895H40.0425V15.9813H45.3513C45.506 17.7186 46.8189 19.1257 48.5063 19.4147V30.3748C46.8189 30.6637 45.5059 32.0709 45.3513 33.8082H15.5028C15.3481 32.0709 14.0351 30.6637 12.3478 30.3748V19.4147C14.0351 19.1258 15.3481 17.7186 15.5028 15.9813H38.7572V14.6895H14.1536L14.2211 15.397C14.2289 15.4778 14.2328 15.5585 14.2328 15.6368C14.2328 17.0376 13.0989 18.1773 11.7051 18.1773H11.0625V31.6121H11.7051C13.0989 31.6121 14.2328 32.7518 14.2328 34.1526C14.2328 34.2309 14.2289 34.3116 14.2211 34.3924L14.1536 35.0999Z" fill="black"/>
<path d="M41.9842 7.15406C41.3291 6.98948 40.7769 6.57843 40.4289 5.9954C40.3888 5.92857 40.3511 5.85778 40.3166 5.78518L40.0123 5.14307L32.6016 9.61442L33.2631 10.7219L39.5168 6.94875C40.0416 7.67431 40.7958 8.18698 41.6726 8.40728C42.4495 8.60243 43.2492 8.54937 43.9801 8.26182L45.317 10.5007L46.419 9.83584L44.4483 6.53563L43.8973 6.86805C43.3188 7.2171 42.6394 7.31863 41.9842 7.15406Z" fill="black"/>
<path d="M49.4173 9.83586L43.5437 0L27.6064 9.61445L28.2678 10.722L43.1031 1.77244L48.3154 10.5006L49.4173 9.83586Z" fill="black"/>
</g>
<path d="M38.519 21.9487C39.0754 21.9487 39.4961 22.1426 39.7809 22.5305C40.0724 22.9117 40.2181 23.4507 40.2181 24.1474C40.2181 24.8442 40.0823 25.3898 39.8107 25.7841C39.5391 26.172 39.1085 26.3659 38.519 26.3659C37.9758 26.3659 37.5617 26.172 37.2769 25.7841C36.992 25.3898 36.8496 24.8442 36.8496 24.1474C36.8496 23.4507 36.9821 22.9117 37.2471 22.5305C37.5121 22.1426 37.936 21.9487 38.519 21.9487ZM42.6919 22.0473C43.0794 22.0473 43.3239 22.4641 43.1348 22.8023L39.7672 28.8273C39.6775 28.9877 39.5081 29.0871 39.3243 29.0871C38.9368 29.0871 38.6923 28.6704 38.8813 28.3322L42.249 22.3072C42.3387 22.1467 42.5081 22.0473 42.6919 22.0473ZM38.5289 22.9544C38.2242 22.9544 38.0718 23.3554 38.0718 24.1573C38.0718 24.9658 38.2242 25.37 38.5289 25.37C38.8402 25.37 38.9959 24.9658 38.9959 24.1573C38.9959 23.3554 38.8402 22.9544 38.5289 22.9544ZM43.4873 24.7587C44.0437 24.7587 44.4644 24.9526 44.7492 25.3405C45.0407 25.7217 45.1865 26.2607 45.1865 26.9574C45.1865 27.6542 45.0506 28.1998 44.779 28.5942C44.5074 28.982 44.0769 29.1759 43.4873 29.1759C42.9441 29.1759 42.5301 28.982 42.2452 28.5942C41.9604 28.1998 41.8179 27.6542 41.8179 26.9574C41.8179 26.2607 41.9504 25.7217 42.2154 25.3405C42.4804 24.9526 42.9043 24.7587 43.4873 24.7587ZM43.4972 25.7644C43.1925 25.7644 43.0401 26.1654 43.0401 26.9673C43.0401 27.7758 43.1925 28.18 43.4972 28.18C43.8086 28.18 43.9642 27.7758 43.9642 26.9673C43.9642 26.1654 43.8086 25.7644 43.4972 25.7644Z" fill="black"/>
<path d="M19.6734 28.1898C19.6734 28.6952 19.2637 29.1049 18.7583 29.1049C18.253 29.1049 17.8433 28.6952 17.8433 28.1898V24.0736C17.8433 23.8625 17.8473 23.5864 17.8554 23.2453C17.8642 23.0586 17.8719 22.8841 17.8783 22.7217C17.8832 22.5982 17.7149 22.5269 17.6251 22.6118C17.4958 22.7336 17.3746 22.8433 17.2615 22.9407L16.821 23.297C16.516 23.5438 16.0683 23.495 15.8235 23.1883C15.5801 22.8833 15.6298 22.4387 15.9346 22.1949L17.8658 20.6505C18.063 20.4928 18.3081 20.4068 18.5607 20.4068C19.1752 20.4068 19.6734 20.905 19.6734 21.5196V28.1898Z" fill="black"/>
<path d="M28.0882 24.7558C28.0882 25.6898 27.9872 26.4898 27.7852 27.1557C27.5913 27.8217 27.2721 28.3333 26.8277 28.6907C26.3913 29.048 25.8015 29.2267 25.0581 29.2267C24.0157 29.2267 23.2522 28.8328 22.7673 28.045C22.2825 27.2491 22.0401 26.1527 22.0401 24.7558C22.0401 23.8138 22.1371 23.0097 22.331 22.3438C22.5249 21.6778 22.8441 21.1662 23.2885 20.8088C23.7329 20.4515 24.3228 20.2728 25.0581 20.2728C26.0924 20.2728 26.856 20.6667 27.3489 21.4545C27.8418 22.2423 28.0882 23.3427 28.0882 24.7558ZM23.8582 24.7558C23.8582 25.7467 23.943 26.4938 24.1127 26.9974C24.2824 27.4928 24.5975 27.7405 25.0581 27.7405C25.5106 27.7405 25.8257 27.4928 26.0035 26.9974C26.1813 26.5019 26.2701 25.7548 26.2701 24.7558C26.2701 23.765 26.1813 23.0179 26.0035 22.5143C25.8257 22.0108 25.5106 21.759 25.0581 21.759C24.5975 21.759 24.2824 22.0108 24.1127 22.5143C23.943 23.0179 23.8582 23.765 23.8582 24.7558Z" fill="black"/>
<path d="M35.0243 24.7558C35.0243 25.6898 34.9233 26.4898 34.7213 27.1557C34.5273 27.8217 34.2082 28.3333 33.7638 28.6907C33.3274 29.048 32.7376 29.2267 31.9942 29.2267C30.9518 29.2267 30.1882 28.8328 29.7034 28.045C29.2186 27.2491 28.9762 26.1527 28.9762 24.7558C28.9762 23.8138 29.0732 23.0097 29.2671 22.3438C29.461 21.6778 29.7802 21.1662 30.2246 20.8088C30.669 20.4515 31.2589 20.2728 31.9942 20.2728C33.0285 20.2728 33.792 20.6667 34.2849 21.4545C34.7778 22.2423 35.0243 23.3427 35.0243 24.7558ZM30.7943 24.7558C30.7943 25.7467 30.8791 26.4938 31.0488 26.9974C31.2185 27.4928 31.5336 27.7405 31.9942 27.7405C32.4467 27.7405 32.7618 27.4928 32.9396 26.9974C33.1173 26.5019 33.2062 25.7548 33.2062 24.7558C33.2062 23.765 33.1173 23.0179 32.9396 22.5143C32.7618 22.0108 32.4467 21.759 31.9942 21.759C31.5336 21.759 31.2185 22.0108 31.0488 22.5143C30.8791 23.0179 30.7943 23.765 30.7943 24.7558Z" fill="black"/>
</svg>
