<svg width="183" height="155" viewBox="0 0 183 155" fill="none" xmlns="http://www.w3.org/2000/svg">
<path d="M9.90796 103.513C-1.18181 114.415 1.8256 127.573 1.26172 132.46L102.197 152.947C102.197 146.181 106.144 133.775 112.535 119.49C118.926 105.205 118.738 88.1005 118.174 73.8154C117.61 59.5304 123.061 41.8619 127.008 35.6592C130.955 29.4565 136.97 22.6898 141.857 18.5547L40.9217 1.26221C36.5985 3.70571 30.9597 8.02883 28.1403 15.9232C25.3208 23.8176 28.3282 42.0499 26.2606 61.034C24.1931 80.0182 20.9977 92.6116 9.90796 103.513Z" fill="#F4F4F4"/>
<path fill-rule="evenodd" clip-rule="evenodd" d="M40.3011 0.16336C40.5541 0.0203471 40.8487 -0.0309528 41.1352 0.0181259L142.071 17.3106C142.554 17.3935 142.946 17.7491 143.075 18.2224C143.204 18.6958 143.047 19.2011 142.673 19.518C137.882 23.5717 131.952 30.2421 128.073 36.3366C126.205 39.2733 123.895 45.0922 122.122 52.0192C120.356 58.9233 119.16 66.7837 119.435 73.7655C119.998 88.0258 120.215 105.415 113.688 120.005C110.507 127.116 107.942 133.74 106.175 139.413C104.4 145.114 103.46 149.759 103.46 152.947C103.46 153.326 103.29 153.685 102.996 153.924C102.703 154.164 102.318 154.259 101.947 154.184L1.0111 133.696C0.368899 133.566 -0.0667026 132.966 0.00841049 132.315C0.101311 131.51 0.0745796 130.374 0.0419131 128.987C-0.102192 122.866 -0.361804 111.84 9.02364 102.613C19.7873 92.032 22.9458 79.8173 25.0064 60.8973C25.9783 51.9736 25.8186 43.2098 25.679 35.5534C25.6716 35.1465 25.6642 34.7428 25.6571 34.3423C25.5867 30.3893 25.5386 26.7365 25.6876 23.573C25.8359 20.4264 26.1824 17.6538 26.9522 15.4986C29.9122 7.21053 35.8347 2.68783 40.3011 0.16336ZM41.1562 2.58263C37.038 4.97881 31.9261 9.07635 29.3292 16.3476C28.6892 18.1395 28.3544 20.6064 28.209 23.6919C28.0644 26.7605 28.1102 30.3325 28.1808 34.2974C28.1881 34.7079 28.1957 35.1224 28.2033 35.5407C28.3428 43.1729 28.5055 52.0825 27.5157 61.1706C25.4412 80.2188 22.209 93.1909 10.7932 104.413C2.31241 112.75 2.48004 122.227 2.59072 128.483C2.61005 129.575 2.62764 130.57 2.59714 131.443L100.992 151.415C101.23 148.011 102.213 143.645 103.765 138.663C105.569 132.87 108.174 126.15 111.383 118.975C117.638 104.994 117.478 88.175 116.913 73.8651C116.625 66.5618 117.873 58.4454 119.677 51.3934C121.476 44.3643 123.865 38.2475 125.944 34.9815C129.44 29.4877 134.514 23.5758 139.057 19.3553L41.1562 2.58263Z" fill="#3F3F3F"/>
<path fill-rule="evenodd" clip-rule="evenodd" d="M39.3042 23.7826C39.4273 23.0966 40.0832 22.6402 40.7693 22.7632L109.939 35.1687C110.625 35.2917 111.082 35.9476 110.959 36.6337C110.836 37.3198 110.18 37.7762 109.494 37.6532L40.3237 25.2477C39.6376 25.1246 39.1812 24.4687 39.3042 23.7826Z" fill="#3F3F3F"/>
<path fill-rule="evenodd" clip-rule="evenodd" d="M19.0042 108.366C19.1265 107.68 19.782 107.223 20.4682 107.345L44.7152 111.669C45.4014 111.791 45.8585 112.446 45.7362 113.133C45.6138 113.819 44.9584 114.276 44.2722 114.154L20.0251 109.83C19.3389 109.708 18.8818 109.053 19.0042 108.366Z" fill="#3F3F3F"/>
<path fill-rule="evenodd" clip-rule="evenodd" d="M39.3042 31.4887C39.4273 30.8026 40.0832 30.3462 40.7693 30.4693L109.939 42.8747C110.625 42.9978 111.082 43.6537 110.959 44.3398C110.836 45.0258 110.18 45.4823 109.494 45.3592L40.3237 32.9537C39.6376 32.8307 39.1812 32.1748 39.3042 31.4887Z" fill="#3F3F3F"/>
<path fill-rule="evenodd" clip-rule="evenodd" d="M26.523 117.012C26.646 116.326 27.3019 115.869 27.988 115.992L97.1579 128.398C97.844 128.521 98.3004 129.177 98.1774 129.863C98.0543 130.549 97.3984 131.005 96.7124 130.882L27.5424 118.477C26.8563 118.354 26.3999 117.698 26.523 117.012Z" fill="#3F3F3F"/>
<path fill-rule="evenodd" clip-rule="evenodd" d="M39.3042 39.3832C39.4273 38.6972 40.0832 38.2407 40.7693 38.3638L109.939 50.7693C110.625 50.8923 111.082 51.5482 110.959 52.2343C110.836 52.9204 110.18 53.3768 109.494 53.2538L40.3237 40.8483C39.6376 40.7252 39.1812 40.0693 39.3042 39.3832Z" fill="#3F3F3F"/>
<path fill-rule="evenodd" clip-rule="evenodd" d="M19.0044 123.966C19.1275 123.28 19.7834 122.824 20.4694 122.947L89.6394 135.352C90.3255 135.475 90.7819 136.131 90.6588 136.817C90.5358 137.503 89.8799 137.96 89.1938 137.837L20.0239 125.431C19.3378 125.308 18.8814 124.652 19.0044 123.966Z" fill="#3F3F3F"/>
<path d="M130.855 80.1018C118.373 87.3942 102.343 83.1874 95.0503 70.7056C87.7578 58.2237 91.9646 42.1935 104.446 34.901C116.928 27.6085 132.959 31.8153 140.251 44.2972C147.544 56.779 143.337 72.8093 130.855 80.1018Z" fill="#BAF0F0"/>
<path fill-rule="evenodd" clip-rule="evenodd" d="M93.7566 40.2233C93.9412 39.1942 94.9251 38.5095 95.9542 38.6941L120.551 43.1055C121.58 43.2901 122.265 44.274 122.08 45.3031C121.896 46.3322 120.912 47.0168 119.883 46.8322L95.2858 42.4208C94.2567 42.2363 93.572 41.2524 93.7566 40.2233Z" fill="#3F3F3F"/>
<path fill-rule="evenodd" clip-rule="evenodd" d="M88.3054 52.2682C88.49 51.2391 89.4739 50.5545 90.503 50.739L120.551 56.128C121.58 56.3126 122.265 57.2965 122.08 58.3256C121.895 59.3547 120.911 60.0393 119.882 59.8548L89.8346 54.4658C88.8055 54.2812 88.1209 53.2973 88.3054 52.2682Z" fill="#3F3F3F"/>
<path fill-rule="evenodd" clip-rule="evenodd" d="M89.8094 65.8781C89.9939 64.849 90.9778 64.1643 92.0069 64.3489L120.551 69.4682C121.58 69.6528 122.265 70.6367 122.08 71.6658C121.896 72.6949 120.912 73.3795 119.883 73.1949L91.3385 68.0756C90.3094 67.8911 89.6248 66.9072 89.8094 65.8781Z" fill="#3F3F3F"/>
<path d="M143.574 42.4929C151.953 56.834 147.12 75.2521 132.779 83.6308C118.438 92.0096 100.02 87.1761 91.6408 72.835C83.262 58.4939 88.0955 40.0759 102.437 31.6971C116.778 23.3184 135.196 28.1518 143.574 42.4929ZM95.4136 70.6308C102.575 82.8882 118.317 87.0194 130.574 79.858C142.832 72.6966 146.963 56.9546 139.802 44.6972C132.64 32.4398 116.898 28.3086 104.641 35.4699C92.3834 42.6313 88.2523 58.3733 95.4136 70.6308Z" fill="#FA3C4B"/>
<path d="M134.858 81.5513L139.81 90.0264L135.102 92.7773L130.15 84.3021L134.858 81.5513Z" fill="#344D6B"/>
<path fill-rule="evenodd" clip-rule="evenodd" d="M92.2242 72.3561C100.428 86.3981 118.462 91.1308 132.504 82.9268C146.546 74.7227 151.279 56.6887 143.075 42.6466C134.871 28.6045 116.837 23.8719 102.795 32.0759C88.7528 40.2799 84.0202 58.314 92.2242 72.3561ZM90.8117 73.1813C99.4715 88.0035 118.507 92.9991 133.33 84.3393C148.152 75.6795 153.147 56.6436 144.488 41.8214C135.828 26.9992 116.792 22.0036 101.97 30.6634C87.1475 39.3232 82.1519 58.3591 90.8117 73.1813Z" fill="#344D6B"/>
<path fill-rule="evenodd" clip-rule="evenodd" d="M96.4628 69.8803C103.3 81.582 118.328 85.5259 130.03 78.6892C141.731 71.8525 145.675 56.8242 138.839 45.1224C132.002 33.4207 116.973 29.4768 105.272 36.3135C93.57 43.1502 89.6261 58.1786 96.4628 69.8803ZM95.0503 70.7056C102.343 83.1874 118.373 87.3942 130.855 80.1018C143.337 72.8093 147.544 56.779 140.251 44.2972C132.959 31.8153 116.928 27.6085 104.446 34.901C91.9646 42.1935 87.7578 58.2237 95.0503 70.7056Z" fill="#344D6B"/>
<path d="M145.778 91.5928L159.533 115.135C161.052 117.735 160.176 121.075 157.575 122.594L154.75 124.245C152.15 125.764 148.81 124.888 147.291 122.287L133.536 98.745L145.778 91.5928Z" fill="#6D7486"/>
<path fill-rule="evenodd" clip-rule="evenodd" d="M158.12 115.96L145.191 93.8306L135.774 99.3323L148.703 121.462C149.767 123.282 152.105 123.896 153.925 122.832L156.75 121.182C158.57 120.118 159.184 117.78 158.12 115.96ZM145.778 91.5928L133.536 98.745L147.291 122.287C148.81 124.888 152.15 125.764 154.75 124.245L157.575 122.594C160.176 121.075 161.052 117.735 159.533 115.135L145.778 91.5928Z" fill="#344D6B"/>
<path d="M142.752 86.4136L146.603 93.0054L134.361 100.158L130.51 93.5658L142.752 86.4136Z" fill="#E0E0E2"/>
<path fill-rule="evenodd" clip-rule="evenodd" d="M144.365 92.4181L142.165 88.6514L132.748 94.1531L134.949 97.9198L144.365 92.4181ZM142.752 86.4136L130.51 93.5658L134.361 100.158L146.603 93.0054L142.752 86.4136Z" fill="#344D6B"/>
</svg>
