<svg width="154" height="130" viewBox="0 0 154 130" fill="none" xmlns="http://www.w3.org/2000/svg">
<path d="M9.09291 86.6587C-0.191164 95.7854 2.32656 106.8 1.85449 110.892L86.3551 128.044C86.3551 122.379 89.6596 111.993 95.0097 100.034C100.36 88.0749 100.203 73.7554 99.7304 61.7963C99.2584 49.8372 103.822 35.0457 107.126 29.8529C110.431 24.6601 115.466 18.9953 119.557 15.5334L35.0568 1.05658C31.4376 3.10222 26.7169 6.72143 24.3565 13.3304C21.9962 19.9394 24.5139 35.203 22.783 51.0961C21.052 66.9891 18.377 77.532 9.09291 86.6587Z" fill="#F4F4F4"/>
<path fill-rule="evenodd" clip-rule="evenodd" d="M34.5369 0.136761C34.7487 0.0170341 34.9954 -0.0259129 35.2352 0.0151745L119.736 14.492C120.141 14.5614 120.469 14.8591 120.577 15.2554C120.685 15.6516 120.553 16.0746 120.24 16.34C116.229 19.7336 111.264 25.318 108.018 30.4201C106.453 32.8786 104.52 37.75 103.036 43.5491C101.557 49.3291 100.555 55.9097 100.786 61.7546C101.257 73.693 101.439 88.2511 95.9742 100.465C93.3113 106.418 91.1642 111.964 89.6849 116.713C88.1985 121.485 87.4117 125.375 87.4117 128.044C87.4117 128.361 87.2693 128.661 87.0238 128.862C86.7783 129.062 86.4557 129.142 86.1449 129.079L1.64432 111.927C1.10668 111.818 0.74201 111.316 0.804893 110.771C0.882666 110.096 0.860288 109.146 0.83294 107.984C0.712299 102.86 0.494958 93.6293 8.35222 85.9052C17.3633 77.0469 20.0075 66.821 21.7326 50.9817C22.5462 43.511 22.4125 36.1741 22.2956 29.7644C22.2894 29.4238 22.2833 29.0858 22.2773 28.7505C22.2184 25.4412 22.1781 22.3832 22.3029 19.7348C22.427 17.1005 22.7171 14.7794 23.3615 12.975C25.8396 6.03647 30.7978 2.25018 34.5369 0.136761ZM35.2528 2.16211C31.8051 4.16814 27.5256 7.59849 25.3515 13.6858C24.8158 15.1859 24.5354 17.2511 24.4137 19.8342C24.2926 22.4032 24.331 25.3936 24.3901 28.7129C24.3962 29.0566 24.4026 29.4036 24.409 29.7538C24.5257 36.1433 24.6619 43.6021 23.8333 51.2104C22.0965 67.1572 19.3907 78.0171 9.8336 87.4121C2.73374 94.3917 2.87408 102.325 2.96674 107.563C2.98292 108.477 2.99764 109.31 2.97211 110.04L85.3459 126.761C85.5454 123.911 86.3682 120.256 87.6674 116.085C89.1778 111.236 91.3581 105.609 94.0453 99.6026C99.2812 87.8986 99.1476 73.8179 98.6747 61.838C98.4333 55.7238 99.4778 48.929 100.989 43.0253C102.494 37.1406 104.495 32.0199 106.235 29.2856C109.162 24.6864 113.41 19.737 117.213 16.2037L35.2528 2.16211Z" fill="#3F3F3F"/>
<path fill-rule="evenodd" clip-rule="evenodd" d="M33.7023 19.9102C33.8053 19.3359 34.3544 18.9538 34.9288 19.0568L92.8361 29.4423C93.4105 29.5453 93.7926 30.0945 93.6896 30.6688C93.5866 31.2432 93.0375 31.6253 92.4631 31.5223L34.5558 21.1367C33.9814 21.0337 33.5993 20.4846 33.7023 19.9102Z" fill="#3F3F3F"/>
<path fill-rule="evenodd" clip-rule="evenodd" d="M16.706 90.7219C16.8085 90.1474 17.3572 89.7647 17.9317 89.8672L38.2307 93.4864C38.8052 93.5888 39.1878 94.1375 39.0854 94.712C38.983 95.2865 38.4342 95.6691 37.8598 95.5667L17.5607 91.9475C16.9863 91.8451 16.6036 91.2963 16.706 90.7219Z" fill="#3F3F3F"/>
<path fill-rule="evenodd" clip-rule="evenodd" d="M33.7023 26.3618C33.8053 25.7875 34.3544 25.4054 34.9288 25.5084L92.8361 35.8939C93.4105 35.9969 93.7926 36.5461 93.6896 37.1204C93.5866 37.6948 93.0375 38.0769 92.4631 37.9739L34.5558 27.5883C33.9814 27.4853 33.5993 26.9362 33.7023 26.3618Z" fill="#3F3F3F"/>
<path fill-rule="evenodd" clip-rule="evenodd" d="M23.0011 97.9592C23.1042 97.3849 23.6533 97.0028 24.2276 97.1058L82.135 107.491C82.7093 107.594 83.0914 108.143 82.9884 108.718C82.8854 109.292 82.3363 109.674 81.7619 109.571L23.8546 99.1857C23.2802 99.0827 22.8981 98.5336 23.0011 97.9592Z" fill="#3F3F3F"/>
<path fill-rule="evenodd" clip-rule="evenodd" d="M33.7023 32.9708C33.8053 32.3965 34.3544 32.0144 34.9288 32.1174L92.8361 42.5029C93.4105 42.606 93.7926 43.1551 93.6896 43.7294C93.5866 44.3038 93.0375 44.6859 92.4631 44.5829L34.5558 34.1973C33.9814 34.0943 33.5993 33.5452 33.7023 32.9708Z" fill="#3F3F3F"/>
<path fill-rule="evenodd" clip-rule="evenodd" d="M16.7062 103.781C16.8092 103.207 17.3584 102.825 17.9327 102.928L75.84 113.314C76.4144 113.417 76.7965 113.966 76.6935 114.54C76.5905 115.114 76.0414 115.496 75.467 115.393L17.5597 105.008C16.9853 104.905 16.6032 104.356 16.7062 103.781Z" fill="#3F3F3F"/>
<path d="M110.346 67.059C99.8967 73.1641 86.4766 69.6423 80.3715 59.1928C74.2664 48.7433 77.7882 35.3232 88.2377 29.2181C98.6872 23.113 112.107 26.6349 118.212 37.0844C124.318 47.5338 120.796 60.954 110.346 67.059Z" fill="#BAF0F0"/>
<path fill-rule="evenodd" clip-rule="evenodd" d="M79.2888 33.6737C79.4433 32.8122 80.267 32.239 81.1286 32.3935L101.72 36.0866C102.582 36.2412 103.155 37.0648 103.001 37.9264C102.846 38.7879 102.022 39.3611 101.161 39.2066L80.569 35.5135C79.7075 35.3589 79.1343 34.5353 79.2888 33.6737Z" fill="#3F3F3F"/>
<path fill-rule="evenodd" clip-rule="evenodd" d="M74.7244 43.7576C74.8789 42.896 75.7026 42.3229 76.5641 42.4774L101.719 46.9889C102.581 47.1434 103.154 47.9671 103 48.8286C102.845 49.6902 102.021 50.2633 101.16 50.1088L76.0046 45.5973C75.143 45.4428 74.5699 44.6191 74.7244 43.7576Z" fill="#3F3F3F"/>
<path fill-rule="evenodd" clip-rule="evenodd" d="M75.9841 55.1515C76.1387 54.2899 76.9623 53.7168 77.8239 53.8713L101.72 58.1571C102.582 58.3116 103.155 59.1352 103 59.9968C102.846 60.8583 102.022 61.4315 101.161 61.277L77.2643 56.9912C76.4028 56.8367 75.8296 56.013 75.9841 55.1515Z" fill="#3F3F3F"/>
<path d="M120.995 35.5739C128.009 47.5799 123.963 62.999 111.957 70.0135C99.9508 77.028 84.5317 72.9815 77.5172 60.9755C70.5028 48.9695 74.5492 33.5504 86.5552 26.5359C98.5612 19.5214 113.98 23.5679 120.995 35.5739ZM80.6757 59.1302C86.6711 69.3918 99.8499 72.8503 110.111 66.855C120.373 60.8597 123.832 47.6808 117.836 37.4192C111.841 27.1576 98.6622 23.6991 88.4006 29.6944C78.139 35.6897 74.6804 48.8686 80.6757 59.1302Z" fill="#FA3C4B"/>
<path d="M113.699 68.2726L117.845 75.3678L113.903 77.6707L109.757 70.5755L113.699 68.2726Z" fill="#344D6B"/>
<path fill-rule="evenodd" clip-rule="evenodd" d="M78.0061 60.5745C84.8743 72.3302 99.972 76.2923 111.728 69.4241C123.483 62.5559 127.445 47.4582 120.577 35.7026C113.709 23.9469 98.6113 19.9848 86.8556 26.853C75.1 33.7212 71.1379 48.8189 78.0061 60.5745ZM76.8236 61.2654C84.0734 73.6742 100.01 77.8564 112.419 70.6066C124.827 63.3568 129.009 47.4204 121.76 35.0117C114.51 22.6029 98.5735 18.4207 86.1648 25.6705C73.756 32.9203 69.5738 48.8567 76.8236 61.2654Z" fill="#344D6B"/>
<path fill-rule="evenodd" clip-rule="evenodd" d="M81.554 58.5019C87.2775 68.2983 99.8589 71.6 109.655 65.8765C119.452 60.153 122.753 47.5716 117.03 37.7752C111.306 27.9788 98.725 24.6771 88.9286 30.4006C79.1322 36.1241 75.8305 48.7055 81.554 58.5019ZM80.3715 59.1928C86.4766 69.6423 99.8967 73.1641 110.346 67.059C120.796 60.954 124.318 47.5338 118.212 37.0844C112.107 26.6349 98.6872 23.113 88.2377 29.2181C77.7882 35.3232 74.2664 48.7433 80.3715 59.1928Z" fill="#344D6B"/>
<path d="M122.84 76.6788L134.355 96.3877C135.627 98.5646 134.893 101.36 132.716 102.632L130.351 104.014C128.174 105.286 125.378 104.552 124.106 102.375L112.591 82.6665L122.84 76.6788Z" fill="#6D7486"/>
<path fill-rule="evenodd" clip-rule="evenodd" d="M133.172 97.0785L122.348 78.5523L114.465 83.1582L125.289 101.684C126.179 103.208 128.136 103.722 129.66 102.832L132.025 101.45C133.549 100.56 134.062 98.6024 133.172 97.0785ZM122.84 76.6788L112.591 82.6665L124.106 102.375C125.378 104.552 128.174 105.286 130.351 104.014L132.716 102.632C134.893 101.36 135.627 98.5646 134.355 96.3877L122.84 76.6788Z" fill="#344D6B"/>
<path d="M120.307 72.3429L123.531 77.8613L113.282 83.849L110.058 78.3306L120.307 72.3429Z" fill="#E0E0E2"/>
<path fill-rule="evenodd" clip-rule="evenodd" d="M121.657 77.3697L119.815 74.2163L111.931 78.8222L113.774 81.9756L121.657 77.3697ZM120.307 72.3429L110.058 78.3306L113.282 83.849L123.531 77.8613L120.307 72.3429Z" fill="#344D6B"/>
</svg>
