<svg width="221" height="141" viewBox="0 0 221 141" fill="none" xmlns="http://www.w3.org/2000/svg">
<path fill-rule="evenodd" clip-rule="evenodd" d="M184.328 75.3254C184.328 74.5259 185.085 73.8778 186.019 73.8778H219.31C220.244 73.8778 221.001 74.5259 221.001 75.3254C221.001 76.1249 220.244 76.773 219.31 76.773H186.019C185.085 76.773 184.328 76.1249 184.328 75.3254Z" fill="black"/>
<path fill-rule="evenodd" clip-rule="evenodd" d="M184.328 66.6399C184.328 65.8404 185.085 65.1923 186.019 65.1923H219.31C220.244 65.1923 221.001 65.8404 221.001 66.6399C221.001 67.4393 220.244 68.0875 219.31 68.0875H186.019C185.085 68.0875 184.328 67.4393 184.328 66.6399Z" fill="black"/>
<path fill-rule="evenodd" clip-rule="evenodd" d="M159.236 59.6896C159.236 57.9317 160.729 56.5067 162.571 56.5067H174.582C175.503 56.5067 176.249 57.2192 176.249 58.0982C176.249 58.9771 175.503 59.6896 174.582 59.6896L162.571 59.6896V73.5902H177.133V67.9477C177.133 67.0687 177.88 66.3562 178.801 66.3562C179.721 66.3562 180.468 67.0687 180.468 67.9477V73.5902C180.468 75.3481 178.975 76.7731 177.133 76.7731H162.571C160.729 76.7731 159.236 75.3481 159.236 73.5902V59.6896Z" fill="black"/>
<path d="M170.667 71.6766L165.228 65.4302C164.669 64.7887 165.369 63.8316 166.143 64.1778L170.598 66.1698C170.892 66.3012 171.236 66.2401 171.468 66.0152L182.013 55.7751C182.717 55.0911 183.784 56.052 183.188 56.8332L171.888 71.6369C171.584 72.0346 170.996 72.0538 170.667 71.6766Z" fill="black"/>
<path fill-rule="evenodd" clip-rule="evenodd" d="M184.328 107.655C184.328 106.589 185.085 105.725 186.019 105.725H219.31C220.244 105.725 221.001 106.589 221.001 107.655C221.001 108.721 220.244 109.585 219.31 109.585H186.019C185.085 109.585 184.328 108.721 184.328 107.655Z" fill="black"/>
<path fill-rule="evenodd" clip-rule="evenodd" d="M184.328 98.9696C184.328 97.9036 185.085 97.0394 186.019 97.0394H219.31C220.244 97.0394 221.001 97.9036 221.001 98.9696C221.001 100.036 220.244 100.9 219.31 100.9H186.019C185.085 100.9 184.328 100.036 184.328 98.9696Z" fill="black"/>
<path fill-rule="evenodd" clip-rule="evenodd" d="M159.236 90.8748C159.236 88.9495 160.729 87.3888 162.571 87.3888H174.582C175.503 87.3888 176.249 88.1692 176.249 89.1318C176.249 90.0944 175.503 90.8748 174.582 90.8748L162.571 90.8748V106.099L177.133 106.099V99.9194C177.133 98.9567 177.88 98.1764 178.801 98.1764C179.721 98.1764 180.468 98.9567 180.468 99.9194V106.099C180.468 108.025 178.975 109.585 177.133 109.585H162.571C160.729 109.585 159.236 108.025 159.236 106.099V90.8748Z" fill="black"/>
<path d="M170.667 102.559L165.228 96.3122C164.669 95.6707 165.369 94.7137 166.143 95.0599L170.598 97.0518C170.892 97.1833 171.236 97.1222 171.468 96.8973L182.013 86.6572C182.717 85.9732 183.784 86.9341 183.188 87.7153L171.888 102.519C171.584 102.917 170.996 102.936 170.667 102.559Z" fill="black"/>
<path fill-rule="evenodd" clip-rule="evenodd" d="M184.328 139.02C184.328 138.22 185.085 137.572 186.019 137.572H219.31C220.244 137.572 221.001 138.22 221.001 139.02C221.001 139.819 220.244 140.467 219.31 140.467H186.019C185.085 140.467 184.328 139.819 184.328 139.02Z" fill="black"/>
<path fill-rule="evenodd" clip-rule="evenodd" d="M184.328 129.852C184.328 128.786 185.085 127.921 186.019 127.921H219.31C220.244 127.921 221.001 128.786 221.001 129.852C221.001 130.917 220.244 131.782 219.31 131.782H186.019C185.085 131.782 184.328 130.917 184.328 129.852Z" fill="black"/>
<path fill-rule="evenodd" clip-rule="evenodd" d="M159.236 122.57C159.236 120.729 160.729 119.236 162.571 119.236H174.582C175.503 119.236 176.249 119.982 176.249 120.903C176.249 121.824 175.503 122.57 174.582 122.57L162.571 122.57V137.133L177.133 137.133V131.222C177.133 130.301 177.88 129.554 178.801 129.554C179.721 129.554 180.468 130.301 180.468 131.222V137.133C180.468 138.974 178.975 140.467 177.133 140.467H162.571C160.729 140.467 159.236 138.974 159.236 137.133V122.57Z" fill="black"/>
<path d="M170.667 135.355L165.228 128.741C164.669 128.062 165.369 127.048 166.143 127.415L170.598 129.524C170.892 129.663 171.236 129.599 171.468 129.36L182.013 118.518C182.717 117.794 183.784 118.811 183.188 119.638L171.888 135.313C171.584 135.734 170.996 135.754 170.667 135.355Z" fill="black"/>
<path fill-rule="evenodd" clip-rule="evenodd" d="M184.328 43.4782C184.328 42.6788 185.085 42.0306 186.019 42.0306H219.31C220.244 42.0306 221.001 42.6788 221.001 43.4782C221.001 44.2777 220.244 44.9258 219.31 44.9258H186.019C185.085 44.9258 184.328 44.2777 184.328 43.4782Z" fill="black"/>
<path fill-rule="evenodd" clip-rule="evenodd" d="M184.328 34.3101C184.328 33.2442 185.085 32.38 186.019 32.38H219.31C220.244 32.38 221.001 33.2442 221.001 34.3101C221.001 35.3761 220.244 36.2403 219.31 36.2403H186.019C185.085 36.2403 184.328 35.3761 184.328 34.3101Z" fill="black"/>
<path fill-rule="evenodd" clip-rule="evenodd" d="M159.236 27.1805C159.236 25.2552 160.729 23.6945 162.571 23.6945H174.582C175.503 23.6945 176.249 24.4748 176.249 25.4375C176.249 26.4001 175.503 27.1805 174.582 27.1805L162.571 27.1805V42.4049L177.133 42.4049V36.225C177.133 35.2624 177.88 34.482 178.801 34.482C179.721 34.482 180.468 35.2624 180.468 36.225V42.4049C180.468 44.3302 178.975 45.891 177.133 45.891H162.571C160.729 45.891 159.236 44.3302 159.236 42.4049V27.1805Z" fill="black"/>
<path d="M170.667 38.8643L165.228 32.6179C164.669 31.9764 165.369 31.0194 166.143 31.3656L170.598 33.3575C170.892 33.489 171.236 33.4279 171.468 33.203L182.013 22.9628C182.717 22.2788 183.784 23.2397 183.188 24.021L171.888 38.8246C171.584 39.2224 170.996 39.2415 170.667 38.8643Z" fill="black"/>
<path d="M82.9959 15.9738C87.2598 15.9738 90.7164 12.7332 90.7164 8.73579C90.7164 4.73836 87.2598 1.4978 82.9959 1.4978C78.732 1.4978 75.2754 4.73836 75.2754 8.73579C75.2754 12.7332 78.732 15.9738 82.9959 15.9738Z" fill="#784707"/>
<path fill-rule="evenodd" clip-rule="evenodd" d="M83.4784 2.17619C79.8556 2.17619 76.9187 5.11307 76.9187 8.73589C76.9187 12.3587 79.8556 15.2956 83.4784 15.2956C87.1013 15.2956 90.0381 12.3587 90.0381 8.73589C90.0381 5.11307 87.1013 2.17619 83.4784 2.17619ZM75.2754 8.73589C75.2754 4.20547 78.948 0.532837 83.4784 0.532837C88.0089 0.532837 91.6815 4.20547 91.6815 8.73589C91.6815 13.2663 88.0089 16.9389 83.4784 16.9389C78.948 16.9389 75.2754 13.2663 75.2754 8.73589Z" fill="black"/>
<path d="M22.1962 121.557V33.9188C22.1962 32.536 21.332 31.4149 20.2661 31.4149C19.2001 31.4149 18.3359 32.536 18.3359 33.9189V121.557C18.3359 122.94 19.2001 124.061 20.2661 124.061C21.332 124.061 22.1962 122.94 22.1962 121.557Z" fill="#337AB5"/>
<path fill-rule="evenodd" clip-rule="evenodd" d="M17.3711 33.7991C17.3711 31.9494 18.6673 30.4498 20.2663 30.4498C21.8653 30.4498 23.1615 31.9493 23.1615 33.7991V121.677C23.1615 123.527 21.8653 125.026 20.2663 125.026C18.6673 125.026 17.3711 123.527 17.3711 121.677V33.7991ZM20.2663 32.1268C19.4679 32.1268 18.8207 32.8755 18.8207 33.7991V121.677C18.8207 122.6 19.4679 123.349 20.2663 123.349C21.0646 123.349 21.7118 122.6 21.7118 121.677V33.7991C21.7118 32.8755 21.0646 32.1268 20.2663 32.1268Z" fill="black"/>
<path d="M82.9961 51.6812V56.6997L85.148 84.6766C85.3495 87.296 87.5338 89.3187 90.1609 89.3187H90.5142C93.291 89.3187 95.5419 87.0677 95.5419 84.291V51.6812H82.9961Z" fill="#E78A34"/>
<path fill-rule="evenodd" clip-rule="evenodd" d="M82.0312 50.7161H96.5072V84.3801C96.5072 87.6406 93.8341 90.2837 90.5367 90.2837H90.1771C87.0573 90.2837 84.4634 87.9087 84.2242 84.8329L82.0312 56.6428V50.7161ZM83.7371 52.4028V56.5781L85.925 84.7035C86.0959 86.9005 87.9486 88.597 90.1771 88.597H90.5367C92.892 88.597 94.8014 86.709 94.8014 84.3801V52.4028H83.7371Z" fill="black"/>
<path d="M70.4499 96.0741H58.8691V128.886H70.4499V96.0741Z" fill="#E78A34"/>
<path fill-rule="evenodd" clip-rule="evenodd" d="M57.9043 95.1091H71.4152V129.851H57.9043V95.1091ZM59.6833 96.7945V128.166H69.6362V96.7945H59.6833Z" fill="black"/>
<path d="M70.4505 96.0741H82.0312V128.886H70.4505V96.0741Z" fill="#E78A34"/>
<path fill-rule="evenodd" clip-rule="evenodd" d="M82.9961 95.1091H69.4852V129.851H82.9961V95.1091ZM81.217 96.7945V128.166H71.2642V96.7945H81.217Z" fill="black"/>
<path d="M82.6015 57.0262V34.3099H58.2986V57.0262L54.0779 94.286C53.7374 97.2926 55.9993 99.9344 58.9142 99.9344H81.9859C84.9008 99.9344 87.1627 97.2926 86.8222 94.286L82.6015 57.0262Z" fill="#E78A34"/>
<path fill-rule="evenodd" clip-rule="evenodd" d="M57.3718 33.345H83.5288V56.9401L87.7814 94.2859C88.1823 97.8063 85.5199 100.9 82.0888 100.9H58.8117C55.3807 100.9 52.7182 97.8063 53.1191 94.2859L57.3718 56.9401V33.345ZM59.0095 35.0369V57.0393L54.7456 94.4835C54.4592 96.9981 56.361 99.2076 58.8117 99.2076H82.0888C84.5396 99.2076 86.4413 96.9981 86.155 94.4835L81.8911 57.0393V35.0369H59.0095Z" fill="black"/>
<path d="M78.7423 11.2305C76.0064 6.5981 69.8483 4.95495 64.9847 7.5607C61.7955 9.2689 59.8247 12.4874 59.835 15.9738V20.7991C59.835 26.1287 64.3718 30.4497 69.9674 30.4497C70.2991 30.4497 70.6337 30.4353 70.9629 30.4038C76.2495 29.7766 80.1885 25.4555 80.0999 20.3839V15.9741C80.0895 14.3069 79.6209 12.6711 78.7423 11.2305Z" fill="#E78A34"/>
<path fill-rule="evenodd" clip-rule="evenodd" d="M79.6445 10.7371C76.7764 5.65866 70.326 3.85783 65.2312 6.71584C61.8897 8.58979 59.8246 12.1205 59.835 15.9451V20.829C59.835 26.6751 64.5878 31.4148 70.45 31.4148C70.7954 31.4148 71.1463 31.399 71.4941 31.3642L71.5039 31.3633L71.5136 31.362C77.0375 30.6758 81.1541 25.95 81.065 20.4021V15.9419L81.065 15.9394C81.0541 14.1111 80.5638 12.3173 79.6445 10.7371ZM78.2215 11.5419C75.7976 7.2447 70.342 5.72066 66.0332 8.13772C63.2078 9.72221 61.4617 12.7077 61.4709 15.9417L61.4709 15.944L61.4709 20.829C61.4709 25.7741 65.4913 29.7834 70.45 29.7834C70.7427 29.7834 71.0355 29.7701 71.3211 29.7419C76.0132 29.1541 79.5079 25.1367 79.4292 20.4223L79.4291 20.4155V15.9468C79.4195 14.4022 79.0047 12.8865 78.2271 11.5517L78.2242 11.5468L78.2215 11.5419Z" fill="black"/>
<path d="M35.4949 54.1255H19.6878C17.3426 54.1255 15.4414 56.0409 15.4414 58.4037V59.9489C15.4414 62.3117 17.3426 64.2271 19.6878 64.2271H40.4355C42.0549 64.2271 43.5738 63.4392 44.5137 62.1106L52.1139 51.6L43.0147 43.9607L35.4949 54.1255Z" fill="#E78A34"/>
<path fill-rule="evenodd" clip-rule="evenodd" d="M42.7107 42.9956L53.0792 51.6595L45.0291 62.74C43.9331 64.2794 42.1635 65.1921 40.2774 65.1921H19.5541C16.7499 65.1921 14.4766 62.9126 14.4766 60.1006V58.5645C14.4766 55.7526 16.7499 53.473 19.5541 53.473H34.923L42.7107 42.9956ZM42.9965 45.4171L35.7622 55.1499H19.5541C17.6734 55.1499 16.1488 56.6787 16.1488 58.5645V60.1006C16.1488 61.9865 17.6734 63.5153 19.5541 63.5153H40.2774C41.6248 63.5153 42.8882 62.8629 43.67 61.763L43.6725 61.7595L50.805 51.942L42.9965 45.4171Z" fill="black"/>
<path d="M83.16 57.0263V34.3101H78.0762L71.9047 44.5232C71.2456 45.6139 69.6538 45.6146 68.9938 44.5245L62.8094 34.3101H57.7405V57.0263L53.1028 96.1689C52.8653 98.1733 54.4426 99.9345 56.4751 99.9345H84.4254C86.458 99.9345 88.0352 98.1733 87.7977 96.1689L83.16 57.0263Z" fill="#EBEBEB"/>
<path fill-rule="evenodd" clip-rule="evenodd" d="M56.8045 33.345H63.2432L69.7159 44.0065C70.048 44.5536 70.849 44.5533 71.1806 44.0059L77.6403 33.345H84.0945V56.9401L88.7559 96.1755C89.0547 98.6901 87.0706 100.9 84.5137 100.9H56.3854C53.8285 100.9 51.8444 98.6901 52.1431 96.1755L56.8045 56.9401V33.345ZM58.5131 35.0369V57.0393L53.84 96.3732C53.6608 97.8819 54.8512 99.2076 56.3854 99.2076H84.5137C86.0478 99.2076 87.2383 97.8819 87.059 96.3732L82.3859 57.0393V35.0369H78.6077L72.6458 44.8764C71.6508 46.5184 69.2479 46.5195 68.2515 44.8783L62.2767 35.0369H58.5131Z" fill="black"/>
<path d="M85.8569 83.6801L82.742 56.5066H58.1579L55.0429 83.6801C54.7257 86.449 56.6532 88.9577 59.3501 89.2833C59.542 89.3059 59.7361 89.3188 59.9277 89.3188H80.9716C83.688 89.3188 85.8883 87.0597 85.8909 84.2734C85.8914 84.0741 85.8794 83.8771 85.8569 83.6801Z" fill="#4398D1"/>
<path fill-rule="evenodd" clip-rule="evenodd" d="M57.3128 56.5066H83.5876L86.8162 83.8412C86.8424 84.0639 86.8568 84.2898 86.8561 84.5205C86.8526 87.7034 84.2624 90.2839 81.065 90.2839H59.8347C59.6058 90.2839 59.3782 90.269 59.1577 90.2438L59.1553 90.2435C55.9798 89.8713 53.7108 87.0046 54.0842 83.8413L57.3128 56.5066ZM86.8561 84.5205C86.8561 84.5206 86.8561 84.5208 86.8561 84.521L86.0285 84.5186L86.8561 84.5194C86.8561 84.5197 86.8561 84.5201 86.8561 84.5205ZM58.7858 58.1572L55.7294 84.0341C55.7293 84.0341 55.7294 84.0341 55.7294 84.0341C55.4628 86.2925 57.0823 88.3381 59.3478 88.6041C59.5139 88.623 59.6775 88.6333 59.8347 88.6333H81.065C83.3482 88.6333 85.1975 86.7906 85.1996 84.5178L85.1996 84.5162C85.2001 84.3568 85.1902 84.197 85.171 84.0341L82.1146 58.1572H58.7858Z" fill="black"/>
<path d="M58.2594 128.886C57.637 128.886 57.0655 129.22 56.7738 129.753L53.2776 136.142C52.6833 137.228 53.4951 138.537 54.7631 138.537H70.4503V128.886H58.2594Z" fill="#4398D1"/>
<path fill-rule="evenodd" clip-rule="evenodd" d="M58.2137 129.595C57.8985 129.595 57.609 129.766 57.4613 130.04L53.9197 136.599C53.6187 137.156 54.0299 137.828 54.6721 137.828H69.7111V129.595H58.2137ZM55.9565 129.255C56.3997 128.435 57.268 127.921 58.2137 127.921H71.4146V139.502H54.6721C52.7454 139.502 51.5118 137.487 52.4149 135.814L55.9565 129.255Z" fill="black"/>
<path d="M82.641 128.886C83.2634 128.886 83.8349 129.22 84.1266 129.753L87.6228 136.142C88.2171 137.228 87.4053 138.537 86.1373 138.537H70.4501V128.886H82.641Z" fill="#4398D1"/>
<path fill-rule="evenodd" clip-rule="evenodd" d="M82.6857 129.595C83.0009 129.595 83.2904 129.766 83.4381 130.04L86.9797 136.599C87.2808 137.156 86.8695 137.828 86.2273 137.828H71.1884V129.595H82.6857ZM84.9429 129.255C84.4997 128.435 83.6314 127.921 82.6857 127.921H69.4848V139.502H86.2273C88.154 139.502 89.3876 137.487 88.4845 135.814L84.9429 129.255Z" fill="black"/>
<path d="M54.0435 34.3101C51.6142 34.3101 49.3263 35.4143 47.8672 37.288L42.4629 44.1745L51.8046 51.6812L54.8183 47.4389C55.1388 46.9878 55.6693 46.7181 56.2364 46.7181H57.9039V34.3101H54.0435Z" fill="#EBEBEB"/>
<path fill-rule="evenodd" clip-rule="evenodd" d="M47.3593 36.6326C48.9703 34.5643 51.4962 33.345 54.1789 33.345H58.8692V47.3248H56.358C56.0763 47.3248 55.8127 47.4588 55.6534 47.683L52.1282 52.6463L41.498 44.1027L47.3584 36.6338C47.3587 36.6334 47.359 36.633 47.3593 36.6326ZM54.1789 34.9924C52.034 34.9924 50.0132 35.9676 48.7242 37.623L48.7223 37.6255L43.8436 43.8434L51.7798 50.2218L54.2443 46.752C54.7219 46.0795 55.5128 45.6774 56.358 45.6774H57.1611V34.9924H54.1789Z" fill="black"/>
<path d="M38.6029 136.064C38.6029 137.963 37.0775 139.502 35.1959 139.502H6.30257C4.4209 139.502 2.89551 137.963 2.89551 136.064V124.061H38.6029V136.064Z" fill="#97D3E6"/>
<path fill-rule="evenodd" clip-rule="evenodd" d="M1.93066 123.096H39.5682V136.117C39.5682 138.52 37.6499 140.467 35.2836 140.467H6.21528C3.84895 140.467 1.93066 138.52 1.93066 136.117V123.096ZM3.64451 124.836V136.117C3.64451 137.559 4.79549 138.727 6.21528 138.727H35.2836C36.7034 138.727 37.8544 137.559 37.8544 136.117V124.836H3.64451Z" fill="black"/>
<path fill-rule="evenodd" clip-rule="evenodd" d="M7.72092 129.852C8.25392 129.852 8.68599 130.252 8.68599 130.746V138.608C8.68599 139.102 8.25392 139.502 7.72092 139.502C7.18793 139.502 6.75586 139.102 6.75586 138.608V130.746C6.75586 130.252 7.18793 129.852 7.72092 129.852Z" fill="black"/>
<path fill-rule="evenodd" clip-rule="evenodd" d="M12.5461 129.851C13.0791 129.851 13.5112 130.252 13.5112 130.746V138.608C13.5112 139.102 13.0791 139.502 12.5461 139.502C12.0131 139.502 11.5811 139.102 11.5811 138.608V130.746C11.5811 130.252 12.0131 129.851 12.5461 129.851Z" fill="black"/>
<path fill-rule="evenodd" clip-rule="evenodd" d="M16.4065 129.851C16.9395 129.851 17.3715 130.252 17.3715 130.746V138.608C17.3715 139.102 16.9395 139.502 16.4065 139.502C15.8735 139.502 15.4414 139.102 15.4414 138.608V130.746C15.4414 130.252 15.8735 129.851 16.4065 129.851Z" fill="black"/>
<path fill-rule="evenodd" clip-rule="evenodd" d="M25.092 129.851C25.625 129.851 26.0571 130.252 26.0571 130.746V138.608C26.0571 139.102 25.625 139.502 25.092 139.502C24.559 139.502 24.127 139.102 24.127 138.608V130.746C24.127 130.252 24.559 129.851 25.092 129.851Z" fill="black"/>
<path fill-rule="evenodd" clip-rule="evenodd" d="M33.7776 129.851C34.3106 129.851 34.7426 130.252 34.7426 130.746V138.608C34.7426 139.102 34.3106 139.502 33.7776 139.502C33.2446 139.502 32.8125 139.102 32.8125 138.608V130.746C32.8125 130.252 33.2446 129.851 33.7776 129.851Z" fill="black"/>
<path fill-rule="evenodd" clip-rule="evenodd" d="M29.9172 129.851C30.4502 129.851 30.8823 130.252 30.8823 130.746V138.608C30.8823 139.102 30.4502 139.502 29.9172 139.502C29.3842 139.502 28.9521 139.102 28.9521 138.608V130.746C28.9521 130.252 29.3842 129.851 29.9172 129.851Z" fill="black"/>
<path fill-rule="evenodd" clip-rule="evenodd" d="M21.2317 129.851C21.7647 129.851 22.1967 130.252 22.1967 130.746V138.608C22.1967 139.102 21.7647 139.502 21.2317 139.502C20.6987 139.502 20.2666 139.102 20.2666 138.608V130.746C20.2666 130.252 20.6987 129.851 21.2317 129.851Z" fill="black"/>
<path d="M37.0947 121.166H2.47298C1.10719 121.166 0 122.462 0 124.061C0 125.66 1.10719 126.956 2.47298 126.956H37.0947C38.4605 126.956 39.5677 125.66 39.5677 124.061C39.5677 122.462 38.4605 121.166 37.0947 121.166Z" fill="#337AB5"/>
<path fill-rule="evenodd" clip-rule="evenodd" d="M0 123.579C0 121.713 1.45234 120.201 3.2439 120.201H37.2888C39.0804 120.201 40.5327 121.713 40.5327 123.579C40.5327 125.444 39.0804 126.956 37.2888 126.956H3.2439C1.45234 126.956 0 125.444 0 123.579ZM3.2439 121.892C2.34938 121.892 1.62423 122.647 1.62423 123.579C1.62423 124.51 2.34938 125.265 3.2439 125.265H37.2888C38.1833 125.265 38.9085 124.51 38.9085 123.579C38.9085 122.647 38.1833 121.892 37.2888 121.892H3.2439Z" fill="black"/>
<path d="M95.5419 44.2364C95.5419 38.7545 91.0481 34.3101 85.5054 34.3101H82.9961V51.6812H95.5419V44.2364Z" fill="#EBEBEB"/>
<path fill-rule="evenodd" clip-rule="evenodd" d="M82.0303 33.345H85.4373C91.5502 33.345 96.5062 38.2295 96.5062 44.2541V52.6463H82.0303V33.345ZM83.7361 35.0262V50.965H94.8004V44.2541C94.8004 39.158 90.6081 35.0262 85.4373 35.0262H83.7361Z" fill="black"/>
<path d="M131.573 136.719C131.306 138.325 129.923 139.502 128.303 139.502H109.104C107.483 139.502 106.1 138.325 105.834 136.719L101.332 109.585H136.074L131.573 136.719Z" fill="#4398D1"/>
<path fill-rule="evenodd" clip-rule="evenodd" d="M100.367 108.62H137.04L132.38 136.96C132.048 138.984 130.32 140.467 128.296 140.467H109.111C107.087 140.467 105.359 138.984 105.026 136.96L100.367 108.62ZM102.322 110.299L106.66 136.684C106.86 137.898 107.896 138.788 109.111 138.788H128.296C129.511 138.788 130.547 137.898 130.747 136.684L135.084 110.299H102.322Z" fill="black"/>
<path d="M136.074 109.585H131.111V104.438C131.111 97.3327 125.555 91.5706 118.703 91.5706C111.851 91.5706 106.295 97.3327 106.295 104.438V109.585H101.332V104.438C101.332 94.4891 109.109 86.4236 118.703 86.4236C128.297 86.4236 136.074 94.4891 136.074 104.438V109.585Z" fill="#97D3E6"/>
<path fill-rule="evenodd" clip-rule="evenodd" d="M118.703 87.1253C109.499 87.1253 102.037 94.5733 102.037 103.761V107.918H105.368V103.761C105.368 96.4102 111.339 90.4495 118.703 90.4495C126.068 90.4495 132.039 96.4102 132.039 103.761V107.918H135.37V103.761C135.37 94.5733 127.908 87.1253 118.703 87.1253ZM136.205 108.752H137.04V103.761C137.04 93.6528 128.83 85.4585 118.703 85.4585C108.577 85.4585 100.367 93.6528 100.367 103.761V109.585H107.037V103.761C107.037 97.3307 112.262 92.1163 118.703 92.1163C125.145 92.1163 130.369 97.3307 130.369 103.761V109.585H136.205V108.752Z" fill="black"/>
<path d="M79.1353 11.5225C76.3424 6.61447 70.056 4.87353 65.0911 7.63435C61.8354 9.44421 59.8235 12.8543 59.834 16.5481V20.7991C65.365 19.6159 74.0203 16.988 79.1353 11.5225Z" fill="#784707"/>
<path fill-rule="evenodd" clip-rule="evenodd" d="M65.2737 6.69707C70.4112 3.87792 76.9161 5.65576 79.8059 10.6672L80.1003 11.1778L79.6925 11.6078C74.6219 16.9546 66.1311 19.4698 60.833 20.5883L59.834 20.7992V15.7979C59.8235 12.0265 61.9052 8.54499 65.2737 6.69707ZM78.0543 10.9506C75.478 7.10231 70.2483 5.81306 66.0822 8.09917C63.2341 9.66161 61.4739 12.6056 61.4831 15.7945L61.4831 15.7968L61.4831 18.7962C66.5557 17.6343 73.6097 15.3169 78.0543 10.9506Z" fill="black"/>
</svg>
