<svg width="203" height="73" viewBox="0 0 203 73" fill="none" xmlns="http://www.w3.org/2000/svg">
<path d="M105.341 21.5277C104.521 21.5277 103.785 21.3863 103.135 21.1317C102.484 20.8771 101.918 20.5093 101.494 20.0849C101.069 19.6323 100.702 19.1231 100.419 18.5573C100.136 17.9632 99.9094 17.3691 99.7962 16.7467C99.6831 16.1243 99.5982 15.4736 99.5982 14.7946C99.5982 14.1157 99.6548 13.465 99.7962 12.8426C99.9094 12.2202 100.136 11.5978 100.419 11.032C100.702 10.4379 101.069 9.92869 101.494 9.50433C101.918 9.05169 102.456 8.7122 103.135 8.45759C103.813 8.20298 104.521 8.06152 105.341 8.06152C106.36 8.06152 107.237 8.25956 108 8.65562C108.764 9.05169 109.358 9.5892 109.783 10.2399C110.207 10.9189 110.547 11.6261 110.745 12.39C110.943 13.1538 111.056 13.9742 111.056 14.8229C111.056 15.6716 110.943 16.4921 110.745 17.2559C110.547 18.0197 110.207 18.7553 109.783 19.406C109.358 20.0849 108.764 20.5942 108 20.9902C107.237 21.3297 106.331 21.5277 105.341 21.5277ZM105.341 19.3777C105.935 19.3777 106.473 19.2362 106.925 18.9533C107.378 18.6704 107.746 18.3026 108 17.8217C108.255 17.3691 108.453 16.8598 108.566 16.3506C108.679 15.8414 108.764 15.3039 108.764 14.7663C108.764 14.2005 108.708 13.663 108.566 13.1255C108.453 12.6163 108.255 12.107 108 11.6544C107.746 11.2018 107.378 10.834 106.925 10.5511C106.473 10.2682 105.935 10.1267 105.341 10.1267C104.549 10.1267 103.87 10.3813 103.333 10.8906C102.795 11.3998 102.427 11.9656 102.229 12.6446C102.031 13.2952 101.918 14.0025 101.918 14.7663C101.918 15.3322 101.975 15.8697 102.116 16.3789C102.229 16.8881 102.427 17.3974 102.682 17.85C102.936 18.3026 103.304 18.6704 103.757 18.9533C104.181 19.2645 104.719 19.3777 105.341 19.3777Z" fill="white"/>
<path d="M112.951 21.3007V11.7669H115.13V12.757C115.526 11.9366 116.176 11.5405 117.082 11.5405C117.761 11.5405 118.355 11.7669 118.864 12.1912L118.553 14.1998C118.072 13.8603 117.534 13.6906 116.94 13.6906C116.431 13.6906 116.007 13.8603 115.667 14.1998C115.328 14.5393 115.158 15.1334 115.158 15.9538V21.3007H112.951Z" fill="white"/>
<path d="M123.22 25.035L122.06 23.281C123.362 23.1962 124.267 22.9981 124.776 22.6869C125.285 22.3757 125.54 21.8948 125.54 21.2158V20.6783C125.031 21.2441 124.295 21.527 123.362 21.527C122.202 21.527 121.24 21.1027 120.504 20.2257C119.769 19.3487 119.401 18.1322 119.401 16.5196C119.401 14.9637 119.769 13.7472 120.504 12.8702C121.24 11.9932 122.202 11.5405 123.362 11.5405C124.267 11.5405 124.974 11.7951 125.512 12.3327V11.7669H127.69V20.3671C127.69 21.9514 127.351 23.083 126.672 23.7903C126.021 24.4975 124.861 24.9219 123.22 25.035ZM123.729 19.4335C124.521 19.4335 125.116 19.1224 125.512 18.5V14.5676C125.087 13.9452 124.465 13.634 123.729 13.634C123.05 13.634 122.513 13.8886 122.145 14.3696C121.777 14.8788 121.608 15.5861 121.608 16.5479C121.608 17.4532 121.806 18.1605 122.173 18.6697C122.541 19.1789 123.05 19.4335 123.729 19.4335Z" fill="white"/>
<path d="M135.188 21.3007V20.5369C134.566 21.1875 133.717 21.527 132.642 21.527C131.624 21.527 130.803 21.2441 130.153 20.7066C129.502 20.1408 129.191 19.377 129.191 18.3585C129.191 17.3118 129.559 16.5479 130.294 16.0104C131.03 15.4729 131.907 15.2183 132.925 15.2183C133.831 15.2183 134.594 15.388 135.188 15.7275V15.2183C135.188 14.5959 135.047 14.1715 134.736 13.8886C134.425 13.6057 133.972 13.4643 133.321 13.4643C132.275 13.4643 131.341 13.7755 130.492 14.3696L129.813 12.5873C130.86 11.88 132.105 11.5405 133.548 11.5405C134.057 11.5405 134.481 11.5688 134.877 11.6537C135.245 11.7386 135.641 11.88 136.065 12.1346C136.462 12.3609 136.773 12.757 136.999 13.2662C137.225 13.7755 137.339 14.3979 137.339 15.1617V21.3007H135.188ZM133.067 19.6033C133.887 19.6033 134.623 19.2921 135.188 18.698V17.4532C134.651 17.1986 134 17.0572 133.293 17.0572C132.699 17.0572 132.246 17.1703 131.879 17.3683C131.511 17.5664 131.341 17.9059 131.341 18.3302C131.341 18.7263 131.482 19.0092 131.794 19.2355C132.105 19.4618 132.501 19.6033 133.067 19.6033Z" fill="white"/>
<path d="M145.145 21.3007V15.8407C145.145 14.3696 144.551 13.6057 143.363 13.6057C142.061 13.6057 141.411 14.3413 141.411 15.7841V21.3007H139.232V11.7669H141.411V12.6721C142.033 11.9366 142.882 11.5405 143.928 11.5405C144.919 11.5405 145.739 11.8517 146.361 12.4741C146.984 13.0965 147.295 14.0867 147.295 15.4446V21.3007H145.145Z" fill="white"/>
<path d="M151.286 10.0704C151.031 10.325 150.72 10.4665 150.38 10.4665C150.013 10.4665 149.701 10.325 149.447 10.0704C149.192 9.81581 149.051 9.50461 149.051 9.13684C149.051 8.76906 149.192 8.45787 149.447 8.23154C149.701 7.97693 150.013 7.86377 150.38 7.86377C150.748 7.86377 151.059 7.97693 151.286 8.23154C151.54 8.48616 151.654 8.79735 151.654 9.13684C151.654 9.5329 151.54 9.81581 151.286 10.0704ZM149.277 21.3017V11.7678H151.455V21.3017H149.277Z" fill="white"/>
<path d="M152.868 21.301V19.5469L157.876 13.7191H153.236V11.7671H160.563V13.4362L155.584 19.3772H160.563V21.3292H152.868V21.301Z" fill="white"/>
<path d="M167.722 21.3007V20.5369C167.099 21.1875 166.251 21.527 165.176 21.527C164.157 21.527 163.337 21.2441 162.686 20.7066C162.036 20.1408 161.724 19.377 161.724 18.3585C161.724 17.3118 162.092 16.5479 162.828 16.0104C163.563 15.4729 164.44 15.2183 165.459 15.2183C166.364 15.2183 167.128 15.388 167.722 15.7275V15.2183C167.722 14.5959 167.58 14.1715 167.269 13.8886C166.958 13.6057 166.505 13.4643 165.855 13.4643C164.808 13.4643 163.874 13.7755 163.026 14.3696L162.347 12.5873C163.393 11.88 164.638 11.5405 166.081 11.5405C166.59 11.5405 167.015 11.5688 167.411 11.6537C167.778 11.7386 168.175 11.88 168.599 12.1346C168.995 12.3609 169.306 12.757 169.532 13.2662C169.759 13.7755 169.872 14.3979 169.872 15.1617V21.3007H167.722ZM165.6 19.6033C166.421 19.6033 167.156 19.2921 167.722 18.698V17.4532C167.184 17.1986 166.534 17.0572 165.826 17.0572C165.232 17.0572 164.78 17.1703 164.412 17.3683C164.044 17.5664 163.874 17.9059 163.874 18.3302C163.874 18.7263 164.016 19.0092 164.327 19.2355C164.638 19.4618 165.034 19.6033 165.6 19.6033Z" fill="white"/>
<path d="M175.587 21.527C174.285 21.527 173.239 21.0744 172.475 20.1974C171.711 19.3204 171.315 18.1039 171.315 16.5479C171.315 14.992 171.711 13.7755 172.475 12.8702C173.239 11.9932 174.285 11.5405 175.587 11.5405C177.567 11.5405 178.812 12.4175 179.378 14.1715L177.313 14.8505C177.001 14.0301 176.464 13.6057 175.672 13.6057C175.021 13.6057 174.484 13.8603 174.116 14.3979C173.748 14.9071 173.55 15.6426 173.55 16.5196C173.55 17.3966 173.72 18.1039 174.087 18.6131C174.455 19.1224 174.936 19.377 175.559 19.377C176.436 19.377 177.03 18.9243 177.284 17.9907L179.378 18.6131C178.869 20.5935 177.595 21.527 175.587 21.527Z" fill="white"/>
<path d="M182.857 10.0704C182.602 10.325 182.291 10.4665 181.951 10.4665C181.584 10.4665 181.272 10.325 181.018 10.0704C180.763 9.81581 180.622 9.50461 180.622 9.13684C180.622 8.76906 180.763 8.45787 181.018 8.23154C181.272 7.97693 181.584 7.86377 181.951 7.86377C182.319 7.86377 182.63 7.97693 182.857 8.23154C183.111 8.48616 183.224 8.79735 183.224 9.13684C183.224 9.5329 183.111 9.81581 182.857 10.0704ZM180.848 21.3017V11.7678H183.026V21.3017H180.848Z" fill="white"/>
<path d="M188.967 21.5278C187.609 21.5278 186.563 21.0751 185.77 20.1981C184.978 19.3211 184.582 18.1047 184.582 16.5487C184.582 14.9927 184.978 13.7762 185.77 12.8709C186.563 11.9939 187.609 11.5413 188.967 11.5413C190.325 11.5413 191.372 11.9939 192.164 12.8709C192.956 13.7479 193.352 14.9927 193.352 16.5487C193.352 18.1047 192.956 19.3211 192.164 20.1981C191.4 21.1034 190.325 21.5278 188.967 21.5278ZM186.563 10.5511L189.222 7.63721H192.051L188.741 10.5511H186.563ZM188.967 19.4343C189.646 19.4343 190.184 19.1797 190.58 18.6705C190.976 18.1612 191.174 17.454 191.174 16.5487C191.174 15.6434 190.976 14.9361 190.58 14.3986C190.184 13.8611 189.646 13.6065 188.967 13.6065C188.317 13.6065 187.779 13.8611 187.383 14.3986C186.987 14.9361 186.789 15.6434 186.789 16.5487C186.789 17.454 186.987 18.1612 187.383 18.6705C187.779 19.1797 188.288 19.4343 188.967 19.4343Z" fill="white"/>
<path d="M200.85 21.3007V15.8407C200.85 14.3696 200.256 13.6057 199.068 13.6057C197.766 13.6057 197.116 14.3413 197.116 15.7841V21.3007H194.937V11.7669H197.116V12.6721C197.738 11.9366 198.587 11.5405 199.633 11.5405C200.624 11.5405 201.444 11.8517 202.066 12.4741C202.689 13.0965 203 14.0867 203 15.4446V21.3007H200.85Z" fill="white"/>
<path d="M100.163 39.972V26.9019H102.398V39.972H100.163Z" fill="white"/>
<path d="M110.461 39.9731V34.513C110.461 33.0419 109.866 32.2781 108.678 32.2781C107.377 32.2781 106.726 33.0136 106.726 34.4564V39.9731H104.548V30.4392H106.726V31.3445C107.349 30.609 108.197 30.2129 109.244 30.2129C110.234 30.2129 111.055 30.5241 111.677 31.1465C112.299 31.7689 112.611 32.759 112.611 34.117V39.9731H110.461Z" fill="white"/>
<path d="M117.365 40.1999C115.894 40.1999 115.13 39.3795 115.13 37.7669V32.3635H113.716V30.468H115.13V27.5824L117.308 26.5356V30.468H119.515V32.3635H117.308V37.3426C117.308 37.965 117.563 38.2479 118.101 38.2479C118.582 38.2479 119.091 38.1064 119.6 37.8235L119.345 39.7755C118.808 40.0585 118.157 40.1999 117.365 40.1999Z" fill="white"/>
<path d="M124.889 40.1994C123.531 40.1994 122.456 39.7467 121.664 38.8697C120.872 37.9927 120.476 36.748 120.476 35.192C120.476 33.636 120.872 32.4195 121.664 31.5425C122.456 30.6655 123.531 30.2129 124.889 30.2129C126.106 30.2129 127.096 30.5807 127.888 31.3445C128.68 32.1083 129.048 33.2117 129.048 34.6828C129.048 35.192 129.02 35.6446 128.963 36.0407H122.626C122.654 36.7197 122.909 37.2572 123.333 37.6533C123.758 38.0776 124.267 38.2757 124.861 38.2757C125.71 38.2757 126.389 37.9362 126.87 37.2855L128.256 38.7C127.464 39.7185 126.332 40.1994 124.889 40.1994ZM122.683 34.2301H126.898C126.841 33.5512 126.643 33.0136 126.275 32.6742C125.908 32.3064 125.455 32.1366 124.917 32.1366C124.295 32.1366 123.786 32.3064 123.39 32.6459C122.937 32.9853 122.711 33.5229 122.683 34.2301Z" fill="white"/>
<path d="M130.576 39.9731V30.4392H132.754V31.4294C133.15 30.609 133.801 30.2129 134.706 30.2129C135.385 30.2129 135.979 30.4392 136.488 30.8636L136.177 32.8722C135.696 32.5327 135.159 32.363 134.564 32.363C134.055 32.363 133.631 32.5327 133.291 32.8722C132.952 33.2117 132.782 33.8058 132.782 34.6262V39.9731H130.576Z" fill="white"/>
<path d="M143.477 39.9731V34.513C143.477 33.0419 142.883 32.2781 141.695 32.2781C140.394 32.2781 139.743 33.0136 139.743 34.4564V39.9731H137.565V30.4392H139.743V31.3445C140.365 30.609 141.214 30.2129 142.261 30.2129C143.251 30.2129 144.071 30.5241 144.694 31.1465C145.316 31.7689 145.627 32.759 145.627 34.117V39.9731H143.477Z" fill="white"/>
<path d="M153.039 39.9731V39.2092C152.417 39.8599 151.568 40.1994 150.493 40.1994C149.475 40.1994 148.654 39.9165 148.004 39.379C147.353 38.8132 147.042 38.0493 147.042 37.0309C147.042 35.9841 147.41 35.2203 148.145 34.6828C148.881 34.1453 149.758 33.8906 150.776 33.8906C151.682 33.8906 152.445 34.0604 153.039 34.3999V33.8906C153.039 33.2683 152.898 32.8439 152.587 32.561C152.276 32.2781 151.823 32.1366 151.172 32.1366C150.126 32.1366 149.192 32.4478 148.343 33.0419L147.664 31.2596C148.711 30.5524 149.956 30.2129 151.399 30.2129C151.908 30.2129 152.332 30.2412 152.728 30.3261C153.096 30.4109 153.492 30.5524 153.916 30.807C154.313 31.0333 154.624 31.4294 154.85 31.9386C155.076 32.4478 155.19 33.0702 155.19 33.8341V39.9731H153.039ZM150.918 38.2757C151.738 38.2757 152.474 37.9645 153.039 37.3704V36.1256C152.502 35.871 151.851 35.7295 151.144 35.7295C150.55 35.7295 150.097 35.8427 149.73 36.0407C149.362 36.2387 149.192 36.5782 149.192 37.0026C149.192 37.3986 149.333 37.6816 149.645 37.9079C149.956 38.1342 150.352 38.2757 150.918 38.2757Z" fill="white"/>
<path d="M160.903 40.1994C159.602 40.1994 158.555 39.7467 157.792 38.8697C157.028 37.9927 156.632 36.7763 156.632 35.2203C156.632 33.6643 157.028 32.4478 157.792 31.5425C158.555 30.6655 159.602 30.2129 160.903 30.2129C162.884 30.2129 164.129 31.0899 164.694 32.8439L162.629 33.5229C162.318 32.7024 161.78 32.2781 160.988 32.2781C160.338 32.2781 159.8 32.5327 159.432 33.0702C159.065 33.5794 158.867 34.315 158.867 35.192C158.867 36.069 159.036 36.7763 159.404 37.2855C159.772 37.7947 160.253 38.0493 160.875 38.0493C161.752 38.0493 162.346 37.5967 162.601 36.6631L164.694 37.2855C164.185 39.2658 162.912 40.1994 160.903 40.1994Z" fill="white"/>
<path d="M168.203 28.7423C167.948 28.9969 167.637 29.1384 167.297 29.1384C166.93 29.1384 166.619 28.9969 166.364 28.7423C166.109 28.4877 165.968 28.1765 165.968 27.8087C165.968 27.4409 166.109 27.1297 166.364 26.9034C166.619 26.6488 166.93 26.5356 167.297 26.5356C167.665 26.5356 167.976 26.6488 168.203 26.9034C168.457 27.158 168.571 27.4692 168.571 27.8087C168.571 28.2048 168.429 28.4877 168.203 28.7423ZM166.166 39.9736V30.4397H168.344V39.9736H166.166Z" fill="white"/>
<path d="M174.313 40.1994C172.956 40.1994 171.909 39.7467 171.117 38.8697C170.325 37.9927 169.928 36.7763 169.928 35.2203C169.928 33.6643 170.325 32.4478 171.117 31.5425C171.909 30.6655 172.956 30.2129 174.313 30.2129C175.671 30.2129 176.718 30.6655 177.51 31.5425C178.302 32.4195 178.698 33.6643 178.698 35.2203C178.698 36.7763 178.302 37.9927 177.51 38.8697C176.718 39.775 175.671 40.1994 174.313 40.1994ZM174.313 38.1059C174.992 38.1059 175.53 37.8513 175.926 37.3421C176.322 36.8328 176.52 36.1256 176.52 35.2203C176.52 34.315 176.322 33.6077 175.926 33.0702C175.53 32.561 174.992 32.2781 174.313 32.2781C173.663 32.2781 173.125 32.5327 172.729 33.0702C172.333 33.6077 172.135 34.315 172.135 35.2203C172.135 36.1256 172.333 36.8328 172.729 37.3421C173.097 37.8513 173.634 38.1059 174.313 38.1059Z" fill="white"/>
<path d="M186.195 39.9731V34.513C186.195 33.0419 185.601 32.2781 184.413 32.2781C183.111 32.2781 182.461 33.0136 182.461 34.4564V39.9731H180.282V30.4392H182.461V31.3445C183.083 30.609 183.932 30.2129 184.979 30.2129C185.969 30.2129 186.789 30.5241 187.412 31.1465C188.034 31.7689 188.345 32.759 188.345 34.117V39.9731H186.195Z" fill="white"/>
<path d="M195.757 39.9731V39.2092C195.135 39.8599 194.286 40.1994 193.211 40.1994C192.193 40.1994 191.372 39.9165 190.722 39.379C190.071 38.8132 189.76 38.0493 189.76 37.0309C189.76 35.9841 190.127 35.2203 190.863 34.6828C191.599 34.1453 192.476 33.8906 193.494 33.8906C194.399 33.8906 195.163 34.0604 195.757 34.3999V33.8906C195.757 33.2683 195.616 32.8439 195.305 32.561C194.993 32.2781 194.541 32.1366 193.89 32.1366C192.843 32.1366 191.91 32.4478 191.061 33.0419L190.382 31.2596C191.429 30.5524 192.674 30.2129 194.116 30.2129C194.626 30.2129 195.05 30.2412 195.446 30.3261C195.814 30.4109 196.21 30.5524 196.634 30.807C197.03 31.0333 197.342 31.4294 197.568 31.9386C197.794 32.4478 197.907 33.0702 197.907 33.8341V39.9731H195.757ZM193.635 38.2757C194.456 38.2757 195.191 37.9645 195.757 37.3704V36.1256C195.22 35.871 194.569 35.7295 193.862 35.7295C193.268 35.7295 192.815 35.8427 192.447 36.0407C192.08 36.2387 191.91 36.5782 191.91 37.0026C191.91 37.3986 192.051 37.6816 192.362 37.9079C192.674 38.1342 193.07 38.2757 193.635 38.2757Z" fill="white"/>
<path d="M199.859 39.9731V27.5253L202.038 26.5068V40.0013H199.859V39.9731Z" fill="white"/>
<path d="M103.389 58.8703C102.173 58.8703 101.211 58.4176 100.504 57.5406C99.7965 56.6636 99.4287 55.4188 99.4287 53.8629C99.4287 52.3352 99.7965 51.1187 100.532 50.2134C101.268 49.3081 102.229 48.8555 103.389 48.8555C104.323 48.8555 105.03 49.1666 105.539 49.7607V46.1396L107.718 45.1494V58.6439H105.539V57.965C105.058 58.5873 104.323 58.8703 103.389 58.8703ZM103.701 56.7768C104.521 56.7768 105.115 56.4656 105.511 55.8715V51.8825C105.087 51.2601 104.493 50.9772 103.701 50.9772C103.022 50.9772 102.512 51.2318 102.145 51.7411C101.777 52.2503 101.607 52.9576 101.607 53.8911C101.607 54.7681 101.805 55.4754 102.173 56.0129C102.541 56.5221 103.05 56.7768 103.701 56.7768Z" fill="white"/>
<path d="M113.715 58.8708C112.357 58.8708 111.282 58.4181 110.49 57.5411C109.697 56.6641 109.301 55.4194 109.301 53.8634C109.301 52.3074 109.697 51.0909 110.49 50.2139C111.282 49.3369 112.357 48.8843 113.715 48.8843C114.931 48.8843 115.921 49.2521 116.714 50.0159C117.506 50.7797 117.873 51.8831 117.873 53.3542C117.873 53.8634 117.845 54.316 117.789 54.7121H111.451C111.48 55.3911 111.734 55.9286 112.159 56.3246C112.583 56.749 113.092 56.947 113.686 56.947C114.535 56.947 115.214 56.6076 115.695 55.9569L117.081 57.3714C116.261 58.3898 115.129 58.8708 113.715 58.8708ZM111.48 52.9015H115.695C115.638 52.2225 115.44 51.685 115.073 51.3455C114.705 50.9778 114.252 50.808 113.715 50.808C113.092 50.808 112.583 50.9778 112.187 51.3172C111.763 51.6567 111.536 52.1943 111.48 52.9015Z" fill="white"/>
<path d="M119.43 58.6444V46.1967L121.608 45.1782V58.6727H119.43V58.6444Z" fill="white"/>
<path d="M133.631 47.7248V58.6449H131.396V47.7248H127.69V45.5747H137.365V47.7248H133.631Z" fill="white"/>
<path d="M137.281 58.6445V49.1106H139.459V50.1008C139.855 49.2803 140.506 48.8843 141.411 48.8843C142.09 48.8843 142.684 49.1106 143.193 49.535L142.882 51.5436C142.401 51.2041 141.864 51.0343 141.27 51.0343C140.76 51.0343 140.336 51.2041 139.996 51.5436C139.657 51.8831 139.487 52.4772 139.487 53.2976V58.6445H137.281Z" fill="white"/>
<path d="M149.672 58.6445V57.8806C149.049 58.5313 148.2 58.8708 147.125 58.8708C146.107 58.8708 145.287 58.5879 144.636 58.0504C143.985 57.4846 143.674 56.7207 143.674 55.7023C143.674 54.6555 144.042 53.8917 144.777 53.3542C145.513 52.8166 146.39 52.562 147.408 52.562C148.314 52.562 149.077 52.7318 149.672 53.0713V52.562C149.672 51.9396 149.53 51.5153 149.219 51.2324C148.908 50.9495 148.455 50.808 147.804 50.808C146.758 50.808 145.824 51.1192 144.975 51.7133L144.296 49.931C145.343 49.2238 146.588 48.8843 148.031 48.8843C148.54 48.8843 148.964 48.9126 149.36 48.9974C149.728 49.0823 150.124 49.2238 150.549 49.4784C150.945 49.7047 151.256 50.1008 151.482 50.61C151.708 51.1192 151.822 51.7416 151.822 52.5054V58.6445H149.672ZM147.521 56.947C148.342 56.947 149.077 56.6358 149.643 56.0417V54.797C149.106 54.5424 148.455 54.4009 147.748 54.4009C147.154 54.4009 146.701 54.5141 146.333 54.7121C145.966 54.9101 145.796 55.2496 145.796 55.674C145.796 56.07 145.937 56.3529 146.248 56.5793C146.56 56.8056 146.984 56.947 147.521 56.947Z" fill="white"/>
<path d="M158.018 58.8703C157.112 58.8703 156.405 58.5591 155.896 57.9084V58.6439H153.717V46.1396L155.896 45.1494V49.789C156.433 49.1666 157.141 48.8555 158.046 48.8555C159.234 48.8555 160.196 49.3081 160.903 50.2134C161.639 51.1187 162.007 52.3352 162.007 53.8629C162.007 55.4471 161.639 56.6919 160.932 57.5689C160.224 58.4459 159.262 58.8703 158.018 58.8703ZM157.763 56.7768C158.442 56.7768 158.951 56.5221 159.291 56.0129C159.658 55.5037 159.828 54.7964 159.828 53.8629C159.828 52.9293 159.658 52.1937 159.291 51.6845C158.923 51.1753 158.414 50.9489 157.763 50.9489C156.943 50.9489 156.32 51.2601 155.924 51.8825V55.8715C156.292 56.4939 156.914 56.7768 157.763 56.7768Z" fill="white"/>
<path d="M169.08 58.6445V57.8806C168.457 58.5313 167.609 58.8708 166.534 58.8708C165.515 58.8708 164.695 58.5879 164.044 58.0504C163.393 57.4846 163.082 56.7207 163.082 55.7023C163.082 54.6555 163.45 53.8917 164.186 53.3542C164.921 52.8166 165.798 52.562 166.817 52.562C167.722 52.562 168.486 52.7318 169.08 53.0713V52.562C169.08 51.9396 168.938 51.5153 168.627 51.2324C168.316 50.9495 167.863 50.808 167.213 50.808C166.166 50.808 165.232 51.1192 164.384 51.7133L163.705 49.931C164.751 49.2238 165.996 48.8843 167.439 48.8843C167.948 48.8843 168.373 48.9126 168.769 48.9974C169.136 49.0823 169.532 49.2238 169.957 49.4784C170.353 49.7047 170.664 50.1008 170.89 50.61C171.117 51.1192 171.23 51.7416 171.23 52.5054V58.6445H169.08ZM166.93 56.947C167.75 56.947 168.486 56.6358 169.052 56.0417V54.797C168.514 54.5424 167.863 54.4009 167.156 54.4009C166.562 54.4009 166.109 54.5141 165.742 54.7121C165.374 54.9101 165.204 55.2496 165.204 55.674C165.204 56.07 165.346 56.3529 165.657 56.5793C165.968 56.8056 166.392 56.947 166.93 56.947Z" fill="white"/>
<path d="M171.569 62.6622L170.494 60.9931C171.484 60.795 172.191 60.5121 172.559 60.2009C172.927 59.8897 173.125 59.4371 173.125 58.8147V49.1111H175.303V58.164C175.303 59.5503 174.992 60.5404 174.398 61.1911C173.719 61.8984 172.785 62.3793 171.569 62.6622ZM175.133 47.4137C174.879 47.6683 174.567 47.8097 174.228 47.8097C173.86 47.8097 173.549 47.6683 173.294 47.4137C173.04 47.1591 172.898 46.8479 172.898 46.4801C172.898 46.1123 173.04 45.8011 173.294 45.5748C173.549 45.3202 173.86 45.207 174.228 45.207C174.596 45.207 174.907 45.3202 175.133 45.5748C175.388 45.8294 175.501 46.1406 175.501 46.4801C175.529 46.8762 175.388 47.1591 175.133 47.4137Z" fill="white"/>
<path d="M181.244 58.8708C179.886 58.8708 178.84 58.4181 178.048 57.5411C177.255 56.6641 176.859 55.4476 176.859 53.8917C176.859 52.3357 177.255 51.1192 178.048 50.2139C178.84 49.3369 179.886 48.8843 181.244 48.8843C182.602 48.8843 183.649 49.3369 184.441 50.2139C185.233 51.0909 185.629 52.3357 185.629 53.8917C185.629 55.4476 185.233 56.6641 184.441 57.5411C183.677 58.4464 182.602 58.8708 181.244 58.8708ZM181.244 56.7773C181.923 56.7773 182.461 56.5227 182.857 56.0135C183.253 55.5042 183.451 54.797 183.451 53.8917C183.451 52.9864 183.253 52.2791 182.857 51.7416C182.461 51.2041 181.923 50.9495 181.244 50.9495C180.594 50.9495 180.056 51.2041 179.66 51.7416C179.264 52.2791 179.066 52.9864 179.066 53.8917C179.066 54.797 179.264 55.5042 179.66 56.0135C180.056 56.5227 180.594 56.7773 181.244 56.7773Z" fill="white"/>
<path d="M20.2918 19.0964C19.924 19.7188 19.8109 19.9734 19.8109 19.9734C19.528 20.5109 18.849 20.7938 18.2832 20.5675L17.2647 20.1715C16.6989 19.9451 16.0482 20.2563 15.8502 20.8221L15.0581 22.8873C14.8318 23.4531 15.1429 24.1038 15.7088 24.3018L16.7272 24.6979C17.293 24.9242 17.6325 25.5749 17.491 26.169L17.0384 28.404C16.9535 28.9981 16.3594 29.479 15.7653 29.4507L14.662 29.4224C14.0679 29.3941 13.5587 29.8751 13.5304 30.4974L13.4455 32.7041C13.4172 33.2982 13.8982 33.8074 14.5206 33.8357L15.6239 33.864C16.218 33.8923 16.7838 34.4015 16.8121 34.9956L17.1233 37.2589C17.2364 37.8529 16.8404 38.4753 16.2746 38.6734L15.1995 39.0129C14.6337 39.1826 14.2942 39.805 14.464 40.3991L15.4259 43.5676L21.3668 41.7287C18.651 35.0805 18.9056 27.3006 22.7814 20.5958C26.6571 13.891 33.2771 9.76059 40.378 8.79871L39.02 2.68799L35.7949 3.42354C35.2008 3.56499 34.8331 4.15909 34.9745 4.75319L35.2291 5.85651C35.3706 6.45061 35.0028 7.10129 34.437 7.29932L32.3152 8.17633C31.7777 8.43094 31.0421 8.20462 30.731 7.69539L30.1369 6.76181C29.8257 6.25258 29.1467 6.08284 28.6092 6.42232L26.742 7.58223C26.2328 7.89342 26.063 8.57239 26.4025 9.10991L26.9966 10.0435C27.3078 10.5527 27.1947 11.2883 26.7137 11.656L24.988 13.1837C24.5636 13.6081 23.7998 13.6364 23.3472 13.2403L22.4984 12.533C22.0175 12.137 21.3385 12.2219 20.9425 12.7028L19.5562 14.4002C19.1602 14.8811 19.2451 15.5601 19.726 15.9562L20.5747 16.6634C21.0556 17.0595 21.1688 17.7668 20.8293 18.276C20.801 18.2477 20.6596 18.474 20.2918 19.0964Z" fill="white"/>
<path d="M43.2364 58.8435C43.9437 58.8435 44.2548 58.8152 44.2548 58.8152C44.8489 58.7869 45.443 59.2396 45.5279 59.8337L45.6977 60.937C45.7825 61.5311 46.3483 61.9554 46.9707 61.8423L49.1491 61.5028C49.7432 61.4179 50.1675 60.8238 50.0544 60.2297L49.8846 59.1547C49.7998 58.5606 50.1958 57.9382 50.7616 57.7685L52.94 57.0329C53.5058 56.8066 54.2131 57.0612 54.496 57.5987L55.0052 58.5606C55.2881 59.0981 55.9671 59.2961 56.5046 59.0132L58.4566 57.9665C58.9941 57.6836 59.1922 57.0046 58.9093 56.4671L58.3717 55.4769C58.0888 54.9394 58.2586 54.2322 58.7395 53.8644L60.5501 52.4782C61.0028 52.0821 61.7666 52.1104 62.191 52.5064L63.0114 53.2703C63.464 53.6946 64.143 53.6664 64.5673 53.2137L66.8306 50.809L62.2758 46.5938C57.8908 52.2801 50.988 55.9296 43.2647 55.9296C35.5131 55.9296 28.6386 52.2801 24.2535 46.5938L19.6988 50.809L21.962 53.2137C22.3864 53.6664 23.0653 53.6946 23.518 53.2703L24.3384 52.5064C24.7911 52.0821 25.5266 52.0821 25.9793 52.4782L27.7898 53.8644C28.2708 54.2039 28.4688 54.9394 28.1576 55.4769L27.6201 56.4671C27.3372 57.0046 27.5352 57.6836 28.0727 57.9665L30.0248 59.0132C30.5623 59.2961 31.2413 59.0981 31.5242 58.5606L32.0334 57.5987C32.3163 57.0612 33.0236 56.8066 33.5894 57.0329L35.7677 57.7685C36.3618 57.9382 36.7579 58.5606 36.6447 59.1547L36.475 60.2297C36.3901 60.8238 36.7862 61.3896 37.3803 61.5028L39.5586 61.8423C40.1527 61.9271 40.7185 61.5311 40.8317 60.937L41.0015 59.8337C41.0863 59.2396 41.6804 58.7869 42.2745 58.8152C42.2179 58.8152 42.5008 58.8435 43.2364 58.8435Z" fill="white"/>
<path d="M66.1791 19.1247C65.8113 18.5023 65.6699 18.2477 65.6699 18.2477C65.3304 17.7385 65.4436 17.0029 65.9245 16.6351L66.7732 15.9279C67.2541 15.5318 67.3107 14.8529 66.9429 14.3719L65.5567 12.6745C65.1607 12.1936 64.4817 12.137 64.0007 12.5048L63.152 13.212C62.6711 13.6081 61.9355 13.5515 61.5112 13.1554L59.7855 11.6278C59.3045 11.26 59.1914 10.5244 59.5026 10.0152L60.0967 9.08162C60.4079 8.57239 60.2664 7.89342 59.7572 7.55394L57.89 6.39403C57.3808 6.08283 56.7018 6.22429 56.3623 6.73351L55.7682 7.6671C55.457 8.17632 54.7498 8.40265 54.184 8.14803L52.0622 7.27103C51.4964 7.073 51.1286 6.42232 51.2701 5.82822L51.5247 4.7249C51.6661 4.1308 51.2984 3.5367 50.7043 3.39525L47.4509 2.68799L46.0646 8.74213C53.1938 9.704 59.7855 13.8344 63.6613 20.5392C67.537 27.244 67.7917 35.0239 65.0758 41.6721L71.0168 43.511L71.9786 40.3425C72.1484 39.7767 71.8372 39.1543 71.2431 38.9563L70.1681 38.6168C69.6022 38.447 69.2062 37.7964 69.3193 37.2023L69.6305 34.939C69.6871 34.3449 70.2246 33.8357 70.8187 33.8074L71.9221 33.7791C72.5161 33.7508 72.9971 33.2416 72.9971 32.6475L72.9122 30.4409C72.8839 29.8468 72.3747 29.3658 71.7806 29.3658L70.6773 29.3941C70.0832 29.4224 69.4891 28.9415 69.4042 28.3474L68.9516 26.1124C68.8101 25.5183 69.1496 24.8677 69.7154 24.6413L70.7339 24.2453C71.2997 24.0189 71.5826 23.3966 71.3845 22.8307L70.5924 20.7655C70.3661 20.1997 69.7437 19.9168 69.1779 20.1149L68.1594 20.5109C67.5936 20.7373 66.9147 20.4544 66.6318 19.9168C66.66 20.0017 66.5186 19.7188 66.1791 19.1247Z" fill="white"/>
<path d="M8.80539 18.5864C8.77771 18.6141 8.77771 18.6418 8.77771 18.6418C8.77771 18.6418 8.80539 18.6141 8.80539 18.5864Z" fill="white"/>
<path d="M18.2836 6.11072L18.3684 6.22389C18.6231 6.05414 19.5283 5.40346 20.6034 5.09227C26.6009 3.39485 26.2898 1.32965 28.8359 0.113161L28.751 0C28.4964 0.169742 27.7326 0.622389 26.6292 0.622389C19.6132 0.70726 20.1507 4.80937 18.2836 6.11072Z" fill="white"/>
<path d="M11.2975 13.9174L11.4389 14.0023C12.8535 12.418 14.2397 12.1351 14.466 12.0503C20.0392 10.4094 21.9913 6.70339 23.4906 5.65664L23.4341 5.57177C21.3689 7.04287 18.9359 5.54348 14.7489 10.0134C14.7206 10.0417 14.6075 9.87191 14.6075 9.87191C18.0023 5.7981 18.0872 3.02564 19.6432 1.49796L19.5583 1.41309C9.68493 7.32578 14.0134 10.5509 11.2975 13.9174Z" fill="white"/>
<path d="M11.7213 7.10156C2.41378 16.3242 8.18502 18.6723 6.74221 23.2554L6.82708 23.2837C7.67579 21.3316 9.82586 20.4829 9.88244 20.4546C13.8148 18.644 15.0596 14.0327 16.6438 12.6465L16.559 12.5899C14.6352 14.6834 11.4667 13.4952 8.86399 18.6723C8.86399 18.7006 8.69424 18.5875 8.69424 18.5875C10.7877 14.0893 9.79757 10.0155 11.8062 7.18643C11.7779 7.15814 11.7496 7.10156 11.7213 7.10156Z" fill="white"/>
<path d="M4.95961 35.5044H5.10106C5.07277 34.9668 4.93132 32.7885 7.10968 30.7516C11.523 26.6495 10.7874 23.0283 12.598 20.1993L12.4566 20.1144C11.042 22.5191 5.89319 25.1501 5.69516 28.8278L5.49713 28.7995C6.26097 23.5092 3.46022 20.0012 4.9879 16.6347C4.93132 16.6064 4.87474 16.5781 4.84645 16.5498C-1.06624 28.743 3.82799 28.5732 4.95961 35.5044Z" fill="white"/>
<path d="M7.22259 47.047L7.36405 46.9904C6.14756 44.2463 8.18447 40.5119 8.26934 40.3139C10.9569 35.1085 10.0516 30.384 10.674 28.7431L10.5326 28.7148C9.08976 32.2794 5.12911 34.2315 5.7515 40.229H5.55346C4.93107 36.4947 0.687516 32.9301 0.828967 28.8563C0.800677 28.8563 0.772387 28.8563 0.744096 28.8563C-1.85862 43.3127 5.66662 43.2278 7.22259 47.047Z" fill="white"/>
<path d="M13.2486 57.7412L13.3618 57.6564C10.8439 54.601 11.6078 51.291 11.6643 51.0647C12.9091 43.8507 10.5893 42.5493 10.5327 39.2959H10.4196C10.3064 42.9454 6.57207 47.0475 9.96692 52.1397L9.79718 52.2529C6.06285 46.7929 3.09236 48.1225 1.33835 42.719C1.28177 42.719 1.22519 42.7473 1.1969 42.7756C3.77132 58.6465 10.8439 53.8372 13.2486 57.7412Z" fill="white"/>
<path d="M27.8173 64.6725L27.789 64.5311C22.8664 65.5213 20.3486 64.5594 19.4716 60.0329C18.2268 53.6676 13.8984 51.2346 13.3892 48.6885C13.3043 48.6885 13.276 48.6885 13.276 48.7168C14.2096 53.2149 12.0312 55.8742 17.4347 61.2494L17.2932 61.3626C12.0878 57.2322 8.49492 58.7599 6.42972 55.8742C6.40143 55.9025 6.34485 55.9308 6.34485 55.9591C12.7668 66.7095 19.6979 67.2753 27.8173 64.6725Z" fill="white"/>
<path d="M15.6524 66.5113L15.6807 66.4547C22.3006 70.3022 29.2318 64.927 37.6057 64.729C39.6992 64.6724 46.008 65.0685 51.7792 71.7733L50.2515 72.1976C48.3561 68.8877 45.4139 66.483 42.7263 65.8323C35.0879 63.9368 34.9464 71.0377 26.4876 71.1509C20.2072 71.2641 15.907 66.7659 15.6524 66.5113Z" fill="white"/>
<path d="M77.5526 18.5864C77.5803 18.6141 77.5803 18.6418 77.5803 18.6418C77.5803 18.6418 77.5803 18.6141 77.5526 18.5864Z" fill="white"/>
<path d="M77.5526 18.5864C77.5803 18.6141 77.5803 18.6418 77.5803 18.6418C77.5803 18.6418 77.5803 18.6141 77.5526 18.5864Z" fill="white"/>
<path d="M8.80539 18.5864C8.77771 18.6141 8.77771 18.6418 8.77771 18.6418C8.77771 18.6418 8.80539 18.6141 8.80539 18.5864Z" fill="white"/>
<path d="M77.5526 18.5864C77.5803 18.6141 77.5803 18.6418 77.5803 18.6418C77.5803 18.6418 77.5803 18.6141 77.5526 18.5864Z" fill="white"/>
<path d="M68.0754 6.11072L67.9905 6.22389C67.7359 6.05414 66.8306 5.40346 65.7556 5.09227C59.758 3.39485 60.0692 1.32965 57.5231 0.113161L57.6079 0C57.8626 0.169742 58.6264 0.622389 59.7297 0.622389C66.774 0.70726 66.2365 4.80937 68.0754 6.11072Z" fill="white"/>
<path d="M75.0627 13.9174L74.9495 14.0023C73.535 12.418 72.1488 12.1351 71.9225 12.0503C66.3493 10.4094 64.3972 6.70339 62.8978 5.65664L62.9544 5.57177C65.0196 7.04287 67.4526 5.54348 71.6396 10.0134C71.6678 10.0417 71.781 9.87191 71.781 9.87191C68.3862 5.76981 68.3013 2.99735 66.7453 1.49796L66.8302 1.41309C76.7035 7.32578 72.3468 10.5509 75.0627 13.9174Z" fill="white"/>
<path d="M74.6676 7.10156C83.9752 16.3242 78.1757 18.6723 79.6468 23.2837L79.5619 23.312C78.7132 21.3599 76.5631 20.5112 76.5065 20.4829C72.5742 18.6723 71.3294 14.061 69.7451 12.6748L69.83 12.5899C71.7537 14.6834 74.9223 13.4952 77.525 18.6723C77.525 18.7006 77.6947 18.5875 77.6947 18.5875C75.6012 14.0893 76.5914 10.0155 74.5828 7.18643C74.6111 7.15814 74.6394 7.10156 74.6676 7.10156Z" fill="white"/>
<path d="M81.4288 35.5044H81.2873C81.3156 34.9668 81.457 32.7885 79.2787 30.7516C74.8654 26.6495 75.6009 23.0283 73.7903 20.1993L73.9318 20.1144C75.3463 22.5191 80.4952 25.1501 80.6932 28.8278L80.8912 28.7995C80.1274 23.5092 82.9281 20.0012 81.4005 16.6347C81.457 16.6064 81.5136 16.5781 81.5419 16.5498C87.4546 28.743 82.5321 28.5732 81.4288 35.5044Z" fill="white"/>
<path d="M79.1372 47.047L78.9958 46.9904C80.2122 44.2463 78.1753 40.5119 78.0905 40.3139C75.4029 35.1085 76.3082 30.384 75.6858 28.7431L75.8272 28.7148C77.2701 32.2794 81.2307 34.2315 80.6083 40.229H80.8064C81.4287 36.4947 85.6723 32.9301 85.5308 28.8563C85.5591 28.8563 85.5874 28.8563 85.6157 28.8563C88.2184 43.3127 80.7215 43.2278 79.1372 47.047Z" fill="white"/>
<path d="M73.1392 57.7412L73.026 57.6564C75.5438 54.601 74.78 51.291 74.7234 51.0647C73.4786 43.8507 75.7985 42.5493 75.855 39.2959H75.9682C76.0814 42.9454 79.8157 47.0475 76.4208 52.1397L76.5906 52.2529C80.3249 46.7929 83.2954 48.1225 85.0494 42.719C85.106 42.719 85.1626 42.7473 85.1909 42.7756C82.5882 58.6465 75.5156 53.8372 73.1392 57.7412Z" fill="white"/>
<path d="M58.5408 64.6725L58.5691 64.5311C63.4917 65.5213 66.0095 64.5594 66.8865 60.0329C68.1313 53.6676 72.4597 51.2346 72.9689 48.6885C73.0538 48.6885 73.0821 48.6885 73.0821 48.7168C72.1485 53.2149 74.3269 55.8742 68.9234 61.2494L69.0649 61.3626C74.2703 57.2322 77.8632 58.7599 79.9284 55.8742C79.9567 55.9025 80.0132 55.9308 80.0132 55.9591C73.6196 66.7095 66.6885 67.2753 58.5408 64.6725Z" fill="white"/>
<path d="M70.7063 66.5113L70.678 66.4547C64.0581 70.3022 57.1269 64.927 48.753 64.729C46.6595 64.6724 40.3507 65.0685 34.5795 71.7733L36.1071 72.1976C38.0026 68.8877 40.9448 66.483 43.6324 65.8323C51.2708 63.9368 51.4122 71.0377 59.8711 71.1509C66.1798 71.2641 70.48 66.7659 70.7063 66.5113Z" fill="white"/>
<path d="M8.80539 18.5864C8.77771 18.6141 8.77771 18.6418 8.77771 18.6418C8.77771 18.6418 8.80539 18.6141 8.80539 18.5864Z" fill="white"/>
<path d="M8.80539 18.5864C8.77771 18.6141 8.77771 18.6418 8.77771 18.6418C8.77771 18.6418 8.80539 18.6141 8.80539 18.5864Z" fill="white"/>
<path d="M77.5526 18.5864C77.5803 18.6141 77.5803 18.6418 77.5803 18.6418C77.5803 18.6418 77.5803 18.6141 77.5526 18.5864Z" fill="white"/>
<path d="M45.5843 18.5297C45.6692 17.3132 46.9706 17.2283 46.9706 17.2283H48.6963V15.644H38.54V17.2283H40.2658C40.2658 17.2283 41.5671 17.3132 41.652 18.5297V44.9529C41.5671 46.1694 40.2658 46.2542 40.2658 46.2542H38.54V47.8385H48.6963V46.2542H46.9706C46.9706 46.2542 45.6692 46.1694 45.5843 44.9529V18.5297Z" fill="white"/>
<path d="M62.1331 20.9912V27.8658H60.86V25.9986C60.86 25.9986 61.1712 21.9248 56.7296 22.2926V40.5116C56.7296 40.5116 56.8428 41.5866 58.8514 41.4452V42.6051H51.1847V41.4452C53.2216 41.5583 53.3065 40.5116 53.3065 40.5116V22.2926C48.9215 21.9248 49.2044 25.9986 49.2044 25.9986V27.8658H47.9313V20.9912H62.1331Z" fill="white"/>
<path d="M30.9875 20.311H30.8743C27.7907 20.311 24.7919 22.2914 23.3208 25.6296C22.557 27.327 22.3872 29.5054 22.3872 31.6272C22.3872 33.749 22.557 35.9273 23.3208 37.6247C24.7919 40.9347 27.7907 43.2262 30.8743 43.2262H30.9875C34.0711 43.2262 37.0699 40.963 38.541 37.6247C39.3049 35.9273 39.4746 33.749 39.4746 31.6272C39.4746 29.5054 39.3049 27.327 38.541 25.6296C37.0416 22.3197 34.0711 20.311 30.9875 20.311ZM35.7403 31.7686C35.7403 33.749 35.6837 35.4747 35.6837 35.4747C35.5705 37.0872 35.5422 38.7281 34.7784 39.8314C33.9297 41.1045 32.5718 41.7551 31.1855 41.7551L31.1289 41.7834H30.9592L30.9026 41.7551C29.5447 41.7551 28.1584 41.1045 27.3097 39.8314C26.5459 38.7281 26.5176 37.0872 26.4044 35.4747C26.4044 35.4747 26.3479 33.7773 26.3479 31.8252V31.7403C26.3479 29.76 26.4044 28.0343 26.4044 28.0343C26.5176 26.4218 26.5459 24.7809 27.3097 23.6776C28.1584 22.4045 29.5164 21.7538 30.9026 21.7538L30.9592 21.7256H31.1289L31.1855 21.7538C32.5435 21.7538 33.9297 22.4045 34.7784 23.6776C35.5422 24.7809 35.5705 26.4218 35.6837 28.0343C35.6837 28.0343 35.7403 29.7317 35.7403 31.6838V31.7686Z" fill="white"/>
</svg>
